<svg width="32" height="32" viewBox="0 0 32 32" fill="none" xmlns="http://www.w3.org/2000/svg">
<path fill-rule="evenodd" clip-rule="evenodd" d="M29.3332 16C29.3332 23.3638 23.3636 29.3334 15.9998 29.3334C8.63604 29.3334 2.6665 23.3638 2.6665 16C2.6665 8.63622 8.63604 2.66669 15.9998 2.66669C23.3636 2.66669 29.3332 8.63622 29.3332 16ZM11.9593 11.9596C12.3499 11.569 12.983 11.569 13.3736 11.9596L15.9998 14.5858L18.626 11.9596C19.0165 11.5691 19.6497 11.5691 20.0402 11.9596C20.4308 12.3501 20.4308 12.9833 20.0402 13.3738L17.414 16L20.0402 18.6262C20.4308 19.0167 20.4308 19.6499 20.0402 20.0404C19.6497 20.431 19.0165 20.431 18.626 20.0404L15.9998 17.4143L13.3736 20.0404C12.9831 20.431 12.3499 20.431 11.9594 20.0404C11.5689 19.6499 11.5689 19.0167 11.9594 18.6263L14.5856 16L11.9593 13.3738C11.5688 12.9832 11.5688 12.3501 11.9593 11.9596Z" fill="#1F3250" fill-opacity="0.4"/>
</svg>
