<svg width="18" height="18" viewBox="0 0 18 18" fill="none" xmlns="http://www.w3.org/2000/svg">
<path d="M16.3199 6.2626C16.2495 6.18027 16.1621 6.11418 16.0637 6.06886C15.9653 6.02355 15.8582 6.00009 15.7499 6.0001H2.24991C2.14045 5.99868 2.03202 6.02125 1.93221 6.06621C1.8324 6.11116 1.74365 6.17742 1.67218 6.26033C1.6007 6.34324 1.54825 6.44079 1.51849 6.54613C1.48872 6.65147 1.48238 6.76204 1.49991 6.8701L2.90241 15.2476C2.96152 15.6012 3.1453 15.9219 3.42046 16.1516C3.69562 16.3814 4.04397 16.505 4.40241 16.5001H13.6274C13.9858 16.505 14.3342 16.3814 14.6094 16.1516C14.8845 15.9219 15.0683 15.6012 15.1274 15.2476L16.4999 6.8701C16.5161 6.76184 16.5083 6.65135 16.4772 6.54641C16.4461 6.44146 16.3924 6.34459 16.3199 6.2626ZM6.74991 12.7501C6.74991 12.949 6.67089 13.1398 6.53024 13.2804C6.38958 13.4211 6.19882 13.5001 5.99991 13.5001C5.80099 13.5001 5.61023 13.4211 5.46958 13.2804C5.32892 13.1398 5.24991 12.949 5.24991 12.7501V9.7501C5.24991 9.55118 5.32892 9.36042 5.46958 9.21977C5.61023 9.07911 5.80099 9.0001 5.99991 9.0001C6.19882 9.0001 6.38958 9.07911 6.53024 9.21977C6.67089 9.36042 6.74991 9.55118 6.74991 9.7501V12.7501ZM9.74991 12.7501C9.74991 12.949 9.67089 13.1398 9.53024 13.2804C9.38958 13.4211 9.19882 13.5001 8.99991 13.5001C8.80099 13.5001 8.61023 13.4211 8.46958 13.2804C8.32892 13.1398 8.24991 12.949 8.24991 12.7501V9.7501C8.24991 9.55118 8.32892 9.36042 8.46958 9.21977C8.61023 9.07911 8.80099 9.0001 8.99991 9.0001C9.19882 9.0001 9.38958 9.07911 9.53024 9.21977C9.67089 9.36042 9.74991 9.55118 9.74991 9.7501V12.7501ZM12.7499 12.7501C12.7499 12.949 12.6709 13.1398 12.5302 13.2804C12.3896 13.4211 12.1988 13.5001 11.9999 13.5001C11.801 13.5001 11.6102 13.4211 11.4696 13.2804C11.3289 13.1398 11.2499 12.949 11.2499 12.7501V9.7501C11.2499 9.55118 11.3289 9.36042 11.4696 9.21977C11.6102 9.07911 11.801 9.0001 11.9999 9.0001C12.1988 9.0001 12.3896 9.07911 12.5302 9.21977C12.6709 9.36042 12.7499 9.55118 12.7499 9.7501V12.7501ZM6.53991 5.2501H4.95741L6.03741 2.0101C6.10106 1.82113 6.23717 1.66519 6.4158 1.57658C6.50425 1.5327 6.60047 1.50668 6.69898 1.49999C6.79748 1.4933 6.89634 1.50608 6.98991 1.5376C7.08347 1.56911 7.16992 1.61875 7.2443 1.68368C7.31868 1.7486 7.37955 1.82754 7.42343 1.91599C7.4673 2.00444 7.49333 2.10066 7.50001 2.19917C7.5067 2.29767 7.49392 2.39653 7.46241 2.4901L6.53991 5.2501ZM10.5374 2.4901C10.4738 2.29616 10.4898 2.08488 10.5819 1.90273C10.674 1.72059 10.8347 1.5825 11.0287 1.51885C11.2226 1.4552 11.4339 1.47119 11.616 1.56332C11.7982 1.65545 11.9363 1.81616 11.9999 2.0101L13.0424 5.2501H11.4599L10.5374 2.4901Z" fill="#B1591B"/>
</svg>
