<svg width="36" height="36" viewBox="0 0 36 36" fill="none" xmlns="http://www.w3.org/2000/svg">
<path fill-rule="evenodd" clip-rule="evenodd" d="M18.078 1.875H17.922C16.5742 1.87496 15.4504 1.87493 14.5583 1.99487C13.6166 2.12148 12.7664 2.39999 12.0832 3.08319C11.4 3.7664 11.1215 4.6166 10.9949 5.55828C10.9089 6.19784 10.8846 7.72721 10.8777 9.03849C7.84431 9.13757 6.02304 9.49167 4.75735 10.7574C3 12.5147 3 15.3432 3 21C3 26.6568 3 29.4853 4.75735 31.2426C6.51471 33 9.34314 33 15 33H21C26.6568 33 29.4853 33 31.2426 31.2426C33 29.4853 33 26.6568 33 21C33 15.3432 33 12.5147 31.2426 10.7574C29.9769 9.49167 28.1557 9.13757 25.1223 9.03849C25.1154 7.72721 25.0911 6.19784 25.0051 5.55828C24.8785 4.6166 24.6 3.7664 23.9167 3.08319C23.2336 2.39999 22.3834 2.12148 21.4417 1.99487C20.5495 1.87493 19.4257 1.87496 18.078 1.875ZM22.8718 9.00282C22.8651 7.73285 22.8435 6.36611 22.7752 5.8581C22.6821 5.1659 22.5213 4.86966 22.3258 4.67418C22.1304 4.4787 21.8341 4.31787 21.1419 4.22481C20.4174 4.1274 19.446 4.125 18 4.125C16.554 4.125 15.5826 4.1274 14.8581 4.22481C14.1659 4.31787 13.8697 4.4787 13.6742 4.67418C13.4787 4.86966 13.3179 5.1659 13.2248 5.8581C13.1565 6.36611 13.1349 7.73285 13.1281 9.00282C13.7152 9 14.3383 9 15 9H21C21.6618 9 22.2847 9 22.8718 9.00282ZM18 13.875C18.6213 13.875 19.125 14.3787 19.125 15V15.0153C20.7582 15.4267 22.125 16.7145 22.125 18.5C22.125 19.1213 21.6213 19.625 21 19.625C20.3787 19.625 19.875 19.1213 19.875 18.5C19.875 17.924 19.2363 17.1251 18 17.1251C16.7637 17.1251 16.125 17.924 16.125 18.5C16.125 19.0761 16.7637 19.875 18 19.875C20.0773 19.875 22.125 21.3147 22.125 23.5C22.125 25.2855 20.7582 26.5732 19.125 26.9847V27C19.125 27.6213 18.6213 28.125 18 28.125C17.3787 28.125 16.875 27.6213 16.875 27V26.9847C15.2418 26.5732 13.875 25.2855 13.875 23.5C13.875 22.8787 14.3787 22.375 15 22.375C15.6213 22.375 16.125 22.8787 16.125 23.5C16.125 24.076 16.7637 24.8749 18 24.8749C19.2363 24.8749 19.875 24.076 19.875 23.5C19.875 22.9239 19.2363 22.125 18 22.125C15.9226 22.125 13.875 20.6854 13.875 18.5C13.875 16.7145 15.2418 15.4267 16.875 15.0153V15C16.875 14.3787 17.3787 13.875 18 13.875Z" fill="#FFD8BC"/>
</svg>
