<svg width="36" height="36" viewBox="0 0 36 36" fill="none" xmlns="http://www.w3.org/2000/svg">
<path fill-rule="evenodd" clip-rule="evenodd" d="M28.4999 3C29.3283 3 29.9999 3.67157 29.9999 4.5V12C29.9999 12.8284 29.3283 13.5 28.4999 13.5H20.9999C20.1715 13.5 19.4999 12.8284 19.4999 12C19.4999 11.1716 20.1715 10.5 20.9999 10.5H25.3487C24.6284 9.79385 23.8068 9.19192 22.9063 8.71618C21.1693 7.79841 19.2112 7.38648 17.2518 7.52693C15.2922 7.66739 13.4096 8.35512 11.8215 9.5111L11.8215 9.5111C10.2332 10.6672 9.00109 12.2456 8.2652 14.067C7.95486 14.8351 7.08062 15.2062 6.31251 14.8959C5.54441 14.5855 5.17331 13.7113 5.48364 12.9432C6.42979 10.6014 8.01394 8.57195 10.056 7.08559L10.9387 8.29834L10.056 7.08559C12.0982 5.59911 14.5182 4.71517 17.0374 4.5346C19.5567 4.35402 22.0747 4.88379 24.3078 6.06365C25.283 6.57888 26.1861 7.20908 26.9999 7.93724V4.5C26.9999 3.67157 27.6715 3 28.4999 3ZM29.6882 21.1049C30.4563 21.4152 30.8274 22.2895 30.5171 23.0576C29.5709 25.3993 27.9867 27.4287 25.9447 28.915C23.9024 30.4017 21.4846 31.2846 18.9656 31.4651C16.4465 31.6457 13.9265 31.1162 11.6932 29.9361C10.7179 29.4207 9.81423 28.7904 8.99991 28.0619V31.5C8.99991 32.3284 8.32833 33 7.49991 33C6.67148 33 5.99991 32.3284 5.99991 31.5V24C5.99991 23.1716 6.67148 22.5 7.49991 22.5H14.9999C15.8283 22.5 16.4999 23.1716 16.4999 24C16.4999 24.8284 15.8283 25.5 14.9999 25.5H10.6519C11.3723 26.2059 12.1942 26.8078 13.0947 27.2835L13.0948 27.2836C14.8315 28.2013 16.7915 28.6132 18.7511 28.4728C20.7108 28.3323 22.5911 27.6456 24.1791 26.4896L24.1792 26.4895C25.7675 25.3335 26.9996 23.755 27.7355 21.9337C28.0459 21.1656 28.9201 20.7945 29.6882 21.1049Z" fill="#FFD8BC"/>
</svg>
