<svg width="18" height="18" viewBox="0 0 18 18" fill="none" xmlns="http://www.w3.org/2000/svg">
<path d="M16.3199 6.26248C16.2495 6.18015 16.1621 6.11406 16.0637 6.06874C15.9653 6.02343 15.8582 5.99997 15.7499 5.99997H2.24991C2.14045 5.99856 2.03202 6.02113 1.93221 6.06608C1.8324 6.11104 1.74365 6.1773 1.67218 6.26021C1.6007 6.34312 1.54825 6.44067 1.51849 6.54601C1.48872 6.65135 1.48238 6.76192 1.49991 6.86997L2.90241 15.2475C2.96152 15.601 3.1453 15.9217 3.42046 16.1515C3.69562 16.3813 4.04397 16.5049 4.40241 16.5H13.6274C13.9858 16.5049 14.3342 16.3813 14.6094 16.1515C14.8845 15.9217 15.0683 15.601 15.1274 15.2475L16.4999 6.86997C16.5161 6.76171 16.5083 6.65123 16.4772 6.54628C16.4461 6.44134 16.3924 6.34447 16.3199 6.26248ZM6.74991 12.75C6.74991 12.9489 6.67089 13.1397 6.53024 13.2803C6.38958 13.421 6.19882 13.5 5.99991 13.5C5.80099 13.5 5.61023 13.421 5.46958 13.2803C5.32892 13.1397 5.24991 12.9489 5.24991 12.75V9.74997C5.24991 9.55106 5.32892 9.3603 5.46958 9.21964C5.61023 9.07899 5.80099 8.99997 5.99991 8.99997C6.19882 8.99997 6.38958 9.07899 6.53024 9.21964C6.67089 9.3603 6.74991 9.55106 6.74991 9.74997V12.75ZM9.74991 12.75C9.74991 12.9489 9.67089 13.1397 9.53024 13.2803C9.38958 13.421 9.19882 13.5 8.99991 13.5C8.80099 13.5 8.61023 13.421 8.46958 13.2803C8.32892 13.1397 8.24991 12.9489 8.24991 12.75V9.74997C8.24991 9.55106 8.32892 9.3603 8.46958 9.21964C8.61023 9.07899 8.80099 8.99997 8.99991 8.99997C9.19882 8.99997 9.38958 9.07899 9.53024 9.21964C9.67089 9.3603 9.74991 9.55106 9.74991 9.74997V12.75ZM12.7499 12.75C12.7499 12.9489 12.6709 13.1397 12.5302 13.2803C12.3896 13.421 12.1988 13.5 11.9999 13.5C11.801 13.5 11.6102 13.421 11.4696 13.2803C11.3289 13.1397 11.2499 12.9489 11.2499 12.75V9.74997C11.2499 9.55106 11.3289 9.3603 11.4696 9.21964C11.6102 9.07899 11.801 8.99997 11.9999 8.99997C12.1988 8.99997 12.3896 9.07899 12.5302 9.21964C12.6709 9.3603 12.7499 9.55106 12.7499 9.74997V12.75ZM6.53991 5.24997H4.95741L6.03741 2.00997C6.10106 1.82101 6.23717 1.66507 6.4158 1.57646C6.50425 1.53258 6.60047 1.50656 6.69898 1.49987C6.79748 1.49318 6.89634 1.50596 6.98991 1.53747C7.08347 1.56899 7.16992 1.61863 7.2443 1.68355C7.31868 1.74848 7.37955 1.82742 7.42343 1.91587C7.4673 2.00431 7.49333 2.10054 7.50001 2.19904C7.5067 2.29755 7.49392 2.39641 7.46241 2.48997L6.53991 5.24997ZM10.5374 2.48997C10.4738 2.29604 10.4898 2.08475 10.5819 1.90261C10.674 1.72046 10.8347 1.58238 11.0287 1.51873C11.2226 1.45507 11.4339 1.47107 11.616 1.5632C11.7982 1.65532 11.9363 1.81604 11.9999 2.00997L13.0424 5.24997H11.4599L10.5374 2.48997Z" fill="#B1591B"/>
</svg>
