<svg width="24" height="24" viewBox="0 0 24 24" fill="none" xmlns="http://www.w3.org/2000/svg">
<path fill-rule="evenodd" clip-rule="evenodd" d="M4.17181 3.17157C3.00024 4.34315 3.00024 6.22876 3.00024 10V14C3.00024 17.7712 3.00024 19.6569 4.17181 20.8284C5.34339 22 7.229 22 11.0002 22H13.0002C16.7714 22 18.6571 22 19.8286 20.8284C21.0002 19.6569 21.0002 17.7712 21.0002 14V10C21.0002 6.22876 21.0002 4.34315 19.8286 3.17157C18.6571 2 16.7714 2 13.0002 2H11.0002C7.229 2 5.34339 2 4.17181 3.17157ZM8.00024 9.25C7.58603 9.25 7.25024 9.58579 7.25024 10C7.25024 10.4142 7.58603 10.75 8.00024 10.75H16.0002C16.4144 10.75 16.7502 10.4142 16.7502 10C16.7502 9.58579 16.4144 9.25 16.0002 9.25H8.00024ZM8.00024 13.25C7.58603 13.25 7.25024 13.5858 7.25024 14C7.25024 14.4142 7.58603 14.75 8.00024 14.75H13.0002C13.4144 14.75 13.7502 14.4142 13.7502 14C13.7502 13.5858 13.4144 13.25 13.0002 13.25H8.00024Z" fill="#FFD8BC"/>
</svg>
