<svg width="28" height="28" viewBox="0 0 28 28" fill="none" xmlns="http://www.w3.org/2000/svg">
<g clip-path="url(#clip0_1_7183)">
<path d="M26.5066 1.10938L15.6443 9.17697L17.653 4.4172L26.5066 1.10938Z" fill="#E2761B"/>
<path fill-rule="evenodd" clip-rule="evenodd" d="M26.5545 1.0832C26.5674 1.10708 26.5609 1.13689 26.5391 1.1531L15.6767 9.22069C15.657 9.23537 15.6298 9.235 15.6105 9.2198C15.5911 9.2046 15.5843 9.17833 15.5939 9.15565L17.6026 4.39588C17.6084 4.38204 17.6197 4.37122 17.6338 4.36597L26.4874 1.05815C26.5129 1.04863 26.5415 1.05931 26.5545 1.0832ZM17.694 4.46L15.7723 9.01375L26.1644 1.29536L17.694 4.46Z" fill="#E2761B"/>
<path d="M1.43045 1.10938L12.2054 9.25338L10.295 4.4172L1.43045 1.10938ZM22.5983 19.81L19.7053 24.2423L25.8952 25.9453L27.6747 19.9083L22.5983 19.81ZM0.28418 19.9083L2.05272 25.9453L8.2426 24.2423L5.34962 19.81L0.28418 19.9083Z" fill="#E4761B"/>
<path fill-rule="evenodd" clip-rule="evenodd" d="M1.38251 1.08301C1.39555 1.05925 1.42405 1.04867 1.44943 1.05814L10.314 4.36596C10.3284 4.37137 10.34 4.38267 10.3456 4.39705L12.2561 9.23324C12.2651 9.25599 12.2578 9.28194 12.2384 9.29675C12.2189 9.31155 12.1919 9.31159 12.1724 9.29684L1.39744 1.15283C1.37582 1.13649 1.36946 1.10676 1.38251 1.08301ZM1.7614 1.29107L12.0831 9.0925L10.253 4.45975L1.7614 1.29107ZM5.34846 19.7554C5.36727 19.755 5.38495 19.7643 5.39523 19.7801L8.28821 24.2124C8.29774 24.227 8.29972 24.2452 8.29355 24.2615C8.28737 24.2778 8.27379 24.2902 8.25698 24.2948L2.06709 25.9979C2.03837 26.0058 2.00861 25.9892 2.00023 25.9606L0.231694 19.9235C0.226913 19.9072 0.230012 19.8896 0.240075 19.8759C0.250138 19.8622 0.266016 19.8539 0.283019 19.8536L5.34846 19.7554ZM22.5525 19.7801C22.5628 19.7643 22.5805 19.755 22.5993 19.7554L27.6756 19.8536C27.6927 19.8539 27.7086 19.8622 27.7186 19.8759C27.7287 19.8897 27.7318 19.9073 27.7269 19.9236L25.9475 25.9607C25.9391 25.9892 25.9093 26.0058 25.8807 25.9979L19.6908 24.2948C19.674 24.2902 19.6604 24.2778 19.6542 24.2615C19.648 24.2452 19.65 24.227 19.6595 24.2124L22.5525 19.7801ZM0.356537 19.9614L2.0899 25.8784L8.15591 24.2094L5.32034 19.8651L0.356537 19.9614ZM22.6274 19.8651L19.7918 24.2094L25.8579 25.8784L27.602 19.9614L22.6274 19.8651Z" fill="#E4761B"/>
<path d="M7.89308 12.3211L6.16821 14.9302L12.3144 15.2031L12.0961 8.59839L7.89308 12.3211ZM20.0436 12.3211L15.786 8.52197L15.6441 15.2031L21.7794 14.9302L20.0436 12.3211ZM8.24242 24.2423L11.9323 22.441L8.7446 19.952L8.24242 24.2423ZM16.0043 22.441L19.7052 24.2423L19.1921 19.952L16.0043 22.441Z" fill="#E4761B"/>
<path fill-rule="evenodd" clip-rule="evenodd" d="M15.7644 8.47182C15.7839 8.46332 15.8066 8.46696 15.8225 8.48114L20.0801 12.2802C20.0835 12.2833 20.0866 12.2868 20.0892 12.2907L21.825 14.8999C21.8359 14.9162 21.8371 14.9372 21.8282 14.9548C21.8193 14.9724 21.8016 14.9837 21.782 14.9846L15.6467 15.2575C15.6316 15.2582 15.6169 15.2526 15.6061 15.2421C15.5953 15.2315 15.5893 15.217 15.5897 15.2019L15.7316 8.52071C15.732 8.49941 15.7448 8.48032 15.7644 8.47182ZM15.8382 8.64148L15.7 15.1459L21.6805 14.8799L20.0022 12.357L15.8382 8.64148ZM12.1178 8.54815C12.1372 8.55651 12.1501 8.57535 12.1508 8.59649L12.3691 15.2012C12.3696 15.2164 12.3638 15.2311 12.3529 15.2418C12.3421 15.2525 12.3273 15.2582 12.3121 15.2575L6.16593 14.9846C6.14629 14.9838 6.12864 14.9724 6.11972 14.9549C6.11079 14.9374 6.11198 14.9164 6.12282 14.9L7.84769 12.2909C7.85032 12.2869 7.85346 12.2833 7.85703 12.2801L12.06 8.55743C12.0759 8.5434 12.0984 8.53979 12.1178 8.54815ZM7.9348 12.357L6.26701 14.8798L12.2581 15.1459L12.0455 8.71613L7.9348 12.357ZM8.7237 19.9015C8.7419 19.8939 8.76279 19.8967 8.77834 19.9088L11.9661 22.3979C11.9809 22.4095 11.9887 22.4279 11.9868 22.4466C11.9848 22.4653 11.9733 22.4817 11.9564 22.49L8.26651 24.2913C8.24857 24.3 8.22729 24.2983 8.211 24.2867C8.19472 24.2752 8.18603 24.2557 8.18835 24.2359L8.69053 19.9455C8.69282 19.9259 8.7055 19.9091 8.7237 19.9015ZM19.2132 19.9015C19.2314 19.909 19.2441 19.9258 19.2464 19.9454L19.7595 24.2357C19.7619 24.2556 19.7532 24.2751 19.737 24.2867C19.7207 24.2983 19.6994 24.3 19.6814 24.2913L15.9806 22.49C15.9637 22.4818 15.9522 22.4654 15.9502 22.4466C15.9482 22.4279 15.956 22.4095 15.9709 22.3979L19.1586 19.9088C19.1742 19.8967 19.195 19.8939 19.2132 19.9015ZM8.78767 20.0546L8.30839 24.1493L11.83 22.4302L8.78767 20.0546ZM16.107 22.4301L19.6392 24.1493L19.1495 20.0545L16.107 22.4301Z" fill="#E4761B"/>
<path d="M19.7052 24.2422L16.0043 22.4409L16.2991 24.8536L16.2664 25.8688L19.7052 24.2422ZM8.24243 24.2422L11.6813 25.8688L11.6594 24.8536L11.9323 22.4409L8.24243 24.2422Z" fill="#D7C1B3"/>
<path fill-rule="evenodd" clip-rule="evenodd" d="M15.9728 22.3964C15.9891 22.3848 16.0104 22.383 16.0284 22.3917L19.7292 24.193C19.7481 24.2022 19.76 24.2214 19.7599 24.2424C19.7598 24.2634 19.7476 24.2825 19.7287 24.2914L16.2898 25.9181C16.2726 25.9262 16.2525 25.9248 16.2366 25.9144C16.2207 25.9039 16.2113 25.886 16.2119 25.867L16.2446 24.8559L15.9503 22.4474C15.9479 22.4276 15.9565 22.408 15.9728 22.3964ZM11.964 22.3962C11.9802 22.4077 11.989 22.4272 11.9867 22.447L11.7142 24.8559L11.736 25.8675C11.7364 25.8865 11.727 25.9042 11.7111 25.9145C11.6952 25.9248 11.6752 25.9262 11.6581 25.9181L8.21923 24.2914C8.20026 24.2825 8.18812 24.2634 8.18799 24.2424C8.18786 24.2215 8.19977 24.2023 8.21863 24.1931L11.9085 22.3918C11.9264 22.383 11.9477 22.3847 11.964 22.3962ZM16.0708 22.5338L16.3534 24.8468C16.3538 24.8496 16.3539 24.8524 16.3538 24.8552L16.3239 25.7812L19.5792 24.2414L16.0708 22.5338ZM8.36859 24.2413L11.6249 25.7816L11.605 24.8546C11.6049 24.8522 11.6051 24.8497 11.6053 24.8473L11.8671 22.5335L8.36859 24.2413Z" fill="#D7C1B3"/>
<path d="M11.7358 18.358L8.65723 17.4519L10.8297 16.4585L11.7358 18.358ZM16.2008 18.358L17.1069 16.4585L19.2903 17.4519L16.2008 18.358Z" fill="#233447"/>
<path fill-rule="evenodd" clip-rule="evenodd" d="M10.8071 16.4088C10.8342 16.3964 10.8663 16.408 10.8791 16.4349L11.7852 18.3344C11.7945 18.3539 11.7914 18.377 11.7775 18.3934C11.7635 18.4098 11.7412 18.4164 11.7205 18.4103L8.64196 17.5042C8.62011 17.4978 8.60455 17.4785 8.60292 17.4557C8.6013 17.433 8.61395 17.4117 8.63467 17.4022L10.8071 16.4088ZM17.0578 16.4349C17.0706 16.408 17.1026 16.3964 17.1297 16.4087L19.313 17.4022C19.3338 17.4116 19.3465 17.433 19.3449 17.4557C19.3433 17.4785 19.3277 17.4978 19.3058 17.5042L16.2163 18.4103C16.1956 18.4164 16.1734 18.4097 16.1594 18.3933C16.1454 18.3769 16.1424 18.3539 16.1517 18.3344L17.0578 16.4349ZM17.1332 16.5303L16.3028 18.2712L19.1343 17.4408L17.1332 16.5303ZM8.81293 17.4407L11.634 18.271L10.8037 16.5304L8.81293 17.4407Z" fill="#233447"/>
<path d="M8.24259 24.2423L8.7666 19.81L5.34961 19.9083L8.24259 24.2423ZM19.1813 19.81L19.7053 24.2423L22.5983 19.9083L19.1813 19.81ZM21.7795 14.9302L15.6442 15.2031L16.2119 18.3581L17.118 16.4585L19.3014 17.452L21.7795 14.9302ZM8.65743 17.452L10.8408 16.4585L11.736 18.3581L12.3146 15.2031L6.16838 14.9302L8.65743 17.452Z" fill="#CD6116"/>
<path fill-rule="evenodd" clip-rule="evenodd" d="M6.11839 14.9079C6.12751 14.8874 6.14826 14.8745 6.1707 14.8755L12.3169 15.1485C12.3327 15.1492 12.3474 15.1567 12.3572 15.169C12.367 15.1813 12.371 15.1973 12.3682 15.2128L11.7896 18.3678C11.7853 18.3912 11.7665 18.409 11.7429 18.4121C11.7194 18.4152 11.6966 18.4027 11.6865 18.3812L10.8143 16.5304L8.67993 17.5016C8.6591 17.511 8.63456 17.5065 8.61848 17.4902L6.12943 14.9684C6.11365 14.9524 6.10927 14.9284 6.11839 14.9079ZM21.8293 14.9079C21.8384 14.9283 21.8341 14.9523 21.8184 14.9683L19.3402 17.4901C19.3242 17.5065 19.2996 17.5111 19.2787 17.5016L17.1441 16.5303L16.2611 18.3815C16.2509 18.4029 16.228 18.4152 16.2046 18.4121C16.1811 18.4089 16.1623 18.391 16.1581 18.3676L15.5904 15.2127C15.5876 15.1972 15.5917 15.1812 15.6015 15.1689C15.6113 15.1566 15.626 15.1492 15.6417 15.1485L21.777 14.8755C21.7994 14.8745 21.8202 14.8874 21.8293 14.9079ZM6.30488 14.9908L8.66941 17.3864L10.8181 16.4088C10.8453 16.3964 10.8774 16.4082 10.8901 16.4352L11.7128 18.181L12.2495 15.2547L6.30488 14.9908ZM15.7089 15.2548L16.2355 18.1815L17.0687 16.4349C17.0815 16.4081 17.1134 16.3964 17.1405 16.4088L19.2891 17.3864L21.6433 14.9908L15.7089 15.2548ZM8.80677 19.7731C8.81748 19.7848 8.82257 19.8006 8.8207 19.8163L8.29669 24.2486C8.29401 24.2713 8.27745 24.2899 8.25522 24.2953C8.23298 24.3006 8.20978 24.2915 8.19709 24.2725L5.30411 19.9385C5.29308 19.922 5.2919 19.9008 5.30101 19.8831C5.31012 19.8655 5.32809 19.8542 5.34794 19.8536L8.76493 19.7554C8.78079 19.7549 8.79606 19.7614 8.80677 19.7731ZM19.1409 19.7731C19.1517 19.7614 19.1669 19.7549 19.1828 19.7554L22.5998 19.8536C22.6196 19.8542 22.6376 19.8655 22.6467 19.8831C22.6558 19.9008 22.6546 19.922 22.6436 19.9385L19.7506 24.2725C19.7379 24.2915 19.7147 24.3006 19.6925 24.2953C19.6703 24.2899 19.6537 24.2713 19.651 24.2486L19.127 19.8163C19.1252 19.8006 19.1302 19.7848 19.1409 19.7731ZM5.44966 19.9599L8.20567 24.0887L8.70487 19.8663L5.44966 19.9599ZM19.2429 19.8663L19.7421 24.0887L22.4981 19.9599L19.2429 19.8663Z" fill="#CD6116"/>
<path d="M6.16821 14.9302L8.7446 19.952L8.65727 17.452L6.16821 14.9302ZM19.3012 17.452L19.1921 19.952L21.7794 14.9302L19.3012 17.452ZM12.3144 15.2031L11.7358 18.3581L12.4563 22.0807L12.6201 17.1791L12.3144 15.2031ZM15.6441 15.2031L15.3493 17.1681L15.4803 22.0807L16.2118 18.3581L15.6441 15.2031Z" fill="#E4751F"/>
<path fill-rule="evenodd" clip-rule="evenodd" d="M21.8115 14.8858C21.8334 14.9017 21.8404 14.9311 21.8281 14.9551L19.2407 19.9768C19.229 19.9996 19.203 20.0112 19.1782 20.0046C19.1534 19.998 19.1366 19.9751 19.1377 19.9495L19.2469 17.4495C19.2474 17.436 19.253 17.4232 19.2625 17.4136L21.7406 14.8918C21.7595 14.8726 21.7897 14.87 21.8115 14.8858ZM6.13636 14.8859C6.15819 14.8701 6.18828 14.8726 6.20721 14.8917L8.69626 17.4135C8.70588 17.4233 8.71149 17.4363 8.71196 17.45L8.7993 19.9499C8.80019 19.9755 8.78323 19.9982 8.75849 20.0047C8.73375 20.0111 8.70785 19.9995 8.69618 19.9768L6.11979 14.955C6.10749 14.931 6.11453 14.9017 6.13636 14.8859ZM6.37913 15.2213L8.68166 19.7093L8.6036 17.4751L6.37913 15.2213ZM19.355 17.4752L19.2576 19.7058L21.5661 15.2251L19.355 17.4752ZM12.3153 15.1484C12.342 15.1488 12.3644 15.1683 12.3685 15.1947L12.6742 17.1706C12.6747 17.174 12.6749 17.1774 12.6748 17.1808L12.511 22.0825C12.5101 22.1102 12.4885 22.1329 12.4608 22.1351C12.4331 22.1372 12.4082 22.1183 12.4029 22.091L11.6824 18.3684C11.6811 18.3617 11.6811 18.3548 11.6823 18.3481L12.2609 15.1932C12.2657 15.167 12.2887 15.148 12.3153 15.1484ZM15.6434 15.1484C15.6701 15.148 15.6932 15.167 15.698 15.1933L16.2656 18.3483C16.2668 18.355 16.2668 18.3618 16.2655 18.3685L15.534 22.0912C15.5287 22.1185 15.5036 22.1374 15.4759 22.135C15.4482 22.1327 15.4267 22.1099 15.4259 22.0821L15.2949 17.1695C15.2948 17.1663 15.295 17.1631 15.2955 17.1599L15.5903 15.1949C15.5942 15.1685 15.6167 15.1488 15.6434 15.1484ZM11.7915 18.3577L12.4181 21.595L12.5655 17.1822L12.31 15.5305L11.7915 18.3577ZM15.6491 15.5384L15.4042 17.1714L15.5219 21.5867L16.1564 18.3575L15.6491 15.5384Z" fill="#E4751F"/>
<path d="M16.2117 18.358L15.4803 22.0807L16.0043 22.4409L19.192 19.9519L19.3012 17.4519L16.2117 18.358ZM8.65723 17.4519L8.74456 19.9519L11.9323 22.4409L12.4563 22.0807L11.7358 18.358L8.65723 17.4519Z" fill="#F6851B"/>
<path fill-rule="evenodd" clip-rule="evenodd" d="M19.335 17.4088C19.3489 17.4197 19.3566 17.4366 19.3559 17.4542L19.2467 19.9542C19.246 19.9701 19.2384 19.985 19.2258 19.9948L16.038 22.4838C16.0193 22.4985 15.9931 22.4993 15.9735 22.4858L15.4495 22.1255C15.4316 22.1132 15.4227 22.0914 15.4269 22.07L16.1583 18.3474C16.1622 18.3274 16.177 18.3113 16.1965 18.3055L19.286 17.3994C19.3029 17.3945 19.3211 17.398 19.335 17.4088ZM8.62391 17.4087C8.63777 17.3979 8.65595 17.3945 8.67278 17.3994L11.7513 18.3055C11.7709 18.3113 11.7856 18.3275 11.7895 18.3475L12.51 22.0702C12.5142 22.0915 12.5053 22.1132 12.4874 22.1255L11.9634 22.4858C11.9437 22.4993 11.9176 22.4985 11.8988 22.4838L8.71111 19.9948C8.69839 19.9849 8.69072 19.9698 8.69015 19.9537L8.60282 17.4537C8.6022 17.4362 8.61005 17.4194 8.62391 17.4087ZM16.259 18.401L15.5409 22.0559L16.0024 22.3732L19.1387 19.9242L19.2435 17.5257L16.259 18.401ZM8.71456 17.5255L11.6887 18.4009L12.3961 22.0558L11.9345 22.3732L8.79837 19.9244L8.71456 17.5255Z" fill="#F6851B"/>
<path d="M16.2664 25.8688L16.2991 24.8535L16.0262 24.6134H11.9105L11.6594 24.8535L11.6813 25.8688L8.24243 24.2422L9.44329 25.2247L11.8778 26.9168H16.0589L18.5043 25.2247L19.7052 24.2422L16.2664 25.8688Z" fill="#C0AD9E"/>
<path fill-rule="evenodd" clip-rule="evenodd" d="M8.19644 24.2129C8.21118 24.1896 8.24099 24.181 8.26592 24.1927L11.6249 25.7816L11.605 24.8546C11.6047 24.8393 11.6108 24.8246 11.6218 24.814L11.8729 24.5738C11.8831 24.5641 11.8966 24.5587 11.9107 24.5587H16.0263C16.0396 24.5587 16.0524 24.5635 16.0624 24.5723L16.3353 24.8125C16.3475 24.8232 16.3543 24.8389 16.3538 24.8552L16.3239 25.7812L19.682 24.1927C19.7069 24.181 19.7367 24.1896 19.7515 24.2129C19.7662 24.2362 19.7612 24.2669 19.7399 24.2843L18.539 25.2669C18.5379 25.2678 18.5367 25.2687 18.5355 25.2695L16.0901 26.9616C16.081 26.9679 16.0702 26.9713 16.0591 26.9713H11.8779C11.8668 26.9713 11.8559 26.9679 11.8468 26.9616L9.41228 25.2694C9.41111 25.2686 9.40997 25.2678 9.40887 25.2669L8.20801 24.2843C8.18667 24.2669 8.1817 24.2362 8.19644 24.2129ZM8.62184 24.4819L9.47634 25.181L11.895 26.8621H16.042L18.4716 25.181L19.3261 24.4819L16.2898 25.9181C16.2726 25.9262 16.2525 25.9248 16.2366 25.9143C16.2207 25.9039 16.2113 25.886 16.2119 25.8669L16.2439 24.8774L16.0057 24.6679H11.9326L11.7147 24.8763L11.736 25.8675C11.7364 25.8864 11.727 25.9042 11.7111 25.9145C11.6952 25.9248 11.6752 25.9261 11.6581 25.9181L8.62184 24.4819Z" fill="#C0AD9E"/>
<path d="M16.0043 22.4408L15.4803 22.0806H12.4564L11.9323 22.4408L11.6594 24.8535L11.9105 24.6133H16.0262L16.2991 24.8535L16.0043 22.4408Z" fill="#161616"/>
<path fill-rule="evenodd" clip-rule="evenodd" d="M12.4256 22.0357C12.4347 22.0295 12.4455 22.0261 12.4565 22.0261H15.4805C15.4915 22.0261 15.5023 22.0295 15.5114 22.0357L16.0354 22.396C16.0483 22.4048 16.0568 22.4188 16.0587 22.4343L16.3534 24.847C16.3562 24.8695 16.3448 24.8913 16.3247 24.9019C16.3047 24.9124 16.2802 24.9095 16.2632 24.8946L16.0057 24.668H11.9326L11.6973 24.893C11.6807 24.9089 11.6559 24.9127 11.6353 24.9025C11.6147 24.8923 11.6027 24.8703 11.6053 24.8475L11.8783 22.4348C11.88 22.4191 11.8885 22.4049 11.9016 22.396L12.4256 22.0357ZM12.4735 22.1353L11.9839 22.4718L11.7307 24.71L11.8729 24.574C11.8831 24.5643 11.8966 24.5588 11.9107 24.5588H16.0263C16.0396 24.5588 16.0524 24.5637 16.0624 24.5725L16.2277 24.7179L15.9533 22.472L15.4635 22.1353H12.4735Z" fill="#161616"/>
<path d="M26.9651 9.70098L27.893 5.24688L26.5066 1.10938L16.0045 8.90404L20.0438 12.321L25.7533 13.9913L27.0197 12.5175L26.4738 12.1245L27.3472 11.3276L26.6703 10.8036L27.5437 10.1377L26.9651 9.70098ZM0.0549316 5.24688L0.982868 9.70098L0.393356 10.1377L1.26671 10.8036L0.600777 11.3276L1.47413 12.1245L0.928284 12.5175L2.18373 13.9913L7.89327 12.321L11.9325 8.90404L1.43046 1.10938L0.0549316 5.24688Z" fill="#763D16"/>
<path fill-rule="evenodd" clip-rule="evenodd" d="M1.41393 1.05722C1.43063 1.05195 1.44883 1.05501 1.46289 1.06544L11.965 8.86011C11.9783 8.87004 11.9864 8.88555 11.987 8.90221C11.9875 8.91886 11.9804 8.93485 11.9677 8.94562L7.92842 12.3626C7.9226 12.3675 7.91581 12.3712 7.90849 12.3733L2.19895 14.0436C2.1783 14.0496 2.15603 14.043 2.14207 14.0266L0.886629 12.5528C0.87674 12.5412 0.872158 12.526 0.873993 12.5109C0.875827 12.4957 0.883911 12.482 0.896287 12.4731L1.38756 12.1194L0.563881 11.3678C0.552034 11.357 0.54554 11.3415 0.546126 11.3255C0.546711 11.3095 0.554315 11.2945 0.566919 11.2846L1.17747 10.8042L0.360156 10.181C0.346509 10.1706 0.33855 10.1543 0.33867 10.1372C0.338789 10.12 0.346972 10.1039 0.360763 10.0937L0.922203 9.67781L0.00139149 5.25791C-0.000573117 5.24848 -7.2635e-06 5.2387 0.00303159 5.22956L1.37856 1.09205C1.38408 1.07544 1.39724 1.06249 1.41393 1.05722ZM26.5228 1.0572C26.5395 1.06244 26.5527 1.07535 26.5582 1.09193L27.9447 5.22944C27.9478 5.23861 27.9483 5.24844 27.9464 5.25791L27.0255 9.67814L27.5765 10.094C27.5901 10.1043 27.5981 10.1203 27.5982 10.1374C27.5982 10.1545 27.5903 10.1706 27.5767 10.181L26.7598 10.8038L27.3805 11.2843C27.3932 11.2942 27.401 11.3092 27.4016 11.3253C27.4023 11.3414 27.3958 11.357 27.3839 11.3678L26.5602 12.1194L27.0515 12.4731C27.0639 12.4821 27.072 12.4958 27.0738 12.511C27.0756 12.5262 27.0709 12.5414 27.061 12.553L25.7946 14.0268C25.7806 14.043 25.7585 14.0496 25.7379 14.0436L20.0284 12.3733C20.021 12.3712 20.0142 12.3675 20.0084 12.3626L15.9692 8.94562C15.9564 8.93485 15.9493 8.91886 15.9499 8.90221C15.9504 8.88555 15.9585 8.87004 15.9719 8.86011L26.474 1.06544C26.488 1.05502 26.5062 1.05196 26.5228 1.0572ZM16.0922 8.90674L20.0701 12.2718L25.7348 13.9289L26.9394 12.527L26.4418 12.1687C26.4285 12.1591 26.4202 12.144 26.4192 12.1276C26.4183 12.1112 26.4248 12.0952 26.4369 12.0841L27.2623 11.3309L26.6368 10.8466C26.6234 10.8363 26.6156 10.8202 26.6157 10.8033C26.6157 10.7863 26.6237 10.7704 26.6371 10.7601L27.4533 10.1378L26.9321 9.74444C26.9153 9.73172 26.9072 9.71042 26.9116 9.68974L27.8365 5.25011L26.4786 1.19793L16.0922 8.90674ZM1.45837 1.19804L0.111265 5.25004L1.0362 9.68974C1.04055 9.71059 1.03237 9.73206 1.01526 9.74474L0.484104 10.1382L1.2997 10.7601C1.31313 10.7703 1.32106 10.7862 1.32119 10.8031C1.32132 10.8199 1.31363 10.8359 1.30036 10.8464L0.685029 11.3306L1.51082 12.0841C1.52297 12.0952 1.52947 12.1112 1.52852 12.1276C1.52757 12.144 1.51927 12.1591 1.50592 12.1687L1.00814 12.5271L2.20224 13.9289L7.86674 12.2718L11.8446 8.90674L1.45837 1.19804Z" fill="#763D16"/>
<path d="M25.7533 13.9914L20.0438 12.3211L21.7796 14.9302L19.1923 19.952L22.5983 19.9083H27.6747L25.7533 13.9914ZM7.89326 12.3211L2.18372 13.9914L0.28418 19.9083H5.34962L8.74478 19.952L6.16839 14.9302L7.89326 12.3211ZM15.6443 15.2031L16.0045 8.90408L17.6639 4.41724H10.295L11.9325 8.90408L12.3146 15.2031L12.4456 17.19L12.4565 22.0808H15.4805L15.5023 17.19L15.6443 15.2031Z" fill="#F6851B"/>
<path fill-rule="evenodd" clip-rule="evenodd" d="M10.2502 4.38584C10.2604 4.37124 10.2771 4.36255 10.2949 4.36255H17.6638C17.6816 4.36255 17.6984 4.37129 17.7086 4.38594C17.7188 4.4006 17.7212 4.41932 17.715 4.43607L16.0584 8.91525L15.6987 15.2062L15.6986 15.2069L15.5568 17.192L15.535 22.0809C15.5349 22.111 15.5105 22.1353 15.4804 22.1353H12.4564C12.4263 22.1353 12.4019 22.1109 12.4018 22.0808L12.3909 17.1918L12.26 15.2066L12.26 15.2063L11.8784 8.91522L10.2436 4.43585C10.2375 4.41911 10.2399 4.40044 10.2502 4.38584ZM10.3729 4.47172L11.9837 8.88527C11.9855 8.89022 11.9866 8.89541 11.9869 8.90068L12.369 15.1994L12.369 15.1997L12.5 17.1863C12.5 17.1875 12.5001 17.1886 12.5001 17.1898L12.5109 22.0261H15.4261L15.4477 17.1897C15.4477 17.1884 15.4477 17.1872 15.4478 17.186L15.5897 15.1999L15.5897 15.1991L15.9499 8.90086C15.9502 8.89546 15.9513 8.89013 15.9532 8.88505L17.5854 4.47172H10.3729ZM7.93708 12.2886C7.95068 12.307 7.95133 12.332 7.93869 12.3511L6.23142 14.9336L8.79324 19.927C8.80198 19.944 8.80116 19.9644 8.79107 19.9806C8.78099 19.9969 8.76312 20.0067 8.74397 20.0065L5.34952 19.9628H0.284077C0.266638 19.9628 0.250249 19.9545 0.239974 19.9404C0.229699 19.9263 0.226775 19.9081 0.232105 19.8915L2.13165 13.9746C2.13718 13.9573 2.15091 13.944 2.16829 13.9389L7.87783 12.2686C7.89982 12.2621 7.92348 12.2701 7.93708 12.2886ZM19.9997 12.2886C20.0133 12.2702 20.037 12.2621 20.059 12.2686L25.7685 13.9389C25.7859 13.9439 25.7996 13.9572 25.8051 13.9744L27.7265 19.8914C27.7319 19.908 27.729 19.9262 27.7187 19.9403C27.7085 19.9544 27.6921 19.9628 27.6746 19.9628H22.5982L19.1929 20.0065C19.1737 20.0067 19.1558 19.9969 19.1457 19.9806C19.1357 19.9643 19.1349 19.9439 19.1436 19.9269L21.7162 14.9336L19.9982 12.3512C19.9855 12.3321 19.9861 12.3071 19.9997 12.2886ZM2.22674 14.0355L0.358929 19.8536H5.35022L8.65473 19.8961L6.11972 14.955C6.11072 14.9375 6.11188 14.9165 6.12275 14.9L7.76542 12.4152L2.22674 14.0355ZM20.1721 12.4154L21.8249 14.8999C21.8359 14.9164 21.8371 14.9375 21.828 14.9551L19.2823 19.8961L22.5975 19.8536L22.5982 19.8536L27.5995 19.8536L25.7102 14.0355L20.1721 12.4154Z" fill="#F6851B"/>
</g>
<defs>
<clipPath id="clip0_1_7183">
<rect width="28" height="28" fill="white" transform="translate(0.000244141)"/>
</clipPath>
</defs>
</svg>
