<svg width="100" height="110" viewBox="0 0 100 110" fill="none" xmlns="http://www.w3.org/2000/svg">
<path d="M0.000244141 46.2919C0.000244141 28.7049 0.000244617 19.9115 2.09758 16.9533C4.19486 13.995 12.5465 11.1648 29.2497 5.50435L32.432 4.42596C41.1391 1.47532 45.4925 0 50.0002 0C54.508 0 58.8614 1.47532 67.5686 4.42596L70.7508 5.50435C87.4541 11.1648 95.8058 13.995 97.903 16.9533C100 19.9115 100 28.7049 100 46.2919C100 48.9478 100 51.8287 100 54.9527C100 85.9617 76.4502 101.01 61.6747 107.4C57.6669 109.133 55.663 110 50.0002 110C44.3375 110 42.3336 109.133 38.3256 107.4C23.55 101.01 0.000244141 85.9617 0.000244141 54.9527C0.000244141 51.8287 0.000244141 48.9478 0.000244141 46.2919Z" fill="url(#paint0_linear_1_7134)"/>
<path d="M4.66724 47.0798C4.66724 31.0839 4.66724 23.0862 6.57482 20.3955C8.48235 17.7049 16.0784 15.1307 31.2704 9.98243L34.1648 9.0016C42.0842 6.31792 46.0436 4.97607 50.1436 4.97607C54.2435 4.97607 58.203 6.31792 66.1225 9.0016L69.0168 9.98243C84.2089 15.1307 91.805 17.7049 93.7125 20.3955C95.6199 23.0862 95.6199 31.0839 95.6199 47.0798C95.6199 49.4954 95.6199 52.1157 95.6199 54.957C95.6199 83.1606 74.2006 96.8476 60.7618 102.659C57.1166 104.236 55.294 105.024 50.1436 105.024C44.9931 105.024 43.1705 104.236 39.5252 102.659C26.0864 96.8476 4.66724 83.1606 4.66724 54.957C4.66724 52.1157 4.66724 49.4954 4.66724 47.0798Z" fill="#B1591B"/>
<g filter="url(#filter0_i_1_7134)">
<path d="M8.33325 47.9022C8.33325 33.2324 8.33325 25.8976 10.0827 23.43C11.8321 20.9624 18.7984 18.6017 32.7312 13.8802L35.3856 12.9806C42.6485 10.5194 46.2797 9.28882 50.0398 9.28882C53.7999 9.28882 57.4311 10.5194 64.6941 12.9806L67.3484 13.8802C81.2812 18.6017 88.2476 20.9624 89.9969 23.43C91.7463 25.8976 91.7463 33.2324 91.7463 47.9022C91.7463 50.1177 91.7463 52.5207 91.7463 55.1265C91.7463 80.9921 72.1025 93.5445 59.7778 98.8745C56.4348 100.32 54.7633 101.043 50.0398 101.043C45.3163 101.043 43.6448 100.32 40.3016 98.8745C27.9768 93.5445 8.33325 80.9921 8.33325 55.1265C8.33325 52.5207 8.33325 50.1177 8.33325 47.9022Z" fill="url(#paint1_linear_1_7134)"/>
</g>
<path opacity="0.95" fill-rule="evenodd" clip-rule="evenodd" d="M40.3013 98.8747L40.0356 99.4832C27.6407 94.1228 7.66626 81.4037 7.66626 55.1267V47.8777C7.66626 40.5636 7.66626 35.0482 7.88594 31.0542C7.99593 29.0543 8.16201 27.4132 8.41648 26.1059C8.66883 24.8095 9.01919 23.779 9.53766 23.0477C10.0578 22.3139 10.9199 21.6456 12.0665 20.9865C13.2226 20.3217 14.7258 19.6343 16.5881 18.8853C20.3071 17.3896 25.5456 15.6144 32.4916 13.2605L32.5159 13.2522L32.7308 13.8803L32.7305 13.8804C18.798 18.6019 11.8318 20.9626 10.0824 23.4302C8.33293 25.8978 8.33293 33.2326 8.33293 47.9024V55.1267C8.33293 80.9922 27.9765 93.5447 40.3013 98.8747ZM64.6937 12.9808L67.3481 13.8803L67.3487 13.8805C81.2811 18.6019 88.2473 20.9626 89.9966 23.4302C91.746 25.8978 91.746 33.2326 91.746 47.9024V55.1267C91.746 80.9922 72.1022 93.5447 59.7775 98.8747L59.7763 98.8752C56.4341 100.32 54.7624 101.043 50.0395 101.043C45.3166 101.043 43.6449 100.32 40.3026 98.8753L40.3013 98.8747L40.0356 99.4832L40.067 99.4968C41.7141 100.209 43.0104 100.77 44.4882 101.144C45.9849 101.523 47.6427 101.707 50.0395 101.707C52.4362 101.707 54.094 101.523 55.5907 101.144C57.0686 100.769 58.3649 100.209 60.012 99.4967L60.0431 99.4832C72.438 94.1229 92.4126 81.4037 92.4126 55.1267V47.8781C92.4126 40.5637 92.4126 35.0483 92.193 31.0542C92.083 29.0543 91.9169 27.4132 91.6625 26.1059C91.4101 24.8095 91.0598 23.779 90.5413 23.0477C90.0212 22.3139 89.1591 21.6456 88.0126 20.9865C86.8564 20.3217 85.3532 19.6343 83.4909 18.8853C79.7719 17.3896 74.5335 15.6144 67.5876 13.2606L64.9086 12.3527L64.6937 12.9808ZM64.6937 12.9808L64.9086 12.3527L64.7674 12.3049C57.6384 9.88898 53.9099 8.62549 50.0395 8.62549C46.1689 8.62549 42.4404 9.88901 35.3113 12.305L32.5159 13.2522L32.7308 13.8803L35.3863 12.9804C42.6485 10.5195 46.2796 9.28898 50.0395 9.28898C53.7993 9.28898 57.4303 10.5194 64.6924 12.9803L64.6937 12.9808Z" fill="#F38E47" fill-opacity="0.3"/>
<path opacity="0.95" fill-rule="evenodd" clip-rule="evenodd" d="M7.11954 20.778C6.72374 21.3363 6.38841 22.2313 6.1265 23.5768C5.8667 24.9115 5.68992 26.6288 5.57135 28.7845C5.33415 33.0971 5.3339 39.0734 5.3339 47.0798V54.957C5.3339 82.7491 26.4223 96.2694 39.7908 102.051C41.623 102.843 42.9404 103.411 44.4345 103.79C45.9191 104.166 47.6034 104.361 50.1436 104.361C52.6838 104.361 54.3681 104.166 55.8527 103.79C57.3467 103.411 58.664 102.843 60.4961 102.051C73.8647 96.2694 94.9533 82.7491 94.9533 54.957V47.0798C94.9533 39.0734 94.953 33.0971 94.7158 28.7845C94.5973 26.6288 94.4205 24.9115 94.1607 23.5768C93.8988 22.2313 93.5635 21.3363 93.1677 20.778C92.7737 20.2222 92.04 19.6149 90.852 18.9319C89.6736 18.2544 88.1035 17.5329 86.0966 16.7258C82.0817 15.111 76.4062 13.1875 68.8019 10.6105L65.9076 9.62969C57.9463 6.93184 54.1076 5.63957 50.1436 5.63957C46.1795 5.63957 42.3408 6.93184 34.3797 9.62969L31.4853 10.6105C23.8811 13.1875 18.2056 15.111 14.1907 16.7258C12.1838 17.5329 10.6137 18.2544 9.43535 18.9319C8.2473 19.6149 7.51358 20.2222 7.11954 20.778ZM6.57482 20.3955C4.66724 23.0862 4.66724 31.0839 4.66724 47.0798V54.957C4.66724 83.1606 26.0864 96.8476 39.5252 102.659L39.5266 102.66C43.171 104.236 44.9938 105.024 50.1436 105.024C55.2935 105.024 57.1162 104.236 60.7606 102.66L60.7618 102.659C74.2006 96.8476 95.6199 83.1606 95.6199 54.957V47.0798C95.6199 31.0839 95.6199 23.0862 93.7125 20.3955C91.805 17.7049 84.2091 15.1308 69.0174 9.98262L66.121 9.00112C58.2025 6.31775 54.2433 4.97607 50.1436 4.97607C46.0438 4.97607 42.0846 6.31779 34.166 9.00121L31.27 9.98256C16.0782 15.1308 8.48233 17.7049 6.57482 20.3955Z" fill="url(#paint2_linear_1_7134)"/>
<mask id="mask0_1_7134" style="mask-type:alpha" maskUnits="userSpaceOnUse" x="0" y="0" width="101" height="110">
<path d="M0.000244141 46.2919C0.000244141 28.7049 0.000244617 19.9115 2.09758 16.9533C4.19486 13.995 12.5465 11.1648 29.2497 5.50435L32.432 4.42596C41.1391 1.47532 45.4925 0 50.0002 0C54.508 0 58.8614 1.47532 67.5686 4.42596L70.7508 5.50435C87.4541 11.1648 95.8058 13.995 97.903 16.9533C100 19.9115 100 28.7049 100 46.2919C100 48.9478 100 51.8287 100 54.9527C100 85.9617 76.4502 101.01 61.6747 107.4C57.6669 109.133 55.663 110 50.0002 110C44.3375 110 42.3336 109.133 38.3256 107.4C23.55 101.01 0.000244141 85.9617 0.000244141 54.9527C0.000244141 51.8287 0.000244141 48.9478 0.000244141 46.2919Z" fill="url(#paint3_linear_1_7134)"/>
</mask>
<g mask="url(#mask0_1_7134)">
<g opacity="0.35">
<path d="M92.125 64.6171L92.1227 64.7599L83.5233 64.1975L75.279 63.5465L45.8142 61.0055L32.0992 59.1799L25.4341 57.7171L21.8387 56.7464L21.6848 56.3967L26.179 57.5154L33.9213 58.7934L62.7514 62.0153L77.3472 63.3741L84.5605 63.9313L92.125 64.6171Z" fill="#431F13"/>
<path fill-rule="evenodd" clip-rule="evenodd" d="M92.4622 64.3146L92.4495 65.1139L83.495 64.5283L75.2483 63.877L45.7757 61.3354L32.0392 59.5069L25.3527 58.0393L21.596 57.0252L21.1057 55.9106L26.2468 57.1903L33.9673 58.4647L62.7886 61.6857L77.3731 63.0434L77.3783 63.0438L84.5908 63.601L92.4622 64.3146ZM77.3462 63.3741L62.7504 62.0153L33.9204 58.7934L26.178 57.5154L21.6839 56.3968L21.8377 56.7464L25.4332 57.7171L32.0983 59.18L45.8133 61.0056L75.2781 63.5465L83.5224 64.1976L92.1218 64.7599L92.124 64.6172L84.5595 63.9314L77.3462 63.3741Z" fill="#FAF0AC" fill-opacity="0.1"/>
<path d="M104.007 74.3795L104.031 74.5207L95.4431 75.2107L87.1896 75.7617L57.6532 77.5198L43.7882 77.7038L36.9456 77.2252L33.2214 76.7879L33.0061 76.4651L37.6439 76.9183L45.516 77.0586L74.5497 76.0644L89.1991 75.2922L96.4181 74.7978L104.007 74.3795Z" fill="#431F13"/>
<path fill-rule="evenodd" clip-rule="evenodd" d="M104.286 74.0328L104.419 74.8215L95.4754 75.5401L87.2195 76.0912L57.6754 77.8498L43.7883 78.0341L36.9236 77.5539L33.032 77.097L32.3469 76.0698L37.653 76.5884L45.5026 76.7283L74.5275 75.7343L89.1654 74.9627L89.1707 74.9624L96.3889 74.4681L104.286 74.0328ZM89.1987 75.2921L74.5493 76.0643L45.5156 77.0586L37.6435 76.9183L33.0057 76.465L33.221 76.7878L36.9452 77.2251L43.7878 77.7038L57.6528 77.5198L87.1892 75.7616L95.4427 75.2106L104.03 74.5206L104.007 74.3794L96.4177 74.7978L89.1987 75.2921Z" fill="#FAF0AC" fill-opacity="0.1"/>
<path d="M57.3418 88.3344L57.3842 88.6527L46.795 89.5933L37.438 90.184L28.4923 90.5811L19.3173 89.9764L14.7561 89.2447L14.3694 88.7266L20.9077 89.3347L29.8183 89.5064L39.1639 89.5452L57.3418 88.3344Z" fill="#431F13"/>
<path fill-rule="evenodd" clip-rule="evenodd" d="M57.6302 87.983L57.7594 88.9521L46.8279 89.9231L37.4635 90.5142L28.496 90.9123L19.2866 90.3054L14.5717 89.549L13.6614 88.3293L20.9175 89.0043L29.8156 89.1757L39.1442 89.2144L57.6302 87.983ZM39.163 89.5452L29.8174 89.5064L20.9068 89.3347L14.3685 88.7266L14.7552 89.2447L19.3164 89.9764L28.4914 90.5811L37.4371 90.184L46.7941 89.5933L57.3833 88.6527L57.3409 88.3344L39.163 89.5452Z" fill="#FAF0AC" fill-opacity="0.1"/>
<path d="M-4.65786 60.8627L-4.75863 61.1704L5.5111 63.6597L14.6303 65.6222L23.3796 67.3332L32.5404 68.0899L37.1743 68.0409L37.6516 67.5869L31.0906 67.2225L22.2707 66.0777L13.0463 64.7377L-4.65786 60.8627Z" fill="#431F13"/>
<path fill-rule="evenodd" clip-rule="evenodd" d="M-4.88045 60.4755L-5.18554 61.4073L5.41837 63.9776L14.5449 65.9417L23.316 67.6569L32.5118 68.4165L37.3034 68.3658L38.4221 67.3018L31.14 66.8973L22.3352 65.7544L13.1254 64.4166L-4.88045 60.4755ZM13.0469 64.7377L22.2713 66.0777L31.0912 67.2225L37.6522 67.5869L37.175 68.0409L32.541 68.0899L23.3802 67.3332L14.6309 65.6222L5.51173 63.6597L-4.758 61.1704L-4.65724 60.8627L13.0469 64.7377Z" fill="#FAF0AC" fill-opacity="0.1"/>
<path d="M102.78 77.9467L102.881 78.2544L92.6115 80.7437L83.4923 82.7062L74.7429 84.4172L65.5822 85.1739L60.9482 85.1249L60.4709 84.6709L67.0319 84.3065L75.8519 83.1616L85.0763 81.8217L102.78 77.9467Z" fill="#431F13"/>
<path fill-rule="evenodd" clip-rule="evenodd" d="M103.004 77.5595L103.309 78.4913L92.7052 81.0616L83.5786 83.0257L74.8076 84.7409L65.6117 85.5005L60.8201 85.4498L59.7014 84.3857L66.9836 83.9812L75.7884 82.8384L84.9982 81.5006L103.004 77.5595ZM85.0766 81.8217L75.8523 83.1616L67.0323 84.3065L60.4713 84.6709L60.9486 85.1249L65.5825 85.1739L74.7433 84.4172L83.4926 82.7062L92.6118 80.7437L102.882 78.2544L102.781 77.9467L85.0766 81.8217Z" fill="#FAF0AC" fill-opacity="0.1"/>
<path d="M46.3204 94.8892L46.2479 95.1105L53.633 96.9006L60.1906 98.3118L66.4823 99.5422L73.0699 100.086L76.4021 100.051L76.7454 99.7246L72.0273 99.4625L65.6848 98.6393L59.0515 97.6757L46.3204 94.8892Z" fill="#431F13"/>
<path fill-rule="evenodd" clip-rule="evenodd" d="M46.0978 94.502L45.821 95.3474L53.5402 97.2184L60.1052 98.6313L66.4186 99.8659L73.0413 100.413L76.5312 100.376L77.5159 99.4395L72.0767 99.1373L65.7493 98.316L59.1306 97.3546L46.0978 94.502ZM59.0522 97.6757L65.6855 98.6393L72.0279 99.4625L76.746 99.7246L76.4028 100.051L73.0705 100.086L66.4829 99.5422L60.1912 98.3118L53.6336 96.9006L46.2486 95.1105L46.321 94.8892L59.0522 97.6757Z" fill="#FAF0AC" fill-opacity="0.1"/>
<path d="M19.836 105.315L19.7636 105.094L27.1486 103.304L33.7062 101.893L39.9979 100.662L46.5855 100.118L49.9178 100.153L50.261 100.48L45.5429 100.742L39.2005 101.565L32.5672 102.529L19.836 105.315Z" fill="#431F13"/>
<path fill-rule="evenodd" clip-rule="evenodd" d="M19.6134 105.702L19.3366 104.857L27.0558 102.986L33.6209 101.573L39.9343 100.338L46.5569 99.7914L50.0469 99.8284L51.0315 100.765L45.5923 101.067L39.265 101.888L32.6462 102.85L19.6134 105.702ZM32.5678 102.529L39.2011 101.565L45.5436 100.742L50.2616 100.48L49.9184 100.153L46.5861 100.118L39.9985 100.662L33.7068 101.893L27.1492 103.304L19.7642 105.094L19.8366 105.315L32.5678 102.529Z" fill="#FAF0AC" fill-opacity="0.1"/>
</g>
<g opacity="0.35">
<path d="M8.87439 48.1183L8.87742 47.9279L20.3418 48.6776L31.3327 49.5456L70.6141 52.9331L88.8984 55.3669L97.784 57.3172L102.577 58.6112L102.782 59.0774L96.7911 57.5861L86.4692 55.8822L48.0341 51.5869L28.5756 49.7755L18.9591 49.0326L8.87439 48.1183Z" fill="#431F13"/>
<path fill-rule="evenodd" clip-rule="evenodd" d="M8.53538 48.415L8.54881 47.5682L20.3683 48.3418L31.3617 49.2107L70.651 52.6013L88.957 55.0391L97.8642 56.9946L102.819 58.3324L103.36 59.5635L96.722 57.9107L86.4219 56.2099L48.0014 51.9138L47.9953 51.9132L28.548 50.1016L28.5428 50.1012L18.9271 49.3578L8.53538 48.415ZM28.5748 49.7709L48.0335 51.5835L86.4688 55.8812L96.7908 57.5856L102.782 59.0773L102.577 58.6111L97.7837 57.3168L88.898 55.366L70.6135 52.9311L31.332 49.5412L20.3409 48.6726L8.87656 47.9222L8.87355 48.1125L18.9583 49.0274L28.5748 49.7709Z" fill="#FAF0AC" fill-opacity="0.1"/>
<path d="M-6.96703 35.1037L-6.99861 34.9154L4.45017 33.9956L15.4534 33.261L54.8301 30.9171L73.3145 30.6718L82.4367 31.3099L87.4017 31.8929L87.6887 32.3232L81.5057 31.719L71.011 31.5319L32.3044 32.8575L12.7744 33.8869L3.15027 34.546L-6.96703 35.1037Z" fill="#431F13"/>
<path fill-rule="evenodd" clip-rule="evenodd" d="M-7.24724 35.4502L-7.38744 34.6143L4.41684 33.6659L15.4225 32.9312L54.807 30.5869L73.3133 30.3413L82.4577 30.981L87.5901 31.5836L88.3469 32.7183L81.4957 32.0487L71.0234 31.8621L32.3319 33.187L32.3257 33.1873L12.8071 34.2161L12.8018 34.2164L3.17851 34.8755L-7.24724 35.4502ZM12.7738 33.8867L32.3039 32.8573L71.0104 31.5318L81.5052 31.7188L87.6881 32.3231L87.4011 31.8927L82.4361 31.3097L73.3139 30.6716L54.8295 30.9169L15.4528 33.2608L4.44958 33.9954L-6.99919 34.9153L-6.96762 35.1035L3.14968 34.5458L12.7738 33.8867Z" fill="#FAF0AC" fill-opacity="0.1"/>
<path d="M55.2453 16.4994L55.1887 16.075L69.3059 14.8211L81.7803 14.0336L93.7064 13.5042L105.938 14.3103L112.019 15.2858L112.534 15.9766L103.818 15.1658L91.9385 14.937L79.4794 14.8852L55.2453 16.4994Z" fill="#431F13"/>
<path fill-rule="evenodd" clip-rule="evenodd" d="M54.9559 16.8508L54.8126 15.7756L69.272 14.4913L81.7538 13.7033L93.7016 13.1729L105.968 13.9813L112.202 14.9815L113.241 16.3738L103.807 15.4962L91.9402 15.2676L79.4981 15.216L54.9559 16.8508ZM79.4793 14.8852L91.9384 14.937L103.818 15.1658L112.534 15.9766L112.019 15.2858L105.938 14.3103L93.7063 13.5042L81.7802 14.0336L69.3058 14.8211L55.1886 16.075L55.2452 16.4994L79.4793 14.8852Z" fill="#FAF0AC" fill-opacity="0.1"/>
<path d="M137.9 53.1236L138.034 52.7134L124.343 49.3947L112.186 46.7784L100.521 44.4974L88.3085 43.4886L82.1307 43.554L81.4944 44.1592L90.2413 44.645L102 46.1713L114.297 47.9576L137.9 53.1236Z" fill="#431F13"/>
<path fill-rule="evenodd" clip-rule="evenodd" d="M138.123 53.5106L138.462 52.4763L124.437 49.0766L112.272 46.4587L100.586 44.1735L88.338 43.1618L82.0026 43.2288L80.7249 44.4441L90.1929 44.97L101.936 46.4943L114.219 48.2785L138.123 53.5106ZM114.298 47.9574L102 46.171L90.2416 44.6448L81.4947 44.1589L82.131 43.5537L88.3088 43.4884L100.522 44.4972L112.186 46.7782L124.343 49.3945L138.034 52.7131L137.9 53.1234L114.298 47.9574Z" fill="#FAF0AC" fill-opacity="0.1"/>
<path d="M-5.33284 30.348L-5.46718 29.9377L8.22403 26.6191L20.3814 24.0028L32.0456 21.7218L44.2584 20.713L50.4362 20.7783L51.0725 21.3835L42.3256 21.8694L30.5672 23.3956L18.2696 25.182L-5.33284 30.348Z" fill="#431F13"/>
<path fill-rule="evenodd" clip-rule="evenodd" d="M-5.55542 30.7352L-5.89409 29.7009L8.13131 26.3012L20.296 23.6833L31.982 21.3981L44.2298 20.3864L50.5653 20.4534L51.843 21.6687L42.375 22.1946L30.6317 23.7189L18.3487 25.5031L-5.55542 30.7352ZM18.2703 25.182L30.5678 23.3956L42.3263 21.8694L51.0731 21.3835L50.4368 20.7783L44.259 20.713L32.0463 21.7218L20.382 24.0028L8.22466 26.6191L-5.46654 29.9377L-5.3322 30.348L18.2703 25.182Z" fill="#FAF0AC" fill-opacity="0.1"/>
<path d="M69.9386 7.7606L70.0352 7.46557L60.1898 5.07913L51.4474 3.19772L43.0595 1.55745L34.2772 0.832007L29.8348 0.879005L29.3772 1.31421L35.6671 1.66359L44.1227 2.76111L52.9659 4.04567L69.9386 7.7606Z" fill="#431F13"/>
<path fill-rule="evenodd" clip-rule="evenodd" d="M70.1612 8.14776L70.4621 7.2287L60.2825 4.76126L51.5327 2.87826L43.1232 1.23374L34.3058 0.505406L29.7057 0.554072L28.6067 1.59937L35.6178 1.98881L44.0582 3.08435L52.8868 4.3668L70.1612 8.14776ZM52.9653 4.04567L44.122 2.76111L35.6665 1.6636L29.3766 1.31421L29.8341 0.879008L34.2766 0.83201L43.0589 1.55745L51.4467 3.19772L60.1891 5.07913L70.0346 7.46557L69.9379 7.76061L52.9653 4.04567Z" fill="#FAF0AC" fill-opacity="0.1"/>
<path d="M105.246 -6.13902L105.343 -5.84399L95.4974 -3.45755L86.755 -1.57614L78.3671 0.0641354L69.5849 0.789575L65.1424 0.742577L64.6848 0.307373L70.9747 -0.0420116L79.4303 -1.13952L88.2735 -2.42409L105.246 -6.13902Z" fill="#431F13"/>
<path fill-rule="evenodd" clip-rule="evenodd" d="M105.469 -6.52618L105.77 -5.60712L95.5901 -3.13967L86.8403 -1.25667L78.4308 0.387839L69.6135 1.11618L65.0133 1.06751L63.9143 0.0222168L70.9254 -0.367226L79.3658 -1.46277L88.1944 -2.74522L105.469 -6.52618ZM88.2729 -2.42409L79.4297 -1.13953L70.9741 -0.0420153L64.6842 0.307369L65.1417 0.742574L69.5842 0.789572L78.3665 0.0641312L86.7544 -1.57614L95.4968 -3.45755L105.342 -5.84399L105.246 -6.13902L88.2729 -2.42409Z" fill="#FAF0AC" fill-opacity="0.1"/>
</g>
</g>
<g opacity="0.8">
<path fill-rule="evenodd" clip-rule="evenodd" d="M43.6938 33.551C46.7848 29.2239 53.2157 29.2239 56.3067 33.551L56.3071 33.5515L56.7986 34.2398C56.7987 34.24 56.7988 34.2402 56.799 34.2404C57.3432 35.0017 58.2564 35.4093 59.1862 35.306L61.3795 35.0623C61.3795 35.0623 61.3795 35.0623 61.3795 35.0623C66.3154 34.5138 70.4866 38.6846 69.9379 43.6208L69.6943 45.814C69.591 46.744 69.9987 47.6573 70.7602 48.2014C70.7602 48.2015 70.7603 48.2015 70.7604 48.2016L71.4489 48.6933L71.4491 48.6935C75.7762 51.7845 75.7762 58.2154 71.4491 61.3064L71.4489 61.3065L70.7604 61.7982C70.7603 61.7983 70.7603 61.7983 70.7602 61.7984C69.9986 62.3426 69.591 63.2559 69.6943 64.186L69.9379 66.379C70.4866 71.3151 66.3155 75.4862 61.3794 74.9375L59.1863 74.6939C58.2563 74.5906 57.343 74.9983 56.7988 75.7598C56.7987 75.7599 56.7986 75.76 56.7986 75.7601L56.3069 76.4485L56.3068 76.4487C53.2157 80.7758 46.7848 80.7758 43.6938 76.4487L43.6937 76.4485L43.202 75.76C43.2019 75.76 43.2019 75.7599 43.2018 75.7598C42.6577 74.9983 41.7444 74.5906 40.8143 74.6939L38.6212 74.9375C33.6849 75.4862 29.5142 71.3151 30.0626 66.3792C30.0626 66.3792 30.0626 66.3792 30.0626 66.3792L30.3063 64.1859C30.4096 63.2561 30.0021 62.3428 29.2407 61.7986C29.2405 61.7985 29.2404 61.7983 29.2402 61.7982L28.5518 61.3067L28.5513 61.3064C24.2243 58.2154 24.2243 51.7845 28.5513 48.6935L28.5518 48.6931L29.2402 48.2016C29.2404 48.2015 29.2405 48.2014 29.2407 48.2013C29.2407 48.2013 29.2407 48.2013 29.2407 48.2013C30.002 47.6571 30.4096 46.7439 30.3063 45.814L30.0626 43.6207C30.0626 43.6207 30.0626 43.6207 30.0626 43.6207C29.5142 38.6846 33.685 34.5138 38.6211 35.0623C38.621 35.0623 38.6211 35.0623 38.6211 35.0623L40.8144 35.3059C41.7442 35.4093 42.6574 35.0017 43.2016 34.2404C43.2016 34.2404 43.2016 34.2403 43.2016 34.2404C43.2017 34.2402 43.2019 34.24 43.202 34.2398L43.6935 33.5515L43.6938 33.551ZM47.8984 36.5537C47.8982 36.5539 47.8981 36.554 47.898 36.5542L47.4061 37.2431C45.7742 39.5276 43.0343 40.7511 40.2438 40.441C40.2438 40.441 40.2438 40.441 40.2438 40.441L38.0505 40.1973C36.4052 40.0145 35.0149 41.4048 35.1977 43.0501L35.4414 45.2434C35.4414 45.2434 35.4414 45.2434 35.4414 45.2434C35.7514 48.0339 34.528 50.7738 32.2435 52.4058L31.5546 52.8976C31.5544 52.8978 31.5542 52.8979 31.5541 52.898C30.1122 53.9284 30.1122 56.0714 31.5541 57.1019C31.5542 57.102 31.5544 57.1021 31.5546 57.1022L32.2435 57.5941C34.528 59.2261 35.7515 61.966 35.4414 64.7565C35.4414 64.7565 35.4414 64.7565 35.4414 64.7565L35.1977 66.9497C35.0149 68.5951 36.4052 69.9854 38.0504 69.8025L40.2439 69.5589C40.2438 69.5589 40.2439 69.5589 40.2439 69.5589C43.0342 69.2489 45.7741 70.4722 47.4061 72.7568L47.4063 72.757L47.898 73.4455C48.9284 74.888 51.0721 74.888 52.1026 73.4455L52.5943 72.757L52.5945 72.7567C54.2265 70.4722 56.9664 69.2489 59.7567 69.5588C59.7567 69.5588 59.7568 69.5588 59.7567 69.5588L61.9502 69.8025C63.5954 69.9854 64.9857 68.5951 64.8028 66.9499L64.5592 64.7564C64.5592 64.7564 64.5592 64.7565 64.5592 64.7564C64.2492 61.9661 65.4726 59.2262 67.7571 57.5941L67.7574 57.5939L68.4459 57.1022C69.8884 56.0718 69.8884 53.9281 68.4459 52.8976L67.7574 52.4059L67.7572 52.4058C65.4726 50.7738 64.2492 48.0339 64.5592 45.2436C64.5592 45.2435 64.5592 45.2436 64.5592 45.2436L64.8028 43.05C64.9857 41.4048 63.5955 40.0145 61.9501 40.1973L59.7569 40.441C59.7569 40.441 59.7569 40.441 59.7569 40.441C56.9664 40.7511 54.2265 39.5276 52.5945 37.2432L52.1026 36.5542C52.1025 36.554 52.1023 36.5539 52.1022 36.5537C51.0718 35.1119 48.9288 35.1119 47.8984 36.5537Z" fill="#431F13"/>
<path fill-rule="evenodd" clip-rule="evenodd" d="M59.5769 48.0066C60.5858 49.0155 60.5858 50.6512 59.5769 51.66L49.7114 61.5255C48.4442 62.7927 46.3895 62.7927 45.1223 61.5255L40.4235 56.8267C39.4147 55.8178 39.4147 54.1822 40.4235 53.1733C41.4324 52.1645 43.068 52.1645 44.0769 53.1733L47.4169 56.5133L55.9235 48.0066C56.9324 46.9978 58.568 46.9978 59.5769 48.0066Z" fill="#431F13"/>
</g>
<defs>
<filter id="filter0_i_1_7134" x="8.33325" y="9.28882" width="83.4131" height="106.754" filterUnits="userSpaceOnUse" color-interpolation-filters="sRGB">
<feFlood flood-opacity="0" result="BackgroundImageFix"/>
<feBlend mode="normal" in="SourceGraphic" in2="BackgroundImageFix" result="shape"/>
<feColorMatrix in="SourceAlpha" type="matrix" values="0 0 0 0 0 0 0 0 0 0 0 0 0 0 0 0 0 0 127 0" result="hardAlpha"/>
<feOffset dy="15"/>
<feGaussianBlur stdDeviation="17.5"/>
<feComposite in2="hardAlpha" operator="arithmetic" k2="-1" k3="1"/>
<feColorMatrix type="matrix" values="0 0 0 0 0.283333 0 0 0 0 0.12352 0 0 0 0 0.0401389 0 0 0 0.35 0"/>
<feBlend mode="normal" in2="shape" result="effect1_innerShadow_1_7134"/>
</filter>
<linearGradient id="paint0_linear_1_7134" x1="50.0002" y1="0" x2="50.0002" y2="110" gradientUnits="userSpaceOnUse">
<stop stop-color="#B1591B"/>
<stop offset="1" stop-color="#79330B"/>
</linearGradient>
<linearGradient id="paint1_linear_1_7134" x1="50.0398" y1="9.28882" x2="50.0398" y2="101.043" gradientUnits="userSpaceOnUse">
<stop stop-color="#80350B"/>
<stop offset="1" stop-color="#934210"/>
</linearGradient>
<linearGradient id="paint2_linear_1_7134" x1="50.1436" y1="4.97607" x2="50.1436" y2="105.024" gradientUnits="userSpaceOnUse">
<stop stop-color="#F38E47"/>
<stop offset="1" stop-color="#F38E47" stop-opacity="0.34"/>
</linearGradient>
<linearGradient id="paint3_linear_1_7134" x1="50.0002" y1="0" x2="50.0002" y2="110" gradientUnits="userSpaceOnUse">
<stop stop-color="#B1591B"/>
<stop offset="1" stop-color="#79330B"/>
</linearGradient>
</defs>
</svg>
