<svg width="62" height="62" viewBox="0 0 62 62" fill="none" xmlns="http://www.w3.org/2000/svg">
<path fill-rule="evenodd" clip-rule="evenodd" d="M3.229 20.6667C3.229 11.0363 11.036 3.22925 20.6665 3.22925H41.3332C50.9636 3.22925 58.7707 11.0363 58.7707 20.6667V41.3334C58.7707 50.9638 50.9636 58.7709 41.3332 58.7709H20.6665C11.036 58.7709 3.229 50.9638 3.229 41.3334V20.6667ZM21.8798 21.88C22.6365 21.1234 23.8632 21.1234 24.6199 21.88L30.9998 28.2599L37.3799 21.88C38.1366 21.1234 39.3631 21.1234 40.1198 21.88C40.8764 22.6367 40.8764 23.8634 40.1198 24.6201L33.7397 31.0001L40.1198 37.3801C40.8764 38.1368 40.8764 39.3634 40.1198 40.12C39.3631 40.8767 38.1363 40.8767 37.3796 40.12L30.9998 33.74L24.6199 40.12C23.8632 40.8767 22.6365 40.8767 21.8798 40.12C21.1232 39.3634 21.1232 38.1365 21.8798 37.3799L28.2597 31.0001L21.8798 24.6201C21.1232 23.8634 21.1232 22.6367 21.8798 21.88Z" fill="#D8322A"/>
</svg>
