<svg width="62" height="62" viewBox="0 0 62 62" fill="none" xmlns="http://www.w3.org/2000/svg">
<path fill-rule="evenodd" clip-rule="evenodd" d="M30.9998 56.8334C18.8219 56.8334 12.7329 56.8334 8.94972 53.0501C5.1665 49.2671 5.1665 43.1779 5.1665 31.0001C5.1665 18.8221 5.1665 12.7332 8.94972 8.94996C12.7329 5.16675 18.8219 5.16675 30.9998 5.16675C43.1777 5.16675 49.2668 5.16675 53.0499 8.94996C56.8332 12.7332 56.8332 18.8221 56.8332 31.0001C56.8332 43.1779 56.8332 49.2671 53.0499 53.0501C49.2668 56.8334 43.1777 56.8334 30.9998 56.8334ZM41.4114 23.1717C42.1681 23.9284 42.1681 25.1551 41.4114 25.9117L28.4948 38.8284C27.7381 39.585 26.5116 39.585 25.7548 38.8284L20.5882 33.6617C19.8315 32.905 19.8315 31.6785 20.5882 30.9218C21.3448 30.1651 22.5716 30.1651 23.3282 30.9218L27.1248 34.7183L38.6716 23.1717C39.4282 22.4151 40.6548 22.4151 41.4114 23.1717Z" fill="#19A047"/>
</svg>
