<svg width="62" height="62" viewBox="0 0 62 62" fill="none" xmlns="http://www.w3.org/2000/svg">
<path d="M50.4004 15.1126L35.0554 6.25175C32.5496 4.80508 29.4496 4.80508 26.9179 6.25175L11.5988 15.1126C9.09297 16.5592 7.54297 19.2459 7.54297 22.1651V39.8351C7.54297 42.7284 9.09297 45.4151 11.5988 46.8876L26.9438 55.7484C29.4496 57.1951 32.5496 57.1951 35.0812 55.7484L50.4262 46.8876C52.9321 45.4409 54.4821 42.7542 54.4821 39.8351V22.1651C54.4562 19.2459 52.9062 16.5851 50.4004 15.1126ZM29.0621 20.0209C29.0621 18.9617 29.9404 18.0834 30.9996 18.0834C32.0588 18.0834 32.9371 18.9617 32.9371 20.0209V33.5834C32.9371 34.6426 32.0588 35.5209 30.9996 35.5209C29.9404 35.5209 29.0621 34.6426 29.0621 33.5834V20.0209ZM33.3762 42.9609C33.2471 43.2709 33.0662 43.5551 32.8337 43.8134C32.3429 44.3042 31.6971 44.5626 30.9996 44.5626C30.6637 44.5626 30.3279 44.4851 30.0179 44.3559C29.6821 44.2267 29.4237 44.0459 29.1654 43.8134C28.9329 43.5551 28.7521 43.2709 28.5971 42.9609C28.4679 42.6509 28.4163 42.3151 28.4163 41.9792C28.4163 41.3076 28.6746 40.6359 29.1654 40.1451C29.4237 39.9126 29.6821 39.7317 30.0179 39.6026C30.9737 39.1892 32.1104 39.4217 32.8337 40.1451C33.0662 40.4034 33.2471 40.6617 33.3762 40.9976C33.5054 41.3076 33.5829 41.6434 33.5829 41.9792C33.5829 42.3151 33.5054 42.6509 33.3762 42.9609Z" fill="#F97F29"/>
</svg>
