<svg width="48" height="48" viewBox="0 0 48 48" fill="none" xmlns="http://www.w3.org/2000/svg">
<path fill-rule="evenodd" clip-rule="evenodd" d="M4 24C4 14.5719 4 9.85786 6.92894 6.92894C9.85786 4 14.5719 4 24 4C33.428 4 38.1422 4 41.071 6.92894C44 9.85786 44 14.5719 44 24C44 33.428 44 38.1422 41.071 41.071C38.1422 44 33.428 44 24 44C14.5719 44 9.85786 44 6.92894 41.071C4 38.1422 4 33.428 4 24ZM24 12.5C24.8284 12.5 25.5 13.1716 25.5 14V24.3786L28.9394 20.9394C29.5252 20.3536 30.4748 20.3536 31.0606 20.9394C31.6464 21.5252 31.6464 22.4748 31.0606 23.0606L25.0606 29.0606C24.7794 29.342 24.3978 29.5 24 29.5C23.6022 29.5 23.2206 29.342 22.9394 29.0606L16.9393 23.0606C16.3536 22.4748 16.3536 21.5252 16.9393 20.9394C17.5251 20.3536 18.4749 20.3536 19.0607 20.9394L22.5 24.3786V14C22.5 13.1716 23.1716 12.5 24 12.5ZM16 32.5C15.1716 32.5 14.5 33.1716 14.5 34C14.5 34.8284 15.1716 35.5 16 35.5H32C32.8284 35.5 33.5 34.8284 33.5 34C33.5 33.1716 32.8284 32.5 32 32.5H16Z" fill="#431F13" fill-opacity="0.8"/>
</svg>
