<svg width="16" height="15" viewBox="0 0 16 15" fill="none" xmlns="http://www.w3.org/2000/svg">
<path d="M2.97965 5.625C5.08793 1.97335 6.14207 0.147527 7.69782 0.0114155C7.8718 -0.00380588 8.04678 -0.00380588 8.22076 0.0114155C9.77652 0.147527 10.8307 1.97335 12.9389 5.625C15.0472 9.27665 16.1014 11.1025 15.4414 12.5179C15.3675 12.6761 15.2801 12.8277 15.1799 12.9707C14.2841 14.25 12.1759 14.25 7.95929 14.25C3.74273 14.25 1.63445 14.25 0.738697 12.9707C0.638525 12.8277 0.551037 12.6761 0.477229 12.5179C-0.182774 11.1025 0.871366 9.27665 2.97965 5.625Z" fill="#D9EFFC" fill-opacity="0.1"/>
<path d="M3.41266 5.875C4.47449 4.03585 5.24546 2.70276 5.94096 1.80639C6.6353 0.911529 7.17467 0.559096 7.7414 0.509513C7.88639 0.496828 8.0322 0.496828 8.17718 0.509513C8.74392 0.559096 9.28329 0.911529 9.97762 1.80639C10.6731 2.70276 11.4441 4.03585 12.5059 5.875C13.5678 7.71414 14.3368 9.04837 14.7653 10.0989C15.1931 11.1476 15.2286 11.7909 14.9882 12.3065C14.9267 12.4384 14.8538 12.5647 14.7703 12.6839C14.444 13.15 13.8691 13.4408 12.747 13.5947C11.6229 13.7489 10.083 13.75 7.95929 13.75C5.83563 13.75 4.29566 13.7489 3.17162 13.5947C2.04948 13.4408 1.47458 13.15 1.14827 12.6839C1.0648 12.5647 0.991889 12.4384 0.930382 12.3065C0.689956 11.7909 0.725487 11.1476 1.15329 10.0989C1.58182 9.04837 2.35083 7.71415 3.41266 5.875Z" stroke="#D9EFFC" stroke-opacity="0.3"/>
</svg>
