<svg width="2120" height="486" viewBox="0 0 2120 486" fill="none" xmlns="http://www.w3.org/2000/svg">
<mask id="mask0_13_162" style="mask-type:alpha" maskUnits="userSpaceOnUse" x="0" y="0" width="2120" height="486">
<path d="M272.472 13C207.508 7.47885 90.8049 23.0583 33.744 31.6639C14.4737 34.5701 0.50293 51.1854 0.50293 70.6736V485.937H2119.48V51.3526C2119.48 26.5683 2097.23 7.62977 2072.69 11.1137C2006.63 20.4933 1886.88 34.594 1822.23 24.4367C1729.85 9.92321 1660.18 12.4367 1612.7 10.9367C1565.23 9.43671 1285 18.9367 1203.98 18.9367C1122.95 18.9367 911.882 -3.36779 827.762 0.436708C743.643 4.2412 531.022 22.4367 446.387 22.4367C361.752 22.4367 360.719 20.5 272.472 13Z" fill="#225275"/>
</mask>
<g mask="url(#mask0_13_162)">
<rect opacity="0.2" width="107.178" height="429.466" transform="matrix(0.7182 0.695837 -0.7182 0.695837 227.685 -59)" fill="url(#paint0_linear_13_162)"/>
<rect opacity="0.4" width="107.178" height="449.335" transform="matrix(0.7182 0.695837 -0.7182 0.695837 444.435 -59)" fill="url(#paint1_linear_13_162)"/>
<rect opacity="0.2" width="146.891" height="817.153" transform="matrix(0.7182 0.695837 -0.7182 0.695837 1057.04 -152.529)" fill="url(#paint2_linear_13_162)"/>
<rect opacity="0.3" width="146.891" height="791.363" transform="matrix(0.7182 0.695837 -0.7182 0.695837 2220.81 -152.529)" fill="url(#paint3_linear_13_162)"/>
<rect opacity="0.4" width="207.618" height="585.116" transform="matrix(0.7182 0.695837 -0.7182 0.695837 1178.35 -134)" fill="url(#paint4_linear_13_162)"/>
<rect opacity="0.2" width="207.618" height="741.734" transform="matrix(0.7182 0.695837 -0.7182 0.695837 2290.43 -333)" fill="url(#paint5_linear_13_162)"/>
<rect opacity="0.2" width="119.616" height="723.853" transform="matrix(0.7182 0.695837 -0.7182 0.695837 1737.76 -66)" fill="url(#paint6_linear_13_162)"/>
<path d="M511.637 78.4872C518.37 77.6856 517.105 67.4715 510.361 68.2741C503.628 69.0753 504.893 79.2894 511.637 78.4872Z" fill="#93EAFF" fill-opacity="0.2"/>
<path d="M1093.13 80.9469C1099.87 80.1459 1098.6 69.9308 1091.86 70.7334C1085.12 71.5345 1086.39 81.7495 1093.13 80.9469Z" fill="#93EAFF" fill-opacity="0.2"/>
<path d="M2040.68 88.2863C2047.29 86.7815 2044.9 76.7598 2038.28 78.2676C2031.68 79.7724 2034.07 89.7941 2040.68 88.2863Z" fill="#93EAFF" fill-opacity="0.2"/>
<path d="M661.106 88.7144C667.839 87.9133 666.574 77.6992 659.83 78.5014C653.097 79.303 654.361 89.517 661.106 88.7144Z" fill="#93EAFF" fill-opacity="0.2"/>
<path d="M1146.26 125.832C1153 125.031 1151.73 114.815 1144.99 115.618C1138.25 116.419 1139.52 126.634 1146.26 125.832Z" fill="#93EAFF" fill-opacity="0.2"/>
<path d="M78.0911 105.18C84.8576 105.63 85.5848 95.366 78.8064 94.9157C72.0388 94.466 71.3123 104.73 78.0911 105.18Z" fill="#93EAFF" fill-opacity="0.2"/>
<path d="M325.566 75.1581C332.299 74.357 331.035 64.1424 324.29 64.945C317.558 65.7462 318.822 75.9603 325.566 75.1581Z" fill="#93EAFF" fill-opacity="0.2"/>
<path d="M880.416 72.6461C887.15 71.845 885.885 61.631 879.14 62.4336C872.408 63.2347 873.672 73.4488 880.416 72.6461Z" fill="#93EAFF" fill-opacity="0.2"/>
<path d="M1050.13 91.246C1056.87 90.4449 1055.6 80.2303 1048.86 81.0329C1042.13 81.834 1043.39 92.0486 1050.13 91.246Z" fill="#93EAFF" fill-opacity="0.2"/>
<path d="M1187.92 120.874C1194.66 120.073 1193.39 109.858 1186.65 110.661C1179.92 111.462 1181.18 121.677 1187.92 120.874Z" fill="#93EAFF" fill-opacity="0.2"/>
<path d="M1012.14 130.223C1018.87 129.422 1017.61 119.207 1010.86 120.01C1004.13 120.811 1005.39 131.026 1012.14 130.223Z" fill="#93EAFF" fill-opacity="0.2"/>
<path d="M903.78 110.612C910.513 109.811 909.249 99.5968 902.505 100.399C895.772 101.2 897.036 111.415 903.78 110.612Z" fill="#93EAFF" fill-opacity="0.2"/>
<path d="M1433.03 156.004C1439.76 155.202 1438.5 144.988 1431.75 145.791C1425.02 146.592 1426.29 156.806 1433.03 156.004Z" fill="#93EAFF" fill-opacity="0.2"/>
<path d="M2097 86.997C2103.61 85.4917 2101.22 75.47 2094.6 76.9778C2088 78.4826 2090.38 88.5043 2097 86.997Z" fill="#93EAFF" fill-opacity="0.2"/>
<path d="M1953.11 107.255C1959.71 105.75 1957.33 95.7287 1950.71 97.236C1944.1 98.7413 1946.49 108.763 1953.11 107.255Z" fill="#93EAFF" fill-opacity="0.2"/>
<path d="M1390.19 75.8455C1396.92 75.0445 1395.65 64.8304 1388.91 65.6325C1382.18 66.4337 1383.44 76.6482 1390.19 75.8455Z" fill="#93EAFF" fill-opacity="0.2"/>
<path d="M972.761 73.7965C979.494 72.9949 978.23 62.7809 971.485 63.5835C964.752 64.3846 966.017 74.5986 972.761 73.7965Z" fill="#93EAFF" fill-opacity="0.2"/>
<path d="M731.676 69.2086C738.408 68.4075 737.144 58.1929 730.4 58.9956C723.667 59.7967 724.932 70.0112 731.676 69.2086Z" fill="#93EAFF" fill-opacity="0.2"/>
<path d="M2105.16 111.665C2111.77 110.161 2109.38 100.139 2102.77 101.646C2096.16 103.151 2098.55 113.173 2105.16 111.665Z" fill="#93EAFF" fill-opacity="0.2"/>
<path d="M1146.26 125.832C1153 125.031 1151.73 114.815 1144.99 115.618C1138.25 116.419 1139.52 126.634 1146.26 125.832Z" fill="#93EAFF" fill-opacity="0.2"/>
<path d="M177.775 60.2585C184.508 59.4573 183.243 49.2422 176.499 50.0449C169.766 50.846 171.03 61.0611 177.775 60.2585Z" fill="#93EAFF" fill-opacity="0.2"/>
<path d="M1576.38 73.6017C1583.11 72.8005 1581.85 62.586 1575.1 63.3887C1568.37 64.1897 1569.63 74.4043 1576.38 73.6017Z" fill="#93EAFF" fill-opacity="0.2"/>
<path d="M275.03 94.8663C281.763 94.0648 280.498 83.8507 273.754 84.6533C267.021 85.4544 268.285 95.6684 275.03 94.8663Z" fill="#93EAFF" fill-opacity="0.2"/>
<path d="M554.045 70.4962C560.778 69.6951 559.513 59.481 552.769 60.2831C546.036 61.0843 547.301 71.2989 554.045 70.4962Z" fill="#93EAFF" fill-opacity="0.2"/>
<path d="M1462.72 97.2768C1469.45 96.4756 1468.19 86.2605 1461.44 87.0632C1454.71 87.8643 1455.98 98.0794 1462.72 97.2768Z" fill="#93EAFF" fill-opacity="0.2"/>
<path d="M764.76 100.237C771.493 99.4358 770.229 89.2212 763.484 90.0239C756.751 90.825 758.016 101.04 764.76 100.237Z" fill="#93EAFF" fill-opacity="0.2"/>
<path d="M1782.55 100.14C1789.16 98.6352 1786.77 88.6135 1780.16 90.1213C1773.55 91.6262 1775.94 101.648 1782.55 100.14Z" fill="#93EAFF" fill-opacity="0.2"/>
<path d="M1891.4 82.3772C1898 80.8725 1895.62 70.8502 1889 72.3576C1882.4 73.8623 1884.78 83.8846 1891.4 82.3772Z" fill="#93EAFF" fill-opacity="0.2"/>
<path d="M1271.82 80.1707C1278.55 79.3697 1277.29 69.1556 1270.54 69.9577C1263.81 70.7589 1265.08 80.9734 1271.82 80.1707Z" fill="#93EAFF" fill-opacity="0.2"/>
<path d="M1751.87 166.474C1745.11 166.024 1744.38 176.288 1751.16 176.739C1757.93 177.188 1758.65 166.924 1751.87 166.474Z" fill="#0B2A31" fill-opacity="0.09"/>
<path d="M2080.13 144.176C2073.36 143.727 2072.64 153.991 2079.41 154.442C2086.18 154.891 2086.91 144.627 2080.13 144.176Z" fill="#0B2A31" fill-opacity="0.09"/>
<path d="M1082.99 169.513C1076.26 170.314 1077.52 180.528 1084.27 179.726C1091 178.925 1089.74 168.711 1082.99 169.513Z" fill="#0B2A31" fill-opacity="0.09"/>
<path d="M501.496 167.053C494.762 167.854 496.027 178.069 502.772 177.267C509.505 176.465 508.24 166.25 501.496 167.053Z" fill="#0B2A31" fill-opacity="0.09"/>
<path d="M933.523 159.286C926.79 160.087 928.054 170.301 934.799 169.499C941.532 168.697 940.267 158.483 933.523 159.286Z" fill="#0B2A31" fill-opacity="0.09"/>
<path d="M448.366 122.168C441.633 122.969 442.898 133.185 449.641 132.382C456.375 131.581 455.11 121.366 448.366 122.168Z" fill="#0B2A31" fill-opacity="0.09"/>
<path d="M1987.77 141.143C1981 140.694 1980.27 150.957 1987.05 151.408C1993.82 151.858 1994.54 141.593 1987.77 141.143Z" fill="#0B2A31" fill-opacity="0.09"/>
<path d="M1516.54 142.82C1509.77 142.37 1509.04 152.634 1515.82 153.084C1522.59 153.534 1523.32 143.27 1516.54 142.82Z" fill="#0B2A31" fill-opacity="0.09"/>
<path d="M1269.06 172.842C1262.33 173.643 1263.59 183.858 1270.34 183.055C1277.07 182.254 1275.81 172.04 1269.06 172.842Z" fill="#0B2A31" fill-opacity="0.09"/>
<path d="M1918.13 119.547C1911.36 119.097 1910.64 129.361 1917.42 129.811C1924.18 130.261 1924.91 119.997 1918.13 119.547Z" fill="#0B2A31" fill-opacity="0.09"/>
<path d="M1884.86 153.56C1878.09 153.111 1877.36 163.375 1884.14 163.825C1890.91 164.275 1891.64 154.01 1884.86 153.56Z" fill="#0B2A31" fill-opacity="0.09"/>
<path d="M1957.08 123.252C1950.31 122.803 1949.59 133.067 1956.37 133.517C1963.13 133.967 1963.86 123.703 1957.08 123.252Z" fill="#0B2A31" fill-opacity="0.09"/>
<path d="M714.213 175.354C707.479 176.155 708.744 186.369 715.489 185.566C722.221 184.765 720.957 174.551 714.213 175.354Z" fill="#0B2A31" fill-opacity="0.09"/>
<path d="M544.494 156.754C537.761 157.555 539.025 167.77 545.77 166.967C552.503 166.166 551.238 155.951 544.494 156.754Z" fill="#0B2A31" fill-opacity="0.09"/>
<path d="M406.704 127.126C399.971 127.927 401.236 138.142 407.98 137.34C414.713 136.538 413.448 126.323 406.704 127.126Z" fill="#0B2A31" fill-opacity="0.09"/>
<path d="M582.492 117.777C575.759 118.578 577.024 128.793 583.768 127.99C590.501 127.189 589.236 116.974 582.492 117.777Z" fill="#0B2A31" fill-opacity="0.09"/>
<path d="M690.849 137.388C684.116 138.189 685.38 148.403 692.124 147.601C698.857 146.8 697.593 136.585 690.849 137.388Z" fill="#0B2A31" fill-opacity="0.09"/>
<path d="M161.598 91.9962C154.865 92.7979 156.13 103.012 162.874 102.209C169.607 101.408 168.343 91.1941 161.598 91.9962Z" fill="#0B2A31" fill-opacity="0.09"/>
<path d="M1748.9 135.992C1742.13 135.542 1741.4 145.806 1748.18 146.256C1754.95 146.706 1755.67 136.442 1748.9 135.992Z" fill="#0B2A31" fill-opacity="0.09"/>
<path d="M1820.73 139.569C1813.97 139.119 1813.24 149.384 1820.02 149.834C1826.79 150.284 1827.51 140.019 1820.73 139.569Z" fill="#0B2A31" fill-opacity="0.09"/>
<path d="M204.443 172.154C197.71 172.956 198.975 183.17 205.719 182.368C212.452 181.566 211.187 171.352 204.443 172.154Z" fill="#0B2A31" fill-opacity="0.09"/>
<path d="M621.868 174.203C615.135 175.005 616.399 185.219 623.144 184.417C629.877 183.615 628.612 173.401 621.868 174.203Z" fill="#0B2A31" fill-opacity="0.09"/>
<path d="M862.953 178.791C856.221 179.593 857.485 189.807 864.229 189.004C870.962 188.203 869.697 177.989 862.953 178.791Z" fill="#0B2A31" fill-opacity="0.09"/>
<path d="M448.366 122.168C441.633 122.969 442.898 133.185 449.641 132.382C456.375 131.581 455.11 121.366 448.366 122.168Z" fill="#0B2A31" fill-opacity="0.09"/>
<path d="M1416.85 187.742C1410.12 188.543 1411.39 198.758 1418.13 197.955C1424.86 197.154 1423.6 186.939 1416.85 187.742Z" fill="#0B2A31" fill-opacity="0.09"/>
<path d="M18.2513 174.398C11.5185 175.199 12.783 185.414 19.5272 184.611C26.2607 183.81 24.9961 173.596 18.2513 174.398Z" fill="#0B2A31" fill-opacity="0.09"/>
<path d="M1616.53 163.012C1609.76 162.562 1609.03 172.826 1615.81 173.276C1622.58 173.726 1623.31 163.462 1616.53 163.012Z" fill="#0B2A31" fill-opacity="0.09"/>
<path d="M1319.6 153.134C1312.87 153.935 1314.13 164.149 1320.88 163.347C1327.61 162.546 1326.34 152.332 1319.6 153.134Z" fill="#0B2A31" fill-opacity="0.09"/>
<path d="M1040.58 177.504C1033.85 178.305 1035.12 188.519 1041.86 187.717C1048.59 186.916 1047.33 176.701 1040.58 177.504Z" fill="#0B2A31" fill-opacity="0.09"/>
<path d="M131.909 150.723C125.176 151.524 126.441 161.739 133.185 160.937C139.918 160.136 138.653 149.921 131.909 150.723Z" fill="#0B2A31" fill-opacity="0.09"/>
<path d="M829.869 147.763C823.136 148.564 824.4 158.779 831.145 157.976C837.878 157.175 836.613 146.96 829.869 147.763Z" fill="#0B2A31" fill-opacity="0.09"/>
<path d="M322.809 167.83C316.077 168.631 317.341 178.845 324.085 178.043C330.818 177.241 329.554 167.027 322.809 167.83Z" fill="#0B2A31" fill-opacity="0.09"/>
</g>
<defs>
<linearGradient id="paint0_linear_13_162" x1="53.589" y1="0" x2="53.589" y2="429.466" gradientUnits="userSpaceOnUse">
<stop stop-color="#A2DFCE"/>
<stop offset="1" stop-color="#1C4E73" stop-opacity="0"/>
</linearGradient>
<linearGradient id="paint1_linear_13_162" x1="53.589" y1="0" x2="53.589" y2="449.335" gradientUnits="userSpaceOnUse">
<stop stop-color="#A2DFCE"/>
<stop offset="1" stop-color="#1C4E73" stop-opacity="0"/>
</linearGradient>
<linearGradient id="paint2_linear_13_162" x1="73.4454" y1="0" x2="73.4454" y2="817.153" gradientUnits="userSpaceOnUse">
<stop stop-color="#A2DFCE"/>
<stop offset="1" stop-color="#1C4E73" stop-opacity="0"/>
</linearGradient>
<linearGradient id="paint3_linear_13_162" x1="73.4454" y1="0" x2="73.4454" y2="791.363" gradientUnits="userSpaceOnUse">
<stop stop-color="#A2DFCE"/>
<stop offset="1" stop-color="#1C4E73" stop-opacity="0"/>
</linearGradient>
<linearGradient id="paint4_linear_13_162" x1="103.809" y1="0" x2="103.809" y2="585.116" gradientUnits="userSpaceOnUse">
<stop stop-color="#A2DFCE"/>
<stop offset="1" stop-color="#1C4E73" stop-opacity="0"/>
</linearGradient>
<linearGradient id="paint5_linear_13_162" x1="103.809" y1="0" x2="103.809" y2="741.734" gradientUnits="userSpaceOnUse">
<stop stop-color="#A2DFCE"/>
<stop offset="1" stop-color="#1C4E73" stop-opacity="0"/>
</linearGradient>
<linearGradient id="paint6_linear_13_162" x1="59.8082" y1="0" x2="59.8082" y2="723.853" gradientUnits="userSpaceOnUse">
<stop stop-color="#A2DFCE"/>
<stop offset="1" stop-color="#1C4E73" stop-opacity="0"/>
</linearGradient>
</defs>
</svg>
