<svg width="2120" height="459" viewBox="0 0 2120 459" fill="none" xmlns="http://www.w3.org/2000/svg">
<g clip-path="url(#clip0_21_10)">
<path d="M272.099 22.9851C207.29 17.9095 91.0123 32.1763 33.748 40.1237C14.2487 42.83 0 59.554 0 79.2402V459H2120V61.4216C2120 36.8488 2098.11 17.9792 2073.75 21.1724C2007.77 29.8193 1887.47 42.9199 1822.6 33.529C1730.18 20.1485 1660.48 22.4658 1612.98 21.0829C1565.47 19.7 1285.11 28.4583 1204.05 28.4583C1122.99 28.4583 911.817 7.89513 827.657 11.4026C743.497 14.9101 530.774 31.6851 446.098 31.6851C361.422 31.6851 360.39 29.8996 272.099 22.9851Z" fill="url(#paint0_linear_21_10)"/>
<path opacity="0.8" d="M-0.0253906 48C-0.0253906 48 183.697 16.5094 271.946 24.0223C360.194 31.5351 361.226 33.4752 445.863 33.4752C530.499 33.4752 743.121 15.2485 827.241 11.4375C911.361 7.62644 1122.44 29.9692 1203.46 29.9692C1284.48 29.9692 1564.71 20.4529 1612.19 21.9554C1659.67 23.458 1729.34 20.9402 1821.72 35.4786C1914.09 50.0169 2118.97 14.9435 2118.97 14.9435" stroke="url(#paint1_linear_21_10)" stroke-width="3"/>
<path opacity="0.5" d="M2277.54 102.673C2277.54 102.673 2072.26 22.9417 1973.41 41.3421C1874.56 59.7425 1873.39 64.5964 1778.67 64.1981C1683.94 63.7999 1446.17 17.1512 1352.07 7.2108C1257.96 -2.72961 1021.5 52.2338 930.816 51.8525C840.136 51.4712 526.611 26.3193 473.457 29.859C420.304 33.3988 342.358 26.7652 238.818 62.7413C135.278 98.7175 -93.652 9.91297 -93.652 9.91297" stroke="#93EAFF" stroke-width="2"/>
</g>
<defs>
<linearGradient id="paint0_linear_21_10" x1="1060" y1="11" x2="1060" y2="459" gradientUnits="userSpaceOnUse">
<stop stop-color="#225275" stop-opacity="0.65"/>
<stop offset="0.241953" stop-color="#224D75"/>
</linearGradient>
<linearGradient id="paint1_linear_21_10" x1="91.3197" y1="35.5407" x2="2076.66" y2="35.5407" gradientUnits="userSpaceOnUse">
<stop stop-color="#FAF0AC"/>
<stop offset="1" stop-color="#4AB2D1"/>
</linearGradient>
<clipPath id="clip0_21_10">
<rect width="2120" height="459" fill="white"/>
</clipPath>
</defs>
</svg>
