<svg width="28" height="28" viewBox="0 0 28 28" fill="none" xmlns="http://www.w3.org/2000/svg">
<path d="M26.5064 1.10919L15.644 9.17678L17.6528 4.41701L26.5064 1.10919Z" fill="#E2761B"/>
<path fill-rule="evenodd" clip-rule="evenodd" d="M26.5542 1.08314C26.5672 1.10702 26.5606 1.13683 26.5388 1.15304L15.6765 9.22063C15.6567 9.23531 15.6296 9.23494 15.6102 9.21974C15.5909 9.20454 15.5841 9.17826 15.5937 9.15559L17.6024 4.39582C17.6082 4.38198 17.6195 4.37116 17.6335 4.36591L26.4872 1.05809C26.5126 1.04857 26.5412 1.05925 26.5542 1.08314ZM17.6938 4.45994L15.772 9.01368L26.1642 1.2953L17.6938 4.45994Z" fill="#E2761B"/>
<path d="M1.42997 1.10919L12.2049 9.2532L10.2945 4.41701L1.42997 1.10919ZM22.5978 19.8098L19.7049 24.2421L25.8947 25.9451L27.6742 19.9081L22.5978 19.8098ZM0.283691 19.9081L2.05223 25.9451L8.24211 24.2421L5.34913 19.8098L0.283691 19.9081Z" fill="#E4761B"/>
<path fill-rule="evenodd" clip-rule="evenodd" d="M1.38202 1.08295C1.39506 1.05919 1.42356 1.0486 1.44895 1.05808L10.3135 4.3659C10.328 4.37131 10.3395 4.3826 10.3452 4.39699L12.2556 9.23318C12.2646 9.25593 12.2574 9.28188 12.2379 9.29669C12.2184 9.31149 12.1915 9.31153 12.1719 9.29677L1.39695 1.15276C1.37533 1.13642 1.36897 1.1067 1.38202 1.08295ZM1.76091 1.29101L12.0826 9.09244L10.2525 4.45969L1.76091 1.29101ZM5.34797 19.7553C5.36678 19.7549 5.38446 19.7643 5.39474 19.78L8.28772 24.2123C8.29725 24.2269 8.29923 24.2452 8.29306 24.2615C8.28688 24.2778 8.2733 24.2901 8.25649 24.2948L2.06661 25.9978C2.03788 26.0057 2.00812 25.9891 1.99974 25.9605L0.231206 19.9235C0.226425 19.9072 0.229524 19.8895 0.239587 19.8758C0.24965 19.8621 0.265527 19.8539 0.28253 19.8536L5.34797 19.7553ZM22.552 19.78C22.5623 19.7643 22.58 19.7549 22.5988 19.7553L27.6752 19.8536C27.6922 19.8539 27.7081 19.8621 27.7181 19.8759C27.7282 19.8896 27.7313 19.9072 27.7265 19.9236L25.947 25.9606C25.9386 25.9892 25.9089 26.0057 25.8802 25.9978L19.6903 24.2948C19.6735 24.2901 19.6599 24.2778 19.6537 24.2615C19.6475 24.2452 19.6495 24.2269 19.659 24.2123L22.552 19.78ZM0.356049 19.9613L2.08942 25.8783L8.15543 24.2093L5.31985 19.865L0.356049 19.9613ZM22.6269 19.865L19.7913 24.2093L25.8574 25.8783L27.6015 19.9613L22.6269 19.865Z" fill="#E4761B"/>
<path d="M7.89284 12.3209L6.16797 14.9301L12.3142 15.203L12.0958 8.59827L7.89284 12.3209ZM20.0434 12.3209L15.7858 8.52185L15.6438 15.203L21.7791 14.9301L20.0434 12.3209ZM8.24218 24.2422L11.9321 22.4409L8.74436 19.9518L8.24218 24.2422ZM16.0041 22.4409L19.7049 24.2422L19.1918 19.9518L16.0041 22.4409Z" fill="#E4761B"/>
<path fill-rule="evenodd" clip-rule="evenodd" d="M15.7639 8.47176C15.7834 8.46326 15.8061 8.4669 15.822 8.48108L20.0796 12.2802C20.0831 12.2833 20.0861 12.2868 20.0887 12.2907L21.8245 14.8998C21.8354 14.9162 21.8366 14.9372 21.8277 14.9547C21.8188 14.9723 21.8011 14.9837 21.7815 14.9846L15.6462 15.2575C15.6311 15.2582 15.6164 15.2525 15.6056 15.242C15.5948 15.2314 15.5888 15.2169 15.5892 15.2018L15.7311 8.52065C15.7315 8.49935 15.7443 8.48026 15.7639 8.47176ZM15.8377 8.64142L15.6995 15.1458L21.6801 14.8798L20.0017 12.357L15.8377 8.64142ZM12.1173 8.54809C12.1368 8.55645 12.1496 8.57528 12.1503 8.59642L12.3686 15.2012C12.3691 15.2164 12.3633 15.2311 12.3525 15.2418C12.3416 15.2525 12.3269 15.2582 12.3117 15.2575L6.16544 14.9846C6.14581 14.9837 6.12815 14.9723 6.11923 14.9548C6.11031 14.9373 6.11149 14.9163 6.12233 14.8999L7.8472 12.2908C7.84983 12.2868 7.85297 12.2832 7.85654 12.28L12.0596 8.55737C12.0754 8.54334 12.0979 8.53973 12.1173 8.54809ZM7.93431 12.357L6.26652 14.8798L12.2576 15.1458L12.045 8.71607L7.93431 12.357ZM8.72322 19.9014C8.74142 19.8938 8.7623 19.8966 8.77785 19.9088L11.9656 22.3978C11.9804 22.4094 11.9882 22.4278 11.9863 22.4465C11.9843 22.4653 11.9729 22.4817 11.9559 22.4899L8.26602 24.2912C8.24809 24.3 8.2268 24.2982 8.21051 24.2867C8.19423 24.2751 8.18554 24.2556 8.18786 24.2358L8.69004 19.9455C8.69233 19.9259 8.70502 19.909 8.72322 19.9014ZM19.2127 19.9014C19.2309 19.909 19.2436 19.9258 19.2459 19.9453L19.759 24.2357C19.7614 24.2555 19.7527 24.275 19.7365 24.2866C19.7202 24.2982 19.6989 24.3 19.6809 24.2912L15.9801 22.4899C15.9632 22.4817 15.9517 22.4653 15.9497 22.4466C15.9477 22.4279 15.9556 22.4094 15.9704 22.3978L19.1581 19.9088C19.1737 19.8967 19.1945 19.8938 19.2127 19.9014ZM8.78718 20.0546L8.30791 24.1493L11.8296 22.4301L8.78718 20.0546ZM16.1065 22.4301L19.6387 24.1493L19.149 20.0544L16.1065 22.4301Z" fill="#E4761B"/>
<path d="M19.7049 24.2421L16.0041 22.4409L16.2989 24.8535L16.2661 25.8688L19.7049 24.2421ZM8.24219 24.2421L11.681 25.8688L11.6592 24.8535L11.9321 22.4409L8.24219 24.2421Z" fill="#D7C1B3"/>
<path fill-rule="evenodd" clip-rule="evenodd" d="M15.9723 22.3964C15.9886 22.3848 16.0099 22.383 16.0279 22.3918L19.7287 24.1931C19.7476 24.2023 19.7595 24.2215 19.7594 24.2425C19.7593 24.2635 19.7472 24.2825 19.7282 24.2915L16.2893 25.9181C16.2722 25.9263 16.252 25.9249 16.2361 25.9144C16.2202 25.904 16.2108 25.886 16.2115 25.867L16.2441 24.856L15.9498 22.4475C15.9474 22.4276 15.956 22.4081 15.9723 22.3964ZM11.9635 22.3963C11.9798 22.4078 11.9885 22.4272 11.9862 22.447L11.7137 24.856L11.7355 25.8676C11.7359 25.8865 11.7265 25.9043 11.7106 25.9146C11.6947 25.9249 11.6747 25.9262 11.6576 25.9181L8.21874 24.2915C8.19978 24.2825 8.18763 24.2635 8.1875 24.2425C8.18737 24.2215 8.19928 24.2023 8.21814 24.1931L11.9081 22.3918C11.926 22.3831 11.9472 22.3848 11.9635 22.3963ZM16.0704 22.5339L16.3529 24.8469C16.3533 24.8497 16.3534 24.8525 16.3533 24.8553L16.3234 25.7812L19.5787 24.2415L16.0704 22.5339ZM8.3681 24.2414L11.6244 25.7817L11.6045 24.8547C11.6045 24.8522 11.6046 24.8498 11.6048 24.8474L11.8666 22.5336L8.3681 24.2414Z" fill="#D7C1B3"/>
<path d="M11.7358 18.3579L8.65723 17.4518L10.8297 16.4584L11.7358 18.3579ZM16.2008 18.3579L17.1069 16.4584L19.2903 17.4518L16.2008 18.3579Z" fill="#233447"/>
<path fill-rule="evenodd" clip-rule="evenodd" d="M10.8069 16.4088C10.834 16.3964 10.866 16.408 10.8789 16.4349L11.785 18.3344C11.7942 18.3539 11.7912 18.377 11.7772 18.3934C11.7633 18.4098 11.7409 18.4164 11.7203 18.4103L8.64171 17.5042C8.61986 17.4978 8.6043 17.4785 8.60268 17.4557C8.60106 17.433 8.61371 17.4117 8.63442 17.4022L10.8069 16.4088ZM17.0575 16.4349C17.0704 16.408 17.1023 16.3964 17.1294 16.4087L19.3128 17.4022C19.3336 17.4116 19.3462 17.433 19.3446 17.4557C19.343 17.4785 19.3274 17.4978 19.3055 17.5042L16.2161 18.4103C16.1954 18.4164 16.1731 18.4097 16.1591 18.3933C16.1452 18.3769 16.1422 18.3539 16.1514 18.3344L17.0575 16.4349ZM17.133 16.5303L16.3026 18.2712L19.134 17.4408L17.133 16.5303ZM8.81268 17.4407L11.6338 18.271L10.8034 16.5304L8.81268 17.4407Z" fill="#233447"/>
<path d="M8.2421 24.2422L8.76611 19.8099L5.34912 19.9082L8.2421 24.2422ZM19.1808 19.8099L19.7048 24.2422L22.5978 19.9082L19.1808 19.8099ZM21.7791 14.9301L15.6438 15.203L16.2114 18.358L17.1175 16.4584L19.3009 17.4519L21.7791 14.9301ZM8.65694 17.4519L10.8403 16.4584L11.7355 18.358L12.3141 15.203L6.16789 14.9301L8.65694 17.4519Z" fill="#CD6116"/>
<path fill-rule="evenodd" clip-rule="evenodd" d="M6.11839 14.9078C6.12751 14.8873 6.14826 14.8745 6.1707 14.8755L12.3169 15.1484C12.3327 15.1491 12.3474 15.1566 12.3572 15.1689C12.367 15.1813 12.371 15.1973 12.3682 15.2128L11.7896 18.3678C11.7853 18.3911 11.7665 18.409 11.7429 18.412C11.7194 18.4151 11.6966 18.4026 11.6865 18.3812L10.8143 16.5304L8.67993 17.5015C8.6591 17.511 8.63456 17.5065 8.61848 17.4902L6.12943 14.9684C6.11365 14.9524 6.10927 14.9284 6.11839 14.9078ZM21.8293 14.9078C21.8384 14.9283 21.8341 14.9523 21.8184 14.9683L19.3402 17.4901C19.3242 17.5064 19.2996 17.511 19.2787 17.5015L17.1441 16.5303L16.2611 18.3814C16.2509 18.4028 16.228 18.4152 16.2046 18.412C16.1811 18.4089 16.1623 18.3909 16.1581 18.3676L15.5904 15.2126C15.5876 15.1971 15.5917 15.1812 15.6015 15.1689C15.6113 15.1566 15.626 15.1491 15.6417 15.1484L21.777 14.8755C21.7994 14.8745 21.8202 14.8873 21.8293 14.9078ZM6.30488 14.9907L8.66941 17.3864L10.8181 16.4087C10.8453 16.3963 10.8774 16.4081 10.8901 16.4351L11.7128 18.181L12.2495 15.2547L6.30488 14.9907ZM15.7089 15.2547L16.2355 18.1814L17.0687 16.4349C17.0815 16.408 17.1134 16.3964 17.1405 16.4087L19.2891 17.3863L21.6433 14.9907L15.7089 15.2547ZM8.80677 19.773C8.81748 19.7847 8.82257 19.8005 8.8207 19.8163L8.29669 24.2485C8.29401 24.2712 8.27745 24.2899 8.25522 24.2952C8.23298 24.3005 8.20978 24.2915 8.19709 24.2724L5.30411 19.9384C5.29308 19.9219 5.2919 19.9007 5.30101 19.8831C5.31012 19.8654 5.32809 19.8541 5.34794 19.8536L8.76493 19.7553C8.78079 19.7548 8.79606 19.7613 8.80677 19.773ZM19.1409 19.773C19.1517 19.7613 19.1669 19.7548 19.1828 19.7553L22.5998 19.8536C22.6196 19.8541 22.6376 19.8654 22.6467 19.8831C22.6558 19.9007 22.6546 19.9219 22.6436 19.9384L19.7506 24.2724C19.7379 24.2915 19.7147 24.3005 19.6925 24.2952C19.6703 24.2899 19.6537 24.2712 19.651 24.2485L19.127 19.8163C19.1252 19.8005 19.1302 19.7847 19.1409 19.773ZM5.44966 19.9598L8.20567 24.0886L8.70487 19.8662L5.44966 19.9598ZM19.2429 19.8662L19.7421 24.0887L22.4981 19.9598L19.2429 19.8662Z" fill="#CD6116"/>
<path d="M6.16797 14.9301L8.74436 19.9518L8.65702 17.4519L6.16797 14.9301ZM19.301 17.4519L19.1918 19.9518L21.7791 14.9301L19.301 17.4519ZM12.3142 15.203L11.7356 18.358L12.4561 22.0806L12.6199 17.1789L12.3142 15.203ZM15.6438 15.203L15.3491 17.168L15.4801 22.0806L16.2115 18.358L15.6438 15.203Z" fill="#E4751F"/>
<path fill-rule="evenodd" clip-rule="evenodd" d="M21.811 14.8858C21.8329 14.9016 21.8399 14.931 21.8276 14.955L19.2403 19.9768C19.2285 19.9996 19.2025 20.0111 19.1777 20.0045C19.1529 19.998 19.1361 19.975 19.1372 19.9494L19.2464 17.4494C19.247 17.436 19.2525 17.4232 19.262 17.4136L21.7401 14.8918C21.759 14.8725 21.7892 14.87 21.811 14.8858ZM6.13587 14.8858C6.1577 14.87 6.18779 14.8725 6.20672 14.8917L8.69577 17.4135C8.70539 17.4232 8.711 17.4362 8.71147 17.4499L8.79881 19.9499C8.7997 19.9754 8.78274 19.9982 8.758 20.0046C8.73326 20.0111 8.70736 19.9995 8.69569 19.9767L6.1193 14.9549C6.107 14.931 6.11404 14.9016 6.13587 14.8858ZM6.37864 15.2213L8.68117 19.7092L8.60312 17.475L6.37864 15.2213ZM19.3545 17.4751L19.2571 19.7057L21.5656 15.2251L19.3545 17.4751ZM12.3148 15.1484C12.3415 15.1487 12.364 15.1683 12.368 15.1946L12.6737 17.1705C12.6742 17.1739 12.6744 17.1773 12.6743 17.1807L12.5106 22.0824C12.5096 22.1102 12.488 22.1328 12.4603 22.135C12.4326 22.1372 12.4077 22.1182 12.4024 22.091L11.6819 18.3683C11.6806 18.3616 11.6806 18.3548 11.6818 18.3481L12.2604 15.1931C12.2652 15.1669 12.2882 15.148 12.3148 15.1484ZM15.6429 15.1484C15.6697 15.148 15.6927 15.167 15.6975 15.1933L16.2651 18.3483C16.2663 18.3549 16.2663 18.3618 16.265 18.3684L15.5335 22.0911C15.5282 22.1184 15.5031 22.1373 15.4754 22.135C15.4477 22.1327 15.4262 22.1098 15.4254 22.082L15.2944 17.1694C15.2943 17.1662 15.2945 17.163 15.295 17.1599L15.5898 15.1948C15.5937 15.1684 15.6162 15.1487 15.6429 15.1484ZM11.791 18.3576L12.4176 21.595L12.565 17.1822L12.3095 15.5305L11.791 18.3576ZM15.6486 15.5383L15.4037 17.1713L15.5214 21.5866L16.1559 18.3575L15.6486 15.5383Z" fill="#E4751F"/>
<path d="M16.2117 18.3579L15.4803 22.0806L16.0043 22.4409L19.192 19.9518L19.3012 17.4518L16.2117 18.3579ZM8.65723 17.4518L8.74456 19.9518L11.9323 22.4409L12.4563 22.0806L11.7358 18.3579L8.65723 17.4518Z" fill="#F6851B"/>
<path fill-rule="evenodd" clip-rule="evenodd" d="M19.3348 17.4088C19.3486 17.4197 19.3564 17.4366 19.3556 17.4542L19.2465 19.9542C19.2458 19.9701 19.2381 19.985 19.2255 19.9948L16.0378 22.4838C16.019 22.4985 15.9929 22.4993 15.9733 22.4858L15.4493 22.1255C15.4313 22.1132 15.4224 22.0914 15.4266 22.07L16.1581 18.3474C16.162 18.3274 16.1767 18.3113 16.1963 18.3055L19.2857 17.3994C19.3026 17.3945 19.3209 17.398 19.3348 17.4088ZM8.62367 17.4087C8.63753 17.3979 8.65571 17.3945 8.67254 17.3994L11.7511 18.3055C11.7707 18.3113 11.7854 18.3275 11.7893 18.3475L12.5098 22.0702C12.5139 22.0915 12.505 22.1132 12.4871 22.1255L11.9631 22.4858C11.9435 22.4993 11.9174 22.4985 11.8986 22.4838L8.71087 19.9948C8.69814 19.9849 8.69047 19.9698 8.68991 19.9537L8.60257 17.4537C8.60196 17.4362 8.60981 17.4194 8.62367 17.4087ZM16.2588 18.401L15.5407 22.0559L16.0021 22.3732L19.1385 19.9242L19.2432 17.5257L16.2588 18.401ZM8.71432 17.5255L11.6884 18.4009L12.3958 22.0558L11.9342 22.3732L8.79812 19.9244L8.71432 17.5255Z" fill="#F6851B"/>
<path d="M16.2661 25.8687L16.2989 24.8535L16.0259 24.6133H11.9103L11.6592 24.8535L11.681 25.8687L8.24219 24.2421L9.44305 25.2246L11.8775 26.9168H16.0587L18.5041 25.2246L19.7049 24.2421L16.2661 25.8687Z" fill="#C0AD9E"/>
<path fill-rule="evenodd" clip-rule="evenodd" d="M8.19595 24.213C8.21069 24.1897 8.2405 24.181 8.26543 24.1928L11.6244 25.7817L11.6045 24.8547C11.6042 24.8394 11.6103 24.8246 11.6213 24.8141L11.8724 24.5739C11.8826 24.5642 11.8961 24.5587 11.9102 24.5587H16.0258C16.0391 24.5587 16.0519 24.5636 16.0619 24.5724L16.3348 24.8125C16.3471 24.8233 16.3538 24.839 16.3533 24.8553L16.3234 25.7812L19.6815 24.1928C19.7064 24.181 19.7362 24.1897 19.751 24.213C19.7657 24.2363 19.7607 24.2669 19.7394 24.2844L18.5385 25.2669C18.5374 25.2678 18.5362 25.2687 18.535 25.2696L16.0896 26.9617C16.0805 26.968 16.0697 26.9714 16.0586 26.9714H11.8774C11.8663 26.9714 11.8554 26.968 11.8463 26.9616L9.41179 25.2695C9.41062 25.2687 9.40948 25.2678 9.40838 25.2669L8.20752 24.2844C8.18618 24.2669 8.18121 24.2363 8.19595 24.213ZM8.62135 24.4819L9.47586 25.1811L11.8945 26.8622H16.0415L18.4711 25.181L19.3256 24.4819L16.2894 25.9181C16.2722 25.9262 16.252 25.9248 16.2361 25.9144C16.2202 25.904 16.2108 25.886 16.2115 25.867L16.2434 24.8775L16.0052 24.6679H11.9321L11.7142 24.8763L11.7355 25.8676C11.7359 25.8865 11.7265 25.9043 11.7106 25.9146C11.6947 25.9249 11.6747 25.9262 11.6576 25.9181L8.62135 24.4819Z" fill="#C0AD9E"/>
<path d="M16.0041 22.4408L15.4801 22.0806H12.4561L11.9321 22.4408L11.6592 24.8535L11.9103 24.6133H16.0259L16.2989 24.8535L16.0041 22.4408Z" fill="#161616"/>
<path fill-rule="evenodd" clip-rule="evenodd" d="M12.4251 22.0356C12.4342 22.0293 12.445 22.026 12.456 22.026H15.48C15.491 22.026 15.5018 22.0293 15.5109 22.0356L16.0349 22.3959C16.0478 22.4047 16.0563 22.4187 16.0582 22.4342L16.3529 24.8469C16.3557 24.8693 16.3443 24.8912 16.3242 24.9018C16.3042 24.9123 16.2797 24.9094 16.2627 24.8945L16.0052 24.6679H11.9321L11.6968 24.8929C11.6802 24.9088 11.6554 24.9126 11.6348 24.9024C11.6143 24.8922 11.6023 24.8702 11.6048 24.8473L11.8778 22.4347C11.8795 22.419 11.888 22.4048 11.9011 22.3959L12.4251 22.0356ZM12.473 22.1352L11.9834 22.4717L11.7303 24.7099L11.8724 24.5739C11.8826 24.5641 11.8961 24.5587 11.9102 24.5587H16.0258C16.0391 24.5587 16.0519 24.5636 16.0619 24.5723L16.2272 24.7178L15.9528 22.4719L15.463 22.1352H12.473Z" fill="#161616"/>
<path d="M26.9649 9.70079L27.8928 5.2467L26.5063 1.10919L16.0043 8.90386L20.0435 12.3209L25.7531 13.9911L27.0194 12.5174L26.4736 12.1243L27.3469 11.3274L26.6701 10.8034L27.5434 10.1375L26.9649 9.70079ZM0.0546875 5.2467L0.982624 9.70079L0.393112 10.1375L1.26646 10.8034L0.600533 11.3274L1.47388 12.1243L0.92804 12.5174L2.18348 13.9911L7.89302 12.3209L11.9323 8.90386L1.43022 1.10919L0.0546875 5.2467Z" fill="#763D16"/>
<path fill-rule="evenodd" clip-rule="evenodd" d="M1.41369 1.05716C1.43038 1.05189 1.44859 1.05495 1.46265 1.06538L11.9647 8.86005C11.9781 8.86998 11.9862 8.88549 11.9867 8.90214C11.9873 8.9188 11.9802 8.93479 11.9674 8.94555L7.92817 12.3625C7.92235 12.3675 7.91556 12.3711 7.90825 12.3733L2.19871 14.0435C2.17806 14.0496 2.15578 14.0429 2.14183 14.0266L0.886385 12.5528C0.876496 12.5412 0.871914 12.5259 0.873749 12.5108C0.875583 12.4957 0.883667 12.482 0.896043 12.4731L1.38732 12.1194L0.563637 11.3678C0.55179 11.3569 0.545296 11.3415 0.545881 11.3254C0.546467 11.3094 0.554071 11.2945 0.566675 11.2845L1.17723 10.8041L0.359912 10.1809C0.346265 10.1705 0.338306 10.1543 0.338426 10.1371C0.338545 10.12 0.346728 10.1038 0.360519 10.0936L0.921959 9.67775L0.00114735 5.25785C-0.000817258 5.24842 -0.000251404 5.23864 0.00278745 5.2295L1.37832 1.09199C1.38384 1.07538 1.39699 1.06243 1.41369 1.05716ZM26.5226 1.05714C26.5393 1.06238 26.5524 1.07529 26.558 1.09187L27.9444 5.22937C27.9475 5.23855 27.9481 5.24838 27.9461 5.25785L27.0252 9.67808L27.5762 10.0939C27.5899 10.1042 27.5979 10.1203 27.5979 10.1374C27.598 10.1544 27.59 10.1705 27.5764 10.1809L26.7596 10.8038L27.3803 11.2843C27.393 11.2941 27.4007 11.3091 27.4014 11.3252C27.402 11.3413 27.3955 11.3569 27.3836 11.3678L26.56 12.1194L27.0512 12.4731C27.0636 12.482 27.0717 12.4957 27.0735 12.5109C27.0753 12.5261 27.0707 12.5414 27.0607 12.5529L25.7944 14.0267C25.7804 14.043 25.7582 14.0496 25.7376 14.0435L20.0281 12.3733C20.0208 12.3711 20.014 12.3675 20.0082 12.3625L15.9689 8.94555C15.9562 8.93479 15.9491 8.9188 15.9496 8.90214C15.9502 8.88549 15.9583 8.86998 15.9716 8.86005L26.4737 1.06538C26.4877 1.05496 26.5059 1.0519 26.5226 1.05714ZM16.092 8.90668L20.0699 12.2717L25.7345 13.9289L26.9392 12.5269L26.4416 12.1687C26.4282 12.1591 26.4199 12.1439 26.419 12.1275C26.418 12.1111 26.4245 12.0951 26.4367 12.084L27.2621 11.3309L26.6366 10.8466C26.6232 10.8362 26.6153 10.8202 26.6154 10.8032C26.6155 10.7863 26.6234 10.7703 26.6369 10.76L27.453 10.1377L26.9319 9.74438C26.915 9.73166 26.907 9.71036 26.9113 9.68968L27.8362 5.25005L26.4784 1.19787L16.092 8.90668ZM1.45813 1.19798L0.111021 5.24998L1.03596 9.68968C1.0403 9.71053 1.03212 9.732 1.01501 9.74468L0.483859 10.1381L1.29946 10.76C1.31288 10.7703 1.32082 10.7861 1.32094 10.803C1.32107 10.8199 1.31338 10.8359 1.30012 10.8463L0.684785 11.3305L1.51057 12.084C1.52272 12.0951 1.52923 12.1111 1.52828 12.1275C1.52732 12.1439 1.51902 12.1591 1.50568 12.1687L1.0079 12.5271L2.202 13.9288L7.8665 12.2717L11.8444 8.90668L1.45813 1.19798Z" fill="#763D16"/>
<path d="M25.7528 13.9912L20.0433 12.3209L21.7791 14.93L19.1918 19.9518L22.5978 19.9081H27.6742L25.7528 13.9912ZM7.89277 12.3209L2.18323 13.9912L0.283691 19.9081H5.34913L8.74429 19.9518L6.1679 14.93L7.89277 12.3209ZM15.6438 15.203L16.004 8.9039L17.6634 4.41705H10.2945L11.932 8.9039L12.3141 15.203L12.4451 17.1898L12.456 22.0806H15.48L15.5019 17.1898L15.6438 15.203Z" fill="#F6851B"/>
<path fill-rule="evenodd" clip-rule="evenodd" d="M10.2497 4.38578C10.2599 4.37118 10.2766 4.36249 10.2944 4.36249H17.6633C17.6812 4.36249 17.6979 4.37122 17.7081 4.38588C17.7183 4.40053 17.7207 4.41926 17.7145 4.43601L16.058 8.91519L15.6982 15.2061L15.6981 15.2069L15.5563 17.1919L15.5345 22.0809C15.5344 22.1109 15.51 22.1352 15.4799 22.1352H12.4559C12.4258 22.1352 12.4014 22.1108 12.4014 22.0807L12.3904 17.1917L12.2596 15.2066L12.2595 15.2063L11.8779 8.91516L10.2431 4.43579C10.237 4.41905 10.2394 4.40038 10.2497 4.38578ZM10.3724 4.47166L11.9832 8.88521C11.985 8.89016 11.9861 8.89535 11.9864 8.90061L12.3685 15.1994L12.3685 15.1997L12.4995 17.1863C12.4996 17.1874 12.4996 17.1886 12.4996 17.1897L12.5104 22.026H15.4256L15.4472 17.1896C15.4472 17.1884 15.4472 17.1872 15.4473 17.186L15.5892 15.1999L15.5892 15.1991L15.9494 8.9008C15.9497 8.8954 15.9509 8.89006 15.9527 8.88499L17.5849 4.47166H10.3724ZM7.93659 12.2885C7.95019 12.3069 7.95084 12.3319 7.9382 12.351L6.23093 14.9335L8.79276 19.9269C8.80149 19.9439 8.80067 19.9643 8.79059 19.9806C8.7805 19.9969 8.76263 20.0067 8.74349 20.0064L5.34903 19.9627H0.283589C0.26615 19.9627 0.249761 19.9544 0.239486 19.9403C0.22921 19.9262 0.226286 19.9081 0.231617 19.8915L2.13116 13.9745C2.13669 13.9573 2.15042 13.9439 2.1678 13.9388L7.87734 12.2685C7.89933 12.2621 7.92299 12.2701 7.93659 12.2885ZM19.9992 12.2886C20.0128 12.2701 20.0365 12.2621 20.0585 12.2685L25.768 13.9388C25.7854 13.9439 25.7991 13.9572 25.8046 13.9743L27.726 19.8913C27.7314 19.9079 27.7285 19.9261 27.7183 19.9402C27.708 19.9544 27.6916 19.9627 27.6741 19.9627H22.5977L19.1924 20.0064C19.1732 20.0067 19.1553 19.9968 19.1452 19.9805C19.1352 19.9642 19.1344 19.9439 19.1431 19.9268L21.7158 14.9336L19.9977 12.3511C19.985 12.332 19.9856 12.307 19.9992 12.2886ZM2.22625 14.0355L0.358441 19.8536H5.34973L8.65424 19.8961L6.11923 14.955C6.11023 14.9374 6.11139 14.9164 6.12227 14.8999L7.76494 12.4151L2.22625 14.0355ZM20.1716 12.4153L21.8244 14.8998C21.8354 14.9163 21.8366 14.9374 21.8275 14.9551L19.2818 19.8961L22.597 19.8536L22.5977 19.8536L27.599 19.8536L25.7097 14.0355L20.1716 12.4153Z" fill="#F6851B"/>
</svg>
