<svg width="48" height="48" viewBox="0 0 48 48" fill="none" xmlns="http://www.w3.org/2000/svg">
<path fill-rule="evenodd" clip-rule="evenodd" d="M42.2017 16.0071C42.0883 15.9999 41.9649 16 41.8371 16L41.8051 16H36.7881C32.6527 16 29.1143 19.2551 29.1143 23.5C29.1143 27.7448 32.6527 31 36.7881 31H41.8051H41.8371C41.9649 31 42.0883 31.0002 42.2017 30.993C43.8815 30.8868 45.3669 29.5724 45.4919 27.7364C45.5001 27.616 45.4999 27.4862 45.4999 27.366V27.3334V19.6667V19.634C45.4999 19.5138 45.5001 19.384 45.4919 19.2636C45.3669 17.4276 43.8815 16.1131 42.2017 16.0071ZM36.3433 25.5C37.4079 25.5 38.2709 24.6046 38.2709 23.5C38.2709 22.3954 37.4079 21.5 36.3433 21.5C35.2787 21.5 34.4155 22.3954 34.4155 23.5C34.4155 24.6046 35.2787 25.5 36.3433 25.5Z" fill="#431F13" fill-opacity="0.8"/>
<path fill-rule="evenodd" clip-rule="evenodd" d="M41.8358 34C42.134 33.9922 42.3598 34.2684 42.2788 34.5556C41.8774 35.9804 41.24 37.195 40.2176 38.2176C38.7208 39.7142 36.8228 40.3784 34.478 40.6938C32.1996 41 29.2884 41 25.6128 41H21.3872C17.7117 41 14.8004 41 12.522 40.6938C10.1771 40.3784 8.27922 39.7142 6.78248 38.2176C5.28576 36.7208 4.62152 34.8228 4.30628 32.478C3.99994 30.1996 3.99996 27.2884 4 23.6128V23.3872C3.99996 19.7117 3.99994 16.8004 4.30628 14.522C4.62152 12.1771 5.28576 10.2792 6.78248 8.78248C8.27922 7.28576 10.1771 6.62152 12.522 6.30628C14.8004 5.99994 17.7116 5.99996 21.3872 6H25.6128C29.2884 5.99996 32.1996 5.99994 34.478 6.30628C36.8228 6.62152 38.7208 7.28576 40.2176 8.78248C41.24 9.80504 41.8772 11.0195 42.2788 12.4444C42.3598 12.7315 42.134 13.0077 41.8358 13L36.788 13C31.1148 13 26.1142 17.4818 26.1142 23.5C26.1142 29.5182 31.1148 34 36.788 34H41.8358ZM11.5 14C10.6716 14 10 14.6716 10 15.5C10 16.3284 10.6716 17 11.5 17H19.5C20.3284 17 21 16.3284 21 15.5C21 14.6716 20.3284 14 19.5 14H11.5Z" fill="#431F13" fill-opacity="0.8"/>
</svg>
