<svg width="29" height="28" viewBox="0 0 29 28" fill="none" xmlns="http://www.w3.org/2000/svg">
<g clip-path="url(#clip0_1_3731)">
<mask id="mask0_1_3731" style="mask-type:luminance" maskUnits="userSpaceOnUse" x="0" y="0" width="29" height="28">
<path d="M28.1748 0H0.174805V28H28.1748V0Z" fill="white"/>
</mask>
<g mask="url(#mask0_1_3731)">
<path d="M14.1748 28C21.9068 28 28.1748 21.732 28.1748 14C28.1748 6.26802 21.9068 0 14.1748 0C6.44282 0 0.174805 6.26802 0.174805 14C0.174805 21.732 6.44282 28 14.1748 28Z" fill="#3375BB"/>
<path fill-rule="evenodd" clip-rule="evenodd" d="M13.7133 5.45341C14.038 5.1822 14.5103 5.1822 14.8351 5.45341C17.2139 7.44008 19.9263 7.42472 20.9759 7.41878C21.0283 7.41848 21.0765 7.41821 21.1203 7.41821C21.3547 7.41821 21.5792 7.51222 21.7437 7.67917C21.9081 7.84613 21.9987 8.07208 21.9952 8.30641C21.9455 11.5989 21.8136 13.9489 21.5546 15.6712C21.2958 17.3924 20.899 18.572 20.2595 19.4607C19.6155 20.3558 18.7878 20.864 17.9064 21.3511C17.7537 21.4355 17.5979 21.52 17.4385 21.6064C16.6649 22.0261 15.8049 22.4925 14.7842 23.2247C14.4794 23.4434 14.069 23.4434 13.7642 23.2247C12.7444 22.4932 11.8856 22.027 11.1131 21.6076C10.953 21.5207 10.7965 21.4357 10.6431 21.3509C9.76243 20.8637 8.93582 20.3553 8.29305 19.46C7.65499 18.5712 7.25951 17.3916 7.00167 15.6707C6.74365 13.9486 6.61229 11.5988 6.5626 8.30641C6.55906 8.07208 6.64967 7.84613 6.81413 7.67917C6.97859 7.51222 7.20315 7.41821 7.4375 7.41821C7.48084 7.41821 7.52858 7.41848 7.58048 7.41878C8.62162 7.42473 11.3343 7.44023 13.7133 5.45341ZM8.32822 9.16274C8.38695 11.969 8.51471 13.9588 8.73235 15.4114C8.97234 17.0131 9.31046 17.8764 9.71466 18.4394C10.1142 18.9959 10.6385 19.3484 11.4903 19.8196C11.629 19.8963 11.7753 19.9757 11.929 20.059C12.5841 20.4143 13.3727 20.8419 14.2742 21.4484C15.177 20.8411 15.9667 20.4132 16.623 20.0577C16.7759 19.9748 16.9217 19.8958 17.0599 19.8194C17.9128 19.3481 18.4384 18.9954 18.839 18.4387C19.2441 17.8756 19.5833 17.0124 19.824 15.411C20.0424 13.9585 20.1707 11.969 20.2296 9.1629C18.8825 9.11947 16.5101 8.84128 14.2742 7.23185C12.041 8.83935 9.67196 9.11879 8.32822 9.16274Z" fill="white"/>
</g>
</g>
<defs>
<clipPath id="clip0_1_3731">
<rect width="28.4375" height="28" fill="white"/>
</clipPath>
</defs>
</svg>
