<svg width="32" height="32" viewBox="0 0 32 32" fill="none" xmlns="http://www.w3.org/2000/svg">
<path d="M26.6667 18.3333C26.6667 17.781 26.2189 17.3333 25.6667 17.3333H21.6667C21.1144 17.3333 20.6667 17.781 20.6667 18.3333V27.3333H18.6667V5.66663C18.6667 4.69555 18.6645 4.06784 18.6024 3.60533C18.544 3.17159 18.4499 3.03564 18.3737 2.95952C18.2976 2.8834 18.1617 2.78925 17.728 2.73093C17.2655 2.66875 16.6377 2.66663 15.6667 2.66663C14.6956 2.66663 14.0679 2.66875 13.6053 2.73093C13.1716 2.78925 13.0357 2.8834 12.9596 2.95952C12.8834 3.03564 12.7893 3.17159 12.731 3.60533C12.6688 4.06784 12.6667 4.69555 12.6667 5.66663V27.3333H10.6667V11.6666C10.6667 11.1143 10.219 10.6666 9.66668 10.6666H5.66668C5.1144 10.6666 4.66668 11.1143 4.66668 11.6666V27.3333H2.66668H2.33334C1.78106 27.3333 1.33334 27.781 1.33334 28.3333C1.33334 28.8856 1.78106 29.3333 2.33334 29.3333H29C29.5523 29.3333 30 28.8856 30 28.3333C30 27.781 29.5523 27.3333 29 27.3333H28.6667H26.6667V18.3333Z" fill="url(#paint0_linear_1_5837)"/>
<defs>
<linearGradient id="paint0_linear_1_5837" x1="15.6667" y1="2.66663" x2="15.6667" y2="29.3333" gradientUnits="userSpaceOnUse">
<stop offset="0.416667" stop-color="#D9EFFC"/>
<stop offset="1" stop-color="#4490B4"/>
</linearGradient>
</defs>
</svg>
