<svg width="29" height="28" viewBox="0 0 29 28" fill="none" xmlns="http://www.w3.org/2000/svg">
<path d="M25.6667 16.3334C25.6667 15.7811 25.2189 15.3334 24.6667 15.3334H20.6667C20.1144 15.3334 19.6667 15.7811 19.6667 16.3334V25.3334H17.6667V3.66675C17.6667 2.69567 17.6645 2.06796 17.6024 1.60545C17.544 1.17171 17.4499 1.03576 17.3737 0.959641C17.2976 0.883521 17.1617 0.789375 16.728 0.731055C16.2655 0.668868 15.6377 0.666748 14.6667 0.666748C13.6956 0.666748 13.0679 0.668868 12.6053 0.731055C12.1716 0.789375 12.0357 0.883521 11.9596 0.959641C11.8834 1.03576 11.7893 1.17171 11.731 1.60545C11.6688 2.06796 11.6667 2.69567 11.6667 3.66675V25.3334H9.66668V9.66675C9.66668 9.11447 9.21896 8.66675 8.66668 8.66675H4.66668C4.1144 8.66675 3.66668 9.11447 3.66668 9.66675V25.3334H1.33334C0.781063 25.3334 0.333344 25.7811 0.333344 26.3334C0.333344 26.8857 0.781063 27.3334 1.33334 27.3334H28C28.5523 27.3334 29 26.8857 29 26.3334C29 25.7811 28.5523 25.3334 28 25.3334H25.6667V16.3334Z" fill="url(#paint0_linear_54_572)"/>
<defs>
<linearGradient id="paint0_linear_54_572" x1="14.6667" y1="0.666748" x2="14.6667" y2="27.3334" gradientUnits="userSpaceOnUse">
<stop offset="0.416667" stop-color="#224D75"/>
<stop offset="1" stop-color="#4490B4"/>
</linearGradient>
</defs>
</svg>
