<svg width="18" height="18" viewBox="0 0 18 18" fill="none" xmlns="http://www.w3.org/2000/svg">
<g clip-path="url(#clip0_113_259)">
<path fill-rule="evenodd" clip-rule="evenodd" d="M9 1.5V6.375C9 6.99632 9.5037 7.5 10.125 7.5H15V15C15 15.8284 14.3284 16.5 13.5 16.5H4.5C3.67157 16.5 3 15.8284 3 15V3C3 2.17157 3.67157 1.5 4.5 1.5H9ZM8.25847 8.88607C8.07862 10.0282 7.48125 11.0629 6.582 11.7897C5.91681 12.3274 6.52488 13.381 7.32329 13.0738C8.40232 12.6584 9.59715 12.6584 10.6762 13.0738C11.4744 13.381 12.0829 12.3275 11.4175 11.7898C10.5184 11.0629 9.92092 10.0282 9.74107 8.886C9.6081 8.0415 8.39152 8.04052 8.25847 8.88607ZM8.99895 10.7271L9.60375 11.7729H8.39625L8.99895 10.7271ZM10.5 1.53252C10.7819 1.59221 11.0431 1.73243 11.25 1.93934L14.5606 5.25C14.7676 5.45691 14.9078 5.71804 14.9674 6H10.5V1.53252Z" fill="#B1591B"/>
</g>
<defs>
<clipPath id="clip0_113_259">
<rect width="18" height="18" fill="white"/>
</clipPath>
</defs>
</svg>
