<svg width="308" height="112" viewBox="0 0 308 112" fill="none" xmlns="http://www.w3.org/2000/svg">
<g clip-path="url(#clip0_13_887)">
<path d="M7.15112 23.1562C8.22641 10.2481 19.3504 0.522004 32.2865 1.1795L262.301 12.8704C272.217 13.3744 280.799 19.9325 283.89 29.368L301.055 81.7654C303.534 89.3353 298.086 97.176 290.126 97.4917L27.1217 107.924C12.7125 108.496 1.05617 96.3214 2.25331 81.9506L7.15112 23.1562Z" fill="#B1591B"/>
<path d="M7.19964 26.135C8.28124 13.2355 19.3978 3.51801 32.3261 4.17084L264.151 15.8772C274.053 16.3772 282.629 22.915 285.733 32.3312L303.014 84.7407C305.512 92.3161 300.061 100.175 292.09 100.489L27.1297 110.931C12.7176 111.499 1.06345 99.317 2.26859 84.9441L7.19964 26.135Z" fill="url(#paint0_linear_13_887)"/>
<path opacity="0.95" d="M32.3009 4.67021L264.126 16.3766C273.822 16.8662 282.218 23.2677 285.258 32.4878L302.539 84.8972C304.933 92.157 299.709 99.6884 292.07 99.9894L27.11 110.431C12.9982 110.987 1.58681 99.0593 2.76684 84.9859L7.69789 26.1767C8.75695 13.546 19.6419 4.03098 32.3009 4.67021Z" stroke="url(#paint1_linear_13_887)"/>
<mask id="mask0_13_887" style="mask-type:alpha" maskUnits="userSpaceOnUse" x="2" y="4" width="302" height="107">
<path d="M7.19964 26.135C8.28124 13.2355 19.3978 3.51801 32.3261 4.17084L264.151 15.8772C274.053 16.3772 282.629 22.915 285.733 32.3312L303.014 84.7407C305.512 92.3161 300.061 100.175 292.09 100.489L27.1297 110.931C12.7176 111.499 1.06345 99.317 2.26859 84.9441L7.19964 26.135Z" fill="url(#paint2_linear_13_887)"/>
</mask>
<g mask="url(#mask0_13_887)">
<g opacity="0.37">
<path d="M293.98 47.7022L293.971 48.2841L259.09 45.9922L225.65 43.3386L106.135 32.9828L50.5044 25.5424L23.4697 19.5804L8.88571 15.6244L8.26172 14.1992L26.4908 18.7584L57.8953 23.9671L174.835 37.0983L234.038 42.6361L263.297 44.9072L293.98 47.7022Z" fill="#431F13"/>
<path d="M294.48 47.7086L294.487 47.2463L294.027 47.2043L263.344 44.4092L263.337 44.4087L234.087 42.1383L234.079 42.1376L174.893 36.6015L174.883 36.6005L57.9657 23.4717L26.594 18.2684L8.38446 13.7142L7.39449 13.4666L7.80357 14.4009L8.42756 15.8261L8.52319 16.0445L8.75341 16.107L23.3374 20.0629L23.3489 20.066L23.3605 20.0686L50.3953 26.0307L50.4158 26.0352L50.4366 26.038L106.067 33.4784L106.079 33.4799L106.09 33.481L225.605 43.8367L225.609 43.837L259.049 46.4906L259.056 46.4911L293.936 48.783L294.462 48.8175L294.471 48.2905L294.48 47.7086Z" stroke="#FAF0AC" stroke-opacity="0.06"/>
<path d="M463.904 67.6938L464 68.2693L429.167 71.0814L395.689 73.3271L275.884 80.4926L219.645 81.2425L191.891 79.2917L176.784 77.5094L175.911 76.1938L194.723 78.0411L226.654 78.6129L344.419 74.5607L403.84 71.4136L433.122 69.3988L463.904 67.6938Z" fill="#431F13"/>
<path d="M464.4 67.6273L464.324 67.1713L463.861 67.197L433.079 68.9019L433.072 68.9024L403.798 70.9167L403.79 70.9171L344.387 74.0633L344.377 74.0637L226.634 78.1151L194.737 77.5439L175.946 75.6986L174.923 75.5982L175.494 76.4584L176.367 77.7739L176.501 77.9754L176.74 78.0036L191.846 79.7858L191.858 79.7872L191.87 79.7881L219.625 81.7389L219.646 81.7404L219.667 81.7401L275.906 80.9902L275.918 80.99L275.93 80.9893L395.735 73.8238L395.739 73.8236L429.216 71.5779L429.223 71.5774L464.056 68.7653L464.583 68.7228L464.496 68.2028L464.4 67.6273Z" stroke="#FAF0AC" stroke-opacity="0.06"/>
<path d="M185.037 85.6115L185.209 86.9091L142.258 90.7424L104.304 93.1497L68.0183 94.7683L30.8032 92.3039L12.302 89.3216L10.7334 87.21L37.2539 89.6886L73.397 90.3881L111.304 90.5465L185.037 85.6115Z" fill="#431F13"/>
<path d="M185.534 85.5584L185.471 85.082L184.991 85.1141L111.276 90.0479L73.3943 89.8897L73.3867 89.8896L37.2699 89.1905L10.768 86.7137L9.67271 86.6113L10.3326 87.4996L11.9012 89.6112L12.0268 89.7802L12.2338 89.8136L30.7349 92.7959L30.7585 92.7997L30.7822 92.8013L67.9974 95.2657L68.0253 95.2676L68.0532 95.2663L104.339 93.6477L104.339 93.6478L104.348 93.6472L142.302 91.2399L142.302 91.24L142.315 91.2389L185.267 87.4056L185.774 87.3603L185.707 86.856L185.534 85.5584Z" stroke="#FAF0AC" stroke-opacity="0.06"/>
<path d="M-98.5915 34.2123L-99.0003 35.4665L-57.3444 45.6119L-20.3553 53.6102L15.1336 60.5834L52.2914 63.6674L71.0875 63.4676L73.0234 61.6174L46.4108 60.1321L10.6354 55.4663L-26.7803 50.0053L-98.5915 34.2123Z" fill="#431F13"/>
<path d="M-99.0752 34.0854L-98.9264 33.6288L-98.4562 33.7322L-26.6626 49.5213L10.7274 54.9786L10.7312 54.9791L46.4839 59.642L73.0775 61.1262L74.1783 61.1877L73.3709 61.9592L71.435 63.8094L71.2802 63.9573L71.0681 63.9596L52.2719 64.1594L52.2475 64.1596L52.2234 64.1576L15.0656 61.0736L15.0372 61.0713L15.0093 61.0658L-20.4796 54.0926L-20.4796 54.0927L-20.489 54.0907L-57.478 46.0923L-57.4781 46.0925L-57.4907 46.0894L-99.1466 35.9441L-99.6416 35.8235L-99.4839 35.3397L-99.0752 34.0854Z" stroke="#FAF0AC" stroke-opacity="0.06"/>
<path d="M254.655 28.6905L254.361 29.5925L284.316 36.888L310.915 42.6397L336.436 47.6541L363.156 49.8718L376.672 49.7282L378.064 48.3977L358.927 47.3296L333.201 43.9744L306.295 40.0474L254.655 28.6905Z" fill="#431F13"/>
<path d="M254.172 28.5637L254.32 28.107L254.791 28.2104L306.413 39.5634L333.293 43.4867L333.297 43.4872L359 46.8395L378.118 47.9065L379.219 47.9679L378.412 48.7395L377.02 50.0699L376.865 50.2179L376.653 50.2202L363.136 50.3638L363.112 50.3641L363.088 50.3621L336.368 48.1443L336.339 48.142L336.311 48.1365L310.791 43.1221L310.791 43.1222L310.782 43.1201L284.183 37.3685L284.183 37.3687L284.17 37.3656L254.215 30.07L253.72 29.9495L253.878 29.4656L254.172 28.5637Z" stroke="#FAF0AC" stroke-opacity="0.06"/>
</g>
</g>
<path d="M61.9097 72.92C59.2697 72.92 57.1764 72.6933 55.6297 72.24C54.083 71.7867 52.9364 71.1467 52.1897 70.32C51.443 69.52 50.9497 68.5733 50.7097 67.48C50.4964 66.36 50.3897 65.16 50.3897 63.88C50.3897 61.7467 50.443 59.3067 50.5497 56.56C50.683 53.8133 50.843 50.8667 51.0297 47.72C51.243 44.5467 51.4697 41.2667 51.7097 37.88L58.9897 38.6C58.723 40.6533 58.483 42.76 58.2697 44.92C58.083 47.0533 57.923 49.1333 57.7897 51.16C57.6564 53.1867 57.5497 55.0267 57.4697 56.68C57.3897 58.3333 57.323 59.72 57.2697 60.84C57.243 61.9333 57.2297 62.64 57.2297 62.96C57.2297 63.8933 57.3364 64.6 57.5497 65.08C57.763 65.5333 58.1897 65.84 58.8297 66C59.4697 66.16 60.403 66.24 61.6297 66.24C63.1764 66.24 64.923 66.1467 66.8697 65.96C68.8164 65.7467 70.7897 65.44 72.7897 65.04C74.7897 64.64 76.6164 64.16 78.2697 63.6L79.8297 70.48C78.0164 70.9333 76.0564 71.3467 73.9497 71.72C71.8697 72.0933 69.7897 72.3867 67.7097 72.6C65.6297 72.8133 63.6964 72.92 61.9097 72.92ZM94.4328 73.28C92.2995 73.28 90.4328 72.9333 88.8328 72.24C87.2595 71.5467 85.9528 70.6 84.9128 69.4C83.8728 68.1733 83.0995 66.7733 82.5928 65.2C82.0861 63.6267 81.8328 61.9733 81.8328 60.24C81.8328 58.48 82.1395 56.8533 82.7528 55.36C83.3928 53.84 84.2595 52.52 85.3528 51.4C86.4728 50.28 87.7795 49.4133 89.2728 48.8C90.7661 48.16 92.3928 47.84 94.1528 47.84C95.9928 47.84 97.6995 48.16 99.2728 48.8C100.846 49.44 102.219 50.3333 103.393 51.48C104.566 52.6267 105.473 53.9733 106.113 55.52C106.779 57.0667 107.113 58.7467 107.113 60.56C107.113 64.5867 106.006 67.72 103.793 69.96C101.579 72.1733 98.4595 73.28 94.4328 73.28ZM94.3928 66.8C96.3395 66.8 97.8195 66.2533 98.8328 65.16C99.8728 64.0667 100.393 62.4933 100.393 60.44C100.393 58.6 99.8328 57.12 98.7128 56C97.5928 54.88 96.1261 54.32 94.3128 54.32C93.2195 54.32 92.2195 54.6133 91.3128 55.2C90.4061 55.76 89.6728 56.52 89.1128 57.48C88.5795 58.4133 88.3128 59.4533 88.3128 60.6C88.3128 61.6133 88.5128 62.6 88.9128 63.56C89.3395 64.52 90.0061 65.3067 90.9128 65.92C91.8195 66.5067 92.9795 66.8 94.3928 66.8ZM119.528 70.2C117.848 70.2 116.421 69.9467 115.248 69.44C114.075 68.9333 113.101 68.28 112.328 67.48C111.581 66.6533 110.995 65.7733 110.568 64.84C110.141 63.88 109.848 62.96 109.688 62.08C109.528 61.1733 109.448 60.3867 109.448 59.72C109.448 58.44 109.621 57.12 109.968 55.76C110.341 54.4 110.955 53.1333 111.808 51.96C112.688 50.7867 113.875 49.84 115.368 49.12C116.888 48.4 118.795 48.04 121.088 48.04C121.781 48.04 122.421 48.0933 123.008 48.2C123.595 48.3067 124.141 48.4533 124.648 48.64V47.32H131.568C131.541 48.92 131.515 50.7333 131.488 52.76C131.461 54.76 131.448 57.0267 131.448 59.56C131.448 60.8667 131.448 62.24 131.448 63.68C131.475 65.0933 131.488 66.64 131.488 68.32C131.488 70.6133 131.181 72.4933 130.568 73.96C129.955 75.4267 129.168 76.56 128.208 77.36C127.248 78.16 126.248 78.7333 125.208 79.08C124.195 79.4533 123.248 79.6667 122.368 79.72C121.515 79.8 120.875 79.84 120.448 79.84C119.408 79.84 118.261 79.72 117.008 79.48C115.755 79.2667 114.501 78.9067 113.248 78.4C111.995 77.92 110.848 77.2933 109.808 76.52L112.728 70.44C113.395 71 114.061 71.5067 114.728 71.96C115.395 72.44 116.168 72.8133 117.048 73.08C117.928 73.3733 119.021 73.52 120.328 73.52C121.661 73.52 122.648 73.28 123.288 72.8C123.928 72.3467 124.341 71.7333 124.528 70.96C124.741 70.2133 124.861 69.3867 124.888 68.48C123.981 69.1467 123.061 69.6 122.128 69.84C121.195 70.08 120.328 70.2 119.528 70.2ZM115.448 59.16C115.448 60.68 115.861 61.88 116.688 62.76C117.541 63.64 118.701 64.08 120.168 64.08C122.221 64.08 123.755 62.8933 124.768 60.52C124.768 59.6667 124.755 58.8 124.728 57.92C124.728 57.0133 124.715 56.1333 124.688 55.28C123.621 54.5867 122.395 54.24 121.008 54.24C119.301 54.24 117.941 54.6933 116.928 55.6C115.941 56.48 115.448 57.6667 115.448 59.16ZM146.894 73.28C144.76 73.28 142.894 72.9333 141.294 72.24C139.72 71.5467 138.414 70.6 137.374 69.4C136.334 68.1733 135.56 66.7733 135.054 65.2C134.547 63.6267 134.294 61.9733 134.294 60.24C134.294 58.48 134.6 56.8533 135.214 55.36C135.854 53.84 136.72 52.52 137.814 51.4C138.934 50.28 140.24 49.4133 141.734 48.8C143.227 48.16 144.854 47.84 146.614 47.84C148.454 47.84 150.16 48.16 151.734 48.8C153.307 49.44 154.68 50.3333 155.854 51.48C157.027 52.6267 157.934 53.9733 158.574 55.52C159.24 57.0667 159.574 58.7467 159.574 60.56C159.574 64.5867 158.467 67.72 156.254 69.96C154.04 72.1733 150.92 73.28 146.894 73.28ZM146.854 66.8C148.8 66.8 150.28 66.2533 151.294 65.16C152.334 64.0667 152.854 62.4933 152.854 60.44C152.854 58.6 152.294 57.12 151.174 56C150.054 54.88 148.587 54.32 146.774 54.32C145.68 54.32 144.68 54.6133 143.774 55.2C142.867 55.76 142.134 56.52 141.574 57.48C141.04 58.4133 140.774 59.4533 140.774 60.6C140.774 61.6133 140.974 62.6 141.374 63.56C141.8 64.52 142.467 65.3067 143.374 65.92C144.28 66.5067 145.44 66.8 146.854 66.8ZM174.709 73.16C173.109 73.16 171.842 72.8133 170.909 72.12C169.976 71.4533 169.296 70.52 168.869 69.32C168.442 68.12 168.162 66.7467 168.029 65.2C167.922 63.6533 167.869 62.0267 167.869 60.32C167.869 58.56 167.936 56.7333 168.069 54.84C166.282 55.08 164.562 55.3867 162.909 55.76L161.669 49.48C163.882 48.8933 166.242 48.4667 168.749 48.2C168.936 46.84 169.136 45.4133 169.349 43.92C169.562 42.4 169.802 40.8 170.069 39.12L176.949 39.72C176.629 41.1067 176.349 42.4933 176.109 43.88C175.869 45.24 175.656 46.56 175.469 47.84C176.962 47.84 178.362 47.88 179.669 47.96C181.002 48.0133 182.229 48.12 183.349 48.28L182.549 54.56C181.616 54.4533 180.642 54.3867 179.629 54.36C178.642 54.3067 177.642 54.28 176.629 54.28C176.016 54.28 175.402 54.2933 174.789 54.32C174.629 56.2667 174.522 57.9333 174.469 59.32C174.442 60.7067 174.429 61.6933 174.429 62.28C174.429 63.7467 174.509 64.8 174.669 65.44C174.856 66.08 175.149 66.4 175.549 66.4C176.002 66.4 176.509 66.2533 177.069 65.96C177.629 65.64 178.176 65.2133 178.709 64.68C179.269 64.1467 179.736 63.5733 180.109 62.96L183.189 69.4C180.549 71.9067 177.722 73.16 174.709 73.16ZM192.586 80.84L186.586 77.64C188.079 75.9867 189.532 74.28 190.946 72.52C192.359 70.7867 193.706 69 194.986 67.16C193.732 65.48 192.479 63.68 191.226 61.76C189.972 59.8133 188.812 57.9067 187.746 56.04C186.679 54.1733 185.812 52.5067 185.146 51.04L191.546 48.24C192.026 49.52 192.639 50.9067 193.386 52.4C194.159 53.8933 194.999 55.4133 195.906 56.96C196.839 58.5067 197.799 59.9867 198.786 61.4C201.666 56.7333 204.039 52.1333 205.906 47.6L212.546 50.24C211.346 52.5333 209.986 55 208.466 57.64C206.972 60.2533 205.359 62.92 203.626 65.64C201.919 68.3333 200.132 70.9733 198.266 73.56C196.399 76.1733 194.506 78.6 192.586 80.84ZM215.607 81.36C215.421 79.2267 215.287 77.08 215.207 74.92C215.127 72.76 215.087 70.2667 215.087 67.44C215.087 64 215.141 60.5733 215.247 57.16C215.354 53.7467 215.514 50.6267 215.727 47.8L222.607 48C222.527 48.6133 222.461 49.2667 222.407 49.96C223.367 49.32 224.394 48.8533 225.487 48.56C226.607 48.2667 227.741 48.12 228.887 48.12C230.354 48.12 231.781 48.36 233.167 48.84C234.554 49.2933 235.807 50.0267 236.927 51.04C238.047 52.0267 238.927 53.3067 239.567 54.88C240.234 56.4533 240.567 58.3467 240.567 60.56C240.567 62.7467 240.234 64.6533 239.567 66.28C238.901 67.9067 238.007 69.24 236.887 70.28C235.767 71.3467 234.514 72.1333 233.127 72.64C231.741 73.1733 230.314 73.44 228.847 73.44C226.154 73.44 223.781 72.64 221.727 71.04C221.781 72.7467 221.861 74.3867 221.967 75.96C222.074 77.56 222.207 79.1867 222.367 80.84L215.607 81.36ZM227.807 54.76C225.167 54.76 223.181 56.0533 221.847 58.64C221.767 60.24 221.714 61.8667 221.687 63.52C222.327 64.3733 223.154 65.12 224.167 65.76C225.181 66.3733 226.474 66.68 228.047 66.68C231.807 66.68 233.687 64.5333 233.687 60.24C233.687 59.0933 233.474 58.16 233.047 57.44C232.621 56.72 232.087 56.1733 231.447 55.8C230.807 55.4 230.154 55.1333 229.487 55C228.821 54.84 228.261 54.76 227.807 54.76Z" fill="#FFD8BC"/>
</g>
<defs>
<linearGradient id="paint0_linear_13_887" x1="154" y1="3" x2="154" y2="112" gradientUnits="userSpaceOnUse">
<stop stop-color="#8D3B0C"/>
<stop offset="1" stop-color="#9E4712"/>
</linearGradient>
<linearGradient id="paint1_linear_13_887" x1="154" y1="3" x2="154" y2="112" gradientUnits="userSpaceOnUse">
<stop stop-color="#F38E47"/>
<stop offset="0.335371" stop-color="#DC7730" stop-opacity="0"/>
</linearGradient>
<linearGradient id="paint2_linear_13_887" x1="154" y1="3" x2="154" y2="112" gradientUnits="userSpaceOnUse">
<stop stop-color="#9B410E"/>
<stop offset="1" stop-color="#662F0B"/>
</linearGradient>
<clipPath id="clip0_13_887">
<rect width="308" height="112" fill="white"/>
</clipPath>
</defs>
</svg>
