<svg width="28" height="28" viewBox="0 0 28 28" fill="none" xmlns="http://www.w3.org/2000/svg">
<path fill-rule="evenodd" clip-rule="evenodd" d="M12.4444 7.15675L11.8588 6.74234C11.0231 6.15088 10.0244 5.83325 9.00055 5.83325H8.286C7.81445 5.83325 7.33811 5.86299 6.89368 6.02061C4.11386 7.00652 2.20174 10.6108 2.34005 18.7863C2.36791 20.4335 2.75335 22.2541 4.23961 22.9648C4.70275 23.1864 5.24579 23.3333 5.86417 23.3333C6.60619 23.3333 7.19544 23.1217 7.65024 22.8237C8.12715 22.5111 8.54705 22.1049 8.96681 21.6988C9.4855 21.1969 10.004 20.6953 10.6295 20.371C11.3107 20.0177 12.067 19.8333 12.8343 19.8333H15.1651C15.9324 19.8333 16.6886 20.0177 17.3699 20.371C17.9954 20.6953 18.5139 21.1969 19.0326 21.6988C19.4523 22.1049 19.8722 22.5111 20.3491 22.8237C20.8039 23.1217 21.3932 23.3333 22.1352 23.3333C22.7535 23.3333 23.2966 23.1864 23.7598 22.9648C25.246 22.2541 25.6314 20.4335 25.6593 18.7863C25.7976 10.6108 23.8854 7.00652 21.1056 6.02061C20.6612 5.86299 20.1849 5.83325 19.7133 5.83325H18.9987C17.975 5.83325 16.9763 6.15088 16.1406 6.74234L15.5551 7.15673C15.1003 7.47859 14.5569 7.65143 13.9997 7.65143C13.4426 7.65143 12.8992 7.47859 12.4444 7.15675ZM19.5413 10.4999C20.0246 10.4999 20.4163 10.8917 20.4163 11.3749C20.4163 11.8582 20.0246 12.2499 19.5413 12.2499C19.0581 12.2499 18.6663 11.8582 18.6663 11.3749C18.6663 10.8917 19.0581 10.4999 19.5413 10.4999ZM8.74967 10.7916C9.23291 10.7916 9.62467 11.1833 9.62467 11.6666V12.5416H10.4997C10.9829 12.5416 11.3747 12.9334 11.3747 13.4166C11.3747 13.8998 10.9829 14.2916 10.4997 14.2916H9.62467V15.1666C9.62467 15.6498 9.23291 16.0416 8.74967 16.0416C8.26642 16.0416 7.87467 15.6498 7.87467 15.1666V14.2916H6.99967C6.51643 14.2916 6.12467 13.8998 6.12467 13.4166C6.12467 12.9334 6.51643 12.5416 6.99967 12.5416H7.87467V11.6666C7.87467 11.1833 8.26642 10.7916 8.74967 10.7916ZM22.1663 13.1249C22.1663 13.6082 21.7746 13.9999 21.2913 13.9999C20.8081 13.9999 20.4163 13.6082 20.4163 13.1249C20.4163 12.6417 20.8081 12.2499 21.2913 12.2499C21.7746 12.2499 22.1663 12.6417 22.1663 13.1249ZM17.7913 13.9999C18.2746 13.9999 18.6663 13.6082 18.6663 13.1249C18.6663 12.6417 18.2746 12.2499 17.7913 12.2499C17.3081 12.2499 16.9163 12.6417 16.9163 13.1249C16.9163 13.6082 17.3081 13.9999 17.7913 13.9999ZM20.4163 14.8749C20.4163 14.3917 20.0246 13.9999 19.5413 13.9999C19.0581 13.9999 18.6663 14.3917 18.6663 14.8749C18.6663 15.3582 19.0581 15.7499 19.5413 15.7499C20.0246 15.7499 20.4163 15.3582 20.4163 14.8749Z" fill="#B1591B"/>
</svg>
