<svg width="28" height="28" viewBox="0 0 28 28" fill="none" xmlns="http://www.w3.org/2000/svg">
<path fill-rule="evenodd" clip-rule="evenodd" d="M24.6167 9.3375C24.5506 9.33333 24.4786 9.33335 24.4041 9.33338L24.3854 9.33339H21.4588C19.0465 9.33339 16.9824 11.2322 16.9824 13.7084C16.9824 16.1845 19.0465 18.0834 21.4588 18.0834H24.3854H24.4041C24.4786 18.0834 24.5506 18.0835 24.6167 18.0793C25.5966 18.0173 26.4631 17.2506 26.536 16.1796C26.5408 16.1094 26.5407 16.0337 26.5407 15.9635V15.9445V11.4723V11.4532C26.5407 11.3831 26.5408 11.3074 26.536 11.2371C26.4631 10.1662 25.5966 9.39938 24.6167 9.3375ZM21.1993 14.875C21.8204 14.875 22.3238 14.3527 22.3238 13.7084C22.3238 13.064 21.8204 12.5417 21.1993 12.5417C20.5783 12.5417 20.0748 13.064 20.0748 13.7084C20.0748 14.3527 20.5783 14.875 21.1993 14.875Z" fill="#B1591B"/>
<path fill-rule="evenodd" clip-rule="evenodd" d="M24.4033 19.8333C24.5772 19.8288 24.7089 19.9899 24.6617 20.1574C24.4275 20.9886 24.0557 21.6971 23.4593 22.2936C22.5862 23.1666 21.479 23.5541 20.1112 23.7381C18.7822 23.9167 17.084 23.9167 14.9399 23.9167H12.4749C10.3309 23.9167 8.63262 23.9167 7.30354 23.7381C5.93572 23.5541 4.82861 23.1666 3.95551 22.2936C3.08242 21.4205 2.69495 20.3133 2.51106 18.9455C2.33236 17.6164 2.33237 15.9182 2.3324 13.7741V13.6425C2.33237 11.4985 2.33236 9.80022 2.51106 8.47114C2.69495 7.10332 3.08242 5.99621 3.95551 5.12311C4.82861 4.25003 5.93572 3.86255 7.30354 3.67866C8.63262 3.49997 10.3309 3.49998 12.4749 3.5H14.9399C17.084 3.49998 18.7822 3.49997 20.1112 3.67866C21.479 3.86255 22.5862 4.25003 23.4593 5.12311C24.0557 5.71961 24.4274 6.42803 24.6617 7.25921C24.7089 7.42671 24.5772 7.58785 24.4033 7.58333L21.4587 7.58335C18.1494 7.58335 15.2323 10.1977 15.2323 13.7083C15.2323 17.2189 18.1494 19.8333 21.4587 19.8333H24.4033ZM6.7074 8.16667C6.22415 8.16667 5.8324 8.55842 5.8324 9.04167C5.8324 9.52491 6.22415 9.91667 6.7074 9.91667H11.3741C11.8573 9.91667 12.2491 9.52491 12.2491 9.04167C12.2491 8.55842 11.8573 8.16667 11.3741 8.16667H6.7074Z" fill="#B1591B"/>
</svg>
