<svg width="177" height="38" viewBox="0 0 177 38" fill="none" xmlns="http://www.w3.org/2000/svg">
<g clip-path="url(#clip0_1_7033)">
<path fill-rule="evenodd" clip-rule="evenodd" d="M98.1029 15.4444C97.1784 12.2603 98.7031 9.61926 101.956 8.77057C102.889 8.52704 107.114 8.63692 107.838 8.92364C108.104 9.02869 108.219 9.43196 108.222 10.2607C108.224 10.9134 108.292 11.7061 108.374 12.0222C108.499 12.5013 108.426 12.5956 107.938 12.5879C107.496 12.5808 107.229 12.3128 106.856 11.5019C106.26 10.2068 105.539 9.79482 103.859 9.78998C101.713 9.7836 100.143 11.2793 100.399 13.0866C100.565 14.2626 101.7 15.4198 104.247 17.0106C106.67 18.5238 108.084 19.7683 108.648 20.8832C110.155 23.864 108.868 27.0539 105.51 28.6612C103.787 29.4861 100.899 29.5714 98.8681 28.8573L97.5677 28.3999V26.2486C97.5677 24.3002 97.6125 24.0969 98.0415 24.0969C98.4003 24.0969 98.5552 24.3425 98.6811 25.1117C98.9945 27.0244 100.398 28.1855 102.398 28.1855C104.356 28.1855 105.726 27.0775 106.25 25.0684C106.473 24.2125 106.435 23.897 105.992 22.9528C105.461 21.8208 104.546 21.0696 101.441 19.2147C99.7177 18.1852 98.4991 16.8088 98.1029 15.4444ZM37.2253 10.0417C36.8016 10.0417 36.6362 9.89832 36.6362 9.53058C36.6362 9.04376 36.8016 9.01948 40.1221 9.01948C43.2041 9.01948 43.5985 9.06752 43.5278 9.43372C43.4836 9.66167 43.0577 9.9778 42.5809 10.1365L41.7138 10.425L41.6399 16.9415C41.5903 21.2898 41.66 23.7982 41.8491 24.4801C42.4113 26.5083 44.1265 27.6746 46.5464 27.6746C48.2311 27.6746 49.2152 27.2668 50.4516 26.0556C51.7815 24.7536 51.9936 23.5165 51.9894 17.0867C51.9853 10.7445 51.8786 10.2211 50.5631 10.0895C49.9644 10.0294 49.7639 9.88501 49.7639 9.51447C49.7639 9.05243 49.9614 9.01948 52.7361 9.01948C55.5432 9.01948 55.7083 9.04785 55.7083 9.53058C55.7083 9.84542 55.5419 10.0432 55.2748 10.0455C54.1277 10.056 54.1066 10.169 53.9522 17.1234C53.792 24.3454 53.6424 25.2005 52.2288 26.9696C51.8212 27.48 50.8489 28.221 50.0685 28.6165C48.7966 29.261 48.392 29.335 46.1723 29.3308C44.1261 29.3264 43.4801 29.2241 42.4569 28.7419C40.9635 28.0379 39.9922 27.1269 39.2761 25.7579C38.7763 24.8022 38.7336 24.2851 38.6178 17.8103C38.4853 10.399 38.4211 10.0417 37.2253 10.0417ZM60.4028 10.0417C59.8365 10.0417 59.6714 9.92617 59.6714 9.53058C59.6714 9.05144 59.8296 9.02077 62.2101 9.04045L64.749 9.0614L65.9637 10.5098C66.6314 11.3064 68.8084 13.7983 70.8009 16.047C72.7937 18.2959 75.0814 20.912 75.8847 21.8607C76.6881 22.8096 77.4442 23.5857 77.5651 23.5857C77.6893 23.5857 77.7511 20.9056 77.7069 17.4301L77.6287 11.2744L76.9337 10.6581C76.5515 10.3189 75.9667 10.0417 75.6335 10.0417C75.1904 10.0417 75.0281 9.90265 75.0281 9.52342C75.0281 9.02432 75.1546 9.00772 78.4337 9.07621C81.222 9.13447 81.8395 9.21498 81.8395 9.5201C81.8395 9.73758 81.4946 9.9658 81.0115 10.0678C80.5563 10.1639 80.0546 10.3754 79.8969 10.538C79.6935 10.7478 79.5899 13.4605 79.5395 19.8928L79.4684 28.9522H78.7506C78.1326 28.9522 77.3969 28.2321 73.464 23.7773C70.9511 20.931 68.018 17.5483 66.9459 16.2602C65.8737 14.9719 64.913 13.9081 64.8109 13.8964C64.5233 13.8631 64.5929 25.3727 64.8869 26.4652C65.1162 27.3165 65.2739 27.4631 66.248 27.7321C67.0325 27.9485 67.3498 28.1681 67.3498 28.4942C67.3498 28.9129 67.0507 28.9522 63.8821 28.9522C60.6566 28.9522 60.4145 28.9188 60.4145 28.4731C60.4145 28.1468 60.6478 27.9459 61.1463 27.843C62.6587 27.531 62.7591 27.0357 62.844 19.4646C62.8915 15.2242 62.8218 12.2573 62.6595 11.6361C62.3745 10.5436 61.6641 10.0417 60.4028 10.0417ZM86.3745 10.0417C85.8439 10.0417 85.6788 9.9203 85.6788 9.53058C85.6788 9.04224 85.8439 9.01948 89.3941 9.01948C92.9441 9.01948 93.1094 9.04224 93.1094 9.53058C93.1094 9.90548 92.9441 10.0417 92.4901 10.0417C92.1497 10.0417 91.6435 10.2763 91.3656 10.563C90.8749 11.0693 90.8623 11.321 90.9322 19.1448C91.0002 26.7824 91.0294 27.2243 91.4847 27.5677C91.7493 27.767 92.2228 27.93 92.5374 27.93C92.9441 27.93 93.1094 28.0774 93.1094 28.4412C93.1094 28.9295 92.9441 28.9522 89.3941 28.9522C85.9284 28.9522 85.6788 28.92 85.6788 28.4739C85.6788 28.1141 85.9219 27.9552 86.66 27.8334C88.1257 27.5917 88.2006 27.0966 88.1092 18.2622C88.0362 11.1873 88.0048 10.7462 87.551 10.404C87.2864 10.2047 86.7571 10.0417 86.3745 10.0417ZM112.291 10.0417C111.952 10.0417 111.694 9.84721 111.614 9.53058C111.489 9.03636 111.607 9.01948 115.177 9.01948C118.704 9.01948 118.869 9.04224 118.869 9.53058C118.869 9.92335 118.704 10.0417 118.156 10.0417C116.597 10.0417 116.632 10.334 118.992 17.0171C120.193 20.419 121.359 23.6506 121.584 24.1982L121.991 25.1942L123.883 19.9817C126.11 13.8461 126.399 12.7114 126.021 11.5923C125.757 10.8124 124.732 10.0417 123.959 10.0417C123.74 10.0417 123.575 9.82192 123.575 9.53058C123.575 9.04146 123.74 9.01948 127.414 9.01948C131.088 9.01948 131.253 9.04146 131.253 9.53058C131.253 9.89424 131.088 10.0417 130.682 10.0417C129.64 10.0417 129.181 10.6146 129.331 11.7278C129.485 12.8737 133.745 25.1892 133.923 25.0049C134.214 24.7052 138.932 11.4475 138.932 10.9307C138.932 10.3115 138.512 10.0417 137.549 10.0417C137.116 10.0417 136.95 9.90088 136.95 9.53058C136.95 9.04785 137.116 9.01948 139.923 9.01948C142.444 9.01948 142.895 9.07982 142.895 9.41611C142.895 9.63436 142.586 9.92387 142.208 10.0596C141.359 10.3649 141.146 10.7135 140.081 13.537C139.613 14.7769 138.15 18.6575 136.828 22.16C135.507 25.6629 134.368 28.6816 134.299 28.8682C134.23 29.0551 133.82 29.2078 133.389 29.2078H132.605L130.826 24.4162C129.847 21.7811 128.691 18.6591 128.257 17.4785C127.512 15.4555 127.45 15.3676 127.17 15.945C127.006 16.2824 125.831 19.41 124.557 22.8955L122.242 29.2328L121.377 29.1565L120.513 29.0801L117.217 20.1558C115.376 15.1699 113.683 10.9688 113.38 10.6366C113.082 10.3092 112.592 10.0417 112.291 10.0417ZM161.817 10.1501C161.775 10.053 161.776 9.70412 161.776 9.70412C161.776 9.70412 161.766 9.57828 161.817 9.51116C161.868 9.44425 161.886 9.44247 162.068 9.42454L162.07 9.42436C162.739 9.35851 164.08 9.24767 165.2 9.19709C165.303 9.19245 165.417 9.18709 165.541 9.18128L165.543 9.18116L165.545 9.18108C166.777 9.12318 168.983 9.04571 170.499 9.12413C173.407 9.27458 175.475 10.73 176.18 13.1352C176.885 15.5402 176.512 17.7978 175.552 19.2349C174.591 20.6719 172.975 21.9093 170.29 21.8287C168.073 21.7623 167.479 21.3325 167.006 20.9891C166.905 20.9165 166.811 20.8477 166.707 20.7872V23.8543C166.73 25.9461 166.747 26.9508 166.904 27.3227C167.114 27.8233 167.591 28.1318 168.519 28.3682C168.519 28.3682 168.939 28.4702 169.047 28.5788C169.156 28.6875 169.156 28.9289 169.156 28.9289C169.156 28.9289 169.178 29.1547 169.091 29.2697C169.004 29.3848 168.836 29.3617 168.836 29.3617L164.725 29.3274L162.246 29.3207C162.246 29.3207 161.986 29.3723 161.888 29.264C161.791 29.1555 161.8 28.9295 161.8 28.9295C161.8 28.9295 161.821 28.6862 161.935 28.5773C162.049 28.4682 162.472 28.3464 162.472 28.3464C163.428 28.0685 163.842 27.7745 164.059 27.2207C164.234 26.7742 164.235 25.9463 164.233 19.1899C164.231 12.7825 164.222 11.5873 164.08 11.2435C163.87 10.7347 163.345 10.5999 162.596 10.4079C162.448 10.3699 162.29 10.3295 162.125 10.2836C162.125 10.2836 161.858 10.2471 161.817 10.1501ZM173.787 15.3783C173.787 16.429 173.77 18.0739 172.689 19.1254C171.609 20.1769 169.482 20.4647 168.038 20.1719C167.583 20.0797 167.323 19.9375 167.122 19.8278L167.102 19.8169L166.733 19.6153L166.711 15.9238C166.698 13.6108 166.721 12.1039 166.774 11.8884C166.822 10.6688 168.559 10.5171 169.408 10.5623C173.04 10.5623 173.681 13.7308 173.787 15.3783ZM150.412 9.16261C150.412 9.16261 150.234 9.23311 149.965 9.33867L148.995 9.8573L148.297 11.6625C147.913 12.6553 147.21 14.4778 146.736 15.7126C145.872 17.9615 145.301 19.439 144.7 20.9812C144.523 21.4348 143.99 22.8161 143.514 24.0509C143.039 25.2854 142.564 26.4605 142.459 26.662C142.441 26.6955 142.422 26.7316 142.403 26.7697C142.137 27.287 141.675 28.1855 140.86 28.3214C140.86 28.3214 140.411 28.367 140.245 28.5368C140.079 28.7068 140.095 28.8456 140.095 28.8456V29.0597C140.095 29.0597 140.11 29.1634 140.204 29.215C140.299 29.2667 140.426 29.2697 140.426 29.2697L143.409 29.2346H146.492C146.492 29.2346 146.71 29.261 146.794 29.1888C146.878 29.1166 146.901 29.0095 146.901 29.0095V28.7841C146.901 28.7841 146.859 28.5398 146.736 28.4444C146.614 28.3492 146.157 28.2839 146.157 28.2839C144.922 28.1159 144.71 27.1493 144.862 26.2802C144.937 25.8531 145.433 24.2734 145.992 22.683L146.185 22.1334L149.416 22.1078C151.192 22.0937 152.727 22.1033 152.825 22.129C152.965 22.1657 153.161 22.5785 153.738 24.0487C154.611 26.2762 154.681 26.5475 154.487 26.9643C154.476 26.9897 154.463 27.0176 154.45 27.0478C154.268 27.4508 153.916 28.2339 153.028 28.3137C153.028 28.3137 152.557 28.3305 152.44 28.4763C152.323 28.6223 152.348 28.7901 152.348 28.7901V29.013C152.348 29.013 152.38 29.1438 152.44 29.1955C152.5 29.2473 152.603 29.2342 152.603 29.2342L155.535 29.2124L159.657 29.2122C159.657 29.2122 159.819 29.23 159.863 29.1658C159.907 29.1013 159.916 29.0255 159.916 29.0255V28.7294C159.916 28.7294 159.898 28.5719 159.819 28.485C159.74 28.3984 159.205 28.3067 159.205 28.3067C158.522 28.1927 158.182 27.6091 157.929 27.1745C157.864 27.0636 157.805 26.9625 157.748 26.8814C157.63 26.7157 157.211 25.8081 156.883 24.9351C156.555 24.0622 155.814 22.0902 155.237 20.5531C154.66 19.0161 153.855 16.8719 153.448 15.7885C153.041 14.7049 152.267 12.6433 151.729 11.207C151.641 10.9712 151.561 10.7595 151.49 10.5699C151.129 9.60538 150.983 9.2153 150.943 9.16261C150.814 8.99156 150.412 9.16261 150.412 9.16261ZM150.22 15.032C150.09 14.7045 149.86 14.117 149.711 13.7265C149.439 13.0166 149.336 12.853 149.251 12.9997C149.227 13.0425 149.055 13.5277 148.871 14.0779C147.675 17.6403 147.134 19.2444 147.025 19.5467C146.957 19.7367 146.901 19.9325 146.901 19.9819C146.901 20.0386 147.874 20.0717 149.54 20.0717C150.991 20.0717 152.178 20.0531 152.178 20.0303C152.178 20.0075 152.049 19.6675 151.89 19.2744C151.732 18.8812 151.345 17.9 151.03 17.0937C150.714 16.2874 150.35 15.3597 150.22 15.032Z" fill="#FF4DA2"/>
<path d="M9.59852 12.1933C8.92402 11.2472 4.75539 5.39977 0.95873 0.745302C0.624387 0.335409 0.359474 0 0.370057 0C0.4196 0 11.6074 12.412 12.4124 13.3601L12.6347 13.6219L12.6153 14.029C12.5898 14.5661 12.4233 14.9229 12.0255 15.2931C11.567 15.72 11.0091 15.9489 10.133 16.0697C9.59559 16.144 9.40011 16.2258 9.18295 16.4675C8.97475 16.6991 8.89514 16.9877 8.83766 17.7197C8.74866 18.8528 8.61709 19.3317 8.08618 20.4557C7.57324 21.5416 7.46914 21.952 7.55887 22.5335C7.66826 23.2424 8.06428 23.7578 8.9915 24.3981C9.69914 24.8867 10.0202 25.2018 10.1966 25.581C10.3049 25.8139 10.319 25.8986 10.3169 26.3034C10.3137 26.9224 10.2152 27.1717 9.7957 27.6235C9.11785 28.3532 7.9126 28.9486 6.42829 29.2872C5.80805 29.4286 5.78067 29.4285 5.78067 29.2836C5.78067 29.1015 5.5502 28.6362 5.14994 28.0101C4.68613 27.2845 4.50471 26.9216 4.33089 26.3722C4.13236 25.7447 4.07629 25.3207 4.10508 24.6642C4.13231 24.0434 4.19952 23.7681 4.4439 23.2764C4.63792 22.886 4.76373 22.7085 5.53264 21.7398C6.84621 20.0852 7.3202 19.1183 7.48876 17.7496C7.63911 16.5287 7.84741 15.9388 8.31336 15.4137C8.59286 15.0987 8.65469 14.9784 8.65469 14.7496C8.65469 14.6371 7.75398 12.8784 6.43723 10.4986C4.3402 6.70868 4.33916 6.7067 4.40032 6.76505C4.42678 6.79027 5.39657 8.29692 6.55538 10.1132C8.0699 12.4868 9.18213 14.1184 9.34468 14.2741C9.57464 14.4945 9.89047 14.6308 10.1708 14.6308C10.4186 14.6308 10.667 14.5853 10.9078 14.447C11.2063 14.2756 11.0578 14.089 10.5576 13.4601L10.5574 13.4599C10.3321 13.1767 10.0354 12.8037 9.67607 12.302L9.5986 12.1934L9.59852 12.1933Z" fill="#FF4DA2"/>
<path d="M11.5059 7.56227C11.3369 7.58851 11.352 7.59511 11.7112 7.65138C13.0194 7.85636 14.0414 8.38022 15.0816 9.3791C15.5393 9.81871 15.9995 10.3646 16.7439 11.3512C18.4202 13.5726 19.1315 14.1915 20.5427 14.6562C21.372 14.9293 22.2083 15.0568 23.6862 15.1355C25.3224 15.2226 25.9404 15.3555 26.5247 15.746C26.8489 15.9627 27.1019 16.2314 27.354 16.6259L27.5003 16.8552L27.4698 16.603C27.3523 15.6355 26.6681 14.2763 25.7973 13.2796L25.6385 13.0979L25.5584 13.463C25.3565 14.3823 24.9211 15.0429 24.5165 15.0434C24.3188 15.0437 24.1191 14.9162 24.0475 14.744C23.9579 14.5281 23.9654 14.4481 24.0987 14.1959C24.3439 13.7323 24.4044 13.1117 24.2835 12.302C24.2486 12.0679 24.1968 11.8486 24.1688 11.8145C24.0806 11.7076 23.3745 11.2916 22.9265 11.0826C21.2984 10.3229 19.3519 10.076 17.4384 10.3866L16.9841 10.4604L16.6667 10.1033C15.4716 8.75928 14.352 8.00251 13.1216 7.70711C12.5946 7.58052 11.8298 7.51195 11.5059 7.56227Z" fill="#FF4DA2"/>
<path d="M24.8066 8.35884C24.6281 8.75708 24.5393 9.19317 24.5021 9.8543C24.4782 10.2808 24.4543 10.4258 24.4051 10.4449C24.3314 10.4733 24.2315 10.4427 23.6257 10.2074C23.2185 10.0491 22.2066 9.75083 22.1772 9.78038C22.1695 9.78817 22.3812 9.89251 22.6476 10.0123C22.914 10.1321 23.3472 10.3586 23.6099 10.5156C24.6475 11.1355 24.8245 11.4974 24.8259 13.0027C24.8265 13.7518 24.8172 13.8513 24.725 14.0777C24.6017 14.3809 24.6232 14.4383 24.7596 14.1696C25.0116 13.673 25.116 13.1762 25.131 12.4024C25.1407 11.9058 25.1554 11.8008 25.2249 11.7309C25.3003 11.655 25.3185 11.654 25.4409 11.7176C25.6233 11.8124 26.4491 12.4759 26.8082 12.8162L27.1019 13.0944L26.8082 12.7051C26.6467 12.491 26.2012 11.9923 25.8182 11.5969C25.0017 10.7539 24.9371 10.6413 24.8237 9.86091C24.7342 9.24586 24.7556 8.71723 24.8853 8.33072C24.9331 8.18854 24.9638 8.07218 24.9535 8.07218C24.9434 8.07218 24.8772 8.20121 24.8066 8.35884Z" fill="#FF4DA2"/>
<path d="M12.4088 12.4293C11.6797 11.4154 11.2286 9.86083 11.3262 8.69871L11.3564 8.33907L11.5224 8.36967C11.8341 8.42709 12.3715 8.62912 12.6231 8.78351C13.3136 9.20712 13.6126 9.76483 13.9167 11.197C14.0058 11.6164 14.1227 12.0911 14.1765 12.2518C14.2631 12.5105 14.5902 13.1147 14.8562 13.5072C15.0479 13.7898 14.9206 13.9237 14.497 13.8851C13.8502 13.8261 12.974 13.2153 12.4088 12.4293Z" fill="#FF4DA2"/>
<path d="M19.0102 15.3573C19.0102 17.3869 20.2103 18.5898 23.6178 19.9755C25.8869 20.8984 26.8151 21.3756 27.5059 21.9752C28.1134 22.5027 28.4752 23.2066 28.5102 23.9297C28.5167 24.0646 28.5418 24.1637 28.5675 24.1553C28.6598 24.1251 29.0081 23.3379 29.1223 22.901C29.2668 22.348 29.3191 21.2987 29.2299 20.7391C28.9231 18.8133 27.6363 17.3996 25.5566 16.7029C24.9022 16.4836 24.1929 16.3337 22.9326 16.1478C20.7905 15.8322 20.0167 15.5931 19.3257 15.0334C19.177 14.9129 19.0453 14.8143 19.0328 14.8143C19.0205 14.8143 19.0102 15.0587 19.0102 15.3573Z" fill="#FF4DA2"/>
<path d="M21.2256 20.5512C21.183 20.2945 21.1089 19.9669 21.0611 19.823L20.9741 19.5613L21.1356 19.7443C21.3592 19.9978 21.5357 20.3219 21.6854 20.7539C21.7997 21.0834 21.8125 21.1814 21.8116 21.717C21.8108 22.2427 21.7965 22.3529 21.6911 22.6496C21.5247 23.1173 21.3182 23.449 20.9719 23.8051C20.3495 24.4449 19.5491 24.7993 18.3944 24.9462C18.1936 24.9717 17.6086 25.0148 17.0942 25.0417C15.798 25.1098 14.9449 25.2505 14.1783 25.5224C14.0681 25.5615 13.9697 25.5852 13.9597 25.5751C13.9287 25.5439 14.4506 25.2298 14.8817 25.02C15.4896 24.7242 16.0947 24.5627 17.4504 24.3347C18.1202 24.2221 18.8118 24.0854 18.9874 24.031C20.6459 23.5174 21.4985 22.1918 21.2256 20.5512Z" fill="#FF4DA2"/>
<path d="M22.4789 20.536C22.231 21.4211 22.3349 22.3701 22.7877 23.3532C23.0149 23.8467 23.2415 24.2193 24.1655 25.619C24.9603 26.8229 25.354 27.5353 25.5471 28.119C25.8624 29.0724 25.8149 29.929 25.3978 30.8096C25.2993 31.0178 25.2331 31.1877 25.2507 31.1874C25.2684 31.1869 25.4315 31.1052 25.6131 31.0058C26.8529 30.3262 27.7221 29.1618 28.0961 27.6794C28.2147 27.2093 28.2614 26.0857 28.1816 25.6188C28.041 24.7945 27.7487 24.1186 27.2764 23.5252C26.7372 22.8473 25.9441 22.2542 24.5529 21.4882C23.4383 20.8743 23.0198 20.6354 22.8113 20.4936C22.7063 20.4223 22.5996 20.3639 22.5739 20.3639C22.5481 20.3639 22.5055 20.4413 22.4789 20.536Z" fill="#FF4DA2"/>
<path d="M9.989 28.6571C11.2535 27.5787 12.8268 26.8126 14.2599 26.5775C14.8776 26.476 15.9065 26.5162 16.4784 26.6641C17.3952 26.9011 18.2152 27.4319 18.6417 28.0643C19.0586 28.6824 19.2374 29.2211 19.4236 30.4193C19.497 30.8921 19.5768 31.3668 19.6011 31.4743C19.7409 32.0953 20.0129 32.5918 20.3501 32.841C20.8856 33.237 21.8078 33.2616 22.7148 32.9042C22.8689 32.8436 23.0025 32.8016 23.0119 32.8109C23.0448 32.844 22.588 33.1529 22.2658 33.3156C21.8321 33.5342 21.4875 33.6188 21.0292 33.6188C20.1985 33.6188 19.5088 33.1919 18.9331 32.3215C18.8199 32.1502 18.5653 31.6371 18.3673 31.1812C17.7597 29.7812 17.4596 29.3547 16.7541 28.8879C16.14 28.4818 15.3481 28.4091 14.7523 28.7041C13.9698 29.0917 13.7514 30.1019 14.3119 30.742C14.5347 30.9963 14.9501 31.2157 15.2898 31.2585C15.9252 31.3383 16.4713 30.85 16.4713 30.2019C16.4713 29.7811 16.3112 29.541 15.9081 29.3572C15.3576 29.1064 14.7658 29.3997 14.7687 29.922C14.7699 30.1448 14.8659 30.2847 15.087 30.3858C15.2288 30.4505 15.2321 30.4557 15.1165 30.4314C14.6113 30.3256 14.493 29.7105 14.8991 29.3021C15.3868 28.8119 16.3951 29.0282 16.7413 29.6975C16.8868 29.9785 16.9037 30.5382 16.7769 30.8763C16.493 31.6328 15.6654 32.0305 14.8258 31.8141C14.2542 31.6667 14.0215 31.5071 13.3323 30.7901C12.1347 29.5441 11.6698 29.3026 9.94338 29.0304L9.61254 28.9782L9.989 28.6571Z" fill="#FF4DA2"/>
<path d="M13.1876 16.2833C12.7763 16.4109 12.3765 16.8513 12.2528 17.313C12.1773 17.5946 12.2201 18.0886 12.3332 18.2413C12.5159 18.4876 12.6926 18.5525 13.171 18.5492C14.1076 18.5426 14.9219 18.1368 15.0166 17.6296C15.0942 17.2137 14.7365 16.6375 14.244 16.3845C13.9898 16.254 13.4492 16.2023 13.1876 16.2833Z" fill="#FF4DA2"/>
</g>
<defs>
<clipPath id="clip0_1_7033">
<rect width="176.182" height="38" fill="white" transform="translate(0.363525)"/>
</clipPath>
</defs>
</svg>
