<svg width="165" height="38" viewBox="0 0 165 38" fill="none" xmlns="http://www.w3.org/2000/svg">
<path fill-rule="evenodd" clip-rule="evenodd" d="M13.0626 34.6807C11.9906 34.6807 11.4546 34.6807 11.0451 34.472C10.6855 34.2873 10.3926 33.994 10.2088 33.6327C10.0004 33.222 10.0004 32.684 10.0004 31.6087V3.32007H14.9111C15.9831 3.32007 16.5191 3.32007 16.9286 3.5294C17.2882 3.7134 17.5812 4.0074 17.7649 4.36873C17.9734 4.7794 17.9734 5.31673 17.9734 6.39206V25.7847C17.9734 26.3227 17.9734 26.5914 18.0779 26.7967C18.1691 26.9774 18.3156 27.124 18.496 27.216C18.7005 27.3207 18.9688 27.3207 19.5042 27.3207H30.9456C32.0176 27.3207 32.5536 27.3207 32.9632 27.53C33.3227 27.714 33.6157 28.008 33.7995 28.3694C34.0079 28.78 34.0079 29.3173 34.0079 30.3927V34.6807H13.0626Z" fill="#212631"/>
<path fill-rule="evenodd" clip-rule="evenodd" d="M97.3989 6.39206C97.3989 5.31673 97.3989 4.7794 97.6073 4.36873C97.7905 4.0074 98.0834 3.7134 98.4437 3.5294C98.8532 3.32007 99.3892 3.32007 100.461 3.32007H103.279C103.926 3.32007 104.249 3.32007 104.538 3.41473C104.794 3.49807 105.029 3.6354 105.229 3.81673C105.454 4.0214 105.615 4.30273 105.937 4.8654L115.74 22.0407V6.39206C115.74 5.31673 115.74 4.7794 115.948 4.36873C116.132 4.0074 116.424 3.7134 116.785 3.5294C117.194 3.32007 117.73 3.32007 118.802 3.32007H123.395V31.604C123.395 32.6787 123.395 33.2153 123.187 33.626C123.004 33.9873 122.712 34.2807 122.351 34.4653C121.942 34.6747 121.407 34.6753 120.336 34.676L117.517 34.6793C116.87 34.68 116.546 34.68 116.257 34.5853C116 34.502 115.765 34.3653 115.565 34.184C115.339 33.9787 115.178 33.6973 114.856 33.134L105.054 15.9607V31.6087C105.054 32.684 105.054 33.222 104.845 33.6327C104.662 33.994 104.369 34.2873 104.009 34.472C103.599 34.6807 103.064 34.6807 101.992 34.6807H97.3989V6.39206Z" fill="#212631"/>
<path fill-rule="evenodd" clip-rule="evenodd" d="M131.657 3.32007H127.063V31.6007C127.063 32.676 127.063 33.214 127.272 33.6247C127.456 33.986 127.749 34.2793 128.108 34.464C128.518 34.6727 129.054 34.6727 130.126 34.6727H134.719V21.8807H135.972C136.507 21.8807 136.776 21.8807 137.023 21.9487C137.242 22.0087 137.45 22.1074 137.634 22.2407C137.843 22.3907 138.012 22.5994 138.349 23.0167L146.868 33.5453C147.206 33.962 147.375 34.1707 147.583 34.3213C147.768 34.454 147.975 34.5527 148.194 34.6133C148.442 34.6807 148.71 34.6807 149.246 34.6807H156.489L145.222 20.78C144.662 20.0887 144.382 19.7427 144.275 19.3587C144.18 19.02 144.18 18.6614 144.275 18.3227C144.382 17.9387 144.663 17.5934 145.223 16.9027L145.223 16.902L156.245 3.32007H149.079C148.546 3.32007 148.28 3.32007 148.033 3.3874C147.814 3.4474 147.608 3.5454 147.423 3.6774C147.215 3.82607 147.047 4.0334 146.709 4.44807L138.378 14.6727C138.041 15.0874 137.872 15.294 137.664 15.4434C137.479 15.5754 137.273 15.6734 137.055 15.7334C136.808 15.8007 136.541 15.8007 136.007 15.8007H134.719V6.39206C134.719 5.31673 134.719 4.7794 134.51 4.36873C134.327 4.0074 134.034 3.7134 133.674 3.5294C133.265 3.32007 132.729 3.32007 131.657 3.32007Z" fill="#212631"/>
<path fill-rule="evenodd" clip-rule="evenodd" d="M37.6394 33.9519C37.431 33.5413 37.431 33.0033 37.431 31.9279V6.07199C37.431 4.99666 37.431 4.45933 37.6394 4.04866C37.8232 3.68733 38.1155 3.39333 38.4758 3.20933C38.8853 3 39.4213 3 40.4933 3H50.5092C53.1786 3 54.5136 3 55.609 3.29467C58.5807 4.09333 60.9025 6.42199 61.6989 9.40399C61.9919 10.5027 61.9919 11.842 61.9919 14.52C61.9919 16.2633 61.2048 16.9026 60.5336 17.4466C60.0349 17.8513 59.6001 18.204 59.6001 18.9206C59.6001 19.6266 60.1068 19.9793 60.6941 20.3886C61.5051 20.9533 62.4706 21.6253 62.4706 23.4806C62.4706 26.154 62.4706 27.4913 62.1783 28.5879C61.3826 31.5719 59.0601 33.9026 56.0864 34.7013C54.993 34.9953 53.6607 34.9959 50.9952 34.9966L40.494 34.9999C39.4219 35.0006 38.8859 35.0006 38.4764 34.7913C38.1162 34.6073 37.8232 34.3133 37.6394 33.9519ZM51.707 13.4933C52.3076 12.5466 52.8283 11.7273 52.8283 10.68C52.8283 8.55932 51.1111 6.83999 48.993 6.83999C46.8742 6.83999 45.157 8.63999 45.157 10.68C45.157 11.7273 45.6917 12.5466 46.3089 13.4933C47.1539 14.7873 48.1533 16.32 48.1533 19.0006C48.1533 21.6806 47.1539 23.2133 46.3089 24.508C45.6917 25.454 45.157 26.2733 45.157 27.3206C45.157 29.4413 46.8742 31.1606 48.993 31.1606C51.1111 31.1606 52.8283 29.4413 52.8283 27.3206C52.8283 26.2733 52.3076 25.454 51.707 24.508C50.8847 23.2133 49.9119 21.6806 49.9119 19.0006C49.9119 16.32 50.8847 14.7873 51.707 13.4933Z" fill="#FFD634"/>
<path fill-rule="evenodd" clip-rule="evenodd" d="M74.1652 28.4405L72.8594 32.5432C72.615 33.3112 72.4932 33.6952 72.2601 33.9792C72.0551 34.2305 71.7894 34.4252 71.4884 34.5452C71.1482 34.6805 70.746 34.6805 69.9423 34.6805H64.168L73.4367 5.30524C73.6798 4.53458 73.8009 4.14924 74.034 3.86391C74.2391 3.61191 74.5054 3.41658 74.8064 3.29658C75.148 3.15991 75.5501 3.15991 76.3558 3.15991H82.7161C83.5218 3.15991 83.9246 3.15991 84.2656 3.29658C84.5672 3.41658 84.8329 3.61191 85.038 3.86391C85.271 4.14924 85.3922 4.53391 85.6352 5.30457L94.9093 34.6805H89.1317C88.328 34.6805 87.9265 34.6805 87.5855 34.5452C87.2852 34.4252 87.0196 34.2305 86.8138 33.9792C86.5814 33.6952 86.4589 33.3112 86.2145 32.5432L84.9088 28.4405H74.1652ZM75.7939 23.3205H83.2794L79.536 11.5599L75.7939 23.3205Z" fill="#212631"/>
</svg>
