<svg width="143" height="38" viewBox="0 0 143 38" fill="none" xmlns="http://www.w3.org/2000/svg">
<g clip-path="url(#clip0_1_7061)">
<path fill-rule="evenodd" clip-rule="evenodd" d="M141.441 11.0649C141.628 11.0649 141.753 11.1274 141.878 11.1898C142.003 11.3148 142.003 11.4398 142.003 11.6272V15.1262C142.003 15.3136 141.941 15.4386 141.878 15.5635C141.753 15.6885 141.628 15.6885 141.441 15.6885H138.379V29.6843C138.379 29.8718 138.317 29.9967 138.254 30.1217C138.129 30.2466 138.004 30.2466 137.817 30.2466H133.256C133.068 30.2466 132.943 30.1842 132.818 30.1217C132.693 29.9967 132.693 29.8718 132.693 29.6843V15.6885H129.632C129.444 15.6885 129.32 15.626 129.195 15.5635C129.07 15.4386 129.07 15.3136 129.07 15.1262V11.6272C129.07 11.4398 129.132 11.3148 129.195 11.1898C129.32 11.0649 129.444 11.0649 129.632 11.0649H132.693V6.12886C132.693 5.94142 132.756 5.81645 132.818 5.69149C132.943 5.56653 133.068 5.56653 133.256 5.56653H137.817C138.004 5.56653 138.129 5.62901 138.254 5.69149C138.379 5.81645 138.379 5.94142 138.379 6.12886V11.0649H141.441Z" fill="#1DA2B4"/>
<path fill-rule="evenodd" clip-rule="evenodd" d="M128.257 20.3747C128.257 21.2494 128.195 21.8742 128.007 22.2491C127.82 22.624 127.445 22.8114 126.883 22.8114H115.511C115.761 23.8736 116.323 24.6234 117.136 25.1857C117.948 25.6856 119.01 25.9355 120.322 25.9355C120.947 25.9355 121.572 25.873 122.134 25.6856C122.697 25.4981 123.321 25.1857 123.946 24.8108C124.071 24.6859 124.196 24.6859 124.384 24.6859C124.509 24.6859 124.633 24.7483 124.821 24.9358L126.82 26.8727C126.945 26.9977 126.945 27.1226 126.945 27.2476C126.945 27.3726 126.883 27.56 126.695 27.685C125.758 28.6222 124.696 29.3095 123.509 29.8718C122.322 30.3717 121.072 30.6216 119.697 30.6216C117.761 30.6216 116.074 30.1842 114.512 29.3095C113.012 28.4347 111.825 27.2476 111.013 25.748C110.2 24.2485 109.763 22.624 109.763 20.812C109.763 19.0001 110.2 17.3756 111.013 15.876C111.825 14.3765 113.012 13.1893 114.449 12.377C115.886 11.5023 117.511 11.0649 119.323 11.0649C121.072 11.0649 122.634 11.5023 124.009 12.3146C125.383 13.1893 126.383 14.314 127.133 15.751C127.883 17.1881 128.257 18.7501 128.257 20.4996V20.3747ZM119.385 15.8135C118.385 15.8135 117.511 16.1259 116.823 16.6883C116.136 17.2506 115.636 18.0628 115.449 19.0625H123.196C123.009 18.0004 122.572 17.1881 121.884 16.6883C121.197 16.1259 120.385 15.8135 119.385 15.8135Z" fill="#1DA2B4"/>
<path fill-rule="evenodd" clip-rule="evenodd" d="M107.269 11.3773C107.457 11.3773 107.582 11.4398 107.707 11.5023C107.832 11.6272 107.832 11.7522 107.832 11.9396V30.1842C107.832 32.0586 107.332 33.6206 106.332 34.7453C105.332 35.9324 104.083 36.7447 102.521 37.2446C101.021 37.7444 99.4592 37.9943 97.8347 37.9943C96.2102 37.9943 94.7107 37.7444 93.2111 37.307C91.774 36.8697 90.5244 36.2449 89.5247 35.4951C89.3997 35.3701 89.2748 35.2452 89.2748 35.0577C89.2748 34.9327 89.2748 34.8078 89.3373 34.6828L90.8368 31.9961C90.9618 31.8087 91.1492 31.6837 91.2742 31.6837C91.3992 31.6837 91.5241 31.6837 91.5866 31.7462C92.4613 32.2461 93.3361 32.6209 94.2733 32.8709C95.2105 33.1208 96.2727 33.2458 97.3974 33.2458C98.7095 33.2458 99.8966 32.9333 100.959 32.371C102.021 31.8087 102.583 30.9339 102.583 29.6218V27.8099C101.084 29.4969 99.2718 30.3716 97.085 30.3716C95.398 30.3716 93.8359 29.9342 92.4613 29.0595C91.0867 28.1848 90.0246 26.9976 89.2123 25.4981C88.4625 23.9985 88.0876 22.374 88.0876 20.6245C88.0876 18.8751 88.4625 17.2505 89.2123 15.751C90.0246 14.2514 91.0867 13.0643 92.4613 12.1895C93.8359 11.3148 95.398 10.8774 97.085 10.8774C99.1468 10.8774 100.959 11.6897 102.458 13.3767L102.583 11.8771C102.646 11.5023 102.833 11.3148 103.146 11.3148H107.332L107.269 11.3773ZM97.7723 25.1857C98.9594 25.1857 99.9591 24.7483 100.771 23.8111C101.584 22.9363 102.021 21.8742 102.021 20.687C102.021 19.4999 101.584 18.4377 100.771 17.5629C99.9591 16.6882 98.9594 16.1884 97.7723 16.1884C96.5851 16.1884 95.5854 16.6257 94.7731 17.5005C93.9609 18.3752 93.5235 19.3749 93.5235 20.6245C93.5235 21.8742 93.8984 22.9363 94.7107 23.8111C95.5229 24.6858 96.5226 25.0607 97.7723 25.0607V25.1857Z" fill="#1DA2B4"/>
<path fill-rule="evenodd" clip-rule="evenodd" d="M86.1506 11.0649C86.338 11.0649 86.463 11.1274 86.588 11.1898C86.7129 11.3148 86.7129 11.4398 86.7129 11.6272V15.1262C86.7129 15.3136 86.6504 15.4386 86.588 15.5635C86.463 15.6885 86.338 15.6885 86.1506 15.6885H83.089V29.6843C83.089 29.8718 83.0265 29.9967 82.964 30.1217C82.8391 30.2466 82.7141 30.2466 82.5267 30.2466H77.9655C77.7781 30.2466 77.6531 30.1842 77.5282 30.1217C77.4032 29.9967 77.4032 29.8718 77.4032 29.6843V15.6885H74.3416C74.1542 15.6885 74.0292 15.626 73.9043 15.5635C73.7793 15.4386 73.7793 15.3136 73.7793 15.1262V11.6272C73.7793 11.4398 73.8418 11.3148 73.9043 11.1898C74.0292 11.0649 74.1542 11.0649 74.3416 11.0649H77.4032V6.12886C77.4032 5.94142 77.4657 5.81645 77.5282 5.69149C77.6531 5.56653 77.7781 5.56653 77.9655 5.56653H82.5267C82.7141 5.56653 82.8391 5.62901 82.964 5.69149C83.089 5.81645 83.089 5.94142 83.089 6.12886V11.0649H86.1506Z" fill="#1DA2B4"/>
<path fill-rule="evenodd" clip-rule="evenodd" d="M68.7239 9.50291C67.8492 9.50291 67.0994 9.1905 66.5371 8.62817C65.9748 8.00336 65.6624 7.25358 65.6624 6.44133C65.6624 5.56659 65.9748 4.81681 66.5371 4.25448C67.0994 3.62967 67.8492 3.31726 68.7239 3.31726C69.5987 3.31726 70.3485 3.62967 70.9108 4.25448C71.4731 4.87929 71.7855 5.56659 71.7855 6.44133C71.7855 7.31606 71.4731 8.00336 70.9108 8.62817C70.3485 9.25299 69.5987 9.50291 68.7239 9.50291ZM65.8498 11.6273C65.8498 11.4398 65.9123 11.3149 65.9748 11.1899C66.0997 11.0649 66.2247 11.0649 66.4121 11.0649H70.9733C71.1607 11.0649 71.2857 11.1274 71.4106 11.1899C71.5356 11.3149 71.5356 11.4398 71.5356 11.6273V29.7469C71.5356 29.9343 71.4731 30.0593 71.4106 30.1842C71.2857 30.3092 71.1607 30.3092 70.9733 30.3092H66.4121C66.2247 30.3092 66.0997 30.2467 65.9748 30.1842C65.8498 30.0593 65.8498 29.9343 65.8498 29.7469V11.6273Z" fill="#1DA2B4"/>
<path fill-rule="evenodd" clip-rule="evenodd" d="M58.477 15.876C59.9141 16.2509 61.1013 17.0631 62.1634 18.2503C63.2256 19.4374 63.7255 20.8745 63.7255 22.5615C63.7255 25.1857 62.9132 27.1226 61.2262 28.4347C59.6017 29.7468 57.1024 30.3716 53.7285 30.3716H44.2938C44.1063 30.3716 43.9814 30.3092 43.8564 30.2467C43.7314 30.1217 43.7314 29.9967 43.7314 29.8093V3.81707C43.7314 3.62963 43.7939 3.50467 43.8564 3.3797C43.9814 3.25474 44.1063 3.19226 44.2938 3.19226H53.666C55.353 3.19226 56.79 3.50467 57.9772 4.12948C59.2268 4.75429 60.1015 5.56655 60.7264 6.62873C61.3512 7.69092 61.6636 8.87806 61.6636 10.1902C61.6636 11.5648 61.3512 12.6894 60.7264 13.6891C60.1015 14.6888 59.3518 15.3761 58.4146 15.8135L58.477 15.876ZM56.1652 11.0024C56.1652 9.37791 55.1655 8.50317 53.1661 8.50317H49.6672V13.6891H53.1661C54.1033 13.6891 54.8531 13.4392 55.4154 13.0018C55.9778 12.5645 56.2277 11.8772 56.2277 10.9399L56.1652 11.0024ZM53.9159 25.0607C55.103 25.0607 56.0403 24.8108 56.7276 24.2485C57.4149 23.6861 57.7897 22.8739 57.7897 21.8117C57.7897 20.7495 57.4149 19.9997 56.7276 19.4999C56.0403 19 55.103 18.7501 53.9159 18.7501H49.6047V25.1232H53.9159V25.0607Z" fill="#1DA2B4"/>
<path fill-rule="evenodd" clip-rule="evenodd" d="M10.997 0.817994C11.4968 0.318144 12.1841 0.0057373 12.8714 0.0057373H17.495C18.0574 0.0057373 18.3698 0.693032 17.9949 1.1304L8.87261 10.8775H13.9336L19.0571 16.3134H8.87261L19.0571 27.1851H12.9339C12.2466 27.1851 11.5593 26.8727 11.0595 26.3729L0.750034 15.3761C-0.187186 14.3764 -0.187186 12.8769 0.750034 11.8772L11.0595 0.880476L10.997 0.817994Z" fill="#1DA2B4"/>
<path fill-rule="evenodd" clip-rule="evenodd" d="M25.1746 37.1822C24.6747 37.682 23.9874 37.9944 23.3002 37.9944H18.6765C18.1142 37.9944 17.8018 37.3071 18.1767 36.8698L27.299 27.1227H22.238L17.1145 21.6868H27.299L17.1202 10.8151H23.2434C23.9306 10.8151 24.6179 11.1275 25.1178 11.6273L35.4272 22.624C36.3644 23.6237 36.3644 25.1233 35.4272 26.123L25.1121 37.1197L25.1746 37.1822Z" fill="#1DA2B4"/>
</g>
<defs>
<clipPath id="clip0_1_7061">
<rect width="142.003" height="38" fill="white" transform="translate(0.000244141)"/>
</clipPath>
</defs>
</svg>
