<svg width="166" height="38" viewBox="0 0 166 38" fill="none" xmlns="http://www.w3.org/2000/svg">
<g clip-path="url(#clip0_1_7080)">
<path d="M129.383 18.9826C129.383 18.0134 129.383 17.1017 129.352 16.2598C129.331 15.4656 129.252 14.6739 129.117 13.8909C128.99 13.176 128.767 12.4816 128.453 11.8271C128.121 11.1522 127.678 10.5381 127.142 10.0107C126.381 9.23179 125.477 8.60835 124.478 8.17524C123.398 7.73765 122.241 7.52073 121.076 7.53725C119.906 7.52214 118.745 7.73897 117.659 8.17524C116.655 8.60243 115.744 9.22316 114.98 10.002C114.445 10.5291 114.003 11.1433 113.674 11.8184C113.363 12.4731 113.143 13.1675 113.021 13.8822C112.888 14.6654 112.813 15.4571 112.794 16.2511C112.773 17.093 112.763 18.0047 112.768 18.9739C112.773 19.943 112.768 20.8477 112.794 21.6949C112.813 22.4889 112.888 23.2806 113.021 24.0638C113.143 24.7784 113.363 25.4729 113.674 26.1276C114.005 26.8019 114.446 27.4159 114.98 27.944C115.743 28.7234 116.654 29.3432 117.659 29.7673C118.744 30.2064 119.905 30.4245 121.076 30.4087C122.241 30.4259 123.399 30.2077 124.478 29.7673C125.477 29.3399 126.382 28.7204 127.142 27.944C127.677 27.4156 128.12 26.8017 128.453 26.1276C128.767 25.473 128.99 24.7787 129.117 24.0638C129.25 23.283 129.328 22.4937 129.348 21.7018C129.375 20.8547 129.387 19.9483 129.38 18.9808L129.383 18.9826ZM124.991 18.9826C124.991 20.0563 124.975 20.9506 124.938 21.6617C124.918 22.2459 124.86 22.8282 124.764 23.4049C124.699 23.7891 124.581 24.1626 124.415 24.5152C124.281 24.7994 124.104 25.062 123.893 25.2944C123.565 25.669 123.159 25.9666 122.704 26.166C122.191 26.3854 121.639 26.4969 121.081 26.4937C120.52 26.4961 119.965 26.3847 119.449 26.166C118.983 25.9703 118.566 25.6725 118.229 25.2944C118.016 25.0631 117.839 24.8003 117.706 24.5152C117.545 24.1623 117.433 23.7886 117.375 23.4049C117.282 22.8279 117.224 22.2458 117.201 21.6617C117.169 20.9506 117.154 20.0575 117.154 18.9826C117.154 17.9088 117.169 17.0129 117.201 16.3017C117.224 15.7177 117.282 15.1356 117.375 14.5585C117.433 14.1748 117.545 13.8011 117.706 13.4482C117.84 13.1634 118.016 12.9006 118.229 12.669C118.566 12.2914 118.983 11.9937 119.449 11.7974C119.965 11.5763 120.52 11.4647 121.081 11.4697C121.639 11.4639 122.192 11.5756 122.704 11.7974C123.159 11.9974 123.565 12.2949 123.893 12.669C124.104 12.9017 124.28 13.1642 124.415 13.4482C124.581 13.8008 124.699 14.1743 124.764 14.5585C124.859 15.1352 124.918 15.7175 124.938 16.3017C124.977 17.0111 124.991 17.9071 124.991 18.9826Z" fill="#23AF91"/>
<path d="M164.385 8.11948C164.383 7.90751 164.212 7.73615 164 7.73425H160.376C160.164 7.73521 159.992 7.90712 159.991 8.11948V21.5066L151.153 7.84233C151.094 7.74994 151.041 7.73425 150.911 7.73425H147.55C147.338 7.73707 147.168 7.9079 147.165 8.11948V29.8422C147.168 30.0535 147.339 30.2238 147.55 30.2257H151.172C151.384 30.2248 151.555 30.0536 151.556 29.8422V16.4202L160.395 30.1159C160.456 30.2083 160.505 30.224 160.637 30.224H163.996C164.208 30.223 164.38 30.0522 164.382 29.8405L164.385 8.11948Z" fill="#23AF91"/>
<path d="M140.093 8.11948C140.092 7.90712 139.92 7.73521 139.708 7.73425H136.087C135.875 7.73521 135.703 7.90712 135.702 8.11948V29.8405C135.703 30.0529 135.875 30.2248 136.087 30.2257H139.708C139.92 30.2248 140.092 30.0529 140.093 29.8405V8.11948Z" fill="#23AF91"/>
<path d="M96.752 18.9825C96.752 17.9018 96.7642 17.0023 96.7956 16.2859C96.8169 15.7018 96.8752 15.1196 96.9699 14.5428C97.3046 12.6079 98.7863 11.4662 100.678 11.4662C101.912 11.4766 103.031 11.9333 103.745 12.9722C104.069 13.4573 104.305 13.9953 104.443 14.562C104.453 14.6216 104.508 14.6633 104.568 14.6578H108.83C108.891 14.6578 108.914 14.616 108.903 14.5567C108.438 11.9194 107.031 9.55049 104.546 8.37738C103.324 7.81175 101.99 7.52875 100.644 7.54939C98.2447 7.54939 96.2233 8.37098 94.5801 10.0142C93.642 10.9285 93.0016 12.1047 92.7429 13.3888C92.4919 14.6532 92.3652 16.5172 92.3628 18.9808C92.3605 21.4444 92.4872 23.3078 92.7429 24.571C92.9995 25.8568 93.638 27.0353 94.5749 27.9526C96.2169 29.5946 98.2383 30.4156 100.639 30.4156C101.985 30.436 103.318 30.1536 104.54 29.5894C107.026 28.4163 108.433 26.0474 108.898 23.41C108.909 23.349 108.886 23.3089 108.825 23.3089H104.561C104.501 23.3026 104.446 23.3446 104.436 23.4048C104.298 23.9708 104.062 24.5082 103.738 24.9928C103.024 26.0387 101.905 26.4901 100.671 26.4988C98.7793 26.4988 97.2976 25.3588 96.9629 23.424C96.8683 22.8472 96.81 22.265 96.7886 21.6809C96.7642 20.961 96.752 20.0598 96.752 18.9825Z" fill="#23AF91"/>
<path d="M51.7378 8.11948C51.7369 7.90712 51.565 7.73521 51.3526 7.73425H47.7322C47.5198 7.73521 47.3479 7.90712 47.3469 8.11948V29.8422C47.3488 30.0539 47.5205 30.2248 47.7322 30.2259H51.3526C51.5643 30.2248 51.7359 30.0539 51.7378 29.8422V23.4659L54.6436 19.9919L60.6121 30.1107C60.658 30.1853 60.7407 30.2293 60.8282 30.2259H65.2278C65.43 30.2259 65.4666 30.1002 65.3655 29.9276L57.5511 16.6799L64.7206 8.07939C64.8653 7.90508 64.8043 7.73948 64.5777 7.73948H59.7684C59.7099 7.73604 59.6535 7.76224 59.6185 7.80921L51.7378 17.2604V8.11948Z" fill="#23AF91"/>
<path d="M78.1147 26.4989C76.077 26.4989 74.2293 24.6129 74.2293 22.3608V8.11948C74.2283 7.90712 74.0564 7.73521 73.8441 7.73425H70.2236C70.0112 7.73521 69.8393 7.90712 69.8384 8.11948V22.305C69.8384 27.2642 73.5477 30.4157 78.1147 30.4157C82.6817 30.4157 86.391 27.2642 86.391 22.305V8.11948C86.3891 7.90751 86.2178 7.73615 86.0058 7.73425H82.3836C82.1719 7.73616 82.0011 7.9078 82.0001 8.11948V22.3608C82.0001 24.6111 80.1507 26.4989 78.1147 26.4989Z" fill="#23AF91"/>
<path fill-rule="evenodd" clip-rule="evenodd" d="M10.954 18.9826L22.1936 30.2239L29.2881 23.1294C30.5567 21.9872 32.4975 22.038 33.7046 23.2451C34.9117 24.4522 34.9625 26.393 33.8202 27.6615L24.458 37.0256C23.2004 38.2624 21.1834 38.2624 19.9258 37.0256L6.41841 23.5147V31.5452C6.41841 33.3175 4.98165 34.7543 3.20933 34.7543C1.437 34.7543 0.000244141 33.3175 0.000244141 31.5452V6.40944C0.000244141 4.63711 1.437 3.20035 3.20933 3.20035C4.98165 3.20035 6.41841 4.63711 6.41841 6.40944V14.44L19.9241 0.932557C21.1813 -0.305156 23.199 -0.305156 24.4562 0.932557L33.8255 10.2948C34.9677 11.5634 34.9169 13.5042 33.7098 14.7113C32.5028 15.9184 30.562 15.9692 29.2934 14.827L22.1989 7.73247L10.954 18.9826ZM22.1989 15.77C20.8993 15.7693 19.7274 16.5516 19.2296 17.752C18.7318 18.9524 19.0062 20.3344 19.9249 21.2536C20.8435 22.1727 22.2255 22.4479 23.4261 21.9508C24.6268 21.4536 25.4097 20.2821 25.4097 18.9826C25.4102 18.1305 25.0721 17.3132 24.47 16.7104C23.8678 16.1076 23.0509 15.7687 22.1989 15.7682V15.77Z" fill="#23AF91"/>
</g>
<defs>
<clipPath id="clip0_1_7080">
<rect width="165.571" height="38" fill="white" transform="translate(0.000244141)"/>
</clipPath>
</defs>
</svg>
