<svg width="136" height="38" viewBox="0 0 136 38" fill="none" xmlns="http://www.w3.org/2000/svg">
<g clip-path="url(#clip0_1_7102)">
<path d="M39.7072 0H0.90268C0.663337 0 0.433802 0.0889642 0.26456 0.247323C0.095321 0.40568 0.000244141 0.620462 0.000244141 0.844415V37.1541C0.000244141 37.3781 0.095321 37.5931 0.26456 37.7515C0.433802 37.9096 0.663337 37.9985 0.90268 37.9985H39.7072C39.9468 37.9985 40.1761 37.9096 40.3456 37.7515C40.5147 37.5931 40.61 37.3781 40.61 37.1541V0.844415C40.61 0.620462 40.5147 0.40568 40.3456 0.247323C40.1761 0.0889642 39.9468 0 39.7072 0ZM27.0733 24.488C27.0733 24.712 26.9782 24.9267 26.809 25.0851C26.6397 25.2435 26.4102 25.3324 26.1709 25.3324H14.4392C14.1999 25.3324 13.9703 25.2435 13.8011 25.0851C13.6318 24.9267 13.5368 24.712 13.5368 24.488V13.5106C13.5368 13.2867 13.6318 13.0719 13.8011 12.9135C13.9703 12.7552 14.1999 12.6662 14.4392 12.6662H26.1709C26.4102 12.6662 26.6397 12.7552 26.809 12.9135C26.9782 13.0719 27.0733 13.2867 27.0733 13.5106V24.488Z" fill="#1E1E1E"/>
<path d="M120.943 12.6677H109.211C108.713 12.6677 108.309 13.0458 108.309 13.5121V24.4895C108.309 24.9559 108.713 25.3339 109.211 25.3339H120.943C121.442 25.3339 121.846 24.9559 121.846 24.4895V13.5121C121.846 13.0458 121.442 12.6677 120.943 12.6677Z" fill="#1E1E1E"/>
<path d="M107.41 0.000610352H95.6783C95.1798 0.000610352 94.7759 0.378669 94.7759 0.845024V11.8224C94.7759 12.2888 95.1798 12.6668 95.6783 12.6668H107.41C107.908 12.6668 108.313 12.2888 108.313 11.8224V0.845024C108.313 0.378669 107.908 0.000610352 107.41 0.000610352Z" fill="#1E1E1E"/>
<path d="M134.487 0.000610352H122.755C122.257 0.000610352 121.853 0.378669 121.853 0.845024V11.8224C121.853 12.2888 122.257 12.6668 122.755 12.6668H134.487C134.985 12.6668 135.389 12.2888 135.389 11.8224V0.845024C135.389 0.378669 134.985 0.000610352 134.487 0.000610352Z" fill="#1E1E1E"/>
<path d="M107.41 25.3336H95.6783C95.1798 25.3336 94.7759 25.7117 94.7759 26.178V37.1555C94.7759 37.6218 95.1798 37.9999 95.6783 37.9999H107.41C107.908 37.9999 108.313 37.6218 108.313 37.1555V26.178C108.313 25.7117 107.908 25.3336 107.41 25.3336Z" fill="#1E1E1E"/>
<path d="M134.487 25.3336H122.755C122.257 25.3336 121.853 25.7117 121.853 26.178V37.1555C121.853 37.6218 122.257 37.9999 122.755 37.9999H134.487C134.985 37.9999 135.389 37.6218 135.389 37.1555V26.178C135.389 25.7117 134.985 25.3336 134.487 25.3336Z" fill="#1E1E1E"/>
<path d="M87.0888 0.000610352H75.3573C74.8589 0.000610352 74.4546 0.378669 74.4546 0.845024V11.8224C74.4546 12.2888 74.8589 12.6668 75.3573 12.6668H87.0888C87.5873 12.6668 87.9912 12.2888 87.9912 11.8224V0.845024C87.9912 0.378669 87.5873 0.000610352 87.0888 0.000610352Z" fill="#1E1E1E"/>
<path d="M87.0888 25.3336H75.3573C74.8589 25.3336 74.4546 25.7117 74.4546 26.178V37.1555C74.4546 37.6218 74.8589 37.9999 75.3573 37.9999H87.0888C87.5873 37.9999 87.9912 37.6218 87.9912 37.1555V26.178C87.9912 25.7117 87.5873 25.3336 87.0888 25.3336Z" fill="#1E1E1E"/>
<path d="M74.4507 13.5011C74.4507 13.2772 74.3555 13.0624 74.1864 12.9041C74.0172 12.7457 73.7876 12.6567 73.5483 12.6567H60.9141V0.844415C60.9141 0.620462 60.8189 0.40568 60.6497 0.247323C60.4806 0.0889642 60.2509 0 60.0117 0H48.2802C48.0406 0 47.8113 0.0889642 47.6418 0.247323C47.4727 0.40568 47.3774 0.620462 47.3774 0.844415V37.1352C47.3774 37.3592 47.4727 37.5739 47.6418 37.7323C47.8113 37.8907 48.0406 37.9796 48.2802 37.9796H60.0117C60.2509 37.9796 60.4806 37.8907 60.6497 37.7323C60.8189 37.5739 60.9141 37.3592 60.9141 37.1352V25.3229H73.5483C73.7876 25.3229 74.0172 25.234 74.1864 25.0756C74.3555 24.9172 74.4507 24.7025 74.4507 24.4785V13.5011Z" fill="#1E1E1E"/>
</g>
<defs>
<clipPath id="clip0_1_7102">
<rect width="135.389" height="38" fill="white" transform="translate(0.000244141)"/>
</clipPath>
</defs>
</svg>
