<svg width="18" height="18" viewBox="0 0 18 18" fill="none" xmlns="http://www.w3.org/2000/svg">
<path d="M5.81275 1.875C5.81275 1.56434 5.5609 1.3125 5.25025 1.3125C4.93959 1.3125 4.68775 1.56434 4.68775 1.875V3.05944C3.60825 3.14588 2.89957 3.35803 2.37892 3.87868C1.85827 4.39933 1.64613 5.108 1.55969 6.1875H16.4408C16.3544 5.108 16.1422 4.39933 15.6215 3.87868C15.1009 3.35803 14.3922 3.14588 13.3127 3.05944V1.875C13.3127 1.56434 13.0609 1.3125 12.7502 1.3125C12.4396 1.3125 12.1877 1.56434 12.1877 1.875V3.00967C11.6888 3 11.1295 3 10.5002 3H7.50025C6.87098 3 6.3117 3 5.81275 3.00967V1.875Z" fill="#06907B"/>
<path fill-rule="evenodd" clip-rule="evenodd" d="M1.50024 9C1.50024 8.37075 1.50024 7.81147 1.50992 7.3125H16.4906C16.5002 7.81147 16.5002 8.37075 16.5002 9V10.5C16.5002 13.3284 16.5002 14.7427 15.6215 15.6213C14.7429 16.5 13.3286 16.5 10.5002 16.5H7.50024C4.67181 16.5 3.25761 16.5 2.37892 15.6213C1.50024 14.7427 1.50024 13.3284 1.50024 10.5V9ZM12.7502 10.5C13.1645 10.5 13.5002 10.1642 13.5002 9.75C13.5002 9.33577 13.1645 9 12.7502 9C12.336 9 12.0002 9.33577 12.0002 9.75C12.0002 10.1642 12.336 10.5 12.7502 10.5ZM12.7502 13.5C13.1645 13.5 13.5002 13.1642 13.5002 12.75C13.5002 12.3358 13.1645 12 12.7502 12C12.336 12 12.0002 12.3358 12.0002 12.75C12.0002 13.1642 12.336 13.5 12.7502 13.5ZM9.75024 9.75C9.75024 10.1642 9.41447 10.5 9.00024 10.5C8.58602 10.5 8.25024 10.1642 8.25024 9.75C8.25024 9.33577 8.58602 9 9.00024 9C9.41447 9 9.75024 9.33577 9.75024 9.75ZM9.75024 12.75C9.75024 13.1642 9.41447 13.5 9.00024 13.5C8.58602 13.5 8.25024 13.1642 8.25024 12.75C8.25024 12.3358 8.58602 12 9.00024 12C9.41447 12 9.75024 12.3358 9.75024 12.75ZM5.25024 10.5C5.66445 10.5 6.00024 10.1642 6.00024 9.75C6.00024 9.33577 5.66445 9 5.25024 9C4.83603 9 4.50024 9.33577 4.50024 9.75C4.50024 10.1642 4.83603 10.5 5.25024 10.5ZM5.25024 13.5C5.66445 13.5 6.00024 13.1642 6.00024 12.75C6.00024 12.3358 5.66445 12 5.25024 12C4.83603 12 4.50024 12.3358 4.50024 12.75C4.50024 13.1642 4.83603 13.5 5.25024 13.5Z" fill="#06907B"/>
</svg>
