<svg width="28" height="28" viewBox="0 0 28 28" fill="none" xmlns="http://www.w3.org/2000/svg">
<path fill-rule="evenodd" clip-rule="evenodd" d="M6.12516 11.7303V9.33325C6.12516 4.98401 9.65092 1.45825 14.0002 1.45825C18.3494 1.45825 21.8752 4.98401 21.8752 9.33325V11.7303C23.1758 11.8275 24.0226 12.0726 24.6417 12.6917C25.6668 13.7169 25.6668 15.3668 25.6668 18.6666C25.6668 21.9664 25.6668 23.6163 24.6417 24.6414C23.6165 25.6666 21.9666 25.6666 18.6668 25.6666H9.3335C6.03366 25.6666 4.38375 25.6666 3.35862 24.6414C2.3335 23.6163 2.3335 21.9664 2.3335 18.6666C2.3335 15.3668 2.3335 13.7169 3.35862 12.6917C3.97769 12.0726 4.82462 11.8275 6.12516 11.7303ZM7.87516 9.33325C7.87516 5.95051 10.6174 3.20825 14.0002 3.20825C17.3829 3.20825 20.1252 5.95051 20.1252 9.33325V11.6708C19.6783 11.6666 19.1936 11.6666 18.6668 11.6666H9.3335C8.80673 11.6666 8.32201 11.6666 7.87516 11.6708V9.33325ZM16.3335 18.6666C16.3335 19.9553 15.2889 20.9999 14.0002 20.9999C12.7115 20.9999 11.6668 19.9553 11.6668 18.6666C11.6668 17.3779 12.7115 16.3333 14.0002 16.3333C15.2889 16.3333 16.3335 17.3779 16.3335 18.6666Z" fill="#055C4F"/>
</svg>
