<svg width="48" height="48" viewBox="0 0 48 48" fill="none" xmlns="http://www.w3.org/2000/svg">
<path fill-rule="evenodd" clip-rule="evenodd" d="M42.202 16.0071C42.0886 15.9999 41.9652 16 41.8374 16L41.8054 16H36.7884C32.653 16 29.1146 19.2551 29.1146 23.5C29.1146 27.7448 32.653 31 36.7884 31H41.8054H41.8374C41.9652 31 42.0886 31.0002 42.202 30.993C43.8818 30.8868 45.3672 29.5724 45.4922 27.7364C45.5004 27.616 45.5002 27.4862 45.5002 27.366V27.3334V19.6667V19.634C45.5002 19.5138 45.5004 19.384 45.4922 19.2636C45.3672 17.4276 43.8818 16.1131 42.202 16.0071ZM36.3436 25.5C37.4082 25.5 38.2712 24.6046 38.2712 23.5C38.2712 22.3954 37.4082 21.5 36.3436 21.5C35.279 21.5 34.4158 22.3954 34.4158 23.5C34.4158 24.6046 35.279 25.5 36.3436 25.5Z" fill="#FFD8BC"/>
<path fill-rule="evenodd" clip-rule="evenodd" d="M41.836 34C42.1342 33.9922 42.36 34.2684 42.279 34.5556C41.8776 35.9804 41.2402 37.195 40.2178 38.2176C38.721 39.7142 36.823 40.3784 34.4782 40.6938C32.1998 41 29.2886 41 25.613 41H21.3874C17.7119 41 14.8006 41 12.5222 40.6938C10.1774 40.3784 8.27946 39.7142 6.78272 38.2176C5.286 36.7208 4.62177 34.8228 4.30653 32.478C4.00019 30.1996 4.00021 27.2884 4.00025 23.6128V23.3872C4.00021 19.7117 4.00019 16.8004 4.30653 14.522C4.62177 12.1771 5.286 10.2792 6.78272 8.78248C8.27946 7.28576 10.1774 6.62152 12.5222 6.30628C14.8006 5.99994 17.7119 5.99996 21.3874 6H25.613C29.2886 5.99996 32.1998 5.99994 34.4782 6.30628C36.823 6.62152 38.721 7.28576 40.2178 8.78248C41.2402 9.80504 41.8774 11.0195 42.279 12.4444C42.36 12.7315 42.1342 13.0077 41.836 13L36.7882 13C31.115 13 26.1144 17.4818 26.1144 23.5C26.1144 29.5182 31.115 34 36.7882 34H41.836ZM11.5002 14C10.6718 14 10.0002 14.6716 10.0002 15.5C10.0002 16.3284 10.6718 17 11.5002 17H19.5002C20.3286 17 21.0002 16.3284 21.0002 15.5C21.0002 14.6716 20.3286 14 19.5002 14H11.5002Z" fill="#FFD8BC"/>
</svg>
