<svg width="48" height="48" viewBox="0 0 48 48" fill="none" xmlns="http://www.w3.org/2000/svg">
<g clip-path="url(#clip0_1_6990)">
<path d="M13.3261 12.3109C12.206 10.7349 5.28325 0.994653 -1.02178 -6.75852C-1.57701 -7.4413 -2.01695 -8 -1.99937 -8C-1.9171 -8 16.6621 12.6751 17.999 14.2544L18.3682 14.6905L18.336 15.3686C18.2936 16.2633 18.0171 16.8576 17.3565 17.4743C16.595 18.1853 15.6685 18.5667 14.2136 18.7679C13.3212 18.8916 12.9965 19.028 12.6359 19.4305C12.2902 19.8163 12.158 20.2971 12.0625 21.5164C11.9147 23.4037 11.6962 24.2015 10.8145 26.0738C9.96273 27.8826 9.78985 28.5662 9.93886 29.5349C10.1205 30.7157 10.7782 31.5742 12.318 32.6407C13.4931 33.4547 14.0263 33.9795 14.3192 34.6112C14.4991 34.9991 14.5225 35.1402 14.519 35.8146C14.5138 36.8456 14.3502 37.261 13.6535 38.0134C12.5278 39.229 10.5263 40.2207 8.06134 40.7848C7.03133 41.0203 6.98587 41.0201 6.98587 40.7788C6.98587 40.4755 6.60313 39.7003 5.93842 38.6575C5.16819 37.4488 4.86692 36.8443 4.57826 35.9291C4.24857 34.8839 4.15546 34.1776 4.20326 33.0841C4.24849 32.05 4.3601 31.5913 4.76592 30.7724C5.08813 30.122 5.29706 29.8264 6.57397 28.2128C8.75537 25.4567 9.5425 23.846 9.82243 21.5662C10.0721 19.5325 10.418 18.5498 11.1918 17.6751C11.656 17.1505 11.7587 16.9501 11.7587 16.5689C11.7587 16.3815 10.2629 13.4521 8.0762 9.48792C4.59372 3.17489 4.59199 3.1716 4.69356 3.26878C4.7375 3.3108 6.348 5.82048 8.2724 8.84587C10.7875 12.7997 12.6346 15.5176 12.9045 15.777C13.2864 16.144 13.8109 16.3711 14.2764 16.3711C14.688 16.3711 15.1005 16.2952 15.5003 16.0649C15.996 15.7794 15.7495 15.4685 14.9187 14.421L14.9185 14.4208C14.5443 13.9489 14.0516 13.3276 13.4548 12.4918L13.3262 12.311L13.3261 12.3109Z" fill="#FFD8BC"/>
<path d="M16.4935 4.59675C16.2129 4.64045 16.238 4.65145 16.8345 4.74518C19.007 5.08662 20.7043 5.95924 22.4316 7.62311C23.1917 8.35538 23.9559 9.26469 25.1922 10.9082C27.976 14.6083 29.1571 15.6392 31.5007 16.4133C32.8779 16.8683 34.2668 17.0807 36.721 17.2118C39.4383 17.3568 40.4645 17.5782 41.4348 18.2288C41.9733 18.5896 42.3934 19.0372 42.812 19.6945L43.055 20.0764L43.0042 19.6562C42.8091 18.0446 41.673 15.7805 40.2268 14.1203L39.9631 13.8177L39.83 14.4259C39.4948 15.9571 38.7717 17.0575 38.0999 17.0584C37.7715 17.0589 37.4399 16.8465 37.3211 16.5595C37.1722 16.1999 37.1846 16.0668 37.406 15.6466C37.8133 14.8744 37.9137 13.8406 37.7129 12.4918C37.655 12.102 37.569 11.7366 37.5225 11.6799C37.376 11.5018 36.2033 10.8088 35.4595 10.4606C32.7557 9.19517 29.5231 8.78399 26.3455 9.30137L25.5911 9.42422L25.0639 8.82946C23.0793 6.59066 21.22 5.33008 19.1768 4.83802C18.3015 4.62716 17.0314 4.51293 16.4935 4.59675Z" fill="#FFD8BC"/>
<path d="M38.5816 5.92363C38.2853 6.587 38.1378 7.31339 38.076 8.41467C38.0363 9.12504 37.9966 9.36668 37.9148 9.39838C37.7925 9.44569 37.6266 9.39487 36.6206 9.00279C35.9443 8.73923 34.2639 8.24232 34.215 8.29153C34.2024 8.30451 34.5539 8.47831 34.9962 8.67786C35.4387 8.87743 36.1581 9.25469 36.5943 9.51627C38.3174 10.5489 38.6113 11.1517 38.6137 13.659C38.6147 14.9069 38.5992 15.0727 38.4462 15.4498C38.2414 15.9548 38.2771 16.0503 38.5035 15.6029C38.9221 14.7755 39.0954 13.9482 39.1204 12.6591C39.1364 11.832 39.1609 11.657 39.2763 11.5406C39.4015 11.4142 39.4317 11.4124 39.6349 11.5184C39.9378 11.6764 41.3093 12.7816 41.9057 13.3484L42.3934 13.8118L41.9057 13.1633C41.6375 12.8067 40.8976 11.976 40.2615 11.3174C38.9055 9.91318 38.7983 9.7256 38.61 8.42567C38.4614 7.40117 38.4969 6.52061 38.7123 5.87679C38.7917 5.63995 38.8427 5.44613 38.8256 5.44613C38.8088 5.44613 38.6989 5.66105 38.5816 5.92363Z" fill="#FFD8BC"/>
<path d="M17.993 12.704C16.7822 11.0151 16.033 8.42554 16.1952 6.48976L16.2454 5.89069L16.521 5.94167C17.0386 6.03731 17.931 6.37384 18.3489 6.63101C19.4956 7.33663 19.9921 8.26563 20.4972 10.6512C20.6451 11.3499 20.8392 12.1406 20.9285 12.4083C21.0723 12.8392 21.6156 13.8457 22.0574 14.4994C22.3756 14.9701 22.1642 15.1932 21.4609 15.1289C20.3867 15.0306 18.9317 14.0133 17.993 12.704Z" fill="#FFD8BC"/>
<path d="M28.9557 17.5813C28.9557 20.962 30.9487 22.9656 36.6075 25.2739C40.3756 26.8113 41.917 27.6062 43.0642 28.605C44.0731 29.4835 44.6739 30.6561 44.732 31.8606C44.7428 32.0853 44.7846 32.2504 44.8272 32.2364C44.9805 32.1861 45.559 30.8747 45.7485 30.1471C45.9886 29.2258 46.0754 27.478 45.9273 26.5459C45.4178 23.338 43.2808 20.9831 39.8271 19.8226C38.7404 19.4574 37.5625 19.2076 35.4695 18.898C31.9122 18.3723 30.6272 17.974 29.4797 17.0416C29.2328 16.8409 29.014 16.6767 28.9933 16.6767C28.9728 16.6767 28.9557 17.0838 28.9557 17.5813Z" fill="#FFD8BC"/>
<path d="M32.6347 26.2329C32.564 25.8053 32.4409 25.2597 32.3615 25.0199L32.2172 24.584L32.4854 24.8888C32.8566 25.3111 33.1498 25.851 33.3983 26.5705C33.5881 27.1193 33.6094 27.2826 33.6078 28.1748C33.6065 29.0504 33.5829 29.234 33.4077 29.7282C33.1314 30.5073 32.7885 31.0599 32.2135 31.653C31.1799 32.7188 29.8507 33.3091 27.9331 33.5538C27.5997 33.5963 26.6281 33.668 25.7738 33.7129C23.6213 33.8263 22.2046 34.0607 20.9316 34.5136C20.7485 34.5787 20.5851 34.6183 20.5685 34.6014C20.517 34.5494 21.3838 34.0262 22.0997 33.6767C23.1091 33.184 24.114 32.915 26.3655 32.5352C27.4777 32.3477 28.6262 32.1199 28.9178 32.0294C31.6721 31.1738 33.088 28.9658 32.6347 26.2329Z" fill="#FFD8BC"/>
<path d="M34.7161 26.2076C34.3044 27.6819 34.4769 29.2627 35.2289 30.9003C35.6062 31.7224 35.9825 32.343 37.517 34.6745C38.8369 36.6799 39.4906 37.8665 39.8114 38.8389C40.3349 40.4269 40.256 41.8538 39.5634 43.3207C39.3999 43.6675 39.29 43.9505 39.3191 43.95C39.3486 43.9492 39.6194 43.8131 39.921 43.6475C41.9798 42.5155 43.4234 40.5759 44.0444 38.1065C44.2414 37.3235 44.3189 35.452 44.1864 34.6742C43.9529 33.3012 43.4675 32.1752 42.6832 31.1867C41.7876 30.0577 40.4706 29.0697 38.1604 27.7937C36.3093 26.7712 35.6143 26.3732 35.268 26.1369C35.0937 26.0182 34.9165 25.9209 34.8739 25.9209C34.831 25.9209 34.7603 26.0498 34.7161 26.2076Z" fill="#FFD8BC"/>
<path d="M13.9745 39.7351C16.0744 37.9388 18.6871 36.6628 21.0671 36.2711C22.0928 36.1021 23.8014 36.1691 24.7513 36.4154C26.2737 36.8102 27.6355 37.6943 28.3438 38.7477C29.0361 39.7773 29.333 40.6746 29.6422 42.6706C29.7642 43.4581 29.8967 44.2488 29.937 44.4279C30.1691 45.4623 30.6209 46.2894 31.1809 46.7045C32.0702 47.3641 33.6015 47.405 35.1079 46.8097C35.3638 46.7087 35.5857 46.6388 35.6012 46.6544C35.6559 46.7095 34.8973 47.2241 34.3622 47.4949C33.642 47.8592 33.0696 48 32.3087 48C30.929 48 29.7837 47.289 28.8276 45.8392C28.6396 45.5538 28.2168 44.699 27.8881 43.9397C26.879 41.6077 26.3807 40.8972 25.209 40.1197C24.1892 39.4432 22.8741 39.3221 21.8848 39.8135C20.5853 40.4591 20.2227 42.1418 21.1535 43.2081C21.5234 43.6316 22.2132 43.9972 22.7773 44.0684C23.8326 44.2013 24.7394 43.388 24.7394 42.3085C24.7394 41.6074 24.4736 41.2076 23.8042 40.9014C22.89 40.4836 21.9072 40.9721 21.9119 41.8422C21.914 42.2132 22.0734 42.4464 22.4406 42.6147C22.6761 42.7225 22.6816 42.7312 22.4895 42.6906C21.6506 42.5144 21.4541 41.4898 22.1286 40.8096C22.9384 39.9931 24.613 40.3533 25.1877 41.4682C25.4294 41.9363 25.4575 42.8686 25.2469 43.4317C24.7755 44.6919 23.4011 45.3544 22.0069 44.9939C21.0576 44.7483 20.6711 44.4825 19.5266 43.2883C17.5379 41.2126 16.7658 40.8104 13.8987 40.357L13.3493 40.27L13.9745 39.7351Z" fill="#FFD8BC"/>
<path d="M19.2864 19.1237C18.6033 19.3363 17.9394 20.0698 17.7338 20.8388C17.6085 21.308 17.6796 22.1309 17.8674 22.3851C18.1708 22.7955 18.4642 22.9037 19.2587 22.8981C20.8142 22.887 22.1664 22.2111 22.3236 21.3663C22.4525 20.6735 21.8586 19.7137 21.0406 19.2923C20.6184 19.0749 19.7207 18.9887 19.2864 19.1237Z" fill="#FFD8BC"/>
</g>
<defs>
<clipPath id="clip0_1_6990">
<rect width="48" height="48" fill="white"/>
</clipPath>
</defs>
</svg>
