<svg width="48" height="48" viewBox="0 0 48 48" fill="none" xmlns="http://www.w3.org/2000/svg">
<path d="M42.8203 16.52L41.1403 20.16C40.9767 20.5034 40.7186 20.7931 40.3962 20.995C40.0739 21.1969 39.7006 21.3027 39.3203 21.3C39.0305 21.3015 38.7439 21.2401 38.4803 21.12L34.8403 19.42C34.4781 19.2349 34.1809 18.9438 33.9885 18.5855C33.796 18.2273 33.7173 17.8188 33.7629 17.4146C33.8086 17.0105 33.9763 16.6299 34.2438 16.3235C34.5114 16.0172 34.8659 15.7996 35.2603 15.7C34.8809 15.1043 34.4599 14.5362 34.0003 14C32.4779 12.5047 30.6394 11.3702 28.6203 10.68C28.3616 10.6062 28.1206 10.481 27.9114 10.3119C27.7023 10.1427 27.5295 9.93318 27.4032 9.69571C27.277 9.45825 27.1999 9.19776 27.1766 8.92983C27.1533 8.66189 27.1844 8.39202 27.2678 8.13634C27.3512 7.88067 27.4854 7.64444 27.6622 7.4418C27.839 7.23916 28.0549 7.07427 28.2969 6.95698C28.5389 6.83969 28.8021 6.77242 29.0707 6.7592C29.3394 6.74597 29.6079 6.78705 29.8603 6.87999C32.4796 7.7601 34.8611 9.23144 36.8203 11.18C37.8263 12.1973 38.7059 13.3321 39.4403 14.56C39.7281 14.1773 40.1436 13.9106 40.6113 13.8083C41.0791 13.7061 41.568 13.775 41.9892 14.0025C42.4105 14.2301 42.7361 14.6012 42.907 15.0485C43.0778 15.4958 43.0825 15.9895 42.9203 16.44L42.8203 16.52ZM19.4803 37.24C17.4684 36.5732 15.6305 35.4664 14.1003 34C13.6099 33.4976 13.1617 32.9558 12.7603 32.38C13.0517 32.3159 13.325 32.1875 13.5604 32.0041C13.7957 31.8207 13.987 31.5869 14.1203 31.32C14.3456 30.8399 14.371 30.29 14.191 29.7912C14.011 29.2924 13.6402 28.8855 13.1603 28.66L9.52026 26.96C9.03334 26.76 8.48718 26.76 8.00026 26.96C7.50011 27.1355 7.09008 27.5024 6.86026 27.98L5.18026 31.62C4.95492 32.1 4.92947 32.6499 5.10949 33.1488C5.28952 33.6476 5.66028 34.0545 6.14026 34.28C6.41139 34.3988 6.70423 34.4601 7.00026 34.46C7.33863 34.4552 7.67026 34.3646 7.96408 34.1967C8.2579 34.0288 8.50432 33.7891 8.68026 33.5C9.40091 34.7318 10.2745 35.8675 11.2803 36.88C13.2395 38.8285 15.621 40.2999 18.2403 41.18C18.4412 41.2423 18.6499 41.2759 18.8603 41.28C19.3355 41.2789 19.7948 41.1087 20.1559 40.7997C20.5171 40.4908 20.7564 40.0633 20.831 39.594C20.9056 39.1246 20.8106 38.6441 20.5631 38.2384C20.3156 37.8327 19.9317 37.5284 19.4803 37.38V37.24Z" fill="#FFD8BC"/>
<path d="M44.0002 34C44.0002 35.9778 43.4138 37.9112 42.3149 39.5557C41.2161 41.2002 39.6543 42.4819 37.8271 43.2388C35.9998 43.9957 33.9891 44.1937 32.0493 43.8078C30.1095 43.422 28.3277 42.4696 26.9292 41.0711C25.5307 39.6725 24.5782 37.8907 24.1924 35.9509C23.8065 34.0111 24.0046 32.0004 24.7614 30.1732C25.5183 28.3459 26.8001 26.7841 28.4445 25.6853C30.089 24.5865 32.0224 24 34.0002 24C36.6524 24 39.1959 25.0536 41.0713 26.9289C42.9467 28.8043 44.0002 31.3478 44.0002 34ZM14.0002 4C12.0224 4 10.089 4.58649 8.44455 5.6853C6.80005 6.78412 5.51833 8.3459 4.76145 10.1732C4.00458 12.0004 3.80654 14.0111 4.1924 15.9509C4.57825 17.8907 5.53066 19.6725 6.92918 21.0711C8.32771 22.4696 10.1095 23.422 12.0493 23.8079C13.9892 24.1937 15.9998 23.9957 17.8271 23.2388C19.6543 22.4819 21.2161 21.2002 22.3149 19.5557C23.4138 17.9112 24.0002 15.9778 24.0002 14C24.0002 12.6868 23.7416 11.3864 23.239 10.1732C22.7365 8.95991 21.9999 7.85752 21.0713 6.92893C20.1427 6.00035 19.0403 5.26375 17.8271 4.7612C16.6138 4.25866 15.3135 4 14.0002 4Z" fill="#FFD8BC"/>
</svg>
