<svg width="18" height="18" viewBox="0 0 18 18" fill="none" xmlns="http://www.w3.org/2000/svg">
<path fill-rule="evenodd" clip-rule="evenodd" d="M1.50025 9C1.50025 13.1421 4.85815 16.5 9.00024 16.5C13.1424 16.5 16.5002 13.1421 16.5002 9C16.5002 4.85786 13.1424 1.5 9.00025 1.5C4.85815 1.5 1.50025 4.85786 1.50025 9ZM11.648 7.47725C11.8677 7.69695 11.8677 8.05305 11.648 8.27272L9.39797 10.5227C9.1783 10.7424 8.82219 10.7424 8.60252 10.5227L6.35252 8.27272C6.13285 8.05305 6.13285 7.69695 6.35252 7.47725C6.5722 7.25758 6.9283 7.25758 7.14797 7.47725L9.00024 9.32947L10.8525 7.47725C11.0722 7.25758 11.4283 7.25758 11.648 7.47725Z" fill="#06907B"/>
</svg>
