<svg width="110" height="110" viewBox="0 0 110 110" fill="none" xmlns="http://www.w3.org/2000/svg">
<circle cx="55" cy="55" r="55" fill="url(#paint0_linear_13_330)"/>
<circle cx="55" cy="55" r="50" fill="#B1591B"/>
<g filter="url(#filter0_i_13_330)">
<circle cx="55" cy="55" r="40" fill="url(#paint1_linear_13_330)"/>
</g>
<circle opacity="0.95" cx="55" cy="55" r="40.5" stroke="#F38E47" stroke-opacity="0.3"/>
<circle opacity="0.95" cx="55" cy="55" r="49" stroke="url(#paint2_linear_13_330)" stroke-width="2"/>
<mask id="mask0_13_330" style="mask-type:alpha" maskUnits="userSpaceOnUse" x="0" y="0" width="110" height="110">
<circle cx="55" cy="55" r="55" fill="url(#paint3_linear_13_330)"/>
</mask>
<g mask="url(#mask0_13_330)">
<g opacity="0.35">
<path d="M138.539 18.8413L138.534 19.1337L121 17.9816L104.19 16.6478L44.1129 11.4421L16.1486 7.70199L2.55878 4.70498L-4.77227 2.71642L-5.08594 2L4.07743 4.29179L19.8638 6.9101L78.6471 13.5109L108.407 16.2946L123.115 17.4362L138.539 18.8413Z" fill="#431F13"/>
<path d="M139.039 18.8476L139.046 18.3853L138.585 18.3433L123.162 16.9383L123.155 16.9378L108.455 15.7968L108.447 15.7961L78.7044 13.014L78.6952 13.0131L19.9342 6.41471L4.18062 3.80184L-4.9632 1.51494L-5.95317 1.26735L-5.54409 2.2017L-5.23042 2.91812L-5.13479 3.13654L-4.90457 3.19899L2.42648 5.18755L2.438 5.19067L2.44965 5.19324L16.0394 8.19025L16.0599 8.19478L16.0808 8.19756L44.0451 11.9377L44.0566 11.9392L44.0682 11.9402L104.146 17.1459L104.149 17.1462L120.959 18.4801L120.966 18.4805L138.5 19.6326L139.026 19.6672L139.034 19.1401L139.039 18.8476Z" stroke="#FAF0AC" stroke-opacity="0.1"/>
<path d="M162.768 38.8415L162.816 39.1308L145.306 40.5443L128.478 41.6732L68.2545 45.2751L39.9842 45.6521L26.0325 44.6715L18.439 43.7756L18 43.1143L27.4564 44.0428L43.5071 44.3303L102.706 42.2933L132.575 40.7113L147.294 39.6985L162.768 38.8415Z" fill="#431F13"/>
<path d="M163.264 38.7749L163.187 38.319L162.725 38.3446L147.251 39.2016L147.244 39.2021L132.533 40.2144L132.525 40.2149L102.673 41.7959L102.664 41.7963L43.4876 43.8325L27.4705 43.5456L18.0344 42.619L17.0118 42.5186L17.5828 43.3788L18.0218 44.0401L18.1555 44.2415L18.3946 44.2697L25.9881 45.1656L26.0001 45.167L26.0122 45.1679L39.9638 46.1485L39.985 46.15L40.0062 46.1497L68.2765 45.7727L68.2882 45.7726L68.2999 45.7719L128.523 42.1699L128.527 42.1697L145.355 41.0409L145.362 41.0403L162.872 39.6268L163.399 39.5843L163.312 39.0642L163.264 38.7749Z" stroke="#FAF0AC" stroke-opacity="0.1"/>
<path d="M67.6189 67.4311L67.7054 68.0834L46.1144 70.0103L27.0359 71.2204L8.79593 72.034L-9.91135 70.7952L-19.2115 69.2961L-20 68.2346L-6.66869 69.4806L11.4997 69.8322L30.5549 69.9118L67.6189 67.4311Z" fill="#431F13"/>
<path d="M68.116 67.378L68.0528 66.9016L67.5728 66.9337L30.5266 69.4133L11.497 69.3338L11.4931 69.3337L-6.65269 68.9825L-19.9654 67.7383L-21.0607 67.636L-20.4008 68.5242L-19.6123 69.5857L-19.4867 69.7547L-19.2797 69.7881L-9.97962 71.2872L-9.95606 71.291L-9.93231 71.2926L8.77498 72.5314L8.80291 72.5333L8.83081 72.532L27.0707 71.7184L27.0707 71.7185L27.0801 71.7179L46.1587 70.5078L46.1587 70.5079L46.1715 70.5068L67.7625 68.5799L68.2695 68.5346L68.2026 68.0303L68.116 67.378Z" stroke="#FAF0AC" stroke-opacity="0.1"/>
<path d="M-58.7946 11.1495L-59 11.78L-38.0605 16.8799L-19.4669 20.9005L-1.62733 24.4057L17.0511 25.956L26.4995 25.8556L27.4727 24.9255L14.0951 24.1789L-3.88847 21.8335L-22.6965 19.0884L-58.7946 11.1495Z" fill="#431F13"/>
<path d="M-59.2782 11.0227L-59.1294 10.566L-58.6592 10.6694L-22.5789 18.6044L-3.79265 21.3463L14.1681 23.6887L27.5267 24.4343L28.6275 24.4958L27.8202 25.2673L26.847 26.1974L26.6922 26.3453L26.4801 26.3476L17.0316 26.448L17.0073 26.4483L16.9831 26.4463L-1.69531 24.896L-1.72376 24.8936L-1.7516 24.8882L-19.5911 21.3829L-19.5912 21.383L-19.6005 21.3809L-38.1941 17.3604L-38.1942 17.3605L-38.2068 17.3574L-59.1464 12.2576L-59.6413 12.137L-59.4837 11.6532L-59.2782 11.0227Z" stroke="#FAF0AC" stroke-opacity="0.1"/>
<path d="M160.267 46.1495L160.473 46.78L139.533 51.8799L120.94 55.9005L103.1 59.4057L84.4216 60.956L74.9731 60.8556L74 59.9255L87.3776 59.1789L105.361 56.8335L124.169 54.0884L160.267 46.1495Z" fill="#431F13"/>
<path d="M160.751 46.0227L160.602 45.566L160.132 45.6694L124.052 53.6044L105.265 56.3463L87.3045 58.6887L73.946 59.4343L72.8452 59.4958L73.6525 60.2673L74.6256 61.1974L74.7805 61.3453L74.9926 61.3476L84.441 61.448L84.4654 61.4483L84.4896 61.4463L103.168 59.896L103.196 59.8936L103.224 59.8882L121.064 56.3829L121.064 56.383L121.073 56.3809L139.667 52.3604L139.667 52.3605L139.68 52.3574L160.619 47.2576L161.114 47.137L160.956 46.6532L160.751 46.0227Z" stroke="#FAF0AC" stroke-opacity="0.1"/>
<path d="M45.1474 80.8602L44.9997 81.3136L60.0574 84.9809L73.4282 87.8722L86.2567 90.3928L99.6884 91.5076L106.483 91.4354L107.183 90.7666L97.5627 90.2297L84.6307 88.5431L71.1057 86.5691L45.1474 80.8602Z" fill="#431F13"/>
<path d="M44.6638 80.7334L44.8126 80.2767L45.2828 80.3801L71.2234 86.0851L84.7265 88.0559L97.6358 89.7395L107.237 90.2754L108.337 90.3368L107.53 91.1084L106.83 91.7772L106.676 91.9251L106.463 91.9274L99.669 91.9996L99.6446 91.9999L99.6204 91.9979L86.1887 90.8831L86.1602 90.8807L86.1324 90.8752L73.3039 88.3546L73.3039 88.3547L73.2945 88.3526L59.9238 85.4614L59.9237 85.4616L59.911 85.4585L44.8533 81.7912L44.3584 81.6706L44.516 81.1868L44.6638 80.7334Z" stroke="#FAF0AC" stroke-opacity="0.1"/>
<path d="M-8.85259 102.22L-9.00033 101.767L6.0574 98.0994L19.4282 95.2082L32.2567 92.6875L45.6884 91.5727L52.4828 91.6449L53.1826 92.3137L43.5627 92.8506L30.6307 94.5372L17.1057 96.5112L-8.85259 102.22Z" fill="#431F13"/>
<path d="M-9.33623 102.347L-9.18741 102.804L-8.7172 102.7L17.2234 96.9952L30.7265 95.0244L43.6358 93.3408L53.2366 92.8049L54.3374 92.7435L53.5301 91.9719L52.8303 91.3031L52.6755 91.1552L52.4634 91.1529L45.669 91.0807L45.6446 91.0805L45.6204 91.0825L32.1887 92.1973L32.1602 92.1996L32.1324 92.2051L19.3039 94.7258L19.3039 94.7257L19.2945 94.7277L5.92375 97.6189L5.92371 97.6188L5.91102 97.6218L-9.14671 101.289L-9.64165 101.41L-9.48398 101.894L-9.33623 102.347Z" stroke="#FAF0AC" stroke-opacity="0.1"/>
</g>
</g>
<defs>
<filter id="filter0_i_13_330" x="15" y="15" width="80" height="85" filterUnits="userSpaceOnUse" color-interpolation-filters="sRGB">
<feFlood flood-opacity="0" result="BackgroundImageFix"/>
<feBlend mode="normal" in="SourceGraphic" in2="BackgroundImageFix" result="shape"/>
<feColorMatrix in="SourceAlpha" type="matrix" values="0 0 0 0 0 0 0 0 0 0 0 0 0 0 0 0 0 0 127 0" result="hardAlpha"/>
<feOffset dy="5"/>
<feGaussianBlur stdDeviation="2.5"/>
<feComposite in2="hardAlpha" operator="arithmetic" k2="-1" k3="1"/>
<feColorMatrix type="matrix" values="0 0 0 0 0.283333 0 0 0 0 0.12352 0 0 0 0 0.0401389 0 0 0 0.35 0"/>
<feBlend mode="normal" in2="shape" result="effect1_innerShadow_13_330"/>
</filter>
<linearGradient id="paint0_linear_13_330" x1="55" y1="0" x2="55" y2="110" gradientUnits="userSpaceOnUse">
<stop stop-color="#B1591B"/>
<stop offset="1" stop-color="#79330B"/>
</linearGradient>
<linearGradient id="paint1_linear_13_330" x1="55" y1="15" x2="55" y2="95" gradientUnits="userSpaceOnUse">
<stop stop-color="#80350B"/>
<stop offset="1" stop-color="#934210"/>
</linearGradient>
<linearGradient id="paint2_linear_13_330" x1="55" y1="5" x2="55" y2="105" gradientUnits="userSpaceOnUse">
<stop stop-color="#F38E47"/>
<stop offset="1" stop-color="#F38E47" stop-opacity="0.34"/>
</linearGradient>
<linearGradient id="paint3_linear_13_330" x1="55" y1="0" x2="55" y2="110" gradientUnits="userSpaceOnUse">
<stop stop-color="#B1591B"/>
<stop offset="1" stop-color="#79330B"/>
</linearGradient>
</defs>
</svg>
