<svg width="192" height="122" viewBox="0 0 192 122" fill="none" xmlns="http://www.w3.org/2000/svg">
<path d="M7.31928 34.5082C12.8709 17.8535 15.6467 9.52613 22.255 4.76306C28.8634 0 37.6413 0 55.1969 0H136.803C154.359 0 163.137 0 169.745 4.76306C176.353 9.52613 179.129 17.8535 184.681 34.5082L188.045 44.6017C190.682 52.5113 192 56.4661 192 60.5609C192 64.6558 190.682 68.6106 188.045 76.5202L184.681 86.6137C179.129 103.268 176.353 111.596 169.745 116.359C163.137 121.122 154.359 121.122 136.803 121.122H55.1969C37.6413 121.122 28.8634 121.122 22.255 116.359C15.6467 111.596 12.8709 103.268 7.31928 86.6136L3.95478 76.5201C1.31826 68.6106 0 64.6558 0 60.5609C0 56.4661 1.31826 52.5113 3.95478 44.6017L7.31928 34.5082Z" fill="url(#paint0_linear_1_5652)"/>
<path d="M16.6404 33.4098C21.65 20.1346 24.1549 13.4969 29.3782 9.74847C34.6016 6 41.346 6 54.835 6H137.727C151.216 6 157.96 6 163.183 9.74847C168.407 13.4969 170.912 20.1346 175.921 33.4098L180.035 44.3108C183.053 52.3077 184.562 56.3062 184.562 60.5049C184.562 64.7035 183.053 68.702 180.035 76.6989L175.921 87.5999C170.912 100.875 168.407 107.513 163.183 111.261C157.96 115.01 151.216 115.01 137.727 115.01H54.835C41.346 115.01 34.6016 115.01 29.3782 111.261C24.1549 107.513 21.65 100.875 16.6404 87.5999L12.5267 76.6989C9.50889 68.702 8 64.7035 8 60.5049C8 56.3062 9.5089 52.3077 12.5267 44.3108L16.6404 33.4098Z" fill="#B1591B"/>
<g filter="url(#filter0_i_1_5652)">
<path d="M25.3518 38.8415C30.1942 27.7788 32.6153 22.2474 37.6642 19.1237C42.7131 16 49.2323 16 62.2707 16H129.113C142.152 16 148.671 16 153.72 19.1237C158.769 22.2474 161.19 27.7788 166.032 38.8415L170.008 47.9257C172.925 54.5898 174.384 57.9218 174.384 61.4207C174.384 64.9196 172.926 68.2517 170.008 74.9158L166.032 83.9999C161.19 95.0626 158.769 100.594 153.72 103.718C148.671 106.841 142.152 106.841 129.113 106.841H62.2707C49.2323 106.841 42.7131 106.841 37.6642 103.718C32.6153 100.594 30.1942 95.0626 25.3518 83.9999L21.3755 74.9158C18.4585 68.2516 17 64.9196 17 61.4207C17 57.9218 18.4585 54.5898 21.3755 47.9256L25.3518 38.8415Z" fill="url(#paint1_linear_1_5652)"/>
</g>
<path opacity="0.95" fill-rule="evenodd" clip-rule="evenodd" d="M129.225 14C135.65 14 140.622 14 144.612 14.4005C148.666 14.8073 151.892 15.6409 154.772 17.4229C157.665 19.2127 159.737 21.667 161.681 24.9975C163.581 28.2539 165.436 32.4906 167.814 37.9248L172.04 47.5785C174.766 53.8048 176.384 57.4996 176.384 61.4207C176.384 65.3418 174.766 69.0366 172.04 75.2629L167.814 84.9168C165.436 90.3508 163.581 94.5875 161.681 97.8439C159.737 101.174 157.665 103.629 154.772 105.418C151.892 107.201 148.666 108.034 144.612 108.441C140.622 108.841 135.65 108.841 129.225 108.841H62.1594C55.7344 108.841 50.7623 108.841 46.7717 108.441C42.7181 108.034 39.4923 107.201 36.612 105.418C33.7191 103.629 31.6466 101.174 29.7031 97.8439C27.8029 94.5875 25.9485 90.3509 23.5699 84.9168L19.5433 75.7177C19.4763 75.5647 19.41 75.4131 19.3443 75.263C16.6179 69.0367 15 65.3418 15 61.4207C15 57.4996 16.6179 53.8047 19.3443 47.5783C19.41 47.4283 19.4764 47.2767 19.5433 47.1237L23.5699 37.9246C25.9485 32.4906 27.8029 28.2539 29.7031 24.9975C31.6466 21.667 33.7191 19.2127 36.612 17.4229C39.4923 15.6409 42.7181 14.8073 46.7717 14.4005C50.7623 14 55.7344 14 62.1594 14H129.225ZM37.6642 19.1237C32.6153 22.2474 30.1942 27.7788 25.3518 38.8415L21.3755 47.9256C18.4585 54.5898 17 57.9218 17 61.4207C17 64.9196 18.4585 68.2517 21.3755 74.9158L25.3518 83.9999C30.1942 95.0626 32.6153 100.594 37.6642 103.718C42.7131 106.841 49.2323 106.841 62.2707 106.841H129.113C142.152 106.841 148.671 106.841 153.72 103.718C158.769 100.594 161.19 95.0626 166.032 83.9999L170.008 74.9158C172.926 68.2517 174.384 64.9196 174.384 61.4207C174.384 57.9218 172.926 54.5898 170.008 47.9257L166.032 38.8415C161.19 27.7788 158.769 22.2474 153.72 19.1237C148.671 16 142.152 16 129.113 16H62.2707C49.2323 16 42.7131 16 37.6642 19.1237Z" fill="#F38E47" fill-opacity="0.3"/>
<path opacity="0.95" fill-rule="evenodd" clip-rule="evenodd" d="M137.727 8H54.835C48.0439 8 43.1213 8.00313 39.2383 8.45514C35.4111 8.90065 32.7851 9.7653 30.5443 11.3734C28.2947 12.9877 26.5435 15.2724 24.7158 18.9054C22.8689 22.5766 21.0315 27.4384 18.5116 34.1159L14.3979 45.0169C11.3284 53.1507 10 56.7552 10 60.5049C10 64.2545 11.3284 67.859 14.3979 75.9928L18.5116 86.8938C21.0315 93.5713 22.8689 98.4331 24.7158 102.104C26.5435 105.737 28.2947 108.022 30.5443 109.636C32.7851 111.244 35.4111 112.109 39.2383 112.555C43.1213 113.007 48.0439 113.01 54.835 113.01H137.727C144.518 113.01 149.44 113.007 153.323 112.555C157.151 112.109 159.777 111.244 162.017 109.636C164.267 108.022 166.018 105.737 167.846 102.104C169.693 98.4331 171.53 93.5713 174.05 86.8938L178.164 75.9928C181.233 67.859 182.562 64.2545 182.562 60.5049C182.562 56.7552 181.233 53.1507 178.164 45.0169L174.05 34.1159C171.53 27.4384 169.693 22.5766 167.846 18.9054C166.018 15.2724 164.267 12.9877 162.017 11.3734C159.777 9.7653 157.151 8.90065 153.323 8.45514C149.44 8.00313 144.518 8 137.727 8ZM29.3782 9.74847C24.1549 13.4969 21.65 20.1346 16.6404 33.4098L12.5267 44.3108C9.5089 52.3077 8 56.3062 8 60.5049C8 64.7035 9.50889 68.702 12.5267 76.6989L16.6404 87.5999C21.65 100.875 24.1549 107.513 29.3782 111.261C34.6016 115.01 41.346 115.01 54.8349 115.01H137.727C151.216 115.01 157.96 115.01 163.183 111.261C168.407 107.513 170.912 100.875 175.921 87.5999L180.035 76.6989C183.053 68.702 184.562 64.7035 184.562 60.5049C184.562 56.3062 183.053 52.3078 180.035 44.3108L175.921 33.4098C170.912 20.1346 168.407 13.4969 163.183 9.74847C157.96 6 151.216 6 137.727 6H54.835C41.346 6 34.6016 6 29.3782 9.74847Z" fill="url(#paint2_linear_1_5652)"/>
<mask id="mask0_1_5652" style="mask-type:alpha" maskUnits="userSpaceOnUse" x="0" y="0" width="192" height="122">
<path d="M7.31928 34.9472C12.8709 18.2925 15.6467 9.96509 22.255 5.20203C28.8634 0.438965 37.6413 0.438965 55.1969 0.438965H136.803C154.359 0.438965 163.137 0.438965 169.745 5.20203C176.353 9.96509 179.129 18.2925 184.681 34.9472L188.045 45.0407C190.682 52.9503 192 56.905 192 60.9999C192 65.0948 190.682 69.0496 188.045 76.9591L184.681 87.0526C179.129 103.707 176.353 112.035 169.745 116.798C163.137 121.561 154.359 121.561 136.803 121.561H55.1969C37.6413 121.561 28.8634 121.561 22.255 116.798C15.6467 112.035 12.8709 103.707 7.31928 87.0526L3.95478 76.9591C1.31826 69.0496 0 65.0948 0 60.9999C0 56.905 1.31826 52.9503 3.95478 45.0407L7.31928 34.9472Z" fill="url(#paint3_linear_1_5652)"/>
</mask>
<g mask="url(#mask0_1_5652)">
<g opacity="0.35">
<path d="M173.716 19.6682L173.711 20.0021L153.691 18.6867L134.498 17.1637L65.9015 11.2199L33.9721 6.94946L18.4554 3.52749L10.0848 1.25697L9.72668 0.438965L20.1893 3.05571L38.2141 6.04528L105.332 13.582L139.312 16.7604L156.105 18.0639L173.716 19.6682Z" fill="#431F13"/>
<path d="M174.216 19.6746L174.223 19.2122L173.763 19.1703L156.152 17.566L156.146 17.5655L139.36 16.2626L139.353 16.2619L105.39 13.0852L105.38 13.0842L38.2845 5.54989L20.2925 2.56576L9.84943 -0.0460929L8.85945 -0.293688L9.26853 0.640663L9.62668 1.45867L9.72231 1.67709L9.95252 1.73954L18.3231 4.01006L18.3346 4.01318L18.3462 4.01575L33.8629 7.43772L33.8835 7.44224L33.9043 7.44503L65.8337 11.7155L65.8452 11.717L65.8568 11.718L134.453 17.6618L134.456 17.6621L153.65 19.1851L153.657 19.1856L173.676 20.501L174.202 20.5356L174.211 20.0085L174.216 19.6746Z" stroke="#FAF0AC" stroke-opacity="0.1"/>
<path d="M201.381 42.5044L201.436 42.8347L181.443 44.4487L162.228 45.7376L93.4658 49.8503L61.187 50.2807L45.257 49.1611L36.5869 48.1381L36.0856 47.3831L46.8828 48.4433L65.2094 48.7715L132.802 46.4457L166.907 44.6394L183.713 43.483L201.381 42.5044Z" fill="#431F13"/>
<path d="M201.876 42.4379L201.8 41.9819L201.337 42.0076L183.67 42.9861L183.663 42.9866L166.865 44.1425L166.857 44.143L132.769 45.9483L132.76 45.9487L65.19 48.2737L46.8969 47.9461L36.12 46.8878L35.0974 46.7874L35.6684 47.6476L36.1697 48.4026L36.3034 48.6041L36.5425 48.6323L45.2127 49.6552L45.2247 49.6566L45.2367 49.6575L61.1666 50.7771L61.1878 50.7786L61.209 50.7783L93.4878 50.3479L93.4995 50.3478L93.5112 50.3471L162.274 46.2344L162.278 46.2342L181.492 44.9453L181.499 44.9447L201.492 43.3308L202.018 43.2883L201.931 42.7682L201.876 42.4379Z" stroke="#FAF0AC" stroke-opacity="0.1"/>
<path d="M92.74 75.148L92.8388 75.8927L68.1864 78.0929L46.4027 79.4746L25.5765 80.4036L4.21662 78.9891L-6.4022 77.2774L-7.30252 76.0654L7.91907 77.488L28.6636 77.8896L50.4206 77.9804L92.74 75.148Z" fill="#431F13"/>
<path d="M93.2372 75.0949L93.174 74.6185L92.694 74.6506L50.3924 77.4819L28.6609 77.3912L28.6532 77.3911L7.93506 76.99L-7.26789 75.5691L-8.36321 75.4668L-7.70335 76.355L-6.80303 77.567L-6.67745 77.736L-6.47046 77.7694L4.14835 79.4811L4.17191 79.4849L4.19566 79.4865L25.5555 80.901L25.5834 80.9028L25.6113 80.9016L46.4375 79.9726L46.4376 79.9727L46.447 79.9721L68.2307 78.5904L68.2307 78.5905L68.2435 78.5894L92.8959 76.3892L93.4029 76.344L93.336 75.8397L93.2372 75.0949Z" stroke="#FAF0AC" stroke-opacity="0.1"/>
<path d="M-51.5978 10.8859L-51.8324 11.6058L-27.9238 17.4288L-6.69377 22.0194L13.6753 26.0217L35.0021 27.7918L45.7903 27.6771L46.9014 26.6152L31.627 25.7627L11.0935 23.0848L-10.3814 19.9504L-51.5978 10.8859Z" fill="#431F13"/>
<path d="M-52.0815 10.7591L-51.9327 10.3024L-51.4624 10.4058L-10.2637 19.4664L11.1894 22.5976L31.7001 25.2726L46.9554 26.124L48.0562 26.1855L47.2489 26.957L46.1378 28.0189L45.983 28.1669L45.7708 28.1691L34.9827 28.2838L34.9583 28.2841L34.9342 28.2821L13.6073 26.512L13.5788 26.5096L13.551 26.5041L-6.81804 22.5019L-6.81806 22.5019L-6.82742 22.4999L-28.0575 17.9092L-28.0575 17.9094L-28.0702 17.9063L-51.9788 12.0834L-52.4737 11.9628L-52.3161 11.479L-52.0815 10.7591Z" stroke="#FAF0AC" stroke-opacity="0.1"/>
<path d="M198.525 50.8488L198.76 51.5687L174.851 57.3916L153.621 61.9823L133.252 65.9846L111.925 67.7547L101.137 67.64L100.026 66.5781L115.3 65.7256L135.834 63.0477L157.309 59.9133L198.525 50.8488Z" fill="#431F13"/>
<path d="M199.009 50.722L198.86 50.2653L198.39 50.3687L157.191 59.4293L135.738 62.5605L115.227 65.2355L99.972 66.0869L98.8712 66.1483L99.6785 66.9199L100.79 67.9818L100.944 68.1298L101.157 68.132L111.945 68.2467L111.969 68.247L111.993 68.245L133.32 66.4749L133.349 66.4725L133.376 66.467L153.745 62.4647L153.745 62.4648L153.755 62.4628L174.985 57.8721L174.985 57.8723L174.998 57.8692L198.906 52.0462L199.401 51.9257L199.243 51.4419L199.009 50.722Z" stroke="#FAF0AC" stroke-opacity="0.1"/>
<path d="M67.0827 90.481L66.914 90.9986L84.1068 95.1859L99.3735 98.4871L114.021 101.365L129.357 102.638L137.115 102.556L137.914 101.792L126.93 101.179L112.164 99.2532L96.7217 96.9993L67.0827 90.481Z" fill="#431F13"/>
<path d="M66.5991 90.3541L66.7479 89.8974L67.2181 90.0009L96.8393 96.5153L112.26 98.766L127.003 100.689L137.968 101.301L139.069 101.362L138.262 102.134L137.463 102.897L137.308 103.045L137.096 103.048L129.338 103.13L129.313 103.13L129.289 103.128L113.953 101.855L113.925 101.853L113.897 101.848L99.2492 98.9695L99.2492 98.9696L99.2398 98.9676L83.9732 95.6664L83.9731 95.6666L83.9604 95.6635L66.7676 91.4762L66.2727 91.3556L66.4304 90.8718L66.5991 90.3541Z" stroke="#FAF0AC" stroke-opacity="0.1"/>
<path d="M5.42592 114.87L5.25722 114.352L22.45 110.165L37.7167 106.864L52.3641 103.986L67.7004 102.713L75.4582 102.795L76.2572 103.559L65.2733 104.172L50.5076 106.098L35.0649 108.352L5.42592 114.87Z" fill="#431F13"/>
<path d="M4.94227 114.997L5.09109 115.453L5.5613 115.35L35.1825 108.836L50.6034 106.585L65.3464 104.662L76.3113 104.05L77.4121 103.989L76.6047 103.217L75.8057 102.453L75.6509 102.305L75.4388 102.303L67.681 102.221L67.6566 102.221L67.6324 102.223L52.2962 103.495L52.2677 103.498L52.2399 103.503L37.5924 106.381L37.5924 106.381L37.583 106.383L22.3164 109.684L22.3163 109.684L22.3036 109.687L5.11084 113.875L4.6159 113.995L4.77357 114.479L4.94227 114.997Z" stroke="#FAF0AC" stroke-opacity="0.1"/>
</g>
<g opacity="0.35">
<path d="M184.107 118.13L184.053 117.8L203.993 115.581L223.156 113.712L291.731 107.525L323.914 106.125L339.79 106.771L348.43 107.537L348.926 108.279L338.166 107.539L319.896 107.76L252.497 112.12L218.487 114.954L201.726 116.618L184.107 118.13Z" fill="#431F13"/>
<path d="M183.614 118.211L183.687 118.668L184.148 118.628L201.767 117.117L201.774 117.116L218.527 115.453L218.535 115.452L252.528 112.619L252.537 112.618L319.914 108.26L338.151 108.04L348.89 108.778L349.908 108.848L349.341 108L348.845 107.258L348.713 107.06L348.475 107.039L339.836 106.272L339.824 106.271L339.812 106.271L323.936 105.625L323.915 105.624L323.894 105.625L291.71 107.025L291.699 107.025L291.687 107.027L223.113 113.214L223.109 113.214L203.946 115.084L203.94 115.084L184 117.303L183.476 117.361L183.56 117.882L183.614 118.211Z" stroke="#FAF0AC" stroke-opacity="0.1"/>
<path d="M152.864 100.503L152.752 100.188L172.151 95.0901L190.841 90.4489L257.815 74.3318L289.517 68.2429L305.396 66.5494L314.111 66.0348L314.737 66.6902L303.922 67.5414L285.822 70.4347L219.687 84.5873L186.428 92.3512L170.086 96.4392L152.864 100.503Z" fill="#431F13"/>
<path d="M152.388 100.656L152.543 101.091L152.994 100.985L170.216 96.9209L170.222 96.9192L186.557 92.833L186.565 92.8312L219.806 85.0712L219.815 85.0692L285.928 70.9214L303.995 68.0333L314.79 67.1837L315.815 67.1031L315.102 66.3566L314.476 65.7012L314.309 65.5264L314.068 65.5405L305.353 66.0552L305.341 66.0559L305.329 66.0572L289.45 67.7507L289.429 67.7529L289.408 67.7569L257.706 73.8458L257.694 73.848L257.683 73.8507L190.709 89.9679L190.706 89.9687L172.016 94.6099L172.009 94.6116L152.61 99.7094L152.099 99.8437L152.276 100.34L152.388 100.656Z" stroke="#FAF0AC" stroke-opacity="0.1"/>
<path d="M154.21 91.7876L153.853 91.12L176.369 81.1913L196.463 72.9459L215.814 65.4308L236.499 59.9452L247.14 58.1647L248.42 59.0151L233.532 62.5352L213.788 68.7753L193.196 75.63L154.21 91.7876Z" fill="#431F13"/>
<path d="M153.756 91.9973L153.983 92.4208L154.428 92.2364L193.397 76.0858L213.968 69.2381L233.69 63.0049L248.56 59.4892L249.632 59.2356L248.702 58.6177L247.422 57.7673L247.244 57.6488L247.034 57.6838L236.394 59.4643L236.37 59.4683L236.346 59.4745L215.661 64.9601L215.633 64.9674L215.607 64.9777L196.256 72.4928L196.256 72.4927L196.248 72.4963L176.153 80.7418L176.153 80.7416L176.141 80.7469L153.625 90.6756L153.159 90.8811L153.399 91.3298L153.756 91.9973Z" stroke="#FAF0AC" stroke-opacity="0.1"/>
</g>
</g>
<defs>
<filter id="filter0_i_1_5652" x="17" y="16" width="157.384" height="95.8413" filterUnits="userSpaceOnUse" color-interpolation-filters="sRGB">
<feFlood flood-opacity="0" result="BackgroundImageFix"/>
<feBlend mode="normal" in="SourceGraphic" in2="BackgroundImageFix" result="shape"/>
<feColorMatrix in="SourceAlpha" type="matrix" values="0 0 0 0 0 0 0 0 0 0 0 0 0 0 0 0 0 0 127 0" result="hardAlpha"/>
<feOffset dy="5"/>
<feGaussianBlur stdDeviation="2.5"/>
<feComposite in2="hardAlpha" operator="arithmetic" k2="-1" k3="1"/>
<feColorMatrix type="matrix" values="0 0 0 0 0.283333 0 0 0 0 0.12352 0 0 0 0 0.0401389 0 0 0 0.35 0"/>
<feBlend mode="normal" in2="shape" result="effect1_innerShadow_1_5652"/>
</filter>
<linearGradient id="paint0_linear_1_5652" x1="146" y1="0" x2="146" y2="121.122" gradientUnits="userSpaceOnUse">
<stop stop-color="#B1591B"/>
<stop offset="1" stop-color="#79330B"/>
</linearGradient>
<linearGradient id="paint1_linear_1_5652" x1="145.692" y1="16" x2="145.692" y2="106.841" gradientUnits="userSpaceOnUse">
<stop stop-color="#80350B"/>
<stop offset="1" stop-color="#934210"/>
</linearGradient>
<linearGradient id="paint2_linear_1_5652" x1="146.281" y1="6" x2="146.281" y2="115.01" gradientUnits="userSpaceOnUse">
<stop stop-color="#F38E47"/>
<stop offset="1" stop-color="#F38E47" stop-opacity="0.34"/>
</linearGradient>
<linearGradient id="paint3_linear_1_5652" x1="146" y1="0.438965" x2="146" y2="121.561" gradientUnits="userSpaceOnUse">
<stop stop-color="#B1591B"/>
<stop offset="1" stop-color="#79330B"/>
</linearGradient>
</defs>
</svg>
