<svg width="229" height="123" viewBox="0 0 229 123" fill="none" xmlns="http://www.w3.org/2000/svg">
<ellipse cx="114.5" cy="61.5" rx="114.5" ry="61.5" fill="url(#paint0_linear_1_1051)"/>
<ellipse cx="114.5" cy="61.4999" rx="104.091" ry="55.9091" fill="#B1591B"/>
<g filter="url(#filter0_i_1_1051)">
<ellipse cx="115" cy="61.5" rx="90" ry="44.5" fill="url(#paint1_linear_1_1051)"/>
</g>
<path opacity="0.95" d="M115 106.5C139.913 106.5 162.492 101.508 178.861 93.4145C195.199 85.3363 205.5 74.0827 205.5 61.5C205.5 48.9173 195.199 37.6637 178.861 29.5855C162.492 21.4918 139.913 16.5 115 16.5C90.0872 16.5 67.5081 21.4918 51.1388 29.5855C34.8009 37.6637 24.5 48.9173 24.5 61.5C24.5 74.0827 34.8009 85.3363 51.1388 93.4145C67.5081 101.508 90.0872 106.5 115 106.5Z" stroke="#F38E47" stroke-opacity="0.3"/>
<path opacity="0.95" d="M217.591 61.4999C217.591 76.3933 206.336 90.1054 187.63 100.153C168.966 110.178 143.112 116.409 114.5 116.409C85.8882 116.409 60.0345 110.178 41.3699 100.153C22.664 90.1054 11.4092 76.3933 11.4092 61.4999C11.4092 46.6065 22.664 32.8945 41.3699 22.8472C60.0345 12.8221 85.8882 6.59082 114.5 6.59082C143.112 6.59082 168.966 12.8221 187.63 22.8472C206.336 32.8945 217.591 46.6065 217.591 61.4999Z" stroke="url(#paint2_linear_1_1051)" stroke-width="2"/>
<mask id="mask0_1_1051" style="mask-type:alpha" maskUnits="userSpaceOnUse" x="0" y="0" width="229" height="123">
<ellipse cx="114.5" cy="61.5" rx="114.5" ry="61.5" fill="url(#paint3_linear_1_1051)"/>
</mask>
<g mask="url(#mask0_1_1051)">
<g opacity="0.35">
<path d="M202.619 21.0679L202.612 21.395L178.503 20.1067L155.39 18.6152L72.7822 12.7943L34.331 8.61219L15.6449 5.26099L5.5646 3.03742L5.1333 2.23633L17.733 4.79896L39.4395 7.72671L120.267 15.1076L161.188 18.2203L181.411 19.4969L202.619 21.0679Z" fill="#431F13"/>
<path d="M203.119 21.0731L203.128 20.604L202.66 20.5693L181.452 18.9983L181.447 18.9979L161.23 17.7218L161.224 17.7213L120.317 14.6097L120.31 14.6091L39.5002 7.22983L17.8208 4.30572L5.23728 1.74639L4.18415 1.5322L4.69248 2.47637L5.12377 3.27746L5.23109 3.47679L5.45261 3.52565L15.5329 5.74922L15.5425 5.75135L15.5522 5.75309L34.2384 9.1043L34.2553 9.10734L34.2724 9.1092L72.7237 13.2913L72.7331 13.2924L72.7426 13.293L155.35 19.1139L155.353 19.1141L178.466 20.6056L178.472 20.6059L202.581 21.8942L203.102 21.922L203.112 21.4001L203.119 21.0731Z" stroke="#FAF0AC" stroke-opacity="0.1"/>
<path d="M235.934 43.4317L236 43.7552L211.924 45.3358L188.784 46.5981L105.976 50.6257L67.1045 51.0472L47.9208 49.9507L37.4796 48.9489L36.876 48.2095L49.8786 49.2478L71.9486 49.5692L153.347 47.2915L194.418 45.5226L214.657 44.3901L235.934 43.4317Z" fill="#431F13"/>
<path d="M236.431 43.3774L236.336 42.9183L235.865 42.9395L214.589 43.8978L214.583 43.8981L194.351 45.0302L194.344 45.0306L153.288 46.7989L153.28 46.7992L71.8999 49.0763L49.858 48.7553L36.8725 47.7184L35.7856 47.6316L36.4896 48.494L37.0933 49.2334L37.2432 49.4171L37.4747 49.4393L47.9158 50.4411L47.926 50.4421L47.9361 50.4426L67.1199 51.5392L67.1376 51.5402L67.1552 51.54L106.027 51.1185L106.037 51.1184L106.047 51.1179L188.855 47.0903L188.858 47.0901L211.997 45.8279L212.002 45.8275L236.079 44.2469L236.602 44.2125L236.497 43.7009L236.431 43.3774Z" stroke="#FAF0AC" stroke-opacity="0.1"/>
<path d="M105.102 75.4004L105.221 76.1297L75.5336 78.2844L49.3004 79.6375L24.2202 80.5473L-1.5025 79.162L-14.2903 77.4857L-15.3745 76.2988L2.9562 77.692L27.9379 78.0852L54.139 78.1742L105.102 75.4004Z" fill="#431F13"/>
<path d="M105.601 75.3571L105.523 74.8794L105.038 74.9057L54.0893 77.6788L27.9093 77.5899L27.9029 77.5899L2.94304 77.1969L-15.3722 75.8049L-16.561 75.7146L-15.7391 76.6143L-14.6549 77.8013L-14.5182 77.9508L-14.321 77.9767L-1.53319 79.653L-1.51334 79.6556L-1.49345 79.6567L24.2293 81.0419L24.2524 81.0431L24.2754 81.0423L49.3555 80.1325L49.3555 80.1326L49.3633 80.1322L75.5965 78.7791L75.5965 78.7792L75.607 78.7784L105.295 76.6238L105.801 76.587L105.72 76.0865L105.601 75.3571Z" stroke="#FAF0AC" stroke-opacity="0.1"/>
<path d="M-68.7175 12.467L-69.0001 13.172L-40.2079 18.8746L-14.6415 23.3703L9.88806 27.2899L35.5711 29.0233L48.5628 28.911L49.9009 27.8711L31.5065 27.0362L6.77897 24.4136L-19.0824 21.3441L-68.7175 12.467Z" fill="#431F13"/>
<path d="M-69.2066 12.3627L-69.0268 11.9141L-68.5482 11.9996L-18.9281 20.874L6.9112 23.941L6.91782 23.9417L31.6225 26.5618L50.0004 27.396L51.1894 27.4499L50.2066 28.2137L48.8685 29.2537L48.6997 29.3849L48.4934 29.3867L35.5017 29.499L35.4804 29.4992L35.4595 29.4978L9.77644 27.7643L9.752 27.7627L9.72819 27.7588L-14.8014 23.8393L-14.8014 23.8394L-14.8094 23.838L-40.3758 19.3422L-40.3758 19.3423L-40.3866 19.3402L-69.1788 13.6376L-69.6778 13.5388L-69.4891 13.0677L-69.2066 12.3627Z" stroke="#FAF0AC" stroke-opacity="0.1"/>
<path d="M232.495 51.6035L232.777 52.3085L203.985 58.011L178.419 62.5068L153.889 66.4263L128.206 68.1598L115.215 68.0475L113.876 67.0076L132.271 66.1727L156.998 63.5501L182.86 60.4806L232.495 51.6035Z" fill="#431F13"/>
<path d="M232.984 51.4992L232.804 51.0505L232.326 51.1361L182.705 60.0105L156.866 63.0775L156.86 63.0782L132.155 65.6983L113.777 66.5324L112.588 66.5864L113.571 67.3502L114.909 68.3902L115.078 68.5214L115.284 68.5232L128.276 68.6355L128.297 68.6357L128.318 68.6343L154.001 66.9008L154.025 66.8991L154.049 66.8953L178.579 62.9758L178.579 62.9759L178.587 62.9744L204.153 58.4787L204.153 58.4788L204.164 58.4767L232.956 52.7741L233.455 52.6753L233.266 52.2042L232.984 51.4992Z" stroke="#FAF0AC" stroke-opacity="0.1"/>
<path d="M74.2043 90.4165L74.0011 90.9235L94.7057 95.0242L113.091 98.2571L130.73 101.076L149.199 102.322L158.541 102.241L159.503 101.494L146.276 100.893L128.494 99.0074L109.897 96.8001L74.2043 90.4165Z" fill="#431F13"/>
<path d="M73.7153 90.3122L73.8951 89.8635L74.3736 89.9491L110.051 96.33L128.626 98.5347L128.63 98.5351L146.392 100.419L159.603 101.019L160.792 101.072L159.809 101.836L158.847 102.584L158.678 102.715L158.472 102.717L149.129 102.798L149.108 102.798L149.087 102.797L130.618 101.55L130.594 101.548L130.57 101.545L112.931 98.7261L112.931 98.7262L112.923 98.7248L94.5378 95.4919L94.5378 95.492L94.527 95.4898L73.8224 91.3891L73.3234 91.2903L73.5121 90.8192L73.7153 90.3122Z" stroke="#FAF0AC" stroke-opacity="0.1"/>
<path d="M-0.0462061 114.301L-0.249359 113.794L20.4552 109.693L38.8402 106.46L56.4795 103.642L74.9483 102.395L84.2907 102.476L85.2529 103.224L72.0255 103.824L54.2437 105.71L35.6467 107.917L-0.0462061 114.301Z" fill="#431F13"/>
<path d="M-0.535211 114.405L-0.355411 114.854L0.123144 114.768L35.801 108.387L54.376 106.183L54.3793 106.182L72.1415 104.298L85.3525 103.699L86.5414 103.645L85.5587 102.881L84.5964 102.133L84.4276 102.002L84.2213 102L74.8789 101.919L74.8577 101.919L74.8367 101.921L56.3679 103.167L56.3434 103.169L56.3196 103.173L38.6803 105.991L38.6803 105.991L38.6723 105.993L20.2873 109.225L20.2873 109.225L20.2765 109.227L-0.42807 113.328L-0.927127 113.427L-0.738364 113.898L-0.535211 114.405Z" stroke="#FAF0AC" stroke-opacity="0.1"/>
</g>
</g>
<defs>
<filter id="filter0_i_1_1051" x="25" y="17" width="180" height="94" filterUnits="userSpaceOnUse" color-interpolation-filters="sRGB">
<feFlood flood-opacity="0" result="BackgroundImageFix"/>
<feBlend mode="normal" in="SourceGraphic" in2="BackgroundImageFix" result="shape"/>
<feColorMatrix in="SourceAlpha" type="matrix" values="0 0 0 0 0 0 0 0 0 0 0 0 0 0 0 0 0 0 127 0" result="hardAlpha"/>
<feOffset dy="5"/>
<feGaussianBlur stdDeviation="2.5"/>
<feComposite in2="hardAlpha" operator="arithmetic" k2="-1" k3="1"/>
<feColorMatrix type="matrix" values="0 0 0 0 0.283333 0 0 0 0 0.12352 0 0 0 0 0.0401389 0 0 0 0.35 0"/>
<feBlend mode="normal" in2="shape" result="effect1_innerShadow_1_1051"/>
</filter>
<linearGradient id="paint0_linear_1_1051" x1="114.5" y1="0" x2="114.5" y2="123" gradientUnits="userSpaceOnUse">
<stop stop-color="#B1591B"/>
<stop offset="1" stop-color="#79330B"/>
</linearGradient>
<linearGradient id="paint1_linear_1_1051" x1="115" y1="17" x2="115" y2="106" gradientUnits="userSpaceOnUse">
<stop stop-color="#80350B"/>
<stop offset="1" stop-color="#934210"/>
</linearGradient>
<linearGradient id="paint2_linear_1_1051" x1="114.5" y1="5.59082" x2="114.5" y2="117.409" gradientUnits="userSpaceOnUse">
<stop stop-color="#F38E47"/>
<stop offset="1" stop-color="#F38E47" stop-opacity="0.34"/>
</linearGradient>
<linearGradient id="paint3_linear_1_1051" x1="114.5" y1="0" x2="114.5" y2="123" gradientUnits="userSpaceOnUse">
<stop stop-color="#B1591B"/>
<stop offset="1" stop-color="#79330B"/>
</linearGradient>
</defs>
</svg>
