<svg width="292" height="122" viewBox="0 0 292 122" fill="none" xmlns="http://www.w3.org/2000/svg">
<path d="M7.31953 34.5082C12.8711 17.8535 15.6469 9.52613 22.2553 4.76306C28.8637 0 37.6415 0 55.1972 0H236.803C254.359 0 263.137 0 269.745 4.76306C276.354 9.52613 279.129 17.8535 284.681 34.5082L288.046 44.6017C290.682 52.5113 292 56.4661 292 60.5609C292 64.6558 290.682 68.6106 288.045 76.5202L284.681 86.6137C279.129 103.268 276.354 111.596 269.745 116.359C263.137 121.122 254.359 121.122 236.803 121.122H55.1972C37.6415 121.122 28.8637 121.122 22.2553 116.359C15.6469 111.596 12.8711 103.268 7.31952 86.6136L3.95502 76.5201C1.3185 68.6106 0.000244141 64.6558 0.000244141 60.5609C0.000244141 56.4661 1.3185 52.5113 3.95502 44.6017L7.31953 34.5082Z" fill="url(#paint0_linear_1_7266)"/>
<path d="M16.6406 33.4098C21.6503 20.1346 24.1551 13.4969 29.3785 9.74847C34.6018 6 41.3463 6 54.8352 6H237.727C251.216 6 257.96 6 263.184 9.74847C268.407 13.4969 270.912 20.1346 275.922 33.4098L280.035 44.3108C283.053 52.3077 284.562 56.3062 284.562 60.5049C284.562 64.7035 283.053 68.702 280.035 76.6989L275.922 87.5999C270.912 100.875 268.407 107.513 263.184 111.261C257.96 115.01 251.216 115.01 237.727 115.01H54.8352C41.3463 115.01 34.6018 115.01 29.3785 111.261C24.1551 107.513 21.6503 100.875 16.6406 87.5999L12.5269 76.6989C9.50914 68.702 8.00024 64.7035 8.00024 60.5049C8.00024 56.3062 9.50914 52.3077 12.5269 44.3108L16.6406 33.4098Z" fill="#B1591B"/>
<g filter="url(#filter0_i_1_7266)">
<path d="M25.352 38.8415C30.1944 27.7788 32.6156 22.2474 37.6645 19.1237C42.7134 16 49.2326 16 62.271 16H229.114C242.152 16 248.671 16 253.72 19.1237C258.769 22.2474 261.19 27.7788 266.032 38.8415L270.009 47.9257C272.926 54.5898 274.384 57.9218 274.384 61.4207C274.384 64.9196 272.926 68.2517 270.009 74.9158L266.032 83.9999C261.19 95.0626 258.769 100.594 253.72 103.718C248.671 106.841 242.152 106.841 229.114 106.841H62.271C49.2326 106.841 42.7134 106.841 37.6645 103.718C32.6156 100.594 30.1944 95.0626 25.352 83.9999L21.3757 74.9158C18.4587 68.2517 17.0002 64.9196 17.0002 61.4207C17.0002 57.9218 18.4587 54.5898 21.3757 47.9256L25.352 38.8415Z" fill="url(#paint1_linear_1_7266)"/>
</g>
<path opacity="0.95" d="M37.1383 18.2733C34.4297 19.9492 32.4597 22.2582 30.5671 25.5015C28.6962 28.7077 26.8611 32.9 24.4619 38.3813L24.436 38.4405L20.4597 47.5247L20.3496 47.7761C17.5378 54.1994 16.0002 57.7116 16.0002 61.4207C16.0002 65.1298 17.5377 68.642 20.3496 75.0653L20.4597 75.3167L24.436 84.4009L24.4619 84.4602C26.8611 89.9414 28.6962 94.1337 30.5671 97.3399C32.4596 100.583 34.4297 102.892 37.1383 104.568C39.8407 106.24 42.8996 107.047 46.8718 107.446C50.8124 107.841 55.7429 107.841 62.2139 107.841H62.271H229.114H229.171C235.642 107.841 240.572 107.841 244.513 107.446C248.485 107.047 251.544 106.24 254.246 104.568C256.955 102.892 258.925 100.583 260.817 97.3399C262.688 94.1337 264.523 89.9413 266.923 84.46L266.949 84.4009L270.925 75.3168L271.035 75.0653C273.847 68.6421 275.384 65.1299 275.384 61.4207C275.384 57.7116 273.847 54.1993 271.035 47.7761L270.925 47.5247L266.949 38.4405L266.923 38.3815C264.523 32.9001 262.688 28.7077 260.817 25.5015C258.925 22.2582 256.955 19.9492 254.246 18.2733C251.544 16.6014 248.485 15.7941 244.513 15.3955C240.572 15 235.642 15 229.171 15H229.114H62.271H62.2139C55.7429 15 50.8124 15 46.8718 15.3955C42.8996 15.7941 39.8407 16.6014 37.1383 18.2733Z" stroke="#F38E47" stroke-opacity="0.3" stroke-width="2"/>
<path opacity="0.95" d="M17.5762 33.7629C20.0886 27.1053 21.9466 22.1853 23.8227 18.456C25.6892 14.7458 27.5309 12.3052 29.9615 10.5609C32.3877 8.81977 35.1967 7.91889 39.1229 7.46185C43.077 7.00156 48.0675 7 54.8352 7H237.727C244.495 7 249.485 7.00156 253.439 7.46185C257.365 7.91889 260.174 8.81977 262.601 10.5609C265.031 12.3052 266.873 14.7458 268.739 18.456C270.616 22.1853 272.474 27.1053 274.986 33.7629L279.1 44.6639C282.143 52.7292 283.562 56.5307 283.562 60.5049C283.562 64.479 282.143 68.2805 279.1 76.3459L274.986 87.2468C272.474 93.9044 270.616 98.8244 268.739 102.554C266.873 106.264 265.031 108.704 262.601 110.449C260.174 112.19 257.365 113.091 253.439 113.548C249.485 114.008 244.495 114.01 237.727 114.01H54.8352C48.0674 114.01 43.077 114.008 39.1229 113.548C35.1967 113.091 32.3877 112.19 29.9615 110.449C27.5309 108.704 25.6892 106.264 23.8227 102.554C21.9466 98.8244 20.0886 93.9044 17.5762 87.2468L13.4625 76.3458C10.4189 68.2805 9.00024 64.479 9.00024 60.5049C9.00024 56.5307 10.4189 52.7292 13.4625 44.6638L17.5762 33.7629Z" stroke="url(#paint2_linear_1_7266)" stroke-width="2"/>
<mask id="mask0_1_7266" style="mask-type:alpha" maskUnits="userSpaceOnUse" x="0" y="0" width="293" height="122">
<path d="M7.31953 34.9472C12.8711 18.2925 15.6469 9.96509 22.2553 5.20203C28.8637 0.438965 37.6415 0.438965 55.1972 0.438965H236.803C254.359 0.438965 263.137 0.438965 269.745 5.20203C276.354 9.96509 279.129 18.2925 284.681 34.9472L288.046 45.0407C290.682 52.9503 292 56.905 292 60.9999C292 65.0948 290.682 69.0496 288.045 76.9591L284.681 87.0526C279.129 103.707 276.354 112.035 269.745 116.798C263.137 121.561 254.359 121.561 236.803 121.561H55.1972C37.6415 121.561 28.8637 121.561 22.2553 116.798C15.6469 112.035 12.8711 103.707 7.31952 87.0526L3.95502 76.9591C1.3185 69.0496 0.000244141 65.0948 0.000244141 60.9999C0.000244141 56.905 1.3185 52.9503 3.95502 45.0407L7.31953 34.9472Z" fill="url(#paint3_linear_1_7266)"/>
</mask>
<g mask="url(#mask0_1_7266)">
<g opacity="0.35">
<path d="M173.716 19.6682L173.711 20.0021L153.691 18.6867L134.498 17.1637L65.9016 11.2199L33.9722 6.94946L18.4555 3.52749L10.0849 1.25697L9.72681 0.438965L20.1895 3.05571L38.2143 6.04528L105.333 13.582L139.312 16.7604L156.106 18.0639L173.716 19.6682Z" fill="#431F13"/>
<path d="M174.216 19.6746L174.223 19.2122L173.763 19.1703L156.152 17.566L156.146 17.5655L139.361 16.2626L139.353 16.2619L105.39 13.0852L105.381 13.0842L38.2846 5.54989L20.2927 2.56576L9.84955 -0.0460929L8.85957 -0.293688L9.26866 0.640663L9.6268 1.45867L9.72243 1.67709L9.95265 1.73954L18.3232 4.01006L18.3347 4.01318L18.3464 4.01575L33.8631 7.43772L33.8836 7.44224L33.9044 7.44503L65.8338 11.7155L65.8454 11.717L65.8569 11.718L134.453 17.6618L134.457 17.6621L153.65 19.1851L153.657 19.1856L173.677 20.501L174.202 20.5356L174.211 20.0085L174.216 19.6746Z" stroke="#FAF0AC" stroke-opacity="0.1"/>
<path d="M201.381 42.5044L201.436 42.8347L181.443 44.4487L162.229 45.7376L93.4659 49.8503L61.1871 50.2807L45.2571 49.1611L36.587 48.1381L36.0857 47.3831L46.8829 48.4433L65.2095 48.7715L132.802 46.4457L166.907 44.6394L183.713 43.483L201.381 42.5044Z" fill="#431F13"/>
<path d="M201.876 42.4379L201.8 41.9819L201.337 42.0076L183.67 42.9861L183.663 42.9866L166.865 44.1425L166.857 44.143L132.769 45.9483L132.76 45.9487L65.1901 48.2737L46.897 47.9461L36.1201 46.8878L35.0975 46.7874L35.6685 47.6476L36.1698 48.4026L36.3035 48.6041L36.5426 48.6323L45.2128 49.6552L45.2248 49.6566L45.2368 49.6575L61.1667 50.7771L61.1879 50.7786L61.2091 50.7783L93.4879 50.3479L93.4996 50.3478L93.5113 50.3471L162.274 46.2344L162.278 46.2342L181.492 44.9453L181.499 44.9447L201.492 43.3308L202.018 43.2883L201.931 42.7682L201.876 42.4379Z" stroke="#FAF0AC" stroke-opacity="0.1"/>
<path d="M92.7403 75.148L92.8391 75.8927L68.1867 78.0929L46.4029 79.4746L25.5767 80.4036L4.21689 78.9891L-6.40192 77.2774L-7.30225 76.0654L7.91934 77.488L28.6638 77.8896L50.4209 77.9804L92.7403 75.148Z" fill="#431F13"/>
<path d="M93.2375 75.0949L93.1743 74.6185L92.6943 74.6506L50.3927 77.4819L28.6612 77.3912L28.6535 77.3911L7.93534 76.99L-7.26761 75.5691L-8.36294 75.4668L-7.70307 76.355L-6.80275 77.567L-6.67718 77.736L-6.47019 77.7694L4.14863 79.4811L4.17218 79.4849L4.19594 79.4865L25.5558 80.901L25.5837 80.9028L25.6116 80.9016L46.4378 79.9726L46.4378 79.9727L46.4472 79.9721L68.231 78.5904L68.231 78.5905L68.2438 78.5894L92.8962 76.3892L93.4032 76.344L93.3363 75.8397L93.2375 75.0949Z" stroke="#FAF0AC" stroke-opacity="0.1"/>
<path d="M-51.5976 10.8859L-51.8322 11.6058L-27.9236 17.4288L-6.69357 22.0194L13.6755 26.0217L35.0023 27.7918L45.7905 27.6771L46.9016 26.6152L31.6272 25.7627L11.0937 23.0848L-10.3812 19.9504L-51.5976 10.8859Z" fill="#431F13"/>
<path d="M-52.0813 10.7591L-51.9325 10.3024L-51.4622 10.4058L-10.2635 19.4664L11.1896 22.5976L31.7003 25.2726L46.9556 26.124L48.0564 26.1855L47.2491 26.957L46.138 28.0189L45.9832 28.1669L45.771 28.1691L34.9829 28.2838L34.9585 28.2841L34.9344 28.2821L13.6075 26.512L13.579 26.5096L13.5512 26.5041L-6.81784 22.5019L-6.81786 22.5019L-6.82722 22.4999L-28.0573 17.9092L-28.0573 17.9094L-28.07 17.9063L-51.9786 12.0834L-52.4735 11.9628L-52.3159 11.479L-52.0813 10.7591Z" stroke="#FAF0AC" stroke-opacity="0.1"/>
<path d="M198.525 50.8488L198.76 51.5687L174.851 57.3916L153.621 61.9823L133.252 65.9846L111.925 67.7547L101.137 67.64L100.026 66.5781L115.301 65.7256L135.834 63.0477L157.309 59.9133L198.525 50.8488Z" fill="#431F13"/>
<path d="M199.009 50.722L198.86 50.2653L198.39 50.3687L157.191 59.4293L135.738 62.5605L115.227 65.2355L99.9721 66.0869L98.8713 66.1483L99.6786 66.9199L100.79 67.9818L100.945 68.1298L101.157 68.132L111.945 68.2467L111.969 68.247L111.993 68.245L133.32 66.4749L133.349 66.4725L133.377 66.467L153.746 62.4647L153.746 62.4648L153.755 62.4628L174.985 57.8721L174.985 57.8723L174.998 57.8692L198.906 52.0462L199.401 51.9257L199.244 51.4419L199.009 50.722Z" stroke="#FAF0AC" stroke-opacity="0.1"/>
<path d="M67.0827 90.481L66.9141 90.9986L84.1069 95.1859L99.3735 98.4871L114.021 101.365L129.357 102.638L137.115 102.556L137.914 101.792L126.93 101.179L112.164 99.2532L96.7217 96.9993L67.0827 90.481Z" fill="#431F13"/>
<path d="M66.5991 90.3541L66.7479 89.8974L67.2181 90.0009L96.8394 96.5153L112.26 98.766L127.003 100.689L137.968 101.301L139.069 101.362L138.262 102.134L137.463 102.897L137.308 103.045L137.096 103.048L129.338 103.13L129.313 103.13L129.289 103.128L113.953 101.855L113.925 101.853L113.897 101.848L99.2492 98.9695L99.2492 98.9696L99.2398 98.9676L83.9732 95.6664L83.9732 95.6666L83.9605 95.6635L66.7677 91.4762L66.2727 91.3556L66.4304 90.8718L66.5991 90.3541Z" stroke="#FAF0AC" stroke-opacity="0.1"/>
<path d="M5.42601 114.87L5.25731 114.352L22.4501 110.165L37.7167 106.864L52.3642 103.986L67.7005 102.713L75.4583 102.795L76.2573 103.559L65.2734 104.172L50.5077 106.098L35.065 108.352L5.42601 114.87Z" fill="#431F13"/>
<path d="M4.94236 114.997L5.09118 115.453L5.56139 115.35L35.1826 108.836L50.6035 106.585L65.3465 104.662L76.3114 104.05L77.4122 103.989L76.6048 103.217L75.8058 102.453L75.651 102.305L75.4389 102.303L67.681 102.221L67.6567 102.221L67.6325 102.223L52.2962 103.495L52.2678 103.498L52.24 103.503L37.5925 106.381L37.5925 106.381L37.5831 106.383L22.3165 109.684L22.3164 109.684L22.3037 109.687L5.11093 113.875L4.61599 113.995L4.77366 114.479L4.94236 114.997Z" stroke="#FAF0AC" stroke-opacity="0.1"/>
</g>
<g opacity="0.35">
<path d="M184.107 118.129L184.054 117.8L203.994 115.581L223.156 113.712L291.731 107.524L323.914 106.125L339.791 106.77L348.43 107.537L348.926 108.279L338.167 107.539L319.897 107.759L252.498 112.119L218.487 114.954L201.726 116.618L184.107 118.129Z" fill="#431F13"/>
<path d="M183.614 118.211L183.688 118.667L184.148 118.628L201.767 117.117L201.774 117.116L218.527 115.453L218.535 115.452L252.528 112.619L252.538 112.618L319.914 108.26L338.151 108.04L348.89 108.778L349.908 108.848L349.342 108L348.846 107.258L348.713 107.059L348.475 107.038L339.836 106.272L339.824 106.271L339.813 106.271L323.936 105.625L323.915 105.624L323.894 105.625L291.711 107.025L291.699 107.025L291.688 107.026L223.113 113.214L223.109 113.214L203.947 115.083L203.94 115.084L184 117.303L183.476 117.361L183.561 117.881L183.614 118.211Z" stroke="#FAF0AC" stroke-opacity="0.1"/>
<path d="M152.864 100.503L152.752 100.188L172.151 95.0901L190.841 90.4489L257.815 74.3318L289.517 68.2429L305.396 66.5494L314.111 66.0348L314.737 66.6902L303.921 67.5414L285.822 70.4347L219.687 84.5873L186.428 92.3512L170.086 96.4392L152.864 100.503Z" fill="#431F13"/>
<path d="M152.388 100.656L152.543 101.091L152.994 100.985L170.215 96.9209L170.222 96.9192L186.557 92.833L186.564 92.8312L219.806 85.0712L219.815 85.0692L285.928 70.9214L303.995 68.0333L314.79 67.1837L315.814 67.1031L315.101 66.3566L314.475 65.7012L314.308 65.5264L314.068 65.5405L305.353 66.0552L305.341 66.0559L305.329 66.0572L289.45 67.7507L289.429 67.7529L289.408 67.7569L257.705 73.8458L257.694 73.848L257.683 73.8507L190.709 89.9679L190.705 89.9687L172.015 94.6099L172.009 94.6116L152.61 99.7094L152.099 99.8437L152.276 100.34L152.388 100.656Z" stroke="#FAF0AC" stroke-opacity="0.1"/>
<path d="M254.089 49.2997L253.861 48.5838L277.745 42.0912L298.948 36.9077L319.288 32.338L340.565 29.9818L351.319 29.8032L352.418 30.8384L337.183 32.1093L316.69 35.3548L295.255 39.0839L254.089 49.2997Z" fill="#431F13"/>
<path d="M253.609 49.4392L253.755 49.8971L254.222 49.7813L295.37 39.5697L316.78 35.845L316.788 35.8438L337.255 32.6025L352.471 31.333L353.567 31.2416L352.762 30.4829L351.663 29.4478L351.509 29.3034L351.3 29.3069L340.545 29.4854L340.521 29.4858L340.498 29.4884L319.221 31.8447L319.193 31.8478L319.166 31.8539L298.826 36.4236L298.826 36.4235L298.817 36.4257L277.614 41.6092L277.614 41.609L277.602 41.6124L253.718 48.1051L253.227 48.2386L253.381 48.7233L253.609 49.4392Z" stroke="#FAF0AC" stroke-opacity="0.1"/>
<path d="M154.211 91.7873L153.853 91.1198L176.369 81.1911L196.464 72.9457L215.814 65.4306L236.499 59.945L247.14 58.1645L248.42 59.0149L233.533 62.5349L213.788 68.7751L193.196 75.6298L154.211 91.7873Z" fill="#431F13"/>
<path d="M153.757 91.9971L153.983 92.4205L154.428 92.2362L193.397 76.0856L213.968 69.2379L233.691 63.0046L248.56 59.489L249.633 59.2353L248.703 58.6174L247.422 57.767L247.244 57.6485L247.035 57.6835L236.394 59.464L236.37 59.4681L236.346 59.4743L215.661 64.9599L215.634 64.9672L215.607 64.9775L196.257 72.4925L196.257 72.4925L196.248 72.4961L176.153 80.7415L176.153 80.7414L176.141 80.7466L153.625 90.6753L153.159 90.8809L153.399 91.3295L153.757 91.9971Z" stroke="#FAF0AC" stroke-opacity="0.1"/>
<path d="M276.657 29.7012L276.732 29.1619L259.072 28.0571L243.463 27.4865L228.537 27.2238L213.216 28.6623L205.593 30.1051L204.94 30.9971L215.861 29.6728L230.736 28.9772L246.334 28.4859L276.657 29.7012Z" fill="#431F13"/>
<path d="M277.156 29.7412L277.089 30.2169L276.608 30.1976L246.303 28.983L230.727 29.4736L215.875 30.1682L204.973 31.4901L203.879 31.6229L204.538 30.7216L205.191 29.8296L205.317 29.6567L205.526 29.6173L213.149 28.1746L213.172 28.17L213.197 28.1678L228.518 26.7293L228.547 26.7266L228.575 26.7271L243.5 26.9898L243.5 26.9897L243.51 26.99L259.119 27.5606L259.119 27.5604L259.132 27.5612L276.793 28.6661L277.301 28.6979L277.231 29.2019L277.156 29.7412Z" stroke="#FAF0AC" stroke-opacity="0.1"/>
<path d="M333.077 -5.13005L333.334 -4.65002L317.142 2.48975L302.692 8.41909L288.777 13.8232L273.902 17.7679L266.25 19.0483L265.33 18.4368L276.036 15.9055L290.234 11.4182L305.042 6.48893L333.077 -5.13005Z" fill="#431F13"/>
<path d="M333.53 -5.33979L333.304 -5.76327L332.859 -5.57894L304.841 6.0331L290.054 10.9554L275.878 15.4358L265.19 17.9627L264.118 18.2163L265.048 18.8342L265.968 19.4458L266.147 19.5643L266.356 19.5292L274.008 18.2489L274.032 18.2449L274.055 18.2386L288.93 14.2939L288.958 14.2866L288.984 14.2763L302.899 8.8722L302.899 8.87229L302.908 8.86865L317.358 2.93932L317.358 2.93947L317.37 2.9342L333.561 -4.20557L334.028 -4.4111L333.787 -4.85976L333.53 -5.33979Z" stroke="#FAF0AC" stroke-opacity="0.1"/>
</g>
</g>
<defs>
<filter id="filter0_i_1_7266" x="17.0002" y="16" width="257.384" height="95.8413" filterUnits="userSpaceOnUse" color-interpolation-filters="sRGB">
<feFlood flood-opacity="0" result="BackgroundImageFix"/>
<feBlend mode="normal" in="SourceGraphic" in2="BackgroundImageFix" result="shape"/>
<feColorMatrix in="SourceAlpha" type="matrix" values="0 0 0 0 0 0 0 0 0 0 0 0 0 0 0 0 0 0 127 0" result="hardAlpha"/>
<feOffset dy="5"/>
<feGaussianBlur stdDeviation="2.5"/>
<feComposite in2="hardAlpha" operator="arithmetic" k2="-1" k3="1"/>
<feColorMatrix type="matrix" values="0 0 0 0 0.283333 0 0 0 0 0.12352 0 0 0 0 0.0401389 0 0 0 0.35 0"/>
<feBlend mode="normal" in2="shape" result="effect1_innerShadow_1_7266"/>
</filter>
<linearGradient id="paint0_linear_1_7266" x1="146" y1="0" x2="146" y2="121.122" gradientUnits="userSpaceOnUse">
<stop stop-color="#B1591B"/>
<stop offset="1" stop-color="#79330B"/>
</linearGradient>
<linearGradient id="paint1_linear_1_7266" x1="145.692" y1="16" x2="145.692" y2="106.841" gradientUnits="userSpaceOnUse">
<stop stop-color="#80350B"/>
<stop offset="1" stop-color="#934210"/>
</linearGradient>
<linearGradient id="paint2_linear_1_7266" x1="146.281" y1="6" x2="146.281" y2="115.01" gradientUnits="userSpaceOnUse">
<stop stop-color="#F38E47"/>
<stop offset="1" stop-color="#F38E47" stop-opacity="0.34"/>
</linearGradient>
<linearGradient id="paint3_linear_1_7266" x1="146" y1="0.438965" x2="146" y2="121.561" gradientUnits="userSpaceOnUse">
<stop stop-color="#B1591B"/>
<stop offset="1" stop-color="#79330B"/>
</linearGradient>
</defs>
</svg>
