<svg width="74" height="50" viewBox="0 0 74 50" fill="none" xmlns="http://www.w3.org/2000/svg">
<ellipse cx="37" cy="25" rx="37" ry="25" fill="url(#paint0_linear_1_979)"/>
<ellipse cx="37.0001" cy="25" rx="33.6364" ry="22.7273" fill="#B1591B"/>
<g filter="url(#filter0_i_1_979)">
<ellipse cx="36.9999" cy="24.9999" rx="26.9091" ry="18.1818" fill="url(#paint1_linear_1_979)"/>
</g>
<path opacity="0.95" d="M36.9999 43.6818C44.517 43.6818 51.3447 41.6239 56.3074 38.2707C61.2673 34.9195 64.409 30.2368 64.409 24.9999C64.409 19.7631 61.2673 15.0804 56.3074 11.7292C51.3447 8.37594 44.517 6.31812 36.9999 6.31812C29.4829 6.31812 22.6551 8.37594 17.6924 11.7292C12.7325 15.0804 9.59082 19.7631 9.59082 24.9999C9.59082 30.2368 12.7325 34.9195 17.6924 38.2707C22.6551 41.6239 29.4829 43.6818 36.9999 43.6818Z" stroke="#F38E47" stroke-opacity="0.3"/>
<path opacity="0.95" d="M69.6365 25C69.6365 30.8438 66.1312 36.2511 60.2248 40.242C54.3241 44.2289 46.1159 46.7273 37.0001 46.7273C27.8843 46.7273 19.6761 44.2289 13.7755 40.242C7.86902 36.2511 4.36377 30.8438 4.36377 25C4.36377 19.1561 7.86902 13.7488 13.7755 9.75796C19.6761 5.77103 27.8843 3.27271 37.0001 3.27271C46.1159 3.27271 54.3241 5.77103 60.2248 9.75796C66.1312 13.7488 69.6365 19.1561 69.6365 25Z" stroke="url(#paint2_linear_1_979)" stroke-width="2"/>
<mask id="mask0_1_979" style="mask-type:alpha" maskUnits="userSpaceOnUse" x="0" y="0" width="74" height="50">
<ellipse cx="37" cy="25" rx="37" ry="25" fill="url(#paint3_linear_1_979)"/>
</mask>
<g mask="url(#mask0_1_979)">
<g opacity="0.35">
<path d="M93.1987 8.5643L93.1956 8.69724L81.4002 8.17356L70.0918 7.56725L29.676 5.20106L10.8636 3.501L1.72142 2.13872L-3.21037 1.23483L-3.42139 0.90918L2.74306 1.9509L13.363 3.14104L52.9081 6.1414L72.9286 7.40672L82.8228 7.92565L93.1987 8.5643Z" fill="#431F13"/>
<path d="M93.6987 8.56861L93.7098 8.09447L93.2368 8.06536L82.8609 7.42669L82.8564 7.42646L72.9675 6.90784L72.9622 6.90753L52.9533 5.64295L52.947 5.64252L13.4171 2.64327L2.81985 1.45567L-3.33092 0.416258L-4.46482 0.224641L-3.84235 1.18528L-3.63134 1.51093L-3.51641 1.68829L-3.30762 1.72655L1.62418 2.63044L1.63233 2.63194L1.64052 2.63316L10.7827 3.99544L10.797 3.99756L10.8113 3.99885L29.6236 5.69891L29.6315 5.69962L29.6394 5.70008L70.0552 8.06628L70.0576 8.06641L81.366 8.67275L81.3706 8.67295L93.166 9.19663L93.6834 9.2196L93.6956 8.70155L93.6987 8.56861Z" stroke="#FAF0AC" stroke-opacity="0.1"/>
<path d="M109.498 17.6552L109.531 17.7867L97.7513 18.4293L86.4304 18.9424L45.9164 20.5796L26.8982 20.751L17.5126 20.3052L12.4042 19.898L12.1089 19.5974L18.4704 20.0195L29.2682 20.1501L69.0926 19.2242L89.1867 18.5052L99.0888 18.0448L109.498 17.6552Z" fill="#431F13"/>
<path d="M109.996 17.61L109.883 17.1502L109.405 17.1681L98.996 17.5577L98.9913 17.5579L89.0947 18.018L89.0892 18.0182L69.0072 18.7369L69.0007 18.7371L29.1921 19.6626L18.4181 19.5322L12.0711 19.1111L10.9058 19.0338L11.7589 19.902L12.0542 20.2026L12.215 20.3663L12.4348 20.3838L17.5432 20.791L17.5519 20.7917L17.5605 20.7921L26.9462 21.2379L26.9613 21.2386L26.9762 21.2385L45.9944 21.0671L46.0026 21.067L46.0108 21.0667L86.5247 19.4295L86.5273 19.4293L97.8482 18.9162L97.8529 18.916L109.632 18.2735L110.153 18.2451L110.029 17.7415L109.996 17.61Z" stroke="#FAF0AC" stroke-opacity="0.1"/>
<path d="M45.489 30.6504L45.5472 30.9469L31.0224 31.8228L18.1877 32.3728L5.91722 32.7426L-6.66768 32.1795L-12.9241 31.4981L-13.4546 31.0156L-4.48626 31.582L7.7361 31.7418L20.555 31.778L45.489 30.6504Z" fill="#431F13"/>
<path d="M45.9877 30.6144L45.8939 30.1369L45.4062 30.159L20.4845 31.286L7.68327 31.2499L7.67795 31.2499L-4.52602 31.0902L-13.4812 30.5247L-14.7818 30.4426L-13.7784 31.3552L-13.2479 31.8377L-13.1059 31.9669L-12.9216 31.9869L-6.66517 32.6684L-6.64826 32.6702L-6.63138 32.671L5.95352 33.2341L5.973 33.2349L5.99232 33.2344L18.2628 32.8645L18.2628 32.8646L18.2693 32.8643L31.104 32.3142L31.104 32.3143L31.1128 32.3138L45.6376 31.4379L46.1434 31.4074L46.0459 30.9109L45.9877 30.6144Z" stroke="#FAF0AC" stroke-opacity="0.1"/>
<path d="M-39.5529 5.06802L-39.6911 5.3546L-25.6045 7.67271L-13.096 9.50025L-1.09491 11.0936L11.4706 11.7982L17.8268 11.7526L18.4814 11.3298L9.48197 10.9905L-2.61604 9.92437L-15.2687 8.67658L-39.5529 5.06802Z" fill="#431F13"/>
<path d="M-40.0452 4.98079L-39.8342 4.54337L-39.3501 4.61531L-15.0791 8.22192L-2.44556 9.46785L-2.44268 9.4681L9.63828 10.5327L18.6233 10.8715L19.9064 10.9199L18.7404 11.6728L18.0857 12.0956L17.9087 12.2099L17.7115 12.2113L11.3553 12.2569L11.3365 12.2571L11.3181 12.256L-1.24739 11.5514L-1.26871 11.5502L-1.28944 11.5474L-13.2906 9.95412L-13.2906 9.95417L-13.2975 9.95315L-25.806 8.12561L-25.806 8.12569L-25.8154 8.12415L-39.902 5.80604L-40.4034 5.72352L-40.1834 5.26737L-40.0452 4.98079Z" stroke="#FAF0AC" stroke-opacity="0.1"/>
<path d="M107.816 20.9772L107.954 21.2638L93.8677 23.5819L81.3592 25.4094L69.3581 27.0027L56.7926 27.7074L50.4364 27.6618L49.7817 27.239L58.7812 26.8996L70.8792 25.8335L83.5319 24.5858L107.816 20.9772Z" fill="#431F13"/>
<path d="M108.308 20.89L108.097 20.4525L107.613 20.5245L83.3423 24.1311L70.7087 25.377L70.7059 25.3773L58.6249 26.4419L49.6398 26.7807L48.3568 26.8291L49.5228 27.582L50.1775 28.0048L50.3545 28.1191L50.5517 28.1205L56.9079 28.1661L56.9267 28.1663L56.9451 28.1652L69.5106 27.4606L69.5319 27.4594L69.5526 27.4566L81.5538 25.8633L81.5538 25.8633L81.5607 25.8623L94.0691 24.0348L94.0692 24.0349L94.0786 24.0333L108.165 21.7152L108.667 21.6327L108.447 21.1766L108.308 20.89Z" stroke="#FAF0AC" stroke-opacity="0.1"/>
<path d="M30.3722 36.7547L30.2728 36.9607L40.4026 38.6277L49.3974 39.9419L58.0275 41.0877L67.0634 41.5944L71.6342 41.5616L72.105 41.2576L65.6334 41.0135L56.9337 40.2469L47.835 39.3496L30.3722 36.7547Z" fill="#431F13"/>
<path d="M29.8799 36.6674L30.0908 36.23L30.575 36.302L48.0247 38.8949L57.107 39.7906L65.7897 40.5558L72.2469 40.7993L73.5299 40.8476L72.3639 41.6006L71.8932 41.9046L71.7161 42.0189L71.5189 42.0203L66.9481 42.0531L66.9294 42.0532L66.9109 42.0522L57.875 41.5455L57.8537 41.5443L57.833 41.5415L49.2029 40.3958L49.2029 40.3958L49.196 40.3948L40.2011 39.0806L40.201 39.0807L40.1917 39.0791L30.0619 37.4122L29.5605 37.3297L29.7805 36.8735L29.8799 36.6674Z" stroke="#FAF0AC" stroke-opacity="0.1"/>
<path d="M-5.95494 46.4636L-6.05433 46.2575L4.07541 44.5905L13.0703 43.2764L21.7004 42.1306L30.7363 41.6239L35.3071 41.6567L35.7778 41.9607L29.3063 42.2047L20.6065 42.9714L11.5079 43.8687L-5.95494 46.4636Z" fill="#431F13"/>
<path d="M-6.44727 46.5508L-6.23631 46.9882L-5.75218 46.9163L11.6975 44.3233L20.7799 43.4276L29.4626 42.6625L35.9197 42.419L37.2028 42.3706L36.0368 41.6177L35.566 41.3137L35.389 41.1994L35.1918 41.198L30.621 41.1652L30.6022 41.165L30.5838 41.1661L21.5479 41.6728L21.5266 41.674L21.5058 41.6767L12.8758 42.8225L12.8757 42.8224L12.8688 42.8235L3.87394 44.1376L3.8739 44.1376L3.86452 44.1391L-6.26523 45.8061L-6.76666 45.8886L-6.54667 46.3447L-6.44727 46.5508Z" stroke="#FAF0AC" stroke-opacity="0.1"/>
</g>
</g>
<defs>
<filter id="filter0_i_1_979" x="10.0908" y="6.81812" width="53.8184" height="41.3635" filterUnits="userSpaceOnUse" color-interpolation-filters="sRGB">
<feFlood flood-opacity="0" result="BackgroundImageFix"/>
<feBlend mode="normal" in="SourceGraphic" in2="BackgroundImageFix" result="shape"/>
<feColorMatrix in="SourceAlpha" type="matrix" values="0 0 0 0 0 0 0 0 0 0 0 0 0 0 0 0 0 0 127 0" result="hardAlpha"/>
<feOffset dy="5"/>
<feGaussianBlur stdDeviation="2.5"/>
<feComposite in2="hardAlpha" operator="arithmetic" k2="-1" k3="1"/>
<feColorMatrix type="matrix" values="0 0 0 0 0.283333 0 0 0 0 0.12352 0 0 0 0 0.0401389 0 0 0 0.35 0"/>
<feBlend mode="normal" in2="shape" result="effect1_innerShadow_1_979"/>
</filter>
<linearGradient id="paint0_linear_1_979" x1="37" y1="0" x2="37" y2="50" gradientUnits="userSpaceOnUse">
<stop stop-color="#B1591B"/>
<stop offset="1" stop-color="#79330B"/>
</linearGradient>
<linearGradient id="paint1_linear_1_979" x1="36.9999" y1="6.81812" x2="36.9999" y2="43.1818" gradientUnits="userSpaceOnUse">
<stop stop-color="#80350B"/>
<stop offset="1" stop-color="#934210"/>
</linearGradient>
<linearGradient id="paint2_linear_1_979" x1="37.0001" y1="2.27271" x2="37.0001" y2="47.7273" gradientUnits="userSpaceOnUse">
<stop stop-color="#F38E47"/>
<stop offset="1" stop-color="#F38E47" stop-opacity="0.34"/>
</linearGradient>
<linearGradient id="paint3_linear_1_979" x1="37" y1="0" x2="37" y2="50" gradientUnits="userSpaceOnUse">
<stop stop-color="#B1591B"/>
<stop offset="1" stop-color="#79330B"/>
</linearGradient>
</defs>
</svg>
