<svg width="60" height="60" viewBox="0 0 60 60" fill="none" xmlns="http://www.w3.org/2000/svg">
<circle cx="30" cy="30" r="30" fill="url(#paint0_linear_13_843)"/>
<circle cx="30.0003" cy="29.9998" r="27.2727" fill="#B1591B"/>
<g filter="url(#filter0_i_13_843)">
<circle cx="29.9998" cy="29.9999" r="21.8182" fill="url(#paint1_linear_13_843)"/>
</g>
<circle opacity="0.95" cx="29.9998" cy="29.9999" r="22.3182" stroke="#F38E47" stroke-opacity="0.3"/>
<circle opacity="0.95" cx="30.0003" cy="29.9998" r="26.2727" stroke="url(#paint2_linear_13_843)" stroke-width="2"/>
<mask id="mask0_13_843" style="mask-type:alpha" maskUnits="userSpaceOnUse" x="0" y="0" width="60" height="60">
<circle cx="30" cy="30" r="30" fill="url(#paint3_linear_13_843)"/>
</mask>
<g mask="url(#mask0_13_843)">
<g opacity="0.35">
<path d="M75.5672 10.277L75.5647 10.4365L66.0008 9.80808L56.8318 9.0805L24.0623 6.24107L8.80902 4.201L1.39641 2.56626L-2.60235 1.4816L-2.77344 1.09082L2.22476 2.34089L10.8355 3.76906L42.8991 7.36949L59.1319 8.88787L67.1543 9.51059L75.5672 10.277Z" fill="#431F13"/>
<path d="M76.0671 10.2833L76.0745 9.82098L75.6141 9.77904L67.2012 9.01263L67.1945 9.01211L59.18 8.39007L59.1761 8.3897L42.9518 6.87211L10.9059 3.27367L2.32796 1.85094L-2.6507 0.605763L-3.64067 0.358167L-3.23159 1.29252L-3.0605 1.68329L-2.96487 1.90172L-2.73465 1.96416L1.26411 3.04883L1.27562 3.05195L1.28728 3.05452L8.69988 4.68926L8.7204 4.69378L8.74122 4.69657L23.9945 6.73664L24.006 6.73818L24.0176 6.73918L56.7871 9.57863L56.7907 9.57891L65.9597 10.3065L65.9665 10.307L75.5303 10.9354L76.0563 10.97L76.0646 10.4429L76.0671 10.2833Z" stroke="#FAF0AC" stroke-opacity="0.1"/>
<path d="M88.7827 21.1865L88.8091 21.3443L79.2582 22.1154L70.079 22.7311L37.2299 24.6958L21.8097 24.9014L14.1997 24.3665L10.0578 23.8779L9.81836 23.5172L14.9764 24.0237L23.7313 24.1804L56.0214 23.0693L72.3139 22.2065L80.3426 21.654L88.7827 21.1865Z" fill="#431F13"/>
<path d="M89.2783 21.12L89.2022 20.664L88.7395 20.6897L80.2994 21.1571L80.2926 21.1576L72.2719 21.7095L72.2679 21.7097L55.984 22.5722L23.7119 23.6826L14.9905 23.5264L9.85279 23.0219L8.83018 22.9215L9.40118 23.7817L9.64064 24.1424L9.77436 24.3438L10.0135 24.372L14.1554 24.8607L14.1674 24.8621L14.1794 24.8629L21.7894 25.3978L21.8106 25.3993L21.8318 25.399L37.2519 25.1934L37.2637 25.1933L37.2754 25.1926L70.1245 23.2279L70.1281 23.2276L79.3073 22.6119L79.3141 22.6114L88.865 21.8404L89.3914 21.7978L89.3046 21.2778L89.2783 21.12Z" stroke="#FAF0AC" stroke-opacity="0.1"/>
<path d="M36.8829 36.7808L36.9301 37.1366L25.1532 38.1876L14.7467 38.8477L4.79769 39.2915L-5.40628 38.6157L-10.4791 37.798L-10.9092 37.2191L-3.63756 37.8987L6.27246 38.0905L16.6662 38.1339L36.8829 36.7808Z" fill="#431F13"/>
<path d="M37.3801 36.7277L37.3169 36.2513L36.8369 36.2834L16.638 37.6353L6.26595 37.592L-3.62156 37.4006L-10.8745 36.7228L-11.9699 36.6204L-11.31 37.5087L-10.8799 38.0876L-10.7543 38.2567L-10.5473 38.29L-5.47454 39.1078L-5.45099 39.1116L-5.42724 39.1131L4.77674 39.7889L4.80467 39.7907L4.83257 39.7895L14.7816 39.3457L14.7816 39.3458L14.791 39.3452L25.1975 38.6851L25.1975 38.6853L25.2103 38.6841L36.9872 37.6331L37.4942 37.5878L37.4273 37.0835L37.3801 36.7277Z" stroke="#FAF0AC" stroke-opacity="0.1"/>
<path d="M-32.0695 6.08177L-32.1816 6.42567L-20.76 9.2074L-10.618 11.4005L-0.887368 13.3124L9.30086 14.158L14.4545 14.1032L14.9854 13.5959L7.68848 13.1887L-2.12072 11.9094L-12.3797 10.412L-32.0695 6.08177Z" fill="#431F13"/>
<path d="M-32.5531 5.95494L-32.4043 5.49826L-31.9341 5.60167L-12.262 9.92805L-2.02491 11.4222L7.76157 12.6985L15.0394 13.1047L16.1402 13.1662L15.3329 13.9377L14.802 14.445L14.6472 14.593L14.4351 14.5952L9.28141 14.65L9.25704 14.6503L9.23287 14.6483L-0.955356 13.8027L-0.983805 13.8003L-1.01164 13.7948L-10.7423 11.8829L-10.7423 11.883L-10.7517 11.8809L-20.8936 9.68788L-20.8937 9.68805L-20.9064 9.68496L-32.3279 6.90323L-32.8229 6.78268L-32.6652 6.29884L-32.5531 5.95494Z" stroke="#FAF0AC" stroke-opacity="0.1"/>
<path d="M87.4181 25.1727L87.5302 25.5166L76.1086 28.2983L65.9667 30.4913L56.236 32.4033L46.0478 33.2489L40.8941 33.1941L40.3633 32.6868L47.6602 32.2796L57.4694 31.0003L67.7283 29.5029L87.4181 25.1727Z" fill="#431F13"/>
<path d="M87.9018 25.0458L87.753 24.5891L87.2827 24.6925L67.6106 29.0189L57.3735 30.5131L47.5871 31.7894L40.3093 32.1956L39.2085 32.2571L40.0158 33.0286L40.5466 33.5359L40.7014 33.6839L40.9135 33.6861L46.0672 33.7409L46.0916 33.7412L46.1158 33.7391L56.304 32.8935L56.3324 32.8912L56.3603 32.8857L66.0909 30.9737L66.091 30.9738L66.1003 30.9718L76.2423 28.7788L76.2423 28.7789L76.255 28.7758L87.6766 25.9941L88.1715 25.8736L88.0138 25.3897L87.9018 25.0458Z" stroke="#FAF0AC" stroke-opacity="0.1"/>
<path d="M24.6265 44.1059L24.5459 44.3532L32.7592 46.3535L40.0524 47.9305L47.0497 49.3055L54.3761 49.9135L58.0822 49.8741L58.4639 49.5093L53.2166 49.2165L46.1628 48.2965L38.7855 47.2198L24.6265 44.1059Z" fill="#431F13"/>
<path d="M24.1428 43.979L24.2917 43.5223L24.7619 43.6258L38.9032 46.7358L46.2586 47.8093L53.2897 48.7263L58.5179 49.0181L59.6187 49.0796L58.8114 49.8511L58.4297 50.2159L58.2749 50.3639L58.0627 50.3661L54.3567 50.4055L54.3323 50.4058L54.3081 50.4038L46.9817 49.7957L46.9533 49.7933L46.9254 49.7879L39.9281 48.413L39.9281 48.4131L39.9187 48.411L32.6256 46.834L32.6255 46.8342L32.6128 46.8311L24.3995 44.8307L23.9046 44.7102L24.0623 44.2263L24.1428 43.979Z" stroke="#FAF0AC" stroke-opacity="0.1"/>
<path d="M-4.82859 55.7568L-4.90918 55.5095L3.30413 53.5091L10.5973 51.9321L17.5946 50.5572L24.921 49.9491L28.6271 49.9885L29.0088 50.3533L23.7616 50.6461L16.7077 51.5661L9.33046 52.6428L-4.82859 55.7568Z" fill="#431F13"/>
<path d="M-5.31224 55.8836L-5.16342 56.3403L-4.6932 56.2369L9.44814 53.1268L16.8035 52.0533L23.8347 51.1363L29.0628 50.8445L30.1636 50.783L29.3563 50.0115L28.9746 49.6467L28.8198 49.4987L28.6076 49.4965L24.9016 49.4571L24.8772 49.4568L24.8531 49.4588L17.5266 50.0669L17.4982 50.0693L17.4704 50.0747L10.473 51.4496L10.473 51.4496L10.4636 51.4516L3.17048 53.0286L3.17044 53.0285L3.15775 53.0315L-5.05556 55.0319L-5.5505 55.1524L-5.39283 55.6363L-5.31224 55.8836Z" stroke="#FAF0AC" stroke-opacity="0.1"/>
</g>
</g>
<path fill-rule="evenodd" clip-rule="evenodd" d="M23.3337 17.6667C21.1804 17.6667 19.2332 18.2049 17.8199 19.5172C16.3932 20.842 15.667 22.8094 15.667 25.3334V34.6667C15.667 37.1907 16.3932 39.158 17.8199 40.4828C19.2332 41.7952 21.1804 42.3334 23.3337 42.3334H36.667C38.8203 42.3334 40.7675 41.7952 42.1807 40.4828C43.6075 39.158 44.3337 37.1907 44.3337 34.6667V25.3334C44.3337 22.8094 43.6075 20.842 42.1807 19.5172C40.7675 18.2049 38.8203 17.6667 36.667 17.6667H23.3337ZM39.6383 25.1498C40.0753 24.8121 40.1558 24.184 39.8181 23.747C39.4805 23.31 38.8525 23.2295 38.4154 23.5672L31.0193 29.2822C30.4191 29.746 29.5814 29.746 28.9811 29.2822L21.5851 23.5672C21.1481 23.2295 20.5201 23.31 20.1824 23.747C19.8447 24.184 19.9252 24.8121 20.3622 25.1498L27.7583 30.8648C29.0789 31.8851 30.9217 31.8851 32.2422 30.8648L39.6383 25.1498Z" fill="#431F13" fill-opacity="0.8"/>
<defs>
<filter id="filter0_i_13_843" x="8.18164" y="8.18176" width="43.6367" height="48.6364" filterUnits="userSpaceOnUse" color-interpolation-filters="sRGB">
<feFlood flood-opacity="0" result="BackgroundImageFix"/>
<feBlend mode="normal" in="SourceGraphic" in2="BackgroundImageFix" result="shape"/>
<feColorMatrix in="SourceAlpha" type="matrix" values="0 0 0 0 0 0 0 0 0 0 0 0 0 0 0 0 0 0 127 0" result="hardAlpha"/>
<feOffset dy="5"/>
<feGaussianBlur stdDeviation="2.5"/>
<feComposite in2="hardAlpha" operator="arithmetic" k2="-1" k3="1"/>
<feColorMatrix type="matrix" values="0 0 0 0 0.283333 0 0 0 0 0.12352 0 0 0 0 0.0401389 0 0 0 0.35 0"/>
<feBlend mode="normal" in2="shape" result="effect1_innerShadow_13_843"/>
</filter>
<linearGradient id="paint0_linear_13_843" x1="30" y1="0" x2="30" y2="60" gradientUnits="userSpaceOnUse">
<stop stop-color="#B1591B"/>
<stop offset="1" stop-color="#79330B"/>
</linearGradient>
<linearGradient id="paint1_linear_13_843" x1="29.9998" y1="8.18176" x2="29.9998" y2="51.8181" gradientUnits="userSpaceOnUse">
<stop stop-color="#80350B"/>
<stop offset="1" stop-color="#934210"/>
</linearGradient>
<linearGradient id="paint2_linear_13_843" x1="30.0003" y1="2.72711" x2="30.0003" y2="57.2726" gradientUnits="userSpaceOnUse">
<stop stop-color="#F38E47"/>
<stop offset="1" stop-color="#F38E47" stop-opacity="0.34"/>
</linearGradient>
<linearGradient id="paint3_linear_13_843" x1="30" y1="0" x2="30" y2="60" gradientUnits="userSpaceOnUse">
<stop stop-color="#B1591B"/>
<stop offset="1" stop-color="#79330B"/>
</linearGradient>
</defs>
</svg>
