<svg width="191" height="45" viewBox="0 0 191 45" fill="none" xmlns="http://www.w3.org/2000/svg">
<path d="M11.9097 35.92C9.26969 35.92 7.17635 35.6933 5.62969 35.24C4.08302 34.7867 2.93635 34.1467 2.18969 33.32C1.44302 32.52 0.949688 31.5733 0.709688 30.48C0.496354 29.36 0.389688 28.16 0.389688 26.88C0.389688 24.7467 0.443021 22.3067 0.549688 19.56C0.683021 16.8133 0.843021 13.8667 1.02969 10.72C1.24302 7.54666 1.46969 4.26666 1.70969 0.879999L8.98969 1.6C8.72302 3.65333 8.48302 5.76 8.26969 7.92C8.08302 10.0533 7.92302 12.1333 7.78969 14.16C7.65635 16.1867 7.54969 18.0267 7.46969 19.68C7.38969 21.3333 7.32302 22.72 7.26969 23.84C7.24302 24.9333 7.22969 25.64 7.22969 25.96C7.22969 26.8933 7.33635 27.6 7.54969 28.08C7.76302 28.5333 8.18969 28.84 8.82969 29C9.46969 29.16 10.403 29.24 11.6297 29.24C13.1764 29.24 14.923 29.1467 16.8697 28.96C18.8164 28.7467 20.7897 28.44 22.7897 28.04C24.7897 27.64 26.6164 27.16 28.2697 26.6L29.8297 33.48C28.0164 33.9333 26.0564 34.3467 23.9497 34.72C21.8697 35.0933 19.7897 35.3867 17.7097 35.6C15.6297 35.8133 13.6964 35.92 11.9097 35.92ZM44.4328 36.28C42.2995 36.28 40.4328 35.9333 38.8328 35.24C37.2595 34.5467 35.9528 33.6 34.9128 32.4C33.8728 31.1733 33.0995 29.7733 32.5928 28.2C32.0861 26.6267 31.8328 24.9733 31.8328 23.24C31.8328 21.48 32.1395 19.8533 32.7528 18.36C33.3928 16.84 34.2595 15.52 35.3528 14.4C36.4728 13.28 37.7795 12.4133 39.2728 11.8C40.7661 11.16 42.3928 10.84 44.1528 10.84C45.9928 10.84 47.6995 11.16 49.2728 11.8C50.8461 12.44 52.2195 13.3333 53.3928 14.48C54.5661 15.6267 55.4728 16.9733 56.1128 18.52C56.7795 20.0667 57.1128 21.7467 57.1128 23.56C57.1128 27.5867 56.0061 30.72 53.7928 32.96C51.5795 35.1733 48.4595 36.28 44.4328 36.28ZM44.3928 29.8C46.3395 29.8 47.8195 29.2533 48.8328 28.16C49.8728 27.0667 50.3928 25.4933 50.3928 23.44C50.3928 21.6 49.8328 20.12 48.7128 19C47.5928 17.88 46.1261 17.32 44.3128 17.32C43.2195 17.32 42.2195 17.6133 41.3128 18.2C40.4061 18.76 39.6728 19.52 39.1128 20.48C38.5795 21.4133 38.3128 22.4533 38.3128 23.6C38.3128 24.6133 38.5128 25.6 38.9128 26.56C39.3395 27.52 40.0061 28.3067 40.9128 28.92C41.8195 29.5067 42.9795 29.8 44.3928 29.8ZM69.5281 33.2C67.8481 33.2 66.4215 32.9467 65.2481 32.44C64.0748 31.9333 63.1015 31.28 62.3281 30.48C61.5815 29.6533 60.9948 28.7733 60.5681 27.84C60.1415 26.88 59.8481 25.96 59.6881 25.08C59.5281 24.1733 59.4481 23.3867 59.4481 22.72C59.4481 21.44 59.6215 20.12 59.9681 18.76C60.3415 17.4 60.9548 16.1333 61.8081 14.96C62.6881 13.7867 63.8748 12.84 65.3681 12.12C66.8881 11.4 68.7948 11.04 71.0881 11.04C71.7815 11.04 72.4215 11.0933 73.0081 11.2C73.5948 11.3067 74.1415 11.4533 74.6481 11.64V10.32H81.5681C81.5415 11.92 81.5148 13.7333 81.4881 15.76C81.4615 17.76 81.4481 20.0267 81.4481 22.56C81.4481 23.8667 81.4481 25.24 81.4481 26.68C81.4748 28.0933 81.4881 29.64 81.4881 31.32C81.4881 33.6133 81.1815 35.4933 80.5681 36.96C79.9548 38.4267 79.1681 39.56 78.2081 40.36C77.2481 41.16 76.2481 41.7333 75.2081 42.08C74.1948 42.4533 73.2481 42.6667 72.3681 42.72C71.5148 42.8 70.8748 42.84 70.4481 42.84C69.4081 42.84 68.2615 42.72 67.0081 42.48C65.7548 42.2667 64.5015 41.9067 63.2481 41.4C61.9948 40.92 60.8481 40.2933 59.8081 39.52L62.7281 33.44C63.3948 34 64.0615 34.5067 64.7281 34.96C65.3948 35.44 66.1681 35.8133 67.0481 36.08C67.9281 36.3733 69.0215 36.52 70.3281 36.52C71.6615 36.52 72.6481 36.28 73.2881 35.8C73.9281 35.3467 74.3415 34.7333 74.5281 33.96C74.7415 33.2133 74.8615 32.3867 74.8881 31.48C73.9815 32.1467 73.0615 32.6 72.1281 32.84C71.1948 33.08 70.3281 33.2 69.5281 33.2ZM65.4481 22.16C65.4481 23.68 65.8615 24.88 66.6881 25.76C67.5415 26.64 68.7015 27.08 70.1681 27.08C72.2215 27.08 73.7548 25.8933 74.7681 23.52C74.7681 22.6667 74.7548 21.8 74.7281 20.92C74.7281 20.0133 74.7148 19.1333 74.6881 18.28C73.6215 17.5867 72.3948 17.24 71.0081 17.24C69.3015 17.24 67.9415 17.6933 66.9281 18.6C65.9415 19.48 65.4481 20.6667 65.4481 22.16ZM96.8938 36.28C94.7604 36.28 92.8938 35.9333 91.2938 35.24C89.7204 34.5467 88.4138 33.6 87.3738 32.4C86.3338 31.1733 85.5604 29.7733 85.0538 28.2C84.5471 26.6267 84.2938 24.9733 84.2938 23.24C84.2938 21.48 84.6004 19.8533 85.2138 18.36C85.8538 16.84 86.7204 15.52 87.8138 14.4C88.9338 13.28 90.2404 12.4133 91.7338 11.8C93.2271 11.16 94.8538 10.84 96.6138 10.84C98.4538 10.84 100.16 11.16 101.734 11.8C103.307 12.44 104.68 13.3333 105.854 14.48C107.027 15.6267 107.934 16.9733 108.574 18.52C109.24 20.0667 109.574 21.7467 109.574 23.56C109.574 27.5867 108.467 30.72 106.254 32.96C104.04 35.1733 100.92 36.28 96.8938 36.28ZM96.8538 29.8C98.8004 29.8 100.28 29.2533 101.294 28.16C102.334 27.0667 102.854 25.4933 102.854 23.44C102.854 21.6 102.294 20.12 101.174 19C100.054 17.88 98.5871 17.32 96.7738 17.32C95.6804 17.32 94.6804 17.6133 93.7738 18.2C92.8671 18.76 92.1338 19.52 91.5738 20.48C91.0404 21.4133 90.7738 22.4533 90.7738 23.6C90.7738 24.6133 90.9738 25.6 91.3738 26.56C91.8004 27.52 92.4671 28.3067 93.3737 28.92C94.2804 29.5067 95.4404 29.8 96.8538 29.8ZM124.709 36.16C123.109 36.16 121.842 35.8133 120.909 35.12C119.976 34.4533 119.296 33.52 118.869 32.32C118.442 31.12 118.162 29.7467 118.029 28.2C117.922 26.6533 117.869 25.0267 117.869 23.32C117.869 21.56 117.936 19.7333 118.069 17.84C116.282 18.08 114.562 18.3867 112.909 18.76L111.669 12.48C113.882 11.8933 116.242 11.4667 118.749 11.2C118.936 9.84 119.136 8.41333 119.349 6.92C119.562 5.4 119.802 3.8 120.069 2.12L126.949 2.72C126.629 4.10667 126.349 5.49333 126.109 6.88C125.869 8.24 125.656 9.56 125.469 10.84C126.962 10.84 128.362 10.88 129.669 10.96C131.002 11.0133 132.229 11.12 133.349 11.28L132.549 17.56C131.616 17.4533 130.642 17.3867 129.629 17.36C128.642 17.3067 127.642 17.28 126.629 17.28C126.016 17.28 125.402 17.2933 124.789 17.32C124.629 19.2667 124.522 20.9333 124.469 22.32C124.442 23.7067 124.429 24.6933 124.429 25.28C124.429 26.7467 124.509 27.8 124.669 28.44C124.856 29.08 125.149 29.4 125.549 29.4C126.002 29.4 126.509 29.2533 127.069 28.96C127.629 28.64 128.176 28.2133 128.709 27.68C129.269 27.1467 129.736 26.5733 130.109 25.96L133.189 32.4C130.549 34.9067 127.722 36.16 124.709 36.16ZM142.586 43.84L136.586 40.64C138.079 38.9867 139.532 37.28 140.946 35.52C142.359 33.7867 143.706 32 144.986 30.16C143.732 28.48 142.479 26.68 141.226 24.76C139.972 22.8133 138.812 20.9067 137.746 19.04C136.679 17.1733 135.812 15.5067 135.146 14.04L141.546 11.24C142.026 12.52 142.639 13.9067 143.386 15.4C144.159 16.8933 144.999 18.4133 145.906 19.96C146.839 21.5067 147.799 22.9867 148.786 24.4C151.666 19.7333 154.039 15.1333 155.906 10.6L162.546 13.24C161.346 15.5333 159.986 18 158.466 20.64C156.972 23.2533 155.359 25.92 153.626 28.64C151.919 31.3333 150.132 33.9733 148.266 36.56C146.399 39.1733 144.506 41.6 142.586 43.84ZM165.607 44.36C165.421 42.2267 165.287 40.08 165.207 37.92C165.127 35.76 165.087 33.2667 165.087 30.44C165.087 27 165.141 23.5733 165.247 20.16C165.354 16.7467 165.514 13.6267 165.727 10.8L172.607 11C172.527 11.6133 172.461 12.2667 172.407 12.96C173.367 12.32 174.394 11.8533 175.487 11.56C176.607 11.2667 177.741 11.12 178.887 11.12C180.354 11.12 181.781 11.36 183.167 11.84C184.554 12.2933 185.807 13.0267 186.927 14.04C188.047 15.0267 188.927 16.3067 189.567 17.88C190.234 19.4533 190.567 21.3467 190.567 23.56C190.567 25.7467 190.234 27.6533 189.567 29.28C188.901 30.9067 188.007 32.24 186.887 33.28C185.767 34.3467 184.514 35.1333 183.127 35.64C181.741 36.1733 180.314 36.44 178.847 36.44C176.154 36.44 173.781 35.64 171.727 34.04C171.781 35.7467 171.861 37.3867 171.967 38.96C172.074 40.56 172.207 42.1867 172.367 43.84L165.607 44.36ZM177.807 17.76C175.167 17.76 173.181 19.0533 171.847 21.64C171.767 23.24 171.714 24.8667 171.687 26.52C172.327 27.3733 173.154 28.12 174.167 28.76C175.181 29.3733 176.474 29.68 178.047 29.68C181.807 29.68 183.687 27.5333 183.687 23.24C183.687 22.0933 183.474 21.16 183.047 20.44C182.621 19.72 182.087 19.1733 181.447 18.8C180.807 18.4 180.154 18.1333 179.487 18C178.821 17.84 178.261 17.76 177.807 17.76Z" fill="#FFD8BC"/>
</svg>
