<svg width="42" height="42" viewBox="0 0 42 42" fill="none" xmlns="http://www.w3.org/2000/svg">
<path d="M3.54375 13.256C4.06875 13.1248 4.59375 13.256 4.9875 13.6498L9.1875 18.8998C11.4187 16.2748 16.9313 10.4998 23.625 10.4998C23.8875 10.4998 24.0187 10.4998 24.2812 10.4998C22.4438 13.6498 21.525 17.1935 21.525 20.9998C21.525 24.6748 22.4438 28.3498 24.2812 31.4998C24.0187 31.4998 23.8875 31.4998 23.625 31.4998C16.9313 31.4998 11.4187 25.856 9.1875 23.0998L4.9875 28.3498C4.725 28.6123 4.33125 28.8748 3.9375 28.8748C3.80625 28.8748 3.675 28.8748 3.54375 28.7435C3.01875 28.6123 2.625 28.0873 2.625 27.5623V14.4373C2.625 13.9123 3.01875 13.3873 3.54375 13.256Z" fill="#431F13" fill-opacity="0.8"/>
<path d="M27.0377 11.0248C33.8627 12.9935 38.8502 19.9498 39.1127 20.2123C39.3752 20.606 39.3752 21.2623 39.1127 21.7873C38.8502 22.181 33.8627 29.1373 27.0377 30.9748C25.0689 27.956 24.1502 24.5435 24.1502 20.9998C24.1502 17.456 25.2002 13.9123 27.0377 11.0248ZM28.8752 20.9998C28.8752 21.7873 29.4002 22.3123 30.1877 22.3123C30.9752 22.3123 31.5002 21.7873 31.5002 20.9998V18.3748C31.5002 17.5873 30.9752 17.0623 30.1877 17.0623C29.4002 17.0623 28.8752 17.5873 28.8752 18.3748V20.9998Z" fill="#431F13" fill-opacity="0.8"/>
</svg>
