<svg width="43" height="42" viewBox="0 0 43 42" fill="none" xmlns="http://www.w3.org/2000/svg">
<path d="M35.2949 24.0623C35.2949 23.3374 34.7073 22.7498 33.9824 22.7498H28.7324C28.0076 22.7498 27.4199 23.3374 27.4199 24.0623V35.8748H24.7949V7.43726C24.7949 6.16271 24.7921 5.33885 24.7106 4.73181C24.6339 4.16252 24.5104 3.98409 24.4104 3.88418C24.3105 3.78427 24.1322 3.6607 23.5629 3.58416C22.9558 3.50254 22.1319 3.49976 20.8574 3.49976C19.5829 3.49976 18.759 3.50254 18.1519 3.58416C17.5827 3.6607 17.4043 3.78427 17.3043 3.88418C17.2044 3.98409 17.0809 4.16252 17.0043 4.73181C16.9227 5.33885 16.9199 6.16271 16.9199 7.43726V35.8748H14.2949V15.3123C14.2949 14.5874 13.7073 13.9998 12.9824 13.9998H7.73242C7.00755 13.9998 6.41992 14.5874 6.41992 15.3123V35.8748H3.79492H3.35742C2.63255 35.8748 2.04492 36.4624 2.04492 37.1873C2.04492 37.9121 2.63255 38.4998 3.35742 38.4998H38.3574C39.0823 38.4998 39.6699 37.9121 39.6699 37.1873C39.6699 36.4624 39.0823 35.8748 38.3574 35.8748H37.9199H35.2949V24.0623Z" fill="#431F13" fill-opacity="0.8"/>
</svg>
