<svg width="42" height="42" viewBox="0 0 42 42" fill="none" xmlns="http://www.w3.org/2000/svg">
<path d="M20.5625 20.9998C20.5625 18.8252 22.3255 17.0623 24.5 17.0623C26.6746 17.0623 28.4375 18.8252 28.4375 20.9998C28.4375 23.1743 26.6746 24.9373 24.5 24.9373C22.3255 24.9373 20.5625 23.1743 20.5625 20.9998Z" fill="#431F13" fill-opacity="0.8"/>
<path fill-rule="evenodd" clip-rule="evenodd" d="M6.06282 6.06258C3.5 8.62538 3.5 12.7502 3.5 20.9998C3.5 29.2493 3.5 33.3742 6.06282 35.9369C8.62563 38.4998 12.7504 38.4998 21 38.4998C29.2495 38.4998 33.3744 38.4998 35.9371 35.9369C38.5 33.3742 38.5 29.2493 38.5 20.9998C38.5 12.7502 38.5 8.62538 35.9371 6.06258C33.3744 3.49976 29.2495 3.49976 21 3.49976C12.7504 3.49976 8.62563 3.49976 6.06282 6.06258ZM11.8125 12.2498C11.8125 11.5249 11.2249 10.9373 10.5 10.9373C9.77513 10.9373 9.1875 11.5249 9.1875 12.2498V29.7498C9.1875 30.4746 9.77513 31.0623 10.5 31.0623C11.2249 31.0623 11.8125 30.4746 11.8125 29.7498V12.2498ZM18.428 13.0717C17.9154 12.5591 17.0845 12.5591 16.5719 13.0717C16.0594 13.5842 16.0594 14.4153 16.5719 14.9278L19.0248 17.3807C18.3377 18.4182 17.9375 19.6622 17.9375 20.9998C17.9375 22.3373 18.3377 23.5814 19.0248 24.6188L16.5719 27.0717C16.0594 27.5843 16.0594 28.4152 16.5719 28.9278C17.0845 29.4404 17.9154 29.4404 18.428 28.9278L20.881 26.475C21.9184 27.162 23.1625 27.5623 24.5 27.5623C25.8375 27.5623 27.0816 27.162 28.119 26.475L30.572 28.9278C31.0845 29.4404 31.9154 29.4404 32.428 28.9278C32.9406 28.4152 32.9406 27.5843 32.428 27.0717L29.9752 24.6188C30.6623 23.5814 31.0625 22.3373 31.0625 20.9998C31.0625 19.6622 30.6623 18.4182 29.9752 17.3807L32.428 14.9278C32.9406 14.4153 32.9406 13.5842 32.428 13.0717C31.9154 12.5591 31.0845 12.5591 30.572 13.0717L28.119 15.5245C27.0816 14.8374 25.8375 14.4373 24.5 14.4373C23.1625 14.4373 21.9184 14.8374 20.881 15.5245L18.428 13.0717Z" fill="#431F13" fill-opacity="0.8"/>
</svg>
