<svg width="42" height="42" viewBox="0 0 42 42" fill="none" xmlns="http://www.w3.org/2000/svg">
<path d="M13.5625 4.37476C13.5625 3.64989 12.9748 3.06226 12.25 3.06226C11.5251 3.06226 10.9375 3.64989 10.9375 4.37476V7.13846C8.41864 7.34015 6.76506 7.83515 5.55021 9.05C4.33536 10.2649 3.84036 11.9184 3.63867 14.4373H38.3612C38.1596 11.9184 37.6645 10.2649 36.4497 9.05C35.2348 7.83515 33.5812 7.34015 31.0625 7.13846V4.37476C31.0625 3.64989 30.4748 3.06226 29.75 3.06226C29.0251 3.06226 28.4375 3.64989 28.4375 4.37476V7.02233C27.2732 6.99976 25.9682 6.99976 24.5 6.99976H17.5C16.0317 6.99976 14.7267 6.99976 13.5625 7.02233V4.37476Z" fill="#431F13" fill-opacity="0.8"/>
<path fill-rule="evenodd" clip-rule="evenodd" d="M3.5 20.9998C3.5 19.5315 3.5 18.2265 3.52258 17.0623H38.4774C38.5 18.2265 38.5 19.5315 38.5 20.9998V24.4998C38.5 31.0994 38.5 34.3993 36.4497 36.4495C34.3996 38.4998 31.0996 38.4998 24.5 38.4998H17.5C10.9003 38.4998 7.60051 38.4998 5.55025 36.4495C3.5 34.3993 3.5 31.0994 3.5 24.4998V20.9998ZM29.75 24.4998C30.7165 24.4998 31.5 23.7163 31.5 22.7498C31.5 21.7832 30.7165 20.9998 29.75 20.9998C28.7835 20.9998 28 21.7832 28 22.7498C28 23.7163 28.7835 24.4998 29.75 24.4998ZM29.75 31.4998C30.7165 31.4998 31.5 30.7163 31.5 29.7498C31.5 28.7832 30.7165 27.9998 29.75 27.9998C28.7835 27.9998 28 28.7832 28 29.7498C28 30.7163 28.7835 31.4998 29.75 31.4998ZM22.75 22.7498C22.75 23.7163 21.9665 24.4998 21 24.4998C20.0335 24.4998 19.25 23.7163 19.25 22.7498C19.25 21.7832 20.0335 20.9998 21 20.9998C21.9665 20.9998 22.75 21.7832 22.75 22.7498ZM22.75 29.7498C22.75 30.7163 21.9665 31.4998 21 31.4998C20.0335 31.4998 19.25 30.7163 19.25 29.7498C19.25 28.7832 20.0335 27.9998 21 27.9998C21.9665 27.9998 22.75 28.7832 22.75 29.7498ZM12.25 24.4998C13.2165 24.4998 14 23.7163 14 22.7498C14 21.7832 13.2165 20.9998 12.25 20.9998C11.2835 20.9998 10.5 21.7832 10.5 22.7498C10.5 23.7163 11.2835 24.4998 12.25 24.4998ZM12.25 31.4998C13.2165 31.4998 14 30.7163 14 29.7498C14 28.7832 13.2165 27.9998 12.25 27.9998C11.2835 27.9998 10.5 28.7832 10.5 29.7498C10.5 30.7163 11.2835 31.4998 12.25 31.4998Z" fill="#431F13" fill-opacity="0.8"/>
</svg>
