<svg width="292" height="122" viewBox="0 0 292 122" fill="none" xmlns="http://www.w3.org/2000/svg">
<path d="M7.31928 34.5082C12.8709 17.8535 15.6467 9.52613 22.255 4.76306C28.8634 0 37.6413 0 55.1969 0H236.803C254.359 0 263.137 0 269.745 4.76306C276.353 9.52613 279.129 17.8535 284.681 34.5082L288.045 44.6017C290.682 52.5113 292 56.4661 292 60.5609C292 64.6558 290.682 68.6106 288.045 76.5202L284.681 86.6137C279.129 103.268 276.353 111.596 269.745 116.359C263.137 121.122 254.359 121.122 236.803 121.122H55.1969C37.6413 121.122 28.8634 121.122 22.255 116.359C15.6467 111.596 12.8709 103.268 7.31928 86.6136L3.95478 76.5201C1.31826 68.6106 0 64.6558 0 60.5609C0 56.4661 1.31826 52.5113 3.95478 44.6017L7.31928 34.5082Z" fill="url(#paint0_linear_41_108)"/>
<path d="M16.6404 33.4097C21.65 20.1344 24.1549 13.4968 29.3782 9.74835C34.6016 5.99988 41.346 5.99988 54.835 5.99988H237.727C251.216 5.99988 257.96 5.99988 263.183 9.74835C268.407 13.4968 270.912 20.1344 275.921 33.4097L280.035 44.3107C283.053 52.3076 284.562 56.3061 284.562 60.5047C284.562 64.7034 283.053 68.7019 280.035 76.6988L275.921 87.5998C270.912 100.875 268.407 107.513 263.183 111.261C257.96 115.01 251.216 115.01 237.727 115.01H54.835C41.346 115.01 34.6016 115.01 29.3782 111.261C24.1549 107.513 21.65 100.875 16.6404 87.5998L12.5267 76.6988C9.50889 68.7019 8 64.7034 8 60.5047C8 56.3061 9.5089 52.3076 12.5267 44.3107L16.6404 33.4097Z" fill="#B1591B"/>
<g filter="url(#filter0_i_41_108)">
<path d="M25.3518 38.8415C30.1941 27.7788 32.6153 22.2474 37.6642 19.1237C42.7131 16 49.2323 16 62.2707 16H229.113C242.152 16 248.671 16 253.72 19.1237C258.769 22.2474 261.19 27.7788 266.032 38.8415L270.008 47.9257C272.925 54.5898 274.384 57.9218 274.384 61.4207C274.384 64.9196 272.925 68.2517 270.008 74.9158L266.032 83.9999C261.19 95.0626 258.769 100.594 253.72 103.718C248.671 106.841 242.152 106.841 229.113 106.841H62.2707C49.2323 106.841 42.7131 106.841 37.6642 103.718C32.6153 100.594 30.1941 95.0626 25.3518 83.9999L21.3755 74.9158C18.4585 68.2517 17 64.9196 17 61.4207C17 57.9218 18.4585 54.5898 21.3755 47.9256L25.3518 38.8415Z" fill="url(#paint1_linear_41_108)"/>
</g>
<path opacity="0.95" d="M229.113 15H62.2707H62.2137C55.7427 15 50.8121 15 46.8715 15.3955C42.8994 15.7941 39.8405 16.6014 37.1381 18.2733C34.4294 19.9492 32.4594 22.2582 30.5668 25.5015C28.6959 28.7077 26.8609 32.9 24.4616 38.3813L24.4357 38.4405L20.4594 47.5247L20.3493 47.7761C17.5375 54.1994 16 57.7116 16 61.4207C16 65.1298 17.5375 68.642 20.3493 75.0653L20.4594 75.3167L24.4357 84.4009L24.4616 84.4601C26.8609 89.9414 28.6959 94.1337 30.5668 97.3399C32.4594 100.583 34.4294 102.892 37.1381 104.568C39.8405 106.24 42.8994 107.047 46.8715 107.446C50.8121 107.841 55.7427 107.841 62.2137 107.841H62.2707H229.113H229.17C235.641 107.841 240.572 107.841 244.512 107.446C248.485 107.047 251.544 106.24 254.246 104.568C256.955 102.892 258.925 100.583 260.817 97.3399C262.688 94.1337 264.523 89.9413 266.922 84.4599L266.948 84.4009L270.925 75.3168L271.035 75.0652C273.846 68.642 275.384 65.1298 275.384 61.4207C275.384 57.7116 273.846 54.1994 271.035 47.7762L270.925 47.5247L266.948 38.4405L266.922 38.3815C264.523 32.9001 262.688 28.7077 260.817 25.5015C258.925 22.2582 256.955 19.9492 254.246 18.2733C251.544 16.6014 248.485 15.7941 244.512 15.3955C240.572 15 235.641 15 229.17 15H229.113Z" stroke="#F38E47" stroke-opacity="0.3" stroke-width="2"/>
<path opacity="0.95" d="M54.835 6.99988H237.727C244.494 6.99988 249.485 7.00144 253.439 7.46173C257.365 7.91876 260.174 8.81964 262.6 10.5608C265.031 12.3051 266.873 14.7457 268.739 18.4559C270.615 22.1852 272.473 27.1052 274.986 33.7628L279.099 44.6637C282.143 52.7291 283.562 56.5306 283.562 60.5047C283.562 64.4789 282.143 68.2804 279.099 76.3457L274.986 87.2467C272.473 93.9043 270.615 98.8243 268.739 102.554C266.873 106.264 265.031 108.704 262.6 110.449C260.174 112.19 257.365 113.091 253.439 113.548C249.485 114.008 244.494 114.01 237.727 114.01H54.835C48.0672 114.01 43.0767 114.008 39.1226 113.548C35.1965 113.091 32.3875 112.19 29.9613 110.449C27.5306 108.704 25.689 106.264 23.8225 102.554C21.9464 98.8243 20.0883 93.9043 17.576 87.2467L13.4623 76.3457C10.4187 68.2804 9 64.4789 9 60.5047C9 56.5306 10.4187 52.7291 13.4623 44.6637L17.576 33.7627C20.0883 27.1052 21.9464 22.1852 23.8225 18.4559C25.689 14.7457 27.5306 12.3051 29.9613 10.5608C32.3875 8.81964 35.1965 7.91876 39.1226 7.46173C43.0767 7.00144 48.0672 6.99988 54.835 6.99988Z" stroke="url(#paint2_linear_41_108)" stroke-width="2"/>
<mask id="mask0_41_108" style="mask-type:alpha" maskUnits="userSpaceOnUse" x="0" y="0" width="292" height="122">
<path d="M7.31928 34.9472C12.8709 18.2925 15.6467 9.96509 22.255 5.20203C28.8634 0.438965 37.6413 0.438965 55.1969 0.438965H236.803C254.359 0.438965 263.137 0.438965 269.745 5.20203C276.353 9.96509 279.129 18.2925 284.681 34.9472L288.045 45.0407C290.682 52.9503 292 56.905 292 60.9999C292 65.0948 290.682 69.0496 288.045 76.9591L284.681 87.0526C279.129 103.707 276.353 112.035 269.745 116.798C263.137 121.561 254.359 121.561 236.803 121.561H55.1969C37.6413 121.561 28.8634 121.561 22.255 116.798C15.6467 112.035 12.8709 103.707 7.31928 87.0526L3.95478 76.9591C1.31826 69.0496 0 65.0948 0 60.9999C0 56.905 1.31826 52.9503 3.95478 45.0407L7.31928 34.9472Z" fill="url(#paint3_linear_41_108)"/>
</mask>
<g mask="url(#mask0_41_108)">
<g opacity="0.35">
<path d="M173.717 19.6682L173.712 20.0021L153.692 18.6867L134.498 17.1637L65.9024 11.2199L33.9729 6.94946L18.4562 3.52749L10.0857 1.25697L9.72754 0.438965L20.1902 3.05571L38.215 6.04528L105.333 13.582L139.313 16.7604L156.106 18.0639L173.717 19.6682Z" fill="#431F13"/>
<path d="M174.217 19.6746L174.224 19.2122L173.764 19.1703L156.153 17.566L156.146 17.5655L139.361 16.2626L139.353 16.2619L105.391 13.0852L105.381 13.0842L38.2854 5.54989L20.2934 2.56576L9.85028 -0.0460929L8.86031 -0.293688L9.26939 0.640663L9.62753 1.45867L9.72316 1.67709L9.95338 1.73954L18.3239 4.01006L18.3354 4.01318L18.3471 4.01575L33.8638 7.43772L33.8843 7.44224L33.9051 7.44503L65.8346 11.7155L65.8461 11.717L65.8577 11.718L134.454 17.6618L134.457 17.6621L153.651 19.1851L153.657 19.1856L173.677 20.501L174.203 20.5356L174.212 20.0085L174.217 19.6746Z" stroke="#FAF0AC" stroke-opacity="0.1"/>
<path d="M201.381 42.5044L201.436 42.8347L181.443 44.4487L162.229 45.7376L93.4661 49.8503L61.1873 50.2807L45.2574 49.1611L36.5872 48.1381L36.0859 47.3831L46.8831 48.4433L65.2098 48.7715L132.802 46.4457L166.907 44.6394L183.713 43.483L201.381 42.5044Z" fill="#431F13"/>
<path d="M201.876 42.4379L201.8 41.9819L201.338 42.0076L183.67 42.9861L183.663 42.9866L166.865 44.1425L166.857 44.143L132.769 45.9483L132.76 45.9487L65.1903 48.2737L46.8973 47.9461L36.1204 46.8878L35.0978 46.7874L35.6688 47.6476L36.17 48.4026L36.3037 48.6041L36.5428 48.6323L45.213 49.6552L45.225 49.6566L45.2371 49.6575L61.167 50.7771L61.1882 50.7786L61.2094 50.7783L93.4882 50.3479L93.4999 50.3478L93.5116 50.3471L162.274 46.2344L162.278 46.2342L181.492 44.9453L181.499 44.9447L201.492 43.3308L202.018 43.2883L201.932 42.7682L201.876 42.4379Z" stroke="#FAF0AC" stroke-opacity="0.1"/>
<path d="M92.7408 75.1479L92.8396 75.8926L68.1872 78.0928L46.4034 79.4745L25.5772 80.4035L4.21738 78.989L-6.40143 77.2773L-7.30176 76.0653L7.91983 77.4879L28.6643 77.8894L50.4214 77.9803L92.7408 75.1479Z" fill="#431F13"/>
<path d="M93.238 75.0948L93.1747 74.6184L92.6948 74.6505L50.3932 77.4818L28.6616 77.391L28.654 77.3909L7.93583 76.9899L-7.26712 75.569L-8.36245 75.4666L-7.70259 76.3549L-6.80226 77.5669L-6.67669 77.7359L-6.4697 77.7693L4.14912 79.481L4.17267 79.4848L4.19643 79.4864L25.5563 80.9008L25.5842 80.9027L25.6121 80.9015L46.4383 79.9725L46.4383 79.9726L46.4477 79.972L68.2315 78.5902L68.2315 78.5904L68.2443 78.5893L92.8967 76.3891L93.4037 76.3439L93.3368 75.8395L93.238 75.0948Z" stroke="#FAF0AC" stroke-opacity="0.1"/>
<path d="M-51.5979 10.886L-51.8325 11.6059L-27.9239 17.4289L-6.69381 22.0196L13.6752 26.0219L35.0021 27.7919L45.7902 27.6773L46.9014 26.6154L31.6269 25.7629L11.0935 23.0849L-10.3814 19.9505L-51.5979 10.886Z" fill="#431F13"/>
<path d="M-52.0815 10.7592L-51.9327 10.3025L-51.4625 10.4059L-10.2638 19.4665L11.1893 22.5977L31.7 25.2727L46.9554 26.1241L48.0562 26.1856L47.2489 26.9571L46.1377 28.019L45.9829 28.167L45.7708 28.1693L34.9826 28.2839L34.9583 28.2842L34.9341 28.2822L13.6072 26.5121L13.5788 26.5097L13.551 26.5043L-6.81809 22.502L-6.81811 22.5021L-6.82746 22.5L-28.0575 17.9094L-28.0575 17.9095L-28.0702 17.9064L-51.9788 12.0835L-52.4738 11.9629L-52.3161 11.4791L-52.0815 10.7592Z" stroke="#FAF0AC" stroke-opacity="0.1"/>
<path d="M198.526 50.8487L198.76 51.5686L174.852 57.3915L153.622 61.9822L133.253 65.9845L111.926 67.7546L101.137 67.6399L100.026 66.578L115.301 65.7255L135.834 63.0475L157.309 59.9132L198.526 50.8487Z" fill="#431F13"/>
<path d="M199.009 50.7219L198.86 50.2652L198.39 50.3686L157.191 59.4292L135.738 62.5604L115.228 65.2353L99.9723 66.0868L98.8715 66.1482L99.6789 66.9198L100.79 67.9817L100.945 68.1296L101.157 68.1319L111.945 68.2466L111.969 68.2468L111.994 68.2448L133.32 66.4747L133.349 66.4724L133.377 66.4669L153.746 62.4646L153.746 62.4647L153.755 62.4627L174.985 57.872L174.985 57.8722L174.998 57.8691L198.907 52.0461L199.402 51.9256L199.244 51.4417L199.009 50.7219Z" stroke="#FAF0AC" stroke-opacity="0.1"/>
<path d="M67.0827 90.4811L66.914 90.9988L84.1069 95.1861L99.3735 98.4873L114.021 101.365L129.357 102.638L137.115 102.556L137.914 101.792L126.93 101.179L112.164 99.2533L96.7217 96.9994L67.0827 90.4811Z" fill="#431F13"/>
<path d="M66.5991 90.3543L66.7479 89.8976L67.2181 90.001L96.8394 96.5154L112.26 98.7662L127.003 100.689L137.968 101.301L139.069 101.362L138.262 102.134L137.463 102.898L137.308 103.045L137.096 103.048L129.338 103.13L129.313 103.13L129.289 103.128L113.953 101.856L113.925 101.853L113.897 101.848L99.2492 98.9697L99.2492 98.9698L99.2398 98.9677L83.9732 95.6665L83.9732 95.6667L83.9605 95.6636L66.7677 91.4763L66.2727 91.3558L66.4304 90.8719L66.5991 90.3543Z" stroke="#FAF0AC" stroke-opacity="0.1"/>
<path d="M5.42649 114.87L5.2578 114.352L22.4506 110.165L37.7172 106.864L52.3647 103.986L67.701 102.713L75.4588 102.795L76.2578 103.559L65.2739 104.172L50.5082 106.098L35.0654 108.352L5.42649 114.87Z" fill="#431F13"/>
<path d="M4.94285 114.997L5.09167 115.453L5.56188 115.35L35.1831 108.836L50.604 106.585L65.347 104.662L76.3118 104.05L77.4126 103.989L76.6053 103.217L75.8063 102.453L75.6515 102.305L75.4393 102.303L67.6815 102.221L67.6572 102.22L67.633 102.223L52.2967 103.495L52.2683 103.498L52.2405 103.503L37.593 106.381L37.5929 106.381L37.5836 106.383L22.317 109.684L22.3169 109.684L22.3042 109.687L5.11141 113.875L4.61648 113.995L4.77415 114.479L4.94285 114.997Z" stroke="#FAF0AC" stroke-opacity="0.1"/>
</g>
<g opacity="0.35">
<path d="M184.107 118.13L184.054 117.8L203.994 115.581L223.156 113.712L291.731 107.525L323.914 106.125L339.791 106.771L348.43 107.537L348.926 108.279L338.166 107.539L319.897 107.76L252.497 112.12L218.487 114.954L201.726 116.618L184.107 118.13Z" fill="#431F13"/>
<path d="M183.614 118.211L183.688 118.668L184.148 118.628L201.767 117.117L201.774 117.116L218.527 115.453L218.535 115.452L252.528 112.619L252.537 112.618L319.914 108.26L338.151 108.04L348.89 108.778L349.908 108.848L349.341 108L348.845 107.258L348.713 107.06L348.475 107.039L339.836 106.272L339.824 106.271L339.812 106.271L323.936 105.625L323.915 105.624L323.894 105.625L291.711 107.025L291.699 107.025L291.687 107.027L223.113 113.214L223.109 113.214L203.947 115.084L203.94 115.084L184 117.303L183.476 117.361L183.56 117.882L183.614 118.211Z" stroke="#FAF0AC" stroke-opacity="0.1"/>
<path d="M152.864 100.503L152.752 100.188L172.151 95.0901L190.841 90.4489L257.815 74.3318L289.517 68.2429L305.396 66.5494L314.111 66.0348L314.737 66.6902L303.922 67.5414L285.822 70.4347L219.687 84.5873L186.428 92.3512L170.086 96.4392L152.864 100.503Z" fill="#431F13"/>
<path d="M152.388 100.656L152.543 101.091L152.994 100.985L170.216 96.9209L170.222 96.9192L186.557 92.833L186.565 92.8312L219.806 85.0712L219.815 85.0692L285.928 70.9214L303.995 68.0333L314.79 67.1838L315.815 67.1031L315.102 66.3566L314.476 65.7012L314.309 65.5264L314.068 65.5405L305.353 66.0552L305.341 66.0559L305.329 66.0572L289.45 67.7507L289.429 67.7529L289.408 67.7569L257.706 73.8458L257.694 73.848L257.683 73.8507L190.709 89.9679L190.706 89.9687L172.016 94.6099L172.009 94.6116L152.61 99.7094L152.099 99.8437L152.276 100.34L152.388 100.656Z" stroke="#FAF0AC" stroke-opacity="0.1"/>
<path d="M254.089 49.2998L253.861 48.584L277.745 42.0913L298.948 36.9079L319.288 32.3382L340.565 29.9819L351.319 29.8034L352.418 30.8385L337.183 32.1095L316.69 35.355L295.255 39.084L254.089 49.2998Z" fill="#431F13"/>
<path d="M253.609 49.4393L253.755 49.8973L254.222 49.7814L295.37 39.5699L316.78 35.8452L316.788 35.8439L337.255 32.6026L352.471 31.3332L353.567 31.2417L352.762 30.483L351.663 29.4479L351.509 29.3035L351.3 29.307L340.545 29.4855L340.521 29.4859L340.498 29.4885L319.221 31.8448L319.193 31.8479L319.166 31.854L298.826 36.4237L298.826 36.4236L298.817 36.4259L277.614 41.6093L277.614 41.6092L277.602 41.6125L253.718 48.1052L253.227 48.2387L253.381 48.7235L253.609 49.4393Z" stroke="#FAF0AC" stroke-opacity="0.1"/>
<path d="M154.21 91.7876L153.853 91.12L176.368 81.1913L196.463 72.9459L215.814 65.4308L236.499 59.9452L247.14 58.1647L248.42 59.0151L233.532 62.5352L213.787 68.7753L193.196 75.63L154.21 91.7876Z" fill="#431F13"/>
<path d="M153.756 91.9973L153.983 92.4208L154.428 92.2364L193.397 76.0858L213.967 69.2381L233.69 63.0049L248.559 59.4892L249.632 59.2356L248.702 58.6177L247.422 57.7673L247.243 57.6488L247.034 57.6838L236.393 59.4643L236.369 59.4683L236.346 59.4745L215.661 64.9601L215.633 64.9674L215.607 64.9777L196.256 72.4928L196.256 72.4927L196.247 72.4963L176.152 80.7418L176.152 80.7416L176.14 80.7469L153.625 90.6756L153.159 90.8811L153.399 91.3298L153.756 91.9973Z" stroke="#FAF0AC" stroke-opacity="0.1"/>
<path d="M276.657 29.7014L276.733 29.1622L259.072 28.0573L243.463 27.4868L228.538 27.2241L213.216 28.6626L205.593 30.1053L204.94 30.9973L215.861 29.6731L230.736 28.9774L246.335 28.4861L276.657 29.7014Z" fill="#431F13"/>
<path d="M277.156 29.7414L277.09 30.2171L276.608 30.1978L246.304 28.9832L230.727 29.4739L215.876 30.1685L204.973 31.4904L203.879 31.6231L204.538 30.7218L205.191 29.8298L205.317 29.657L205.526 29.6175L213.149 28.1748L213.173 28.1703L213.197 28.168L228.518 26.7295L228.547 26.7269L228.575 26.7274L243.5 26.99L243.5 26.9899L243.51 26.9903L259.119 27.5608L259.119 27.5607L259.132 27.5615L276.793 28.6664L277.301 28.6982L277.231 29.2022L277.156 29.7414Z" stroke="#FAF0AC" stroke-opacity="0.1"/>
<path d="M333.077 -5.12993L333.334 -4.6499L317.143 2.48987L302.692 8.41921L288.777 13.8233L273.903 17.7681L266.251 19.0484L265.33 18.4369L276.036 15.9056L290.234 11.4183L305.042 6.48906L333.077 -5.12993Z" fill="#431F13"/>
<path d="M333.531 -5.33967L333.304 -5.76315L332.859 -5.57882L304.841 6.03323L290.055 10.9555L275.878 15.4359L265.191 17.9628L264.118 18.2165L265.048 18.8344L265.969 19.4459L266.147 19.5644L266.356 19.5294L274.008 18.249L274.032 18.245L274.056 18.2388L288.93 14.294L288.958 14.2867L288.984 14.2764L302.899 8.87233L302.899 8.87241L302.908 8.86878L317.359 2.93944L317.359 2.93959L317.371 2.93433L333.562 -4.20545L334.028 -4.41098L333.788 -4.85964L333.531 -5.33967Z" stroke="#FAF0AC" stroke-opacity="0.1"/>
</g>
</g>
<defs>
<filter id="filter0_i_41_108" x="17" y="16" width="257.384" height="95.8414" filterUnits="userSpaceOnUse" color-interpolation-filters="sRGB">
<feFlood flood-opacity="0" result="BackgroundImageFix"/>
<feBlend mode="normal" in="SourceGraphic" in2="BackgroundImageFix" result="shape"/>
<feColorMatrix in="SourceAlpha" type="matrix" values="0 0 0 0 0 0 0 0 0 0 0 0 0 0 0 0 0 0 127 0" result="hardAlpha"/>
<feOffset dy="5"/>
<feGaussianBlur stdDeviation="2.5"/>
<feComposite in2="hardAlpha" operator="arithmetic" k2="-1" k3="1"/>
<feColorMatrix type="matrix" values="0 0 0 0 0.283333 0 0 0 0 0.12352 0 0 0 0 0.0401389 0 0 0 0.35 0"/>
<feBlend mode="normal" in2="shape" result="effect1_innerShadow_41_108"/>
</filter>
<linearGradient id="paint0_linear_41_108" x1="146" y1="0" x2="146" y2="121.122" gradientUnits="userSpaceOnUse">
<stop stop-color="#B1591B"/>
<stop offset="1" stop-color="#79330B"/>
</linearGradient>
<linearGradient id="paint1_linear_41_108" x1="145.692" y1="16" x2="145.692" y2="106.841" gradientUnits="userSpaceOnUse">
<stop stop-color="#80350B"/>
<stop offset="1" stop-color="#934210"/>
</linearGradient>
<linearGradient id="paint2_linear_41_108" x1="146.281" y1="5.99988" x2="146.281" y2="115.01" gradientUnits="userSpaceOnUse">
<stop stop-color="#F38E47"/>
<stop offset="1" stop-color="#F38E47" stop-opacity="0.34"/>
</linearGradient>
<linearGradient id="paint3_linear_41_108" x1="146" y1="0.438965" x2="146" y2="121.561" gradientUnits="userSpaceOnUse">
<stop stop-color="#B1591B"/>
<stop offset="1" stop-color="#79330B"/>
</linearGradient>
</defs>
</svg>
