<svg width="18" height="18" viewBox="0 0 18 18" fill="none" xmlns="http://www.w3.org/2000/svg">
<path fill-rule="evenodd" clip-rule="evenodd" d="M5.25 6C3.59315 6 2.25 7.34315 2.25 9C2.25 10.6568 3.59315 12 5.25 12H6.75C8.40684 12 9.75 10.6568 9.75 9C9.75 8.58579 10.0858 8.25 10.5 8.25C10.9142 8.25 11.25 8.58579 11.25 9C11.25 11.4853 9.23526 13.5 6.75 13.5H5.25C2.76472 13.5 0.75 11.4853 0.75 9C0.75 6.51472 2.76472 4.5 5.25 4.5H5.625C6.03921 4.5 6.375 4.83579 6.375 5.25C6.375 5.66421 6.03921 6 5.625 6H5.25ZM11.25 6C9.59316 6 8.25 7.34315 8.25 9C8.25 9.41421 7.91421 9.75 7.5 9.75C7.08579 9.75 6.75 9.41421 6.75 9C6.75 6.51472 8.76474 4.5 11.25 4.5H12.75C15.2353 4.5 17.25 6.51472 17.25 9C17.25 11.4853 15.2353 13.5 12.75 13.5H12.375C11.9608 13.5 11.625 13.1642 11.625 12.75C11.625 12.3358 11.9608 12 12.375 12H12.75C14.4068 12 15.75 10.6568 15.75 9C15.75 7.34315 14.4068 6 12.75 6H11.25Z" fill="#06907B"/>
</svg>
