<svg width="18" height="18" viewBox="0 0 18 18" fill="none" xmlns="http://www.w3.org/2000/svg">
<path fill-rule="evenodd" clip-rule="evenodd" d="M7.3125 4.5C6.91114 4.5 6.52622 4.65944 6.24242 4.94324L6.06824 5.11742C5.50313 5.68253 4.73668 6 3.9375 6C3.13832 6 2.37187 5.68253 1.80676 5.11742L1.34467 4.65533C1.05178 4.36244 1.05178 3.88756 1.34467 3.59467C1.63756 3.30178 2.11244 3.30178 2.40533 3.59467L2.86742 4.05676C3.15122 4.34056 3.53614 4.5 3.9375 4.5C4.33886 4.5 4.72378 4.34056 5.00758 4.05676L5.18176 3.88258C5.74687 3.31747 6.51332 3 7.3125 3C8.11173 3 8.8781 3.31749 9.44323 3.88255L9.61738 4.05673C9.6174 4.05676 9.61743 4.05678 9.61745 4.0568C9.90132 4.3406 10.2862 4.5 10.6875 4.5C11.0888 4.5 11.4737 4.3406 11.7576 4.0568C11.7576 4.05678 11.7576 4.05676 11.7576 4.05673L11.9318 3.88255C12.4969 3.31749 13.2633 3 14.0625 3C14.8617 3 15.6281 3.31749 16.1932 3.88255L16.1933 3.88259L16.6553 4.34468C16.9482 4.63758 16.9482 5.11245 16.6553 5.40534C16.3624 5.69823 15.8875 5.69822 15.5947 5.40532L15.1326 4.94327C15.1326 4.94326 15.1326 4.94324 15.1326 4.94323C14.8487 4.65941 14.4638 4.5 14.0625 4.5C13.6612 4.5 13.2763 4.6594 12.9924 4.9432C12.9924 4.94321 12.9924 4.94322 12.9924 4.94323C12.9924 4.94324 12.9924 4.94326 12.9924 4.94327L12.8182 5.11745C12.2531 5.68251 11.4867 6 10.6875 6C9.88827 6 9.1219 5.68251 8.55677 5.11745L8.38262 4.94327C8.38261 4.94326 8.3826 4.94324 8.38258 4.94323C8.38257 4.94322 8.38256 4.94321 8.38255 4.9432C8.09868 4.6594 7.71383 4.5 7.3125 4.5ZM7.3125 9C6.91112 9 6.52622 9.15942 6.24245 9.44323L6.06827 9.61738C6.06825 9.61739 6.06824 9.61741 6.06822 9.61743C6.06821 9.61743 6.0682 9.61744 6.0682 9.61745C5.50307 10.1826 4.73663 10.5 3.9375 10.5C3.13836 10.5 2.3719 10.1826 1.80677 9.61741C1.80676 9.6174 1.80674 9.61739 1.80673 9.61738L1.34468 9.15534C1.05178 8.86245 1.05177 8.38758 1.34466 8.09468C1.63755 7.80178 2.11242 7.80177 2.40532 8.09466L2.86741 8.55674L2.86745 8.55677C3.15122 8.84058 3.53612 9 3.9375 9C4.33888 9 4.72378 8.84058 5.00755 8.55677L5.18173 8.38262C5.18175 8.38261 5.18176 8.38259 5.18178 8.38257C5.18179 8.38257 5.1818 8.38256 5.1818 8.38255C5.74693 7.8174 6.51337 7.5 7.3125 7.5C8.11171 7.5 8.8781 7.81744 9.44326 8.38259L9.61741 8.55675C9.90125 8.84059 10.2861 9 10.6875 9C11.0889 9 11.4737 8.84059 11.7576 8.55675L11.9317 8.38259C12.4969 7.81744 13.2633 7.5 14.0625 7.5C14.8617 7.5 15.6281 7.81744 16.1933 8.38259L16.6553 8.84467C16.9482 9.13756 16.9482 9.61244 16.6553 9.90533C16.3624 10.1982 15.8876 10.1982 15.5947 9.90533L15.1326 9.44325C14.8487 9.15941 14.4639 9 14.0625 9C13.6611 9 13.2763 9.15941 12.9924 9.44325L12.8183 9.61741C12.2531 10.1826 11.4867 10.5 10.6875 10.5C9.88829 10.5 9.1219 10.1826 8.55675 9.61741L8.38259 9.44325C8.09875 9.15941 7.71389 9 7.3125 9ZM7.3125 13.5C6.91112 13.5 6.52622 13.6594 6.24245 13.9432L6.06827 14.1174C6.06825 14.1174 6.06824 14.1174 6.06822 14.1174C6.06821 14.1174 6.0682 14.1174 6.0682 14.1175C5.50307 14.6826 4.73663 15 3.9375 15C3.13836 15 2.3719 14.6826 1.80677 14.1174C1.80676 14.1174 1.80674 14.1174 1.80673 14.1174L1.34468 13.6553C1.05178 13.3625 1.05177 12.8876 1.34466 12.5947C1.63755 12.3018 2.11242 12.3018 2.40532 12.5947L2.86741 13.0567L2.86745 13.0568C3.15122 13.3406 3.53612 13.5 3.9375 13.5C4.33888 13.5 4.72378 13.3406 5.00755 13.0568L5.18173 12.8826C5.18175 12.8826 5.18176 12.8826 5.18178 12.8826C5.18179 12.8826 5.1818 12.8826 5.1818 12.8826C5.74693 12.3174 6.51337 12 7.3125 12C8.11171 12 8.8781 12.3174 9.44326 12.8826L9.61741 13.0567C9.90125 13.3406 10.2861 13.5 10.6875 13.5C11.0889 13.5 11.4737 13.3406 11.7576 13.0567L11.9317 12.8826C12.4969 12.3174 13.2633 12 14.0625 12C14.8617 12 15.6281 12.3174 16.1933 12.8826L16.6553 13.3447C16.9482 13.6376 16.9482 14.1124 16.6553 14.4053C16.3624 14.6982 15.8876 14.6982 15.5947 14.4053L15.1326 13.9433C14.8487 13.6594 14.4639 13.5 14.0625 13.5C13.6611 13.5 13.2763 13.6594 12.9924 13.9433L12.8183 14.1174C12.2531 14.6826 11.4867 15 10.6875 15C9.88829 15 9.1219 14.6826 8.55675 14.1174L8.38259 13.9433C8.09875 13.6594 7.71389 13.5 7.3125 13.5Z" fill="#224D75"/>
</svg>
